<svg xmlns="http://www.w3.org/2000/svg" xmlns:xlink="http://www.w3.org/1999/xlink" version="1.1" x="0px" y="0px" viewBox="0 0 100 100" enable-background="new 0 0 100 100" xml:space="preserve"><rect x="35" y="19.939" fill="#E32119" width="30" height="60"></rect><rect x="65" y="19.939" fill="#007A45" width="30" height="60"></rect><rect x="5" y="19.939" width="30" height="60"></rect><g><rect x="5" y="21.181" fill="none" width="90" height="57.639"></rect><rect x="5" y="21.181" fill="none" width="90" height="57.639"></rect><rect x="5" y="21.181" fill="none" width="90" height="57.639"></rect><path fill-rule="evenodd" clip-rule="evenodd" fill="#FFFFFF" d="M45.521,41.316h0.983c0.111-0.36-0.104-0.674-0.467-0.966   l-0.008-0.237l-0.136,0.009l-0.009,0.245C45.509,40.694,45.354,41.013,45.521,41.316"></path><path fill-rule="evenodd" clip-rule="evenodd" fill="#FFFFFF" d="M52.712,41.316h0.983c0.11-0.36-0.103-0.674-0.467-0.966   l-0.008-0.237l-0.137,0.009l-0.009,0.245C52.7,40.694,52.545,41.013,52.712,41.316"></path><rect x="52.89" y="43.791" fill-rule="evenodd" clip-rule="evenodd" fill="#E32119" width="0.678" height="0.068"></rect><path fill-rule="evenodd" clip-rule="evenodd" fill="#FFFFFF" d="M45.554,41.485v2.475h0.941v-2.475H45.554z M45.749,41.571h0.609   v0.076h-0.609V41.571z M46.351,41.757v1.965h-0.128v-1.965H46.351z M46.062,41.74v2.024h-0.094V41.74H46.062z M45.724,41.74h0.102   v1.99h-0.102V41.74z M46.376,43.859h-0.678v-0.068h0.678V43.859z"></path><path fill-rule="evenodd" clip-rule="evenodd" fill="#FFFFFF" d="M52.746,41.485v2.475h0.939v-2.475H52.746z M53.017,43.73h-0.102   v-1.99h0.102V43.73z M53.254,43.765h-0.092V41.74h0.092V43.765z M53.543,43.722h-0.128v-1.965h0.128V43.722z M53.551,41.647h-0.61   v-0.076h0.61V41.647z"></path><path fill-rule="evenodd" clip-rule="evenodd" fill="#FFFFFF" d="M47.545,43.824h4.514c-0.462-0.249-1.177-0.384-2.194-0.384   C48.915,43.468,48.105,43.575,47.545,43.824"></path><path fill-rule="evenodd" clip-rule="evenodd" fill="#FFFFFF" d="M49.885,40.08l0.004-0.349c0.372-0.224,0.313-0.483-0.174-0.902   l-0.09-0.128l-0.083,0.124c-0.514,0.521-0.461,0.721-0.125,0.941v0.334c-1.641,0.73-2.55,1.586-1.415,2.788v0.499   c1.108-0.229,2.192-0.243,3.245,0v-0.541C52.291,41.646,51.236,40.835,49.885,40.08z M50.312,42.508l-0.197-0.04   c0.448-0.77,0.193-1.486-0.382-2.271C50.596,40.997,51.038,41.752,50.312,42.508z M49.743,40.525   c0.441,0.738,0.471,1.388,0.006,1.933h-0.111C49.913,41.846,49.914,41.197,49.743,40.525z M49.53,42.458h-0.111   c-0.466-0.545-0.436-1.194,0.005-1.933C49.254,41.197,49.255,41.846,49.53,42.458z M49.436,40.197   c-0.575,0.784-0.783,1.563-0.334,2.333l-0.245,0.011C48.131,41.786,48.571,40.998,49.436,40.197z M48.84,40.531   c-0.682,0.606-0.904,1.296-0.457,2.11h-0.194C47.346,41.867,47.897,41.187,48.84,40.531z M48.602,43.191l-0.342,0.075l0.005-0.385   l0.342-0.032L48.602,43.191z M49.126,43.145l-0.351,0.023V42.83l0.351-0.042V43.145z M49.609,43.126h-0.338v-0.355h0.338V43.126z    M50.106,43.14h-0.361v-0.394h0.361V43.14z M50.57,43.155l-0.318-0.029v-0.342l0.318,0.057V43.155z M50.715,43.178l0.006-0.305   l0.299,0.056l0.006,0.306L50.715,43.178z M51.138,42.846c-0.999-0.235-2.004-0.225-3.014,0l-0.053-0.087   c1.116-0.287,2.156-0.312,3.094,0.015L51.138,42.846z M50.98,42.642l-0.2-0.048c0.447-0.814,0.229-1.456-0.453-2.062   C51.27,41.187,51.821,41.867,50.98,42.642z"></path><path fill-rule="evenodd" clip-rule="evenodd" fill="#FFFFFF" d="M50.261,57.455l0.248-0.008c-0.027,0.252-0.079,0.484-0.158,0.693   l-0.232-0.016C50.2,57.906,50.252,57.685,50.261,57.455"></path><path fill-rule="evenodd" clip-rule="evenodd" fill="#FFFFFF" d="M56.979,60.291c0.783-0.357,1.162-0.715,1.356-1.073   c-0.931,0.306-2.023,0.342-3.308,0.059l-2.365-1.48c-1.785,0.688-3.77,0.611-5.608,0l-2.483,1.721   c-1.118-0.038-2.49,0.695-3.256-0.181c0.228,0.631,0.672,1.047,1.331,1.246c-0.675,0.266-1.688,0.149-2.025,0.799   c0.874-0.06,2.026,0.058,2.62-0.192l1.34-0.308c1.016-0.214,1.648,0.333,2.944,0.345c0.658-0.202,0.736-0.536,0.295-1.091   c1.402,0.329,2.827,0.331,4.269,0.031c-0.566,0.396-0.728,0.754,0,1.03c0.87,0.201,2.689-0.952,4.447-0.097   c1.06,0.188,1.98,0.143,2.806-0.062C58.775,60.391,57.119,60.584,56.979,60.291z M52.593,58.469c0.011,0.298-0.01,0.557-0.06,0.775   c-0.104,0.129-0.131,0.053-0.174,0c0.053-0.254-0.007-0.402-0.015-0.655C52.388,58.375,52.549,58.362,52.593,58.469z    M52.031,58.694c0,0.079-0.069,0.143-0.154,0.143c-0.084,0-0.154-0.063-0.154-0.143s0.07-0.144,0.154-0.144   C51.962,58.551,52.031,58.615,52.031,58.694z M51.585,58.355c-0.068-0.155,0.066-0.19,0.158-0.099   c0.061,0.105,0.098,0.206-0.023,0.332c-0.133,0.032-0.238,0.046-0.15-0.083C51.645,58.456,51.649,58.405,51.585,58.355z    M51.321,58.678c0.084,0,0.152,0.065,0.152,0.145c0,0.078-0.068,0.143-0.152,0.143c-0.086,0-0.154-0.064-0.154-0.143   C51.167,58.743,51.235,58.678,51.321,58.678z M50.334,58.597c0.085,0,0.153,0.063,0.153,0.143s-0.068,0.144-0.153,0.144   s-0.154-0.064-0.154-0.144S50.249,58.597,50.334,58.597z M49.868,58.866c-0.067-0.155,0.067-0.189,0.158-0.097   c0.061,0.105,0.098,0.206-0.022,0.331c-0.134,0.033-0.239,0.045-0.151-0.083C49.929,58.968,49.933,58.917,49.868,58.866z    M49.555,58.8c0,0.078-0.069,0.143-0.154,0.143c-0.066,0-0.111-0.043-0.133-0.096c-0.022,0.053-0.068,0.096-0.133,0.096   c-0.085,0-0.154-0.064-0.154-0.143c0-0.079,0.069-0.144,0.154-0.144c0.065,0,0.111,0.043,0.133,0.097   c0.022-0.054,0.067-0.097,0.133-0.097C49.485,58.656,49.555,58.721,49.555,58.8z M48.663,58.514   c0.166-0.127,0.332-0.157,0.497-0.144c0.171-0.005,0.148,0.06,0.098,0.136c-0.169-0.021-0.348-0.01-0.557,0.128   C48.628,58.624,48.615,58.583,48.663,58.514z M48.045,58.491c0.085,0,0.154,0.064,0.154,0.143c0,0.079-0.069,0.143-0.154,0.143   s-0.154-0.063-0.154-0.143C47.891,58.556,47.96,58.491,48.045,58.491z M48.295,58.576c0.06-0.127,0.15-0.163,0.202-0.041   c-0.053,0.209-0.08,0.44-0.255,0.648c-0.267,0.231-0.556,0.248-0.641-0.083c-0.037-0.208,0.015-0.366,0.158-0.475   C47.535,59.295,48.228,59.394,48.295,58.576z M45.083,59.556c0.211-0.111,0.432-0.114,0.659-0.068   c0.509,0.221,1.061,0.414,1.643,0.587c-0.685,0.099-1.354,0.18-2.003,0.234C44.684,60.174,44.504,59.938,45.083,59.556z    M47.364,61.063c-0.651,0.012-1.031-0.339-1.589-0.471c0.562-0.232,0.738-0.098,1.147-0.31c0.221-0.068,0.441-0.088,0.662,0   C48.2,60.606,48.045,61.064,47.364,61.063z M49.604,59.756c-0.558,0.148-1.006,0.098-1.482-0.115   c-0.351,0.176-0.695,0.159-0.844-0.269c-0.006-0.427,0.085-0.77,0.24-1.054c0.129-0.092,0.197-0.053,0.205,0.117   c-0.108,0.154-0.177,0.399-0.205,0.736c0.028,0.487,0.34,0.395,0.73,0.139c0.371,0.41,0.897,0.391,1.529,0.076   c0.264,0.223,0.79,0.222,0.602-0.268c0.009-0.155,0.121-0.134,0.155-0.131C50.743,59.574,50.502,59.874,49.604,59.756z    M52.086,59.254c-0.171,0.192-0.377,0.287-0.667,0.2c-0.264,0.287-0.509,0.429-0.692,0.053l-0.083-0.76   c0.027-0.317,0.107-0.229,0.196-0.084c-0.101,0.918,0.153,0.996,0.478,0.652c-0.3-0.212,0.326-0.356,0.208-0.005   c0.117,0.05,0.236,0.016,0.354-0.076C51.5,58.935,52.305,58.688,52.086,59.254z M52.386,61.108   c-0.68,0.001-0.834-0.458-0.221-0.781c0.221-0.088,0.442-0.067,0.662,0c0.41,0.213,0.587,0.077,1.149,0.309   C53.418,60.769,53.038,61.118,52.386,61.108z M54.445,60.15c-0.652,0.012-1.327-0.001-2.017-0.029   c0.562-0.231,1.092-0.479,1.574-0.75c0.221-0.069,0.442-0.089,0.662,0C55.281,59.693,55.126,59.946,54.445,60.15z"></path><path fill-rule="evenodd" clip-rule="evenodd" fill="#FFFFFF" d="M39.801,42.865c0.381,0.634,1.337,1.176,1.961,1.9   c0.312,0.267-0.179,0.776-0.245,1.664c0.011-0.487-0.2-0.822-0.513-1.089c-0.663-0.474-1.509-1.153-1.802-1.726   c0.235,0.122,0.471,0.201,0.707,0.183C39.805,43.487,39.783,43.176,39.801,42.865"></path><path fill-rule="evenodd" clip-rule="evenodd" fill="#FFFFFF" d="M40.065,58.346c0.708,0.275,1.43,0.459,2.164,0.551   c0.3-0.038,0.617,0.123,0.944,0.374C41.597,59.247,40.594,58.921,40.065,58.346"></path><path fill-rule="evenodd" clip-rule="evenodd" fill="#FFFFFF" d="M41.295,58.061c0.32-0.224,0.594-0.196,0.837,0   c0.025,0.089-0.079,0.177-0.316,0.266c-0.803-0.093-1.196-0.288-1.475-0.511C40.658,57.947,40.977,58.089,41.295,58.061"></path><path fill-rule="evenodd" clip-rule="evenodd" fill="#FFFFFF" d="M41.925,58.503c0.38-0.361,0.712-0.295,0.954-0.098   c0.062,0.124-0.146,0.295-0.453,0.314c-0.804-0.093-1.728-0.337-2.006-0.561C40.737,58.291,41.606,58.532,41.925,58.503"></path><path fill-rule="evenodd" clip-rule="evenodd" fill="#FFFFFF" d="M42.289,57.264c0.18,0.062,0.426,0.141,0.501,0.334   c0.161,0.191,0.135,0.381,0.138,0.571c-0.159-0.014-0.31-0.075-0.442-0.246C42.489,57.703,42.391,57.483,42.289,57.264"></path><path fill-rule="evenodd" clip-rule="evenodd" fill="#FFFFFF" d="M43.046,57.579c0.181,0.062,0.426,0.14,0.502,0.333   c0.16,0.191,0.134,0.382,0.138,0.571c-0.158-0.013-0.311-0.075-0.443-0.246C43.246,58.018,43.147,57.798,43.046,57.579"></path><path fill-rule="evenodd" clip-rule="evenodd" fill="#FFFFFF" d="M43.833,57.854c0.181,0.062,0.426,0.141,0.502,0.334   c0.16,0.189,0.134,0.38,0.137,0.57c-0.158-0.013-0.31-0.075-0.442-0.246C44.033,58.294,43.936,58.074,43.833,57.854"></path><path fill-rule="evenodd" clip-rule="evenodd" fill="#FFFFFF" d="M44.551,58.109c0.181,0.062,0.426,0.141,0.501,0.335   c0.161,0.189,0.136,0.38,0.139,0.57c-0.159-0.014-0.311-0.076-0.442-0.245C44.752,58.55,44.652,58.329,44.551,58.109"></path><path fill-rule="evenodd" clip-rule="evenodd" fill="#FFFFFF" d="M42.64,58.852c0.168,0.091,0.393,0.218,0.586,0.142   c0.248-0.013,0.37-0.16,0.512-0.288c-0.118-0.107-0.266-0.176-0.48-0.157C43.098,58.7,42.869,58.777,42.64,58.852"></path><path fill-rule="evenodd" clip-rule="evenodd" fill="#FFFFFF" d="M43.298,59.117c0.168,0.091,0.393,0.217,0.586,0.141   c0.249-0.011,0.371-0.16,0.513-0.287c-0.117-0.107-0.267-0.176-0.481-0.157C43.757,58.966,43.527,59.042,43.298,59.117"></path><path fill-rule="evenodd" clip-rule="evenodd" fill="#FFFFFF" d="M41.144,42.938c-0.054,0.138-0.122,0.324-0.243,0.373   c-0.126,0.115-0.235,0.085-0.347,0.078c0.021-0.123,0.072-0.237,0.184-0.332C40.866,43.072,41.005,43.007,41.144,42.938"></path><path fill-rule="evenodd" clip-rule="evenodd" fill="#FFFFFF" d="M41.977,43.458c-0.087,0.118-0.202,0.28-0.331,0.295   c-0.152,0.078-0.25,0.021-0.355-0.015c0.053-0.113,0.131-0.209,0.265-0.271C41.675,43.514,41.825,43.487,41.977,43.458"></path><path fill-rule="evenodd" clip-rule="evenodd" fill="#FFFFFF" d="M41.977,43.458c-0.087,0.118-0.202,0.28-0.331,0.295   c-0.152,0.078-0.25,0.021-0.355-0.015c0.053-0.113,0.131-0.209,0.265-0.271C41.675,43.514,41.825,43.487,41.977,43.458"></path><path fill-rule="evenodd" clip-rule="evenodd" fill="#FFFFFF" d="M42.401,43.108c-0.107,0.101-0.252,0.238-0.381,0.229   c-0.164,0.048-0.249-0.026-0.347-0.083c0.074-0.1,0.169-0.18,0.312-0.216C42.095,43.107,42.248,43.109,42.401,43.108"></path><path fill-rule="evenodd" clip-rule="evenodd" fill="#FFFFFF" d="M42.7,42.658c-0.108,0.1-0.252,0.237-0.382,0.229   c-0.164,0.047-0.25-0.027-0.347-0.083c0.074-0.101,0.169-0.181,0.312-0.217C42.393,42.656,42.545,42.658,42.7,42.658"></path><path fill-rule="evenodd" clip-rule="evenodd" fill="#FFFFFF" d="M43.027,42.103c-0.089,0.117-0.207,0.278-0.336,0.291   c-0.153,0.076-0.25,0.017-0.355-0.021c0.055-0.112,0.135-0.208,0.27-0.268C42.725,42.155,42.876,42.13,43.027,42.103"></path><path fill-rule="evenodd" clip-rule="evenodd" fill="#FFFFFF" d="M43.368,41.644c-0.09,0.117-0.207,0.278-0.337,0.291   c-0.153,0.075-0.25,0.017-0.355-0.021c0.056-0.112,0.136-0.208,0.27-0.268C43.065,41.695,43.216,41.671,43.368,41.644"></path><path fill-rule="evenodd" clip-rule="evenodd" fill="#FFFFFF" d="M43.674,41.219c-0.089,0.116-0.207,0.277-0.337,0.291   c-0.152,0.075-0.249,0.016-0.355-0.021c0.056-0.112,0.136-0.207,0.271-0.267C43.37,41.271,43.521,41.245,43.674,41.219"></path><path fill-rule="evenodd" clip-rule="evenodd" fill="#FFFFFF" d="M41.447,42.423c-0.062,0.133-0.144,0.315-0.267,0.355   c-0.135,0.106-0.241,0.069-0.353,0.055c0.03-0.121,0.089-0.231,0.207-0.318C41.162,42.538,41.305,42.482,41.447,42.423"></path><path fill-rule="evenodd" clip-rule="evenodd" fill="#FFFFFF" d="M41.813,41.922c-0.062,0.133-0.145,0.314-0.268,0.354   c-0.134,0.106-0.24,0.069-0.353,0.056c0.031-0.122,0.089-0.232,0.208-0.318C41.528,42.036,41.671,41.979,41.813,41.922"></path><path fill-rule="evenodd" clip-rule="evenodd" fill="#FFFFFF" d="M42.226,41.454c-0.076,0.126-0.177,0.298-0.304,0.325   c-0.146,0.091-0.247,0.043-0.356,0.016c0.044-0.117,0.113-0.221,0.24-0.294C41.93,41.538,42.077,41.496,42.226,41.454"></path><path fill-rule="evenodd" clip-rule="evenodd" fill="#FFFFFF" d="M42.6,40.961c-0.076,0.126-0.177,0.298-0.304,0.324   c-0.146,0.092-0.246,0.043-0.355,0.017c0.043-0.117,0.112-0.221,0.239-0.294C42.305,41.044,42.451,41.004,42.6,40.961"></path><path fill-rule="evenodd" clip-rule="evenodd" fill="#FFFFFF" d="M40.491,42.556c-0.072,0.105-0.173,0.243-0.142,0.372   c-0.016,0.161,0.066,0.246,0.134,0.344c0.079-0.07,0.136-0.164,0.144-0.304C40.546,42.858,40.518,42.708,40.491,42.556"></path><path fill-rule="evenodd" clip-rule="evenodd" fill="#FFFFFF" d="M40.738,41.918c-0.072,0.104-0.173,0.243-0.143,0.372   c-0.015,0.161,0.067,0.247,0.135,0.344c0.079-0.07,0.135-0.164,0.144-0.304C40.792,42.222,40.764,42.07,40.738,41.918"></path><path fill-rule="evenodd" clip-rule="evenodd" fill="#FFFFFF" d="M41.069,41.45c-0.08,0.115-0.192,0.271-0.158,0.411   c-0.017,0.179,0.075,0.273,0.149,0.381c0.088-0.078,0.15-0.181,0.159-0.336C41.129,41.786,41.099,41.619,41.069,41.45"></path><path fill-rule="evenodd" clip-rule="evenodd" fill="#FFFFFF" d="M41.587,42.642c-0.071,0.072-0.171,0.168-0.141,0.257   c-0.016,0.11,0.067,0.17,0.133,0.237c0.077-0.05,0.135-0.113,0.142-0.21C41.641,42.851,41.613,42.746,41.587,42.642"></path><path fill-rule="evenodd" clip-rule="evenodd" fill="#FFFFFF" d="M41.264,43.049c-0.071,0.089-0.171,0.205-0.141,0.314   c-0.016,0.136,0.066,0.207,0.133,0.289c0.078-0.06,0.135-0.138,0.143-0.256C41.317,43.305,41.29,43.177,41.264,43.049"></path><path fill-rule="evenodd" clip-rule="evenodd" fill="#FFFFFF" d="M41.367,40.923c-0.081,0.125-0.192,0.291-0.158,0.443   c-0.018,0.191,0.074,0.293,0.148,0.408c0.088-0.084,0.15-0.194,0.159-0.36C41.427,41.284,41.396,41.104,41.367,40.923"></path><path fill-rule="evenodd" clip-rule="evenodd" fill="#FFFFFF" d="M41.907,40.401c-0.093,0.104-0.22,0.241-0.237,0.407   c-0.066,0.191-0.028,0.322-0.008,0.463c0.088-0.061,0.164-0.155,0.217-0.322C41.85,40.789,41.878,40.596,41.907,40.401"></path><path fill-rule="evenodd" clip-rule="evenodd" fill="#FFFFFF" d="M44.089,59.315c0.131,0.07,0.308,0.17,0.458,0.11   c0.194-0.009,0.289-0.125,0.4-0.225c-0.092-0.084-0.208-0.137-0.376-0.123C44.446,59.198,44.269,59.258,44.089,59.315"></path><path fill-rule="evenodd" clip-rule="evenodd" fill="#FFFFFF" d="M42.688,57.028c0.117,0.093,0.274,0.22,0.433,0.187   c0.193,0.024,0.307-0.074,0.433-0.153c-0.076-0.098-0.182-0.171-0.35-0.185C43.062,56.973,42.876,57.002,42.688,57.028    M43.19,57.384c0.117,0.092,0.273,0.22,0.433,0.185c0.193,0.025,0.307-0.072,0.433-0.152c-0.076-0.099-0.181-0.17-0.35-0.185   C43.563,57.327,43.377,57.355,43.19,57.384 M43.868,57.708c0.118,0.092,0.274,0.22,0.434,0.186   c0.193,0.024,0.307-0.074,0.433-0.152c-0.076-0.099-0.182-0.171-0.351-0.185C44.242,57.651,44.056,57.681,43.868,57.708    M44.498,58.003c0.118,0.092,0.274,0.22,0.433,0.186c0.193,0.025,0.308-0.073,0.434-0.153c-0.077-0.098-0.182-0.17-0.35-0.185   C44.872,57.947,44.687,57.977,44.498,58.003 M44.939,57.256c0.132,0.07,0.312,0.162,0.347,0.32c0.1,0.167,0.057,0.311,0.035,0.457   c-0.121-0.03-0.229-0.096-0.311-0.244C45.041,57.619,44.991,57.438,44.939,57.256 M44.414,56.801   c0.132,0.07,0.312,0.161,0.347,0.32c0.1,0.166,0.057,0.31,0.035,0.457c-0.12-0.029-0.229-0.097-0.311-0.245   C44.516,57.165,44.466,56.982,44.414,56.801 M43.315,55.998c0.132,0.069,0.312,0.161,0.345,0.319   c0.102,0.167,0.057,0.311,0.037,0.457c-0.122-0.029-0.23-0.096-0.312-0.243C43.416,56.361,43.367,56.18,43.315,55.998    M43.843,56.312c0.131,0.069,0.312,0.161,0.346,0.319c0.1,0.167,0.057,0.311,0.036,0.458c-0.121-0.03-0.23-0.097-0.312-0.244   C43.943,56.677,43.894,56.494,43.843,56.312"></path><path fill-rule="evenodd" clip-rule="evenodd" fill="#FFFFFF" d="M42.224,40.255c0.131,0.22,0.096,0.441-0.11,0.665   C41.943,40.679,42.005,40.459,42.224,40.255"></path><path fill-rule="evenodd" clip-rule="evenodd" fill="#FFFFFF" d="M42.817,40.189c0.001,0.257-0.144,0.429-0.434,0.516   C42.36,40.411,42.525,40.254,42.817,40.189"></path><path fill-rule="evenodd" clip-rule="evenodd" fill="#FFFFFF" d="M43.117,40.682c0.112,0.231,0.058,0.449-0.166,0.653   C42.803,41.08,42.882,40.866,43.117,40.682"></path><path fill-rule="evenodd" clip-rule="evenodd" fill="#FFFFFF" d="M42.734,41.158c0.113,0.231,0.058,0.448-0.166,0.652   C42.42,41.557,42.499,41.344,42.734,41.158"></path><path fill-rule="evenodd" clip-rule="evenodd" fill="#FFFFFF" d="M42.369,41.66c0.112,0.23,0.057,0.448-0.167,0.652   C42.054,42.059,42.133,41.845,42.369,41.66"></path><path fill-rule="evenodd" clip-rule="evenodd" fill="#FFFFFF" d="M41.987,42.103c0.112,0.23,0.056,0.448-0.168,0.652   C41.672,42.5,41.752,42.287,41.987,42.103"></path><path fill-rule="evenodd" clip-rule="evenodd" fill="#FFFFFF" d="M39.018,44.929l0.169,0.051c0.047-1.146,0.243-2.259,0.493-3.359   C39.39,42.523,39.074,43.351,39.018,44.929"></path><path fill-rule="evenodd" clip-rule="evenodd" fill="#FFFFFF" d="M41.892,44.784c0.207-0.368,0.499-0.686,0.748-1.029   c-0.403,0.203-0.753,0.443-0.952,0.782L41.892,44.784z"></path><path fill-rule="evenodd" clip-rule="evenodd" fill="#FFFFFF" d="M41.491,44.231c0.535-0.621,1.144-1.053,1.77-1.446   c-0.604,0.464-1.175,0.958-1.642,1.557L41.491,44.231z"></path><path fill-rule="evenodd" clip-rule="evenodd" fill="#FFFFFF" d="M43.32,40.991c0.571-0.705,1.157-1.306,1.752-1.828   c-0.652,0.379-1.261,0.847-1.777,1.522L43.32,40.991z"></path><path fill-rule="evenodd" clip-rule="evenodd" fill="#FFFFFF" d="M42.751,40.109c0.808-0.56,1.394-1.052,1.988-1.498   c-0.704,0.27-1.645,0.957-2.262,1.54L42.751,40.109z"></path><rect x="42.362" y="39.793" transform="matrix(-0.7306 0.6828 -0.6828 -0.7306 102.9967 39.0252)" fill="#FFFFFF" width="2.876" height="0.073"></rect><path fill="#FFFFFF" d="M42.215,39.897c0.107-0.263,0.239-0.5,0.395-0.714c0.156-0.214,0.334-0.406,0.534-0.576l0.048,0.057   c-0.195,0.166-0.369,0.354-0.521,0.562c-0.152,0.21-0.282,0.442-0.388,0.699L42.215,39.897z"></path><path fill="#FFFFFF" d="M41.339,40.935c0.105-0.266,0.218-0.515,0.336-0.751c0.119-0.236,0.243-0.457,0.372-0.666l0.063,0.038   c-0.129,0.209-0.252,0.428-0.369,0.661c-0.117,0.232-0.229,0.48-0.334,0.745L41.339,40.935z"></path><rect x="42.195" y="39.249" transform="matrix(-0.7663 0.6425 -0.6425 -0.7663 101.6522 41.5936)" fill="#FFFFFF" width="2.131" height="0.074"></rect><rect x="43.483" y="40.644" transform="matrix(-0.6313 0.7755 -0.7755 -0.6313 103.4939 32.1595)" fill="#FFFFFF" width="1.239" height="0.074"></rect><rect x="42.528" y="42.128" transform="matrix(-0.7105 0.7037 -0.7037 -0.7105 103.5307 41.7339)" fill="#FFFFFF" width="1.304" height="0.074"></rect><rect x="42.164" y="42.527" transform="matrix(-0.7423 0.6701 -0.6701 -0.7423 103.4204 45.354)" fill="#FFFFFF" width="1.65" height="0.074"></rect><path fill-rule="evenodd" clip-rule="evenodd" fill="#FFFFFF" d="M40.14,42.998l0.264-0.654c0.025-0.713,0.367-1.442,0.825-2.178   C40.518,41.03,40.056,41.952,40.14,42.998"></path><rect x="37.905" y="43.667" transform="matrix(-0.1428 0.9898 -0.9898 -0.1428 87.7624 11.3995)" fill="#FFFFFF" width="2.079" height="0.074"></rect><rect x="37.645" y="44.122" transform="matrix(-0.1552 0.9879 -0.9879 -0.1552 88.2185 12.8736)" fill="#FFFFFF" width="1.92" height="0.074"></rect><path fill="#FFFFFF" d="M38.257,45.585c-0.011-0.311-0.009-0.623,0.009-0.938c0.017-0.315,0.048-0.634,0.094-0.956l0.073,0.01   c-0.045,0.318-0.076,0.636-0.093,0.949c-0.018,0.315-0.021,0.625-0.009,0.933L38.257,45.585z"></path><rect x="45.402" y="58.116" transform="matrix(0.9497 0.3131 -0.3131 0.9497 20.5129 -11.4117)" fill="#FFFFFF" width="0.761" height="0.073"></rect><rect x="45.189" y="58.512" transform="matrix(0.9667 0.2559 -0.2559 0.9667 16.5002 -9.6965)" fill="#FFFFFF" width="0.633" height="0.074"></rect><rect x="45.724" y="58.006" transform="matrix(0.9672 0.2542 -0.2542 0.9672 16.2677 -9.8017)" fill="#FFFFFF" width="0.668" height="0.074"></rect><rect x="45.318" y="58.329" transform="matrix(0.9709 0.2397 -0.2397 0.9709 15.3179 -9.2366)" fill="#FFFFFF" width="0.64" height="0.073"></rect><path fill-rule="evenodd" clip-rule="evenodd" fill="#FFFFFF" d="M60.199,55.262c-0.392,0.055-0.907-0.081-1.355-0.278   l-2.138-1.134c-0.412-0.229-0.776-0.29-1.072-0.109c-0.307,0.406-0.853,0.748-1.279,1.121c0.488-0.081,1.062,0.099,1.695,0.455   l2.038,1.113c0.44,0.205,0.767,0.222,0.973,0.048L60.199,55.262z"></path><path fill-rule="evenodd" clip-rule="evenodd" fill="#FFFFFF" d="M61.471,48.187c-0.305,0.263-0.752,0.433-1.34,0.513   c-0.64,0.09-1.28,0.18-1.921,0.27c-0.387,0.048-0.523,0.277-0.548,0.588c0.06,0.44-0.001,0.819-0.145,1.159   c0.21-0.346,0.738-0.44,1.332-0.483c0.468-0.052,1.094-0.103,1.561-0.154c0.608-0.098,0.82-0.166,0.84-0.386   C61.193,49.061,61.325,48.616,61.471,48.187"></path><path fill-rule="evenodd" clip-rule="evenodd" fill="#FFFFFF" d="M59.85,42.683c-0.381,0.634-1.338,1.176-1.961,1.9   c-0.312,0.268,0.179,0.776,0.244,1.664c-0.01-0.488,0.201-0.823,0.514-1.089c0.663-0.475,1.509-1.153,1.802-1.726   c-0.235,0.122-0.471,0.201-0.706,0.183C59.845,43.305,59.868,42.993,59.85,42.683"></path><path fill-rule="evenodd" clip-rule="evenodd" fill="#FFFFFF" d="M59.584,58.163c-0.707,0.275-1.429,0.459-2.163,0.551   c-0.299-0.038-0.618,0.123-0.943,0.374C58.055,59.063,59.058,58.738,59.584,58.163"></path><path fill-rule="evenodd" clip-rule="evenodd" fill="#FFFFFF" d="M58.7,57.287c-0.146-0.085-0.289-0.104-0.434-0.059   c-0.046,0.096-0.091,0.19-0.138,0.285c0.111,0.007,0.224,0.014,0.336,0.02C58.572,57.481,58.644,57.393,58.7,57.287"></path><path fill-rule="evenodd" clip-rule="evenodd" fill="#FFFFFF" d="M57.136,56.182c-0.153-0.09-0.309-0.111-0.463-0.062   c-0.05,0.102-0.098,0.203-0.147,0.305c0.12,0.007,0.238,0.014,0.357,0.021C56.999,56.389,57.076,56.294,57.136,56.182"></path><path fill-rule="evenodd" clip-rule="evenodd" fill="#FFFFFF" d="M55.768,55.365c-0.153-0.091-0.308-0.112-0.462-0.063   c-0.049,0.102-0.098,0.204-0.147,0.305c0.12,0.008,0.239,0.015,0.359,0.022C55.631,55.571,55.709,55.477,55.768,55.365"></path><path fill-rule="evenodd" clip-rule="evenodd" fill="#FFFFFF" d="M60.775,56.059c-0.694,0.445-1.407,0.816-2.153,1.052   c0.1,0.01,0.202,0.028,0.304,0.118c0.054,0.108,0.013,0.216-0.039,0.324C59.574,57.173,60.191,56.647,60.775,56.059"></path><path fill-rule="evenodd" clip-rule="evenodd" fill="#FFFFFF" d="M58.355,57.877c-0.321-0.223-0.594-0.196-0.837,0   c-0.026,0.089,0.079,0.178,0.314,0.266c0.806-0.092,1.198-0.287,1.477-0.511C58.991,57.764,58.674,57.906,58.355,57.877"></path><path fill-rule="evenodd" clip-rule="evenodd" fill="#FFFFFF" d="M57.726,58.32c-0.379-0.36-0.712-0.295-0.954-0.099   c-0.062,0.125,0.147,0.296,0.453,0.314c0.804-0.092,1.728-0.336,2.007-0.56C58.913,58.108,58.045,58.349,57.726,58.32"></path><path fill-rule="evenodd" clip-rule="evenodd" fill="#FFFFFF" d="M58.424,56.718c-0.107,0.02-0.266,0.02-0.412,0.196   c-0.466,0.206-0.617,0.426-0.453,0.658c0.254,0.005,0.451-0.113,0.521-0.501C58.117,56.901,58.31,56.809,58.424,56.718"></path><path fill-rule="evenodd" clip-rule="evenodd" fill="#FFFFFF" d="M57.361,57.08c-0.181,0.062-0.426,0.141-0.501,0.335   c-0.161,0.191-0.135,0.381-0.138,0.57c0.158-0.013,0.31-0.075,0.443-0.245C57.161,57.521,57.26,57.301,57.361,57.08"></path><path fill-rule="evenodd" clip-rule="evenodd" fill="#FFFFFF" d="M56.604,57.395c-0.18,0.063-0.427,0.141-0.501,0.335   c-0.162,0.191-0.135,0.381-0.138,0.57c0.158-0.013,0.31-0.075,0.442-0.245C56.403,57.835,56.502,57.615,56.604,57.395"></path><path fill-rule="evenodd" clip-rule="evenodd" fill="#FFFFFF" d="M55.817,57.671c-0.18,0.062-0.426,0.142-0.5,0.335   c-0.162,0.189-0.136,0.381-0.139,0.57c0.158-0.014,0.31-0.076,0.442-0.246C55.617,58.11,55.716,57.891,55.817,57.671"></path><path fill-rule="evenodd" clip-rule="evenodd" fill="#FFFFFF" d="M55.1,57.927c-0.181,0.062-0.426,0.141-0.501,0.335   c-0.161,0.19-0.135,0.38-0.139,0.569c0.16-0.012,0.311-0.074,0.442-0.245C54.898,58.366,54.998,58.146,55.1,57.927"></path><path fill-rule="evenodd" clip-rule="evenodd" fill="#FFFFFF" d="M57.012,58.669c-0.169,0.09-0.394,0.218-0.587,0.141   c-0.249-0.012-0.369-0.16-0.512-0.287c0.118-0.107,0.266-0.176,0.481-0.157C56.553,58.518,56.78,58.595,57.012,58.669"></path><path fill-rule="evenodd" clip-rule="evenodd" fill="#FFFFFF" d="M56.354,58.935c-0.169,0.091-0.394,0.217-0.587,0.141   c-0.248-0.012-0.371-0.16-0.512-0.288c0.117-0.106,0.265-0.175,0.481-0.157C55.894,58.783,56.122,58.86,56.354,58.935"></path><path fill-rule="evenodd" clip-rule="evenodd" fill="#FFFFFF" d="M60.82,53.516c-0.126,0.143-0.294,0.341-0.501,0.334   c-0.238,0.076-0.403-0.021-0.58-0.091c0.072-0.142,0.188-0.258,0.396-0.314C60.337,53.532,60.578,53.524,60.82,53.516"></path><path fill-rule="evenodd" clip-rule="evenodd" fill="#FFFFFF" d="M59.857,52.57c-0.146,0.122-0.349,0.284-0.35,0.49   c-0.083,0.235,0.009,0.403,0.074,0.583c0.144-0.069,0.262-0.182,0.325-0.388C59.826,53.052,59.84,52.812,59.857,52.57"></path><path fill-rule="evenodd" clip-rule="evenodd" fill="#FFFFFF" d="M60.324,54.143c-0.127,0.144-0.294,0.34-0.502,0.335   c-0.238,0.075-0.403-0.021-0.58-0.092c0.072-0.142,0.188-0.257,0.397-0.313C59.841,54.159,60.081,54.153,60.324,54.143"></path><path fill-rule="evenodd" clip-rule="evenodd" fill="#FFFFFF" d="M59.285,53.21c-0.129,0.141-0.307,0.329-0.278,0.534   c-0.05,0.244,0.066,0.398,0.153,0.566c0.133-0.088,0.235-0.215,0.27-0.429C59.321,53.691,59.301,53.452,59.285,53.21"></path><path fill-rule="evenodd" clip-rule="evenodd" fill="#FFFFFF" d="M59.988,54.64c-0.128,0.143-0.294,0.34-0.501,0.335   c-0.238,0.075-0.404-0.022-0.58-0.092c0.073-0.143,0.188-0.257,0.397-0.314C59.505,54.656,59.745,54.649,59.988,54.64"></path><path fill-rule="evenodd" clip-rule="evenodd" fill="#FFFFFF" d="M58.779,53.985c-0.074,0.129-0.18,0.301-0.125,0.453   c0.001,0.193,0.115,0.292,0.209,0.406c0.087-0.089,0.145-0.202,0.136-0.37C58.885,54.348,58.831,54.167,58.779,53.985"></path><path fill-rule="evenodd" clip-rule="evenodd" fill="#FFFFFF" d="M58.021,53.245c-0.104,0.106-0.245,0.248-0.23,0.409   c-0.045,0.188,0.041,0.312,0.106,0.444c0.105-0.065,0.188-0.162,0.22-0.327C58.038,53.621,58.028,53.433,58.021,53.245"></path><path fill-rule="evenodd" clip-rule="evenodd" fill="#FFFFFF" d="M58.376,52.591c-0.104,0.108-0.246,0.249-0.23,0.41   c-0.044,0.188,0.042,0.312,0.106,0.444c0.105-0.065,0.188-0.162,0.221-0.326C58.393,52.968,58.383,52.779,58.376,52.591"></path><path fill-rule="evenodd" clip-rule="evenodd" fill="#FFFFFF" d="M58.785,51.931c-0.102,0.107-0.245,0.248-0.229,0.41   c-0.046,0.188,0.04,0.311,0.104,0.444c0.106-0.066,0.189-0.162,0.222-0.326C58.802,52.306,58.792,52.119,58.785,51.931"></path><path fill-rule="evenodd" clip-rule="evenodd" fill="#FFFFFF" d="M59.228,51.117c-0.113,0.118-0.272,0.274-0.254,0.453   c-0.05,0.209,0.046,0.344,0.117,0.491c0.117-0.071,0.208-0.179,0.244-0.361C59.245,51.533,59.235,51.325,59.228,51.117"></path><path fill-rule="evenodd" clip-rule="evenodd" fill="#FFFFFF" d="M59.665,50.511c-0.113,0.12-0.269,0.279-0.247,0.458   c-0.046,0.209,0.053,0.343,0.125,0.489c0.116-0.074,0.206-0.184,0.237-0.366C59.689,50.927,59.676,50.719,59.665,50.511"></path><path fill-rule="evenodd" clip-rule="evenodd" fill="#FFFFFF" d="M61.201,53.033c-0.11,0.126-0.257,0.299-0.441,0.295   c-0.209,0.066-0.354-0.02-0.51-0.081c0.064-0.125,0.165-0.227,0.351-0.277C60.776,53.048,60.989,53.042,61.201,53.033"></path><path fill-rule="evenodd" clip-rule="evenodd" fill="#FFFFFF" d="M60.275,52.155c-0.117,0.12-0.279,0.279-0.263,0.462   c-0.05,0.213,0.047,0.353,0.118,0.503c0.119-0.072,0.214-0.182,0.251-0.368C60.292,52.58,60.282,52.368,60.275,52.155"></path><path fill-rule="evenodd" clip-rule="evenodd" fill="#FFFFFF" d="M61.383,52.402c-0.065,0.155-0.147,0.367-0.322,0.424   c-0.175,0.131-0.34,0.097-0.51,0.09c0.021-0.139,0.083-0.269,0.24-0.375C60.985,52.556,61.185,52.48,61.383,52.402"></path><path fill-rule="evenodd" clip-rule="evenodd" fill="#FFFFFF" d="M60.673,50.971c-0.064,0.155-0.146,0.366-0.321,0.423   c-0.176,0.132-0.341,0.098-0.509,0.09c0.021-0.139,0.083-0.269,0.24-0.375C60.275,51.123,60.474,51.048,60.673,50.971"></path><path fill-rule="evenodd" clip-rule="evenodd" fill="#FFFFFF" d="M59.318,50.305c-0.012,0.14-0.021,0.33-0.14,0.418   c-0.1,0.148-0.229,0.164-0.355,0.2c-0.019-0.116,0-0.235,0.091-0.361C59.061,50.525,59.189,50.418,59.318,50.305"></path><path fill-rule="evenodd" clip-rule="evenodd" fill="#FFFFFF" d="M59.55,47.299c0.017,0.139,0.045,0.327-0.053,0.438   c-0.066,0.165-0.191,0.207-0.308,0.268c-0.04-0.109-0.048-0.229,0.016-0.371C59.342,47.567,59.446,47.435,59.55,47.299"></path><path fill-rule="evenodd" clip-rule="evenodd" fill="#FFFFFF" d="M60.324,45.979c0.017,0.141,0.045,0.329-0.053,0.439   c-0.068,0.165-0.192,0.206-0.308,0.267c-0.042-0.109-0.048-0.229,0.017-0.371C60.116,46.249,60.22,46.116,60.324,45.979"></path><path fill-rule="evenodd" clip-rule="evenodd" fill="#FFFFFF" d="M60.307,46.626c0.018,0.14,0.046,0.328-0.052,0.438   c-0.067,0.166-0.193,0.207-0.308,0.268c-0.042-0.109-0.05-0.229,0.017-0.371C60.098,46.896,60.203,46.763,60.307,46.626"></path><path fill-rule="evenodd" clip-rule="evenodd" fill="#FFFFFF" d="M58.437,47.356c0.022,0.141,0.05,0.332,0.175,0.412   c0.114,0.142,0.246,0.146,0.377,0.173c0.009-0.119-0.018-0.237-0.121-0.357C58.717,47.56,58.576,47.46,58.437,47.356"></path><path fill-rule="evenodd" clip-rule="evenodd" fill="#FFFFFF" d="M58.334,46.643c0.022,0.153,0.05,0.36,0.176,0.447   c0.112,0.155,0.246,0.16,0.377,0.188c0.008-0.129-0.019-0.259-0.122-0.389C58.614,46.863,58.474,46.754,58.334,46.643"></path><path fill-rule="evenodd" clip-rule="evenodd" fill="#FFFFFF" d="M58.292,46.005c0.023,0.152,0.049,0.36,0.175,0.447   c0.113,0.154,0.246,0.16,0.377,0.188c0.008-0.13-0.019-0.259-0.12-0.388C58.572,46.226,58.432,46.116,58.292,46.005"></path><path fill-rule="evenodd" clip-rule="evenodd" fill="#FFFFFF" d="M58.507,42.756c0.054,0.137,0.121,0.323,0.243,0.372   c0.126,0.115,0.236,0.085,0.348,0.078c-0.022-0.123-0.073-0.236-0.186-0.331C58.784,42.889,58.646,42.824,58.507,42.756"></path><path fill-rule="evenodd" clip-rule="evenodd" fill="#FFFFFF" d="M57.674,43.275c0.087,0.117,0.203,0.279,0.331,0.295   c0.153,0.079,0.249,0.021,0.356-0.016c-0.054-0.112-0.132-0.209-0.266-0.271C57.976,43.331,57.825,43.304,57.674,43.275"></path><path fill-rule="evenodd" clip-rule="evenodd" fill="#FFFFFF" d="M57.674,43.275c0.087,0.117,0.203,0.279,0.331,0.295   c0.153,0.079,0.249,0.021,0.356-0.016c-0.054-0.112-0.132-0.209-0.266-0.271C57.976,43.331,57.825,43.304,57.674,43.275"></path><path fill-rule="evenodd" clip-rule="evenodd" fill="#FFFFFF" d="M57.248,42.926c0.108,0.1,0.252,0.237,0.381,0.229   c0.164,0.048,0.25-0.027,0.348-0.083c-0.074-0.101-0.169-0.181-0.311-0.216C57.556,42.925,57.402,42.926,57.248,42.926"></path><path fill-rule="evenodd" clip-rule="evenodd" fill="#FFFFFF" d="M56.95,42.476c0.108,0.1,0.253,0.236,0.383,0.228   c0.163,0.048,0.248-0.027,0.346-0.082c-0.074-0.101-0.17-0.181-0.312-0.217C57.258,42.474,57.104,42.476,56.95,42.476"></path><path fill-rule="evenodd" clip-rule="evenodd" fill="#FFFFFF" d="M56.623,41.92c0.089,0.117,0.207,0.277,0.336,0.291   c0.152,0.075,0.249,0.017,0.355-0.021c-0.055-0.112-0.135-0.208-0.269-0.268C56.926,41.971,56.775,41.947,56.623,41.92"></path><path fill-rule="evenodd" clip-rule="evenodd" fill="#FFFFFF" d="M56.283,41.461c0.089,0.117,0.207,0.277,0.336,0.291   c0.153,0.075,0.25,0.017,0.356-0.021c-0.057-0.111-0.137-0.207-0.271-0.267C56.586,41.513,56.434,41.487,56.283,41.461"></path><path fill-rule="evenodd" clip-rule="evenodd" fill="#FFFFFF" d="M55.977,41.035c0.089,0.117,0.207,0.277,0.336,0.292   c0.153,0.075,0.25,0.016,0.356-0.022c-0.055-0.111-0.136-0.207-0.271-0.267C56.279,41.087,56.128,41.062,55.977,41.035"></path><path fill-rule="evenodd" clip-rule="evenodd" fill="#FFFFFF" d="M58.204,42.24c0.062,0.134,0.143,0.315,0.267,0.355   c0.133,0.106,0.24,0.069,0.353,0.055c-0.031-0.121-0.089-0.231-0.207-0.317C58.487,42.355,58.346,42.3,58.204,42.24"></path><path fill-rule="evenodd" clip-rule="evenodd" fill="#FFFFFF" d="M57.838,41.739c0.062,0.133,0.144,0.314,0.267,0.354   c0.133,0.106,0.241,0.069,0.353,0.055c-0.031-0.121-0.088-0.231-0.207-0.318C58.122,41.854,57.98,41.797,57.838,41.739"></path><path fill-rule="evenodd" clip-rule="evenodd" fill="#FFFFFF" d="M57.426,41.271c0.075,0.126,0.176,0.298,0.304,0.324   c0.144,0.092,0.246,0.043,0.354,0.017c-0.042-0.117-0.112-0.221-0.239-0.294C57.721,41.354,57.572,41.314,57.426,41.271"></path><path fill-rule="evenodd" clip-rule="evenodd" fill="#FFFFFF" d="M57.051,40.778c0.076,0.125,0.177,0.297,0.305,0.324   c0.145,0.091,0.246,0.043,0.355,0.016c-0.045-0.116-0.113-0.219-0.24-0.294C57.347,40.861,57.198,40.82,57.051,40.778"></path><path fill-rule="evenodd" clip-rule="evenodd" fill="#FFFFFF" d="M58.388,47.918c0.003,0.16,0.003,0.376,0.135,0.486   c0.108,0.175,0.265,0.202,0.412,0.253c0.029-0.131,0.019-0.268-0.081-0.416C58.681,48.188,58.535,48.055,58.388,47.918"></path><path fill-rule="evenodd" clip-rule="evenodd" fill="#FFFFFF" d="M61.417,45.861c0.021,0.15,0.054,0.354-0.061,0.474   c-0.081,0.18-0.232,0.225-0.37,0.291c-0.05-0.12-0.059-0.25,0.018-0.402C61.168,46.153,61.293,46.009,61.417,45.861"></path><path fill-rule="evenodd" clip-rule="evenodd" fill="#FFFFFF" d="M61.418,46.566c0,0.14,0.006,0.33-0.102,0.428   c-0.087,0.157-0.215,0.184-0.338,0.23c-0.028-0.114-0.022-0.234,0.059-0.366C61.18,46.809,61.3,46.688,61.418,46.566"></path><path fill-rule="evenodd" clip-rule="evenodd" fill="#FFFFFF" d="M59.418,46.715c0.018,0.139,0.044,0.327-0.051,0.438   c-0.068,0.165-0.194,0.206-0.31,0.269c-0.041-0.11-0.049-0.23,0.016-0.371C59.21,46.984,59.314,46.85,59.418,46.715"></path><path fill-rule="evenodd" clip-rule="evenodd" fill="#FFFFFF" d="M59.375,46.009c0.018,0.139,0.044,0.327-0.052,0.438   c-0.067,0.166-0.192,0.207-0.309,0.269c-0.04-0.11-0.049-0.23,0.017-0.371C59.166,46.278,59.271,46.145,59.375,46.009"></path><path fill-rule="evenodd" clip-rule="evenodd" fill="#FFFFFF" d="M60.277,44.767c0.017,0.14,0.044,0.328-0.053,0.438   c-0.067,0.166-0.191,0.207-0.308,0.269c-0.041-0.11-0.049-0.229,0.016-0.371C60.068,45.036,60.172,44.902,60.277,44.767"></path><path fill-rule="evenodd" clip-rule="evenodd" fill="#FFFFFF" d="M59.158,42.373c0.073,0.104,0.173,0.244,0.144,0.373   c0.016,0.159-0.067,0.245-0.136,0.343c-0.078-0.071-0.135-0.164-0.143-0.304C59.104,42.676,59.133,42.525,59.158,42.373"></path><path fill-rule="evenodd" clip-rule="evenodd" fill="#FFFFFF" d="M58.912,41.735c0.071,0.104,0.173,0.244,0.143,0.372   c0.015,0.161-0.068,0.246-0.135,0.344c-0.079-0.07-0.136-0.164-0.145-0.304C58.858,42.038,58.887,41.888,58.912,41.735"></path><path fill-rule="evenodd" clip-rule="evenodd" fill="#FFFFFF" d="M58.581,41.268c0.08,0.116,0.192,0.271,0.157,0.412   c0.019,0.178-0.074,0.272-0.148,0.38c-0.087-0.078-0.15-0.181-0.158-0.336C58.522,41.604,58.553,41.437,58.581,41.268"></path><path fill-rule="evenodd" clip-rule="evenodd" fill="#FFFFFF" d="M58.062,42.459c0.071,0.071,0.173,0.168,0.143,0.256   c0.016,0.111-0.067,0.171-0.134,0.237c-0.077-0.048-0.135-0.112-0.143-0.209C58.01,42.667,58.038,42.563,58.062,42.459"></path><path fill-rule="evenodd" clip-rule="evenodd" fill="#FFFFFF" d="M58.387,42.866c0.072,0.088,0.171,0.206,0.141,0.314   c0.016,0.136-0.066,0.207-0.133,0.289c-0.078-0.06-0.135-0.138-0.143-0.256C58.333,43.122,58.361,42.995,58.387,42.866"></path><path fill-rule="evenodd" clip-rule="evenodd" fill="#FFFFFF" d="M58.283,40.74c0.08,0.124,0.191,0.29,0.159,0.442   c0.017,0.192-0.075,0.294-0.15,0.409c-0.087-0.084-0.15-0.194-0.158-0.36C58.225,41.102,58.254,40.922,58.283,40.74"></path><path fill-rule="evenodd" clip-rule="evenodd" fill="#FFFFFF" d="M57.744,40.218c0.092,0.104,0.22,0.241,0.237,0.408   c0.065,0.191,0.028,0.321,0.007,0.464c-0.087-0.062-0.163-0.155-0.217-0.324C57.8,40.605,57.773,40.413,57.744,40.218"></path><path fill-rule="evenodd" clip-rule="evenodd" fill="#FFFFFF" d="M60.139,44.184c0.028,0.138,0.069,0.323-0.018,0.441   c-0.055,0.169-0.177,0.221-0.288,0.291c-0.048-0.107-0.064-0.227-0.013-0.372C59.951,44.469,60.046,44.327,60.139,44.184"></path><path fill-rule="evenodd" clip-rule="evenodd" fill="#FFFFFF" d="M59.409,44.775c-0.018,0.139-0.045,0.327,0.051,0.438   c0.068,0.165,0.193,0.206,0.31,0.268c0.04-0.11,0.049-0.23-0.016-0.371C59.617,45.044,59.513,44.911,59.409,44.775"></path><path fill-rule="evenodd" clip-rule="evenodd" fill="#FFFFFF" d="M59.317,45.388c0.014,0.128,0.039,0.3-0.048,0.401   c-0.062,0.151-0.177,0.189-0.282,0.245c-0.037-0.102-0.045-0.21,0.013-0.34C59.127,45.635,59.222,45.512,59.317,45.388"></path><path fill-rule="evenodd" clip-rule="evenodd" fill="#FFFFFF" d="M61.358,45.354c0.015,0.128,0.041,0.301-0.048,0.401   c-0.062,0.151-0.176,0.189-0.283,0.245c-0.037-0.101-0.044-0.211,0.015-0.34C61.168,45.6,61.263,45.479,61.358,45.354"></path><path fill-rule="evenodd" clip-rule="evenodd" fill="#FFFFFF" d="M60.505,45.371c-0.017,0.127-0.041,0.3,0.047,0.4   c0.062,0.152,0.177,0.189,0.283,0.246c0.036-0.102,0.044-0.211-0.015-0.34C60.695,45.617,60.6,45.495,60.505,45.371"></path><path fill-rule="evenodd" clip-rule="evenodd" fill="#FFFFFF" d="M60.487,45.949c-0.016,0.127-0.04,0.3,0.048,0.4   c0.062,0.152,0.175,0.189,0.281,0.246c0.037-0.102,0.046-0.211-0.013-0.34C60.679,46.195,60.582,46.074,60.487,45.949"></path><path fill-rule="evenodd" clip-rule="evenodd" fill="#FFFFFF" d="M60.471,46.621c-0.015,0.128-0.04,0.3,0.047,0.4   c0.062,0.152,0.177,0.19,0.282,0.246c0.037-0.101,0.045-0.21-0.013-0.34C60.661,46.867,60.565,46.745,60.471,46.621"></path><path fill-rule="evenodd" clip-rule="evenodd" fill="#FFFFFF" d="M60.396,47.203c-0.018,0.138-0.046,0.322,0.054,0.431   c0.07,0.162,0.2,0.202,0.322,0.263c0.041-0.108,0.049-0.226-0.017-0.364C60.613,47.469,60.505,47.338,60.396,47.203"></path><path fill-rule="evenodd" clip-rule="evenodd" fill="#FFFFFF" d="M61.23,44.912c0.016,0.127,0.041,0.299-0.048,0.4   c-0.061,0.151-0.176,0.189-0.282,0.245c-0.037-0.102-0.043-0.211,0.015-0.34C61.039,45.158,61.136,45.036,61.23,44.912"></path><path fill-rule="evenodd" clip-rule="evenodd" fill="#FFFFFF" d="M61.23,44.912c0.016,0.127,0.041,0.299-0.048,0.4   c-0.061,0.151-0.176,0.189-0.282,0.245c-0.037-0.102-0.043-0.211,0.015-0.34C61.039,45.158,61.136,45.036,61.23,44.912"></path><path fill-rule="evenodd" clip-rule="evenodd" fill="#FFFFFF" d="M58.879,51.036c-0.058,0.13-0.131,0.305-0.27,0.35   c-0.144,0.107-0.272,0.078-0.404,0.07c0.023-0.115,0.078-0.222,0.206-0.31C58.561,51.161,58.719,51.1,58.879,51.036"></path><path fill-rule="evenodd" clip-rule="evenodd" fill="#FFFFFF" d="M57.937,50.533c-0.067,0.124-0.161,0.289-0.111,0.427   c0.002,0.179,0.104,0.263,0.189,0.362c0.077-0.088,0.129-0.196,0.121-0.35C58.031,50.86,57.984,50.699,57.937,50.533"></path><path fill-rule="evenodd" clip-rule="evenodd" fill="#FFFFFF" d="M58.628,51.614c-0.056,0.128-0.13,0.305-0.269,0.349   c-0.144,0.107-0.271,0.078-0.403,0.072c0.022-0.116,0.075-0.223,0.204-0.312C58.312,51.738,58.47,51.678,58.628,51.614"></path><path fill-rule="evenodd" clip-rule="evenodd" fill="#FFFFFF" d="M57.602,51.013c-0.064,0.136-0.154,0.316-0.102,0.465   c0.007,0.193,0.108,0.281,0.197,0.387c0.076-0.097,0.124-0.215,0.112-0.383C57.705,51.365,57.652,51.189,57.602,51.013"></path><path fill-rule="evenodd" clip-rule="evenodd" fill="#FFFFFF" d="M58.322,52.247c-0.057,0.128-0.131,0.304-0.27,0.348   c-0.143,0.108-0.271,0.079-0.402,0.072c0.021-0.115,0.077-0.223,0.204-0.312C58.005,52.371,58.163,52.31,58.322,52.247"></path><path fill-rule="evenodd" clip-rule="evenodd" fill="#FFFFFF" d="M57.154,51.611c-0.033,0.179-0.081,0.421,0.003,0.578   c0.049,0.226,0.167,0.298,0.276,0.396c0.052-0.139,0.073-0.293,0.026-0.487C57.331,51.993,57.243,51.804,57.154,51.611"></path><path fill-rule="evenodd" clip-rule="evenodd" fill="#FFFFFF" d="M57.898,52.914c-0.057,0.128-0.131,0.305-0.271,0.349   c-0.144,0.107-0.271,0.078-0.401,0.071c0.021-0.115,0.075-0.222,0.204-0.311C57.581,53.038,57.74,52.978,57.898,52.914"></path><path fill-rule="evenodd" clip-rule="evenodd" fill="#FFFFFF" d="M56.967,52.292c-0.095,0.138-0.229,0.322-0.181,0.485   c-0.015,0.209,0.102,0.315,0.197,0.438c0.104-0.094,0.18-0.215,0.186-0.396C57.053,52.682,57.009,52.487,56.967,52.292"></path><path fill-rule="evenodd" clip-rule="evenodd" fill="#FFFFFF" d="M60.229,51.659c-0.064,0.154-0.147,0.367-0.321,0.423   c-0.177,0.13-0.342,0.097-0.51,0.09c0.02-0.139,0.083-0.268,0.24-0.376C59.831,51.812,60.029,51.736,60.229,51.659"></path><path fill-rule="evenodd" clip-rule="evenodd" fill="#FFFFFF" d="M59.694,52.367c-0.065,0.156-0.148,0.368-0.322,0.424   c-0.177,0.131-0.343,0.098-0.51,0.09c0.021-0.139,0.083-0.268,0.24-0.376C59.297,52.521,59.495,52.446,59.694,52.367"></path><path fill-rule="evenodd" clip-rule="evenodd" fill="#FFFFFF" d="M59.234,53.07c-0.065,0.155-0.146,0.367-0.322,0.423   c-0.175,0.131-0.34,0.098-0.509,0.091c0.021-0.14,0.083-0.269,0.24-0.376C58.837,53.223,59.035,53.147,59.234,53.07"></path><path fill-rule="evenodd" clip-rule="evenodd" fill="#FFFFFF" d="M59.234,53.07c-0.065,0.155-0.146,0.367-0.322,0.423   c-0.175,0.131-0.34,0.098-0.509,0.091c0.021-0.14,0.083-0.269,0.24-0.376C58.837,53.223,59.035,53.147,59.234,53.07"></path><path fill-rule="evenodd" clip-rule="evenodd" fill="#FFFFFF" d="M58.838,53.717c-0.064,0.155-0.147,0.367-0.321,0.423   c-0.177,0.131-0.342,0.099-0.51,0.091c0.02-0.14,0.083-0.269,0.24-0.377C58.44,53.869,58.639,53.795,58.838,53.717"></path><path fill-rule="evenodd" clip-rule="evenodd" fill="#FFFFFF" d="M60.648,51.672c-0.117,0.121-0.28,0.28-0.264,0.462   c-0.051,0.214,0.046,0.353,0.117,0.504c0.12-0.073,0.215-0.183,0.252-0.369C60.663,52.098,60.654,51.885,60.648,51.672"></path><path fill-rule="evenodd" clip-rule="evenodd" fill="#FFFFFF" d="M55.562,59.134c-0.132,0.069-0.308,0.169-0.459,0.109   c-0.194-0.009-0.29-0.125-0.399-0.225c0.091-0.084,0.206-0.138,0.375-0.123C55.203,59.015,55.382,59.074,55.562,59.134"></path><path fill-rule="evenodd" clip-rule="evenodd" fill="#FFFFFF" d="M56.962,56.846c-0.118,0.092-0.273,0.22-0.433,0.187   c-0.193,0.024-0.308-0.074-0.433-0.153c0.075-0.099,0.183-0.17,0.35-0.185C56.589,56.79,56.775,56.819,56.962,56.846 M56.461,57.2   c-0.119,0.091-0.275,0.22-0.434,0.187c-0.193,0.023-0.307-0.074-0.432-0.153c0.075-0.1,0.181-0.171,0.349-0.185   C56.087,57.144,56.272,57.174,56.461,57.2 M55.781,57.525c-0.117,0.091-0.274,0.219-0.433,0.186   c-0.193,0.024-0.307-0.074-0.432-0.152c0.075-0.1,0.181-0.172,0.349-0.186C55.407,57.47,55.594,57.498,55.781,57.525 M55.152,57.82   c-0.118,0.092-0.275,0.22-0.434,0.186c-0.192,0.024-0.306-0.074-0.433-0.153c0.077-0.098,0.182-0.17,0.351-0.185   C54.778,57.765,54.965,57.794,55.152,57.82 M54.711,57.073c-0.133,0.07-0.312,0.161-0.347,0.319   c-0.101,0.168-0.057,0.311-0.035,0.458c0.12-0.029,0.23-0.097,0.311-0.244C54.61,57.438,54.658,57.256,54.711,57.073    M55.235,56.618c-0.131,0.07-0.312,0.161-0.345,0.319c-0.102,0.168-0.059,0.311-0.036,0.457c0.12-0.028,0.229-0.097,0.311-0.244   C55.134,56.98,55.185,56.8,55.235,56.618 M56.335,55.815c-0.131,0.07-0.312,0.161-0.345,0.319   c-0.101,0.167-0.059,0.311-0.036,0.457c0.12-0.029,0.229-0.097,0.311-0.244C56.234,56.179,56.284,55.997,56.335,55.815    M55.808,56.13c-0.131,0.07-0.312,0.161-0.346,0.319c-0.102,0.167-0.057,0.311-0.036,0.457c0.121-0.029,0.23-0.097,0.312-0.244   C55.707,56.493,55.757,56.312,55.808,56.13"></path><path fill-rule="evenodd" clip-rule="evenodd" fill="#FFFFFF" d="M55.669,55.782c-0.09,0.118-0.207,0.283-0.37,0.292   c-0.179,0.073-0.314,0.009-0.456-0.035c0.048-0.114,0.129-0.212,0.289-0.27C55.294,55.825,55.48,55.806,55.669,55.782    M55.277,56.254c-0.091,0.12-0.208,0.284-0.37,0.293c-0.18,0.073-0.315,0.008-0.457-0.034c0.048-0.115,0.129-0.213,0.29-0.271   C54.901,56.298,55.089,56.277,55.277,56.254 M54.706,56.745c-0.091,0.119-0.208,0.282-0.368,0.292   c-0.182,0.073-0.317,0.008-0.459-0.035c0.048-0.115,0.131-0.212,0.289-0.27C54.331,56.788,54.518,56.768,54.706,56.745    M54.176,57.194c-0.091,0.119-0.207,0.283-0.37,0.292c-0.181,0.074-0.314,0.008-0.458-0.035c0.048-0.115,0.131-0.212,0.29-0.27   C53.8,57.237,53.988,57.217,54.176,57.194 M53.555,56.588c-0.109,0.103-0.26,0.237-0.251,0.399   c-0.054,0.187,0.026,0.314,0.086,0.451c0.107-0.061,0.195-0.154,0.235-0.317C53.552,56.966,53.552,56.776,53.555,56.588    M53.942,56.012c-0.109,0.102-0.258,0.236-0.25,0.399c-0.054,0.187,0.025,0.313,0.084,0.45c0.11-0.061,0.197-0.153,0.238-0.317   C53.941,56.389,53.94,56.201,53.942,56.012 M54.795,54.95c-0.108,0.102-0.259,0.236-0.251,0.397   c-0.054,0.189,0.026,0.315,0.086,0.451c0.108-0.06,0.196-0.152,0.235-0.316C54.793,55.327,54.793,55.139,54.795,54.95    M54.367,55.391c-0.108,0.102-0.258,0.236-0.249,0.4c-0.054,0.186,0.025,0.312,0.083,0.449c0.109-0.061,0.198-0.153,0.237-0.316   C54.366,55.768,54.366,55.58,54.367,55.391"></path><path fill-rule="evenodd" clip-rule="evenodd" fill="#FFFFFF" d="M53.369,54.337c-0.256,0.419-0.587,0.691-0.739,1.523   c-0.102,0.708-0.237,1.245-0.393,1.663C52.887,56.84,53.19,55.676,53.369,54.337"></path><path fill-rule="evenodd" clip-rule="evenodd" fill="#FFFFFF" d="M54.242,55.209c-0.16,0.217-0.317,0.514-0.525,0.604   c-0.17,0.054-0.314,0.146-0.445,0.268C53.607,55.506,53.928,55.292,54.242,55.209"></path><path fill-rule="evenodd" clip-rule="evenodd" fill="#FFFFFF" d="M53.849,54.437c-0.057,0.264-0.073,0.599-0.225,0.769   c-0.133,0.118-0.226,0.264-0.293,0.428C53.396,54.972,53.598,54.644,53.849,54.437"></path><path fill-rule="evenodd" clip-rule="evenodd" fill="#FFFFFF" d="M61.836,51.052c-0.155-0.303-0.336-0.301-0.529-0.159   c-0.19,0.31-0.412,0.505-0.66,0.611c0.072,0.15,0.144,0.301,0.217,0.45c0.257-0.109,0.468-0.341,0.632-0.692   c0.112,0.237,0.019,1.206-0.187,2.242C61.692,52.949,61.805,52.051,61.836,51.052"></path><path fill-rule="evenodd" clip-rule="evenodd" fill="#FFFFFF" d="M61.139,51.924c-0.277,0.088-0.399,0.277-0.362,0.57   C61.104,52.412,61.201,52.209,61.139,51.924"></path><path fill-rule="evenodd" clip-rule="evenodd" fill="#FFFFFF" d="M60.796,50.432c-0.291-0.014-0.471,0.122-0.538,0.408   C60.595,50.877,60.755,50.72,60.796,50.432"></path><path fill-rule="evenodd" clip-rule="evenodd" fill="#FFFFFF" d="M59.931,50.181c-0.181,0.229-0.174,0.454,0.021,0.676   C60.176,50.604,60.143,50.383,59.931,50.181"></path><path fill-rule="evenodd" clip-rule="evenodd" fill="#FFFFFF" d="M60.511,50.152c-0.153-0.007-0.247,0.064-0.283,0.216   C60.404,50.388,60.488,50.306,60.511,50.152"></path><path fill-rule="evenodd" clip-rule="evenodd" fill="#FFFFFF" d="M60.93,50.043c-0.151,0.023-0.229,0.113-0.231,0.268   C60.875,50.293,60.94,50.195,60.93,50.043"></path><path fill-rule="evenodd" clip-rule="evenodd" fill="#FFFFFF" d="M58.677,50.442c-0.246,0.031-0.376,0.171-0.39,0.42   C58.572,50.845,58.685,50.69,58.677,50.442"></path><path fill-rule="evenodd" clip-rule="evenodd" fill="#FFFFFF" d="M59.608,48.065c-0.269,0.039-0.41,0.221-0.426,0.542   C59.495,48.584,59.616,48.386,59.608,48.065"></path><path fill-rule="evenodd" clip-rule="evenodd" fill="#FFFFFF" d="M58.402,45.472c0.267,0.04,0.409,0.221,0.424,0.541   C58.514,45.991,58.393,45.791,58.402,45.472"></path><path fill-rule="evenodd" clip-rule="evenodd" fill="#FFFFFF" d="M59.445,45.473c0.258,0.085,0.366,0.287,0.327,0.607   C59.469,46.004,59.383,45.788,59.445,45.473"></path><path fill-rule="evenodd" clip-rule="evenodd" fill="#FFFFFF" d="M59.541,46.123c0.224,0.074,0.318,0.249,0.283,0.526   C59.562,46.584,59.487,46.396,59.541,46.123"></path><path fill-rule="evenodd" clip-rule="evenodd" fill="#FFFFFF" d="M59.559,46.787c0.224,0.072,0.317,0.248,0.282,0.525   C59.578,47.247,59.504,47.059,59.559,46.787"></path><path fill-rule="evenodd" clip-rule="evenodd" fill="#FFFFFF" d="M60.255,45.414c-0.259,0.084-0.366,0.287-0.327,0.606   C60.232,45.945,60.317,45.728,60.255,45.414"></path><path fill-rule="evenodd" clip-rule="evenodd" fill="#FFFFFF" d="M61.373,47.824c-0.271-0.003-0.439,0.153-0.505,0.469   C61.18,48.318,61.329,48.142,61.373,47.824"></path><path fill-rule="evenodd" clip-rule="evenodd" fill="#FFFFFF" d="M60.829,44.481c-0.144,0.185-0.121,0.381,0.066,0.586   C61.074,44.867,61.029,44.672,60.829,44.481"></path><path fill-rule="evenodd" clip-rule="evenodd" fill="#FFFFFF" d="M57.428,40.071c-0.133,0.221-0.097,0.442,0.109,0.665   C57.707,40.495,57.646,40.276,57.428,40.071"></path><path fill-rule="evenodd" clip-rule="evenodd" fill="#FFFFFF" d="M56.834,40.007c-0.002,0.257,0.143,0.429,0.433,0.516   C57.29,40.229,57.126,40.071,56.834,40.007"></path><path fill-rule="evenodd" clip-rule="evenodd" fill="#FFFFFF" d="M56.532,40.499c-0.111,0.231-0.057,0.448,0.168,0.652   C56.849,40.896,56.769,40.684,56.532,40.499"></path><path fill-rule="evenodd" clip-rule="evenodd" fill="#FFFFFF" d="M56.916,40.976c-0.113,0.23-0.058,0.448,0.167,0.652   C57.23,41.373,57.15,41.16,56.916,40.976"></path><path fill-rule="evenodd" clip-rule="evenodd" fill="#FFFFFF" d="M57.281,41.478c-0.112,0.23-0.058,0.448,0.167,0.652   C57.596,41.875,57.517,41.662,57.281,41.478"></path><path fill-rule="evenodd" clip-rule="evenodd" fill="#FFFFFF" d="M57.664,41.919c-0.112,0.231-0.057,0.449,0.167,0.653   C57.979,42.317,57.899,42.104,57.664,41.919"></path><path fill-rule="evenodd" clip-rule="evenodd" fill="#FFFFFF" d="M60.448,44.926c0.229,0.045,0.341,0.206,0.335,0.483   C60.515,45.378,60.423,45.201,60.448,44.926"></path><path fill-rule="evenodd" clip-rule="evenodd" fill="#FFFFFF" d="M61.44,47.313c-0.271-0.003-0.438,0.153-0.505,0.469   C61.247,47.809,61.399,47.631,61.44,47.313"></path><path fill-rule="evenodd" clip-rule="evenodd" fill="#FFFFFF" d="M60.336,47.888c0.267,0.045,0.405,0.228,0.416,0.549   C60.44,48.409,60.321,48.207,60.336,47.888"></path><path fill-rule="evenodd" clip-rule="evenodd" fill="#FFFFFF" d="M62.397,48.476c-0.307,0.767-0.644,1.501-1.044,2.176l0.286,0.007   C61.864,49.819,62.389,48.925,62.397,48.476"></path><path fill-rule="evenodd" clip-rule="evenodd" fill="#FFFFFF" d="M62.182,48.03c-0.139,0.53-0.335,1.04-0.695,1.494   c-0.385,0.538-0.784,1.247-0.716,1.662C61.552,50.337,62.041,49.022,62.182,48.03"></path><path fill-rule="evenodd" clip-rule="evenodd" fill="#FFFFFF" d="M60.141,47.322c-0.188,0.438-0.247,0.984-0.52,1.336l0.332-0.051   C60.11,48.255,60.118,47.788,60.141,47.322"></path><path fill-rule="evenodd" clip-rule="evenodd" fill="#FFFFFF" d="M58.303,48.726l-0.374,0.136c0.152-0.679,0.106-1.399-0.06-2.1   C58.103,47.3,58.297,47.938,58.303,48.726"></path><path fill-rule="evenodd" clip-rule="evenodd" fill="#FFFFFF" d="M58.916,45.528l-0.104,0.017l-0.024-0.399   C58.875,45.25,58.918,45.378,58.916,45.528"></path><path fill-rule="evenodd" clip-rule="evenodd" fill="#FFFFFF" d="M59.179,45.396l-0.124,0.021l-0.03-0.483   C59.131,45.061,59.183,45.215,59.179,45.396"></path><path fill-rule="evenodd" clip-rule="evenodd" fill="#FFFFFF" d="M60.634,44.746l-0.17,0.05c-0.048-1.146-0.244-2.258-0.494-3.358   C60.261,42.34,60.576,43.168,60.634,44.746"></path><path fill-rule="evenodd" clip-rule="evenodd" fill="#FFFFFF" d="M57.759,44.601c-0.206-0.367-0.499-0.685-0.747-1.028   c0.402,0.204,0.751,0.442,0.952,0.782L57.759,44.601z"></path><path fill-rule="evenodd" clip-rule="evenodd" fill="#FFFFFF" d="M58.159,44.049c-0.535-0.621-1.144-1.053-1.769-1.445   c0.603,0.462,1.174,0.957,1.641,1.555L58.159,44.049z"></path><path fill-rule="evenodd" clip-rule="evenodd" fill="#FFFFFF" d="M56.329,40.808c-0.571-0.704-1.155-1.305-1.751-1.828   c0.651,0.38,1.262,0.848,1.777,1.522L56.329,40.808z"></path><path fill-rule="evenodd" clip-rule="evenodd" fill="#FFFFFF" d="M56.899,39.927c-0.807-0.561-1.393-1.053-1.989-1.499   c0.704,0.271,1.646,0.958,2.263,1.541L56.899,39.927z"></path><rect x="54.413" y="39.61" transform="matrix(0.7303 0.6831 -0.6831 0.7303 42.145 -27.4594)" fill="#FFFFFF" width="2.875" height="0.075"></rect><path fill="#FFFFFF" d="M57.437,39.714c-0.108-0.262-0.241-0.499-0.396-0.713c-0.154-0.215-0.334-0.406-0.532-0.576l-0.049,0.056   c0.194,0.166,0.37,0.354,0.521,0.563s0.281,0.441,0.387,0.698L57.437,39.714z"></path><path fill="#FFFFFF" d="M58.312,40.752c-0.107-0.266-0.218-0.516-0.339-0.751c-0.117-0.236-0.242-0.457-0.37-0.667l-0.062,0.039   c0.127,0.209,0.252,0.428,0.369,0.661c0.117,0.232,0.229,0.48,0.333,0.745L58.312,40.752z"></path><rect x="55.325" y="39.066" transform="matrix(0.7667 0.642 -0.642 0.7667 38.2621 -27.0811)" fill="#FFFFFF" width="2.131" height="0.072"></rect><rect x="54.929" y="40.461" transform="matrix(0.6318 0.7751 -0.7751 0.6318 51.8458 -28.1462)" fill="#FFFFFF" width="1.24" height="0.074"></rect><rect x="55.818" y="41.945" transform="matrix(0.7101 0.7041 -0.7041 0.7101 45.9309 -27.5903)" fill="#FFFFFF" width="1.305" height="0.075"></rect><rect x="55.837" y="42.344" transform="matrix(0.7429 0.6695 -0.6695 0.7429 42.9429 -27.0345)" fill="#FFFFFF" width="1.65" height="0.074"></rect><path fill-rule="evenodd" clip-rule="evenodd" fill="#FFFFFF" d="M59.512,42.815l-0.264-0.655   c-0.026-0.713-0.369-1.441-0.825-2.177C59.132,40.848,59.595,41.77,59.512,42.815"></path><rect x="59.665" y="43.484" transform="matrix(0.1437 0.9896 -0.9896 0.1437 95.0545 -22.807)" fill="#FFFFFF" width="2.08" height="0.074"></rect><rect x="60.087" y="43.939" transform="matrix(0.1547 0.988 -0.988 0.1547 95.046 -23.1396)" fill="#FFFFFF" width="1.919" height="0.073"></rect><path fill="#FFFFFF" d="M61.545,45.765c0.057-0.29,0.083-0.584,0.091-0.882c0.009-0.297,0-0.596-0.013-0.896L61.55,43.99   c0.012,0.299,0.021,0.597,0.012,0.891c-0.008,0.294-0.033,0.585-0.088,0.87L61.545,45.765z"></path><rect x="57.298" y="47.09" transform="matrix(0.3027 0.9531 -0.9531 0.3027 85.4684 -22.5645)" fill="#FFFFFF" width="1.713" height="0.074"></rect><rect x="56.981" y="45.636" transform="matrix(0.384 0.9233 -0.9233 0.384 77.7783 -25.2349)" fill="#FFFFFF" width="1.64" height="0.074"></rect><rect x="57.016" y="44.744" transform="matrix(0.441 0.8975 -0.8975 0.441 72.3789 -26.6516)" fill="#FFFFFF" width="1.138" height="0.073"></rect><path fill="#FFFFFF" d="M61.636,48.727c0.174-0.326,0.314-0.675,0.428-1.04c0.114-0.364,0.202-0.746,0.272-1.14l-0.071-0.013   c-0.07,0.39-0.159,0.769-0.271,1.131c-0.113,0.36-0.251,0.705-0.425,1.026L61.636,48.727z"></path><path fill="#FFFFFF" d="M61.387,47.889c0.201-0.282,0.357-0.592,0.478-0.924c0.117-0.331,0.198-0.686,0.252-1.057l-0.074-0.011   c-0.051,0.366-0.131,0.716-0.249,1.043c-0.116,0.326-0.269,0.629-0.467,0.905L61.387,47.889z"></path><path fill="#FFFFFF" d="M61.44,47.383c0.16-0.295,0.28-0.613,0.368-0.948c0.089-0.334,0.146-0.684,0.18-1.048l-0.073-0.007   c-0.034,0.359-0.09,0.706-0.178,1.036c-0.088,0.329-0.204,0.641-0.362,0.931L61.44,47.383z"></path><path fill="#FFFFFF" d="M61.433,46.685c0.167-0.341,0.277-0.694,0.343-1.061c0.066-0.366,0.09-0.743,0.086-1.126l-0.074,0.001   c0.004,0.38-0.02,0.752-0.085,1.112c-0.064,0.358-0.172,0.708-0.336,1.04L61.433,46.685z"></path><path fill="#FFFFFF" d="M61.394,45.401c0.011-0.31,0.008-0.622-0.009-0.938c-0.018-0.314-0.048-0.633-0.093-0.955l-0.074,0.01   c0.045,0.319,0.076,0.636,0.093,0.95c0.017,0.313,0.019,0.624,0.009,0.932L61.394,45.401z"></path><rect x="61.319" y="49.974" transform="matrix(-0.3626 0.9319 -0.9319 -0.3626 131.1674 10.3097)" fill="#FFFFFF" width="1.479" height="0.073"></rect><rect x="61.531" y="50.406" transform="matrix(-0.34 0.9404 -0.9404 -0.34 130.7609 9.1159)" fill="#FFFFFF" width="1.301" height="0.074"></rect><rect x="61.665" y="51.07" transform="matrix(-0.3985 0.9172 -0.9172 -0.3985 133.7976 14.4624)" fill="#FFFFFF" width="0.983" height="0.074"></rect><rect x="61.63" y="51.933" transform="matrix(-0.4835 0.8754 -0.8754 -0.4835 137.4021 22.8631)" fill="#FFFFFF" width="0.65" height="0.074"></rect><rect x="61.461" y="52.447" transform="matrix(-0.4686 0.8834 -0.8834 -0.4686 137.3477 22.3478)" fill="#FFFFFF" width="0.982" height="0.076"></rect><path fill-rule="evenodd" clip-rule="evenodd" fill="#FFFFFF" d="M59.673,55.062l0.179,0.103c0.653-0.413,1.143-0.99,1.59-1.608   C60.887,54.111,60.316,54.643,59.673,55.062"></path><path fill-rule="evenodd" clip-rule="evenodd" fill="#FFFFFF" d="M56.475,53.556h-0.237c-0.089-0.433-0.014-0.867,0.17-1.301   c0.161-0.301,0.269-0.738,0.34-1.267L56.475,53.556z"></path><path fill="#FFFFFF" d="M57.19,51.705c0.091-0.265,0.165-0.542,0.223-0.828s0.102-0.58,0.137-0.879l-0.073-0.009   c-0.034,0.296-0.08,0.588-0.138,0.872c-0.056,0.283-0.128,0.558-0.219,0.821L57.19,51.705z"></path><path fill="#FFFFFF" d="M57.188,50.041c-0.132,0.442-0.245,0.873-0.304,1.273c-0.058,0.403-0.062,0.773,0.021,1.095l0.073-0.02   c-0.082-0.31-0.078-0.672-0.021-1.065s0.168-0.822,0.3-1.262L57.188,50.041z"></path><rect x="59.082" y="57.061" transform="matrix(-0.8538 0.5207 -0.5207 -0.8538 140.719 74.6738)" fill="#FFFFFF" width="1.583" height="0.074"></rect><rect x="59.047" y="55.939" transform="matrix(-0.7864 0.6177 -0.6177 -0.7864 141.4496 63.0401)" fill="#FFFFFF" width="1.557" height="0.074"></rect><rect x="56.874" y="56.594" transform="matrix(-0.8689 0.495 -0.495 -0.8689 135.1745 77.4593)" fill="#FFFFFF" width="0.911" height="0.074"></rect><rect x="53.619" y="54.705" transform="matrix(-0.6102 0.7923 -0.7923 -0.6102 130.7512 45.1517)" fill="#FFFFFF" width="1.298" height="0.075"></rect><rect x="52.72" y="56.563" transform="matrix(-0.5371 0.8435 -0.8435 -0.5371 129.4142 42.1827)" fill="#FFFFFF" width="0.825" height="0.074"></rect><rect x="53.487" y="57.932" transform="matrix(-0.9502 0.3116 -0.3116 -0.9502 123.1179 96.2665)" fill="#FFFFFF" width="0.762" height="0.074"></rect><rect x="53.827" y="58.328" transform="matrix(-0.9672 0.2541 -0.2541 -0.9672 121.3422 101.0558)" fill="#FFFFFF" width="0.634" height="0.074"></rect><rect x="53.257" y="57.823" transform="matrix(-0.9672 0.2538 -0.2538 -0.9672 120.1147 100.2205)" fill="#FFFFFF" width="0.669" height="0.074"></rect><rect x="57.246" y="53.882" transform="matrix(-0.5114 0.8593 -0.8593 -0.5114 133.2073 32.0988)" fill="#FFFFFF" width="0.466" height="0.073"></rect><rect x="56.96" y="53.715" transform="matrix(-0.6147 0.7887 -0.7887 -0.6147 134.7195 41.6975)" fill="#FFFFFF" width="0.432" height="0.075"></rect><rect x="56.704" y="53.567" transform="matrix(-0.467 0.8843 -0.8843 -0.467 130.9591 28.2702)" fill="#FFFFFF" width="0.51" height="0.073"></rect><rect x="53.694" y="58.146" transform="matrix(-0.9707 0.2404 -0.2404 -0.9707 120.4283 101.676)" fill="#FFFFFF" width="0.638" height="0.073"></rect><path fill-rule="evenodd" clip-rule="evenodd" fill="#FFFFFF" d="M45.465,39.01c0.021,0.206,0.053,0.395,0.074,0.6   c-0.082,0.159-0.221,0.039-0.297-0.03c-0.012-0.077-0.023-0.126,0.016-0.179c0.038,0.089,0.045,0.113,0.176,0.113   c-0.005-0.283-0.092-0.512-0.032-0.829h0.048c0.074,0.142,0.148,0.282,0.222,0.423c0.108,0.107,0.19,0.081,0.248-0.012   c0.05-0.072,0.075-0.153,0.055-0.248c-0.031-0.13-0.183-0.315-0.286-0.374c0.011-0.055,0.021-0.107,0.032-0.162h0.031   c0.063,0.194,0.254,0.313,0.35,0.487c0.171,0,0.182-0.071,0.159-0.261c-0.146-0.06-0.272-0.232-0.318-0.46l0.063-0.011   c0.039,0.073,0.078,0.098,0.19,0.098c-0.003,0.052-0.02,0.098-0.01,0.146c0.251,0.263,0.381,0.628-0.133,0.649   c0.003,0.461-0.362,0.396-0.509,0.049C45.493,38.938,45.467,38.979,45.465,39.01"></path><path fill-rule="evenodd" clip-rule="evenodd" fill="#FFFFFF" d="M52.676,38.1c-0.307-0.001-0.342,0.047-0.54,0.049l-0.017-0.114   c0.213-0.003,0.354-0.088,0.557-0.032V38.1z"></path><path fill-rule="evenodd" clip-rule="evenodd" fill="#FFFFFF" d="M45.497,37.889c0.1-0.004,0.115-0.012,0.143,0.065   c0.195,0.128-0.115,0.438-0.163,0.429c-0.054-0.023-0.109-0.062-0.139-0.088c-0.011-0.057-0.032-0.073,0.016-0.098l0.113,0.106   c0.049,0.008,0.068-0.044,0.03-0.074l-0.048-0.098l0.016-0.032c0.08,0.014,0.061,0.02,0.111,0.049   c0.111-0.009,0.074-0.087,0.048-0.146C45.55,37.983,45.519,37.966,45.497,37.889"></path><path fill-rule="evenodd" clip-rule="evenodd" fill="#FFFFFF" d="M48.61,37.872l0.125,0.021c0.01,0.058-0.041,0.081-0.094,0.108   C48.602,37.957,48.599,37.934,48.61,37.872"></path><path fill-rule="evenodd" clip-rule="evenodd" fill="#FFFFFF" d="M45.274,37.84h0.048c0.031,0.043,0.063,0.087,0.095,0.13   l-0.031,0.032C45.317,37.967,45.298,37.921,45.274,37.84"></path><path fill-rule="evenodd" clip-rule="evenodd" fill="#FFFFFF" d="M53.739,37.791h0.049c0.007,0.117-0.007,0.262-0.032,0.373   c-0.372,0.092-0.17,1.044-0.953,1.041c-0.134-0.035-0.174-0.078-0.223-0.113c-0.047-0.057,0.003-0.143,0.049-0.114   c0.057,0.107,0.115,0.146,0.287,0.138c0.292-0.094,0.404-0.316,0.519-0.581C53.541,38.289,53.615,38.027,53.739,37.791"></path><path fill-rule="evenodd" clip-rule="evenodd" fill="#FFFFFF" d="M47.656,37.71c0,0.1-0.066,0.076-0.095,0   C47.603,37.646,47.599,37.665,47.656,37.71"></path><path fill-rule="evenodd" clip-rule="evenodd" fill="#FFFFFF" d="M52.405,37.563h0.049c-0.017,0.141,0.072,0.17-0.033,0.276h-0.016   c-0.021-0.075-0.037-0.066-0.047-0.162L52.405,37.563"></path><path fill-rule="evenodd" clip-rule="evenodd" fill="#FFFFFF" d="M45.846,37.254l0.051,0.031c-0.012,0.155-0.127,0.283-0.193,0.408   l-0.032-0.016v-0.082C45.729,37.481,45.788,37.368,45.846,37.254"></path><path fill-rule="evenodd" clip-rule="evenodd" fill="#FFFFFF" d="M46.021,37.157h0.127c0.027,0.049,0.033,0.107,0.044,0.163   c0.031,0.153,0.181,0.302,0.274,0.42c0.141,0.179,0.277,0.365,0.349,0.587l-0.048,0.017C46.638,38.212,45.998,37.303,46.021,37.157   "></path><path fill-rule="evenodd" clip-rule="evenodd" fill="#FFFFFF" d="M53.123,38.23c0.031-0.094,0.028-0.13,0.061-0.163   c0.07-0.158,0.153-0.476,0.318-0.536v0.032c0.006,0.098,0.01,0.195,0.016,0.293c-0.37,0.139-0.338,0.591-0.334,1.04h-0.047   c-0.017-0.108-0.032-0.217-0.049-0.326c-0.068,0-0.148,0.309-0.174,0.375l-0.062-0.033c0.099-0.359,0.191-0.57,0.13-0.979   c-0.039,0.203-0.261,0.766-0.512,0.916c-0.218,0.004-0.249-0.147-0.271-0.392c-0.039-0.085-0.091-0.051-0.144,0   c-0.102,0.08-0.209,0.104-0.375,0.071c-0.098-0.055-0.101-0.164-0.069-0.331l0.048-0.017c0.008,0.28,0.112,0.254,0.255,0.228   c0.057-0.066,0.094-0.139,0.304-0.137l0.112,0.089c0.018,0.137-0.009,0.221,0.028,0.357c0.077-0.011,0.06,0.004,0.144-0.049   c0.159-0.095,0.342-0.569,0.403-0.738c0.052-0.148,0.054-0.239-0.027-0.38c-0.039-0.065-0.091-0.125-0.119-0.197   c-0.038-0.095-0.027-0.198-0.003-0.294l0.046-0.017c0.059,0.16,0.149,0.331,0.191,0.521c0.038,0.396,0.062,0.051,0.062,0   c0.032-0.087,0.064-0.173,0.096-0.26l0.063,0.016c-0.011,0.306-0.095,0.283-0.159,0.472C53.073,37.894,53.108,38.127,53.123,38.23"></path><path fill-rule="evenodd" clip-rule="evenodd" fill="#FFFFFF" d="M50.267,37.021l0.122-0.011c-0.003,0.352-0.054,0.567,0.005,0.846   c0.048,0.043,0.154,0.054,0.207-0.048c0.058-0.236,0.02-0.403,0.011-0.7c0.078,0.02,0.146,0.08,0.196,0.147   c-0.083,0.214-0.061,0.51-0.123,0.725c-0.32,0.087-0.239-0.031-0.401-0.059c-0.341,0.208-0.52,0.071-0.466-0.332   c-0.089,0.045-0.097,0.281-0.192,0.344c-0.106,0.016-0.222,0.02-0.284-0.029c-0.097-0.228-0.091-0.568,0.095-0.649v0.098   c-0.091,0.187-0.098,0.301-0.011,0.509c0.048,0.037,0.102,0.037,0.148,0c0.111-0.243,0.186-0.46,0.296-0.704h0.106   c0,0.252-0.106,0.44-0.011,0.705c0.053,0.079,0.206,0.13,0.294-0.104C50.316,37.529,50.182,37.219,50.267,37.021"></path><path fill-rule="evenodd" clip-rule="evenodd" fill="#FFFFFF" d="M51.458,36.93c0.076,0.028,0.004,0.143,0.098,0.161   c0.048-0.08,0.105-0.106,0.135-0.129c0,0.075-0.041,0.149-0.077,0.193c-0.076,0.062-0.099,0.026-0.15-0.024   C51.441,37.029,51.436,37.031,51.458,36.93"></path><path fill-rule="evenodd" clip-rule="evenodd" fill="#FFFFFF" d="M47.959,36.913h0.063v0.049c-0.082,0.131-0.244,0.372-0.382,0.439   v-0.114C47.761,37.219,47.886,37.031,47.959,36.913"></path><path fill-rule="evenodd" clip-rule="evenodd" fill="#FFFFFF" d="M46.529,36.8h0.096c0.015,0.138-0.087,0.468-0.207,0.521v-0.082   C46.485,37.104,46.484,36.931,46.529,36.8"></path><path fill-rule="evenodd" clip-rule="evenodd" fill="#FFFFFF" d="M52.438,36.783c0.059,0.163-0.435,1.348-0.54,1.463h-0.016V38.1   c0.069-0.242,0.149-0.482,0.229-0.722c0.041-0.13,0.084-0.261,0.128-0.39l0.036-0.097C52.302,36.824,52.4,36.842,52.438,36.783"></path><path fill-rule="evenodd" clip-rule="evenodd" fill="#FFFFFF" d="M51.754,36.653l0.063,0.081l-0.016,0.032   c-0.146,0.007-0.268,0.074-0.349,0.017v-0.017c0.049-0.031,0.025-0.003,0.047-0.064C51.613,36.71,51.706,36.712,51.754,36.653"></path><path fill-rule="evenodd" clip-rule="evenodd" fill="#FFFFFF" d="M50.469,36.54c0.022,0.135,0.013,0.25-0.063,0.324   c-0.104,0.082-0.193,0.081-0.26-0.012c-0.02-0.077-0.047-0.148,0.005-0.216l0.079,0.165c0.047-0.052-0.006-0.127,0.067-0.175   l0.092,0.123C50.4,36.67,50.386,36.54,50.469,36.54"></path><path fill-rule="evenodd" clip-rule="evenodd" fill="#FFFFFF" d="M48.912,36.507c0.111-0.007,0.086,0.089,0.016,0.162   c-0.112-0.001-0.11,0.008-0.159,0.065c-0.031-0.063-0.023-0.059-0.079-0.098l0.031-0.081l0.063,0.049   C48.82,36.554,48.836,36.516,48.912,36.507"></path><path fill-rule="evenodd" clip-rule="evenodd" fill="#FFFFFF" d="M50.739,36.328h0.078c0.057,0.191,0.241,0.556,0.382,0.683   c0.028-0.191-0.008-0.506,0.11-0.611c0.043,0.026,0.06,0.011,0.085,0.054c0.034,0.146-0.037,0.369-0.079,0.507   c-0.017,0.055-0.041,0.114-0.04,0.173c0.004,0.134,0.22,0.599,0.32,0.788c0.099-0.051,0.267-1.059,0.302-1.22   c0.029-0.032,0-0.011,0.048-0.031c0.021,0.119,0.042,0.238,0.063,0.356c-0.025,0.073-0.095,0.106-0.116,0.184   c-0.076,0.262-0.079,0.544-0.203,0.791c-0.066,0.094-0.177,0.205-0.32,0.275c-0.224,0.059-0.298,0.007-0.456-0.128   c0.324-0.327,0.317-1.449-0.238-1.506c-0.017-0.065-0.021-0.136-0.037-0.2C50.659,36.398,50.717,36.371,50.739,36.328"></path><path fill-rule="evenodd" clip-rule="evenodd" fill="#FFFFFF" d="M49.896,36.263l0.095,0.017v0.081   c-0.043,0.102-0.157,0.247-0.27,0.276l-0.016-0.032C49.77,36.49,49.833,36.377,49.896,36.263"></path><path fill-rule="evenodd" clip-rule="evenodd" fill="#FFFFFF" d="M49.159,36.53c-0.056-0.094,0.114-0.373,0.245-0.268   c0.036,0.055,0.073,0.109,0.111,0.163c-0.032,0.087-0.064,0.174-0.096,0.26c-0.228-0.008-0.436,0.11-0.461,0.309   c0.233,0.016,0.517,0.03,0.747,0v0.033c0.044,0.229-0.295,0.169-0.425,0.192c-0.309,0.056-0.279,0.417-0.227,0.652   c0.044,0.055,0.08,0.061,0.111,0.017c0.098,0.011,0.046,0.164-0.063,0.113c-0.177-0.137-0.229-0.241-0.322-0.471   c-0.109,0.022-0.272,0.265-0.313,0.371c-0.199,0.081-0.267,0.112-0.429,0.019c-0.116,0.108-0.232,0.217-0.35,0.325   c-0.079-0.018-0.054,0.006-0.079-0.065c0.119-0.065,0.332-0.238,0.349-0.406c-0.09-0.243-0.089-0.359-0.031-0.487h0.063   c-0.017,0.139-0.02,0.296,0.048,0.391c0.032,0.033-0.006,0.011,0.058,0.021c0.135-0.242,0.188-0.342,0.143-0.428   c-0.088-0.063-0.142-0.143-0.121-0.282c0.061-0.07,0.203-0.009,0.279,0.18c-0.019,0.192-0.066,0.391-0.248,0.644   c0.055,0.081,0.15,0.092,0.255,0.012c0.115-0.203,0.186-0.183,0.286-0.423c-0.066-0.155-0.257-0.756-0.238-0.878l0.095-0.017   c0.03,0.138,0.275,1.105,0.397,1.105c0.014-0.23,0.145-0.277,0.175-0.455c-0.126,0-0.297,0.011-0.318-0.146   C48.964,36.733,49.011,36.754,49.159,36.53"></path><path fill-rule="evenodd" clip-rule="evenodd" fill="#FFFFFF" d="M47.45,36.979c-0.125,0.004-0.098,0.029-0.206,0.032   c-0.104-0.055-0.133-0.193-0.102-0.391c0.053-0.026,0.124-0.022,0.181-0.016c0.036,0.075,0.108,0.181,0.19,0.211   c0.087-0.048,0.168-0.126,0.207-0.211l0.063-0.212c0.023,0.106-0.005,0.238,0.064,0.298c0.038,0.05,0.116,0.013,0.142-0.037   c0.057-0.158,0.063-0.126,0.223-0.098c0.04-0.082,0.001-0.258,0.079-0.309c0.032,0.111,0.042,0.65-0.201,0.428   c-0.091,0.138-0.195,0.184-0.37,0.092c-0.041,0.08-0.112,0.078-0.159,0.146c-0.09,0.232-0.085,0.561-0.312,0.655   c0.038,0.125,0.05,0.155,0.108,0.271c0.061,0.118,0.05,0.27,0,0.39c-0.229,0.561-0.878,0.586-0.876-0.113l0.032,0.016   c0.101,0.597,0.772,0.327,0.777-0.194c-0.016-0.102-0.074-0.213-0.118-0.323c-0.09,0.07-0.236,0.188-0.326,0.258l0.017-0.13   c0.067-0.014,0.166-0.106,0.248-0.199c-0.145-0.185-0.204-0.49-0.328-0.694c0.011-0.049,0.021-0.098,0.031-0.146h0.096   c0.111,0.279,0.167,0.569,0.286,0.78C47.332,37.413,47.447,37.122,47.45,36.979"></path><path fill-rule="evenodd" clip-rule="evenodd" fill="#FFFFFF" d="M50.294,36.215h0.063v0.048c-0.011,0.05-0.021,0.098-0.032,0.146   l-0.016,0.032h-0.016l-0.032-0.097C50.282,36.302,50.289,36.287,50.294,36.215"></path><path fill-rule="evenodd" clip-rule="evenodd" fill="#FFFFFF" d="M48.928,36.101c0.043,0.064,0.05,0.062,0,0.114   c-0.074,0.064-0.148,0.13-0.223,0.194l-0.032-0.016v-0.065C48.76,36.264,48.877,36.2,48.928,36.101"></path><path fill-rule="evenodd" clip-rule="evenodd" fill="#FFFFFF" d="M49.229,35.938h0.063c-0.005,0.07-0.011,0.142-0.016,0.211   c-0.101,0.054-0.173,0.173-0.223,0.277l-0.032-0.017v-0.081C49.11,36.214,49.167,36.086,49.229,35.938"></path><path fill-rule="evenodd" clip-rule="evenodd" fill="#FFFFFF" d="M56.826,47.029c0.451-1.36-0.221-1.691-0.826-2.081l0.047-0.547   l-0.197-0.122l-1.402,5.429l-0.029-1.795l0.218-0.792l-0.202-0.245l0.047-1.715l0.825-1.151l-10.225,0.048l-0.497,0.139   l0.388,0.669l0.125,0.471l-0.077,1.505l-0.199,0.008l0.198,0.882l0.071,1.075l-1.241-4.461c0.063-0.196,0.01-0.308-0.161-0.336   l-0.097-0.201l0.028,0.205c-0.133,0.116-0.115,0.249,0.054,0.399l0.157,0.582c-0.501,0.565-1.288,0.57-0.87,1.86   c-0.477,0.299-0.696,0.732-0.352,1.464l0.478,1.043c0.195,0.622,0.046,1.494,0.551,1.865c-0.221-0.444-0.226-0.803-0.015-1.074   c0.532-0.479,0.633-1,0.301-1.565l0.698-0.707l0.657,2.205l-0.288-0.049l0.009,0.715l0.156,0.146l-0.02,0.749l-0.692,0.644   l0.535,0.356l10.181-0.049l-0.557-0.898l-0.045-0.581l0.183-0.179l-0.009-0.588l-0.188-0.156l0.602-2.001   c0.394-0.043,0.639,0.182,0.815,0.528c-0.615,1.116,0.405,1.257,0.594,2.578l0.145-1.374l0.675-1.628   C57.483,47.827,57.235,47.415,56.826,47.029z M43.604,48.59l-0.625-1.601l0.074-0.075l0.626,1.588L43.604,48.59z M44.252,47.93   l-0.775-2.401l0.3-0.213l0.764,2.439L44.252,47.93z M54.423,50.294v0.438h-1.302v-0.438H54.423z M54.435,50.944v0.589h-1.213   v-0.589H54.435z M53.375,45.521l-0.041-0.218l0.801-0.037v1.514h-0.187v-1.238L53.375,45.521z M53.784,45.678v1.077h-0.438v-1.077   H53.784z M54.186,46.941l0.225,0.175l-0.126,0.563l-1.062,0.012l-0.19-0.76L54.186,46.941z M53.196,48.155V47.93h1.088v0.226   H53.196z M54.284,48.317v1.814h-1.126v-1.814H54.284z M45.022,44.835l-0.089-0.155l0.476-0.106l9.345-0.062l-0.153,0.168   l-9.084,0.057L45.022,44.835z M51.188,50.645l0.669-0.019l0.373,0.299l-0.564,0.043L51.188,50.645z M51.522,51.035l-0.01,0.453   l-0.345-0.232v-0.434L51.522,51.035z M51.121,50.124l-0.529-0.345l0.68-0.004l0.533,0.344L51.121,50.124z M47.717,51.287   l0.267,0.219l-1.038,0.007l-0.021-0.233L47.717,51.287z M46.919,51.133l-0.027-0.26h0.267l0.066,0.26H46.919z M48.236,51.086   l-0.845,0.007l-0.12-0.226l0.753-0.015L48.236,51.086z M48.218,50.84l0.658,0.013l0.193,0.207h-0.679L48.218,50.84z M47.591,51.646   l0.2,0.332l-0.699-0.006l-0.14-0.32L47.591,51.646z M47.758,51.618l0.745-0.006l0.294,0.312l-0.819,0.008L47.758,51.618z    M48.124,51.492l-0.213-0.24l0.944,0.007l0.287,0.22L48.124,51.492z M49.748,51.618l0.273,0.301l-0.966-0.014l-0.192-0.287H49.748z    M49.368,51.485l-0.272-0.253l0.772,0.008l0.313,0.238L49.368,51.485z M49.109,50.853l0.699-0.007l0.193,0.261L49.31,51.1   L49.109,50.853z M50.068,51.239h0.639l0.28,0.207h-0.64L50.068,51.239z M50.582,50.889v-0.685l0.336,0.23l0.004,0.671   L50.582,50.889z M50.559,49.453l-0.014-0.49l0.368,0.02l0.354,0.467L50.559,49.453z M50.574,51.126l-0.354-0.013l-0.199-0.261   l0.319,0.041L50.574,51.126z M50.352,50.681l-0.302-0.217l0.004-0.978l0.312,0.203L50.352,50.681z M49.983,49.166l0.015-0.377   l0.312,0.188l0.014,0.34L49.983,49.166z M50.027,50.719l-0.438,0.008l-0.221-0.214l0.36,0.015L50.027,50.719z M49.396,50.707   L48.649,50.7l-0.16-0.214l0.7-0.006L49.396,50.707z M48.768,50.356h-0.637v-1.988c0.146-0.584,0.358-0.584,0.637,0V50.356z    M48.377,50.486l0.152,0.24h-0.771L47.585,50.5L48.377,50.486z M47.625,50.74l-0.727-0.007V50.48h0.526L47.625,50.74z    M46.804,47.717l-1.176-0.024l-0.15-0.802h1.326l0.15,0.151L46.804,47.717z M45.703,50.319h1.051v0.463h-1.051V50.319z    M45.652,50.119v-1.877h1.076v1.877H45.652z M45.741,50.957h1.051v0.663h-1.051V50.957z M45.615,48.118V47.88h1.214v0.238H45.615z    M45.847,45.552l-0.019-0.198h0.701v1.388h-0.138v-1.15L45.847,45.552z M46.216,45.678v1.051h-0.35v-1.051H46.216z M48.205,45.103   c-0.522,0.271-0.97,0.631-1.325,1.101v-1.101H48.205z M45.278,52.496l0.437-0.663h1.064l0.313,0.638L45.278,52.496z M47.305,52.451   l-0.153-0.293l0.513-0.007l0.187,0.319L47.305,52.451z M48.004,52.458l-0.166-0.293h0.706l0.293,0.306L48.004,52.458z    M49.17,52.438l-0.327-0.286l0.933-0.006l0.279,0.306L49.17,52.438z M50.933,51.585l0.307,0.38l-0.672,0.013l-0.492-0.385   L50.933,51.585z M50.44,52.491l-0.286-0.346h0.919l0.228,0.332L50.44,52.491z M52.106,52.458l-0.474-0.007l-0.313-0.333   l0.819-0.014L52.106,52.458z M52.365,51.886l-0.978,0.032l-0.287-0.306h1.345L52.365,51.886z M52.611,50.069l-0.013,1.433   l-0.187-0.012l-0.001-0.597l-0.478-0.346l-0.006-0.463l-0.455-0.281l-0.026-1.041l-0.441-0.299l-0.02-0.433l-0.244,0.008   l0.003,0.294l-0.786-0.023l-0.004-0.178l-0.237-0.005l-0.005,2.299l-0.276-0.009l-0.055-3.604   c-0.191,0.068-0.343,0.218-0.435,0.485l-0.032-0.282l-0.276,0.067l-0.152-0.26l-0.18,0.242l-0.177-0.062l-0.025,0.231   c-0.1-0.18-0.248-0.312-0.447-0.392l-0.027,0.597l-0.039,2.925l-0.688-0.003l0.019-2.671l0.228-0.7l-0.203-0.044l-0.019-0.092   c1.584-2.726,4.309-1.896,5.358,0.013l0.345,1.11L52.611,50.069z M52.848,46.241c-0.338-0.465-0.866-0.845-1.502-1.176h1.502   V46.241z M54.86,52.384h-1.839l0.213-0.562l1.252-0.013L54.86,52.384z M55.649,48.135l-0.453-0.179l0.725-2.549l0.48,0.301   L55.649,48.135z M56.146,48.821l-0.065-0.188l0.584-1.458l0.113,0.085L56.146,48.821z"></path><path fill-rule="evenodd" clip-rule="evenodd" fill="#FFFFFF" d="M48.895,55.219c0.506,0.152,1.011,0.191,1.517,0.03   c0.326-0.119,0.615-0.031,1.105,0.461c0.44,0.244,0.52,0.803,0.175,1.673c-0.158-0.826-0.524-1.333-1.351-1.139   c-0.419,0.222-0.856,0.209-1.313-0.04c-0.559-0.303-0.954,0.117-1.236,1.031C47.377,56.324,47.383,55.54,48.895,55.219"></path><path fill-rule="evenodd" clip-rule="evenodd" fill="#FFFFFF" d="M49.587,57.457c0.149-0.114,0.299-0.098,0.448,0.009l-0.095,0.669   h-0.324L49.587,57.457z"></path><polygon fill-rule="evenodd" clip-rule="evenodd" fill="#FFFFFF" points="49.086,57.516 49.352,57.529 49.424,58.09 49.218,58.12     "></polygon><polygon fill-rule="evenodd" clip-rule="evenodd" fill="#FFFFFF" points="48.659,57.574 48.851,57.56 48.983,58.135 48.807,58.09     "></polygon><path fill-rule="evenodd" clip-rule="evenodd" fill="#FFFFFF" d="M48.085,57.295l0.324,0.234l0.132,0.501   c-0.24-0.034-0.422-0.166-0.544-0.397L48.085,57.295z"></path><path fill-rule="evenodd" clip-rule="evenodd" fill="#FFFFFF" d="M50.678,57.5c0.073-0.031,0.146-0.021,0.219,0.032l-0.139,0.577   l-0.225,0.004L50.678,57.5z"></path><path fill-rule="evenodd" clip-rule="evenodd" fill="#FFFFFF" d="M51.073,58.069c0.19-0.021,0.352-0.132,0.479-0.332l-0.017-0.486   l-0.431,0.353L51.073,58.069z"></path><path fill-rule="evenodd" clip-rule="evenodd" fill="#FFFFFF" d="M39.452,55.445c0.39,0.054,0.905-0.082,1.354-0.279l2.138-1.134   c0.412-0.228,0.776-0.29,1.072-0.109c0.306,0.406,0.853,0.748,1.279,1.122c-0.487-0.081-1.062,0.098-1.694,0.454l-2.039,1.114   c-0.44,0.204-0.765,0.221-0.973,0.047L39.452,55.445z"></path><path fill-rule="evenodd" clip-rule="evenodd" fill="#FFFFFF" d="M38.18,48.37c0.305,0.262,0.752,0.432,1.339,0.512   c0.641,0.091,1.282,0.181,1.922,0.27c0.387,0.049,0.524,0.277,0.548,0.589c-0.06,0.439,0.001,0.819,0.144,1.158   c-0.209-0.346-0.736-0.44-1.331-0.482c-0.467-0.052-1.094-0.104-1.561-0.155c-0.608-0.098-0.82-0.165-0.841-0.385   C38.457,49.244,38.327,48.799,38.18,48.37"></path><path fill-rule="evenodd" clip-rule="evenodd" fill="#FFFFFF" d="M40.951,57.471c0.144-0.086,0.288-0.104,0.433-0.06   c0.045,0.096,0.091,0.19,0.138,0.285c-0.111,0.007-0.224,0.013-0.335,0.02C41.078,57.664,41.007,57.575,40.951,57.471"></path><path fill-rule="evenodd" clip-rule="evenodd" fill="#FFFFFF" d="M42.515,56.364c0.154-0.091,0.309-0.112,0.462-0.062   c0.05,0.102,0.099,0.203,0.148,0.305c-0.12,0.008-0.239,0.014-0.358,0.021C42.651,56.571,42.574,56.478,42.515,56.364"></path><path fill-rule="evenodd" clip-rule="evenodd" fill="#FFFFFF" d="M43.882,55.549c0.154-0.091,0.309-0.113,0.463-0.064   c0.049,0.103,0.099,0.204,0.147,0.307c-0.119,0.006-0.238,0.013-0.358,0.021C44.019,55.756,43.941,55.66,43.882,55.549"></path><path fill-rule="evenodd" clip-rule="evenodd" fill="#FFFFFF" d="M38.875,56.241c0.694,0.445,1.407,0.816,2.154,1.052   c-0.102,0.01-0.203,0.029-0.306,0.118c-0.052,0.108-0.013,0.217,0.04,0.325C40.075,57.355,39.459,56.831,38.875,56.241"></path><path fill-rule="evenodd" clip-rule="evenodd" fill="#FFFFFF" d="M41.227,56.9c0.107,0.02,0.265,0.02,0.413,0.196   c0.465,0.206,0.616,0.426,0.452,0.659c-0.254,0.005-0.451-0.113-0.521-0.502C41.534,57.084,41.341,56.991,41.227,56.9"></path><path fill-rule="evenodd" clip-rule="evenodd" fill="#FFFFFF" d="M38.831,53.698c0.126,0.143,0.293,0.34,0.501,0.335   c0.237,0.075,0.402-0.022,0.58-0.093c-0.073-0.142-0.189-0.257-0.397-0.313C39.312,53.715,39.072,53.708,38.831,53.698"></path><path fill-rule="evenodd" clip-rule="evenodd" fill="#FFFFFF" d="M39.793,52.753c0.147,0.123,0.349,0.283,0.351,0.491   c0.082,0.234-0.01,0.402-0.074,0.582c-0.144-0.068-0.264-0.181-0.326-0.388C39.824,53.235,39.811,52.995,39.793,52.753"></path><path fill-rule="evenodd" clip-rule="evenodd" fill="#FFFFFF" d="M39.326,54.325c0.127,0.143,0.294,0.34,0.502,0.335   c0.237,0.075,0.402-0.021,0.58-0.091c-0.073-0.143-0.189-0.259-0.397-0.314C39.81,54.342,39.569,54.335,39.326,54.325"></path><path fill-rule="evenodd" clip-rule="evenodd" fill="#FFFFFF" d="M40.365,53.394c0.128,0.141,0.307,0.327,0.278,0.534   c0.05,0.244-0.065,0.397-0.154,0.565c-0.133-0.088-0.234-0.216-0.269-0.429C40.329,53.874,40.349,53.635,40.365,53.394"></path><path fill-rule="evenodd" clip-rule="evenodd" fill="#FFFFFF" d="M39.663,54.822c0.126,0.143,0.293,0.34,0.501,0.335   c0.237,0.075,0.402-0.022,0.58-0.093c-0.074-0.141-0.188-0.257-0.397-0.313C40.146,54.839,39.904,54.832,39.663,54.822"></path><path fill-rule="evenodd" clip-rule="evenodd" fill="#FFFFFF" d="M40.871,54.169c0.074,0.129,0.18,0.299,0.125,0.452   c-0.002,0.194-0.114,0.292-0.21,0.406c-0.086-0.089-0.144-0.202-0.135-0.37C40.766,54.53,40.819,54.35,40.871,54.169"></path><path fill-rule="evenodd" clip-rule="evenodd" fill="#FFFFFF" d="M41.629,53.428c0.104,0.107,0.247,0.248,0.23,0.409   c0.044,0.188-0.041,0.312-0.106,0.445c-0.105-0.066-0.188-0.161-0.22-0.327C41.613,53.804,41.623,53.617,41.629,53.428"></path><path fill-rule="evenodd" clip-rule="evenodd" fill="#FFFFFF" d="M41.275,52.774c0.103,0.106,0.245,0.248,0.229,0.409   c0.044,0.189-0.041,0.312-0.105,0.444c-0.106-0.064-0.189-0.161-0.221-0.326C41.259,53.15,41.268,52.963,41.275,52.774"></path><path fill-rule="evenodd" clip-rule="evenodd" fill="#FFFFFF" d="M40.864,52.114c0.104,0.106,0.246,0.248,0.229,0.409   c0.045,0.188-0.04,0.312-0.104,0.444c-0.106-0.065-0.188-0.162-0.221-0.327C40.848,52.489,40.857,52.303,40.864,52.114"></path><path fill-rule="evenodd" clip-rule="evenodd" fill="#FFFFFF" d="M40.423,51.3c0.113,0.119,0.272,0.275,0.254,0.453   c0.05,0.209-0.045,0.345-0.116,0.491c-0.117-0.071-0.209-0.179-0.245-0.361C40.405,51.716,40.415,51.509,40.423,51.3"></path><path fill-rule="evenodd" clip-rule="evenodd" fill="#FFFFFF" d="M39.986,50.694c0.112,0.12,0.268,0.279,0.246,0.457   c0.045,0.21-0.052,0.343-0.126,0.489c-0.115-0.074-0.205-0.183-0.237-0.367C39.961,51.109,39.975,50.902,39.986,50.694"></path><path fill-rule="evenodd" clip-rule="evenodd" fill="#FFFFFF" d="M38.448,53.216c0.111,0.126,0.259,0.3,0.441,0.294   c0.209,0.067,0.355-0.019,0.512-0.08c-0.065-0.125-0.167-0.226-0.351-0.276C38.873,53.23,38.661,53.224,38.448,53.216"></path><path fill-rule="evenodd" clip-rule="evenodd" fill="#FFFFFF" d="M39.374,52.338c0.118,0.12,0.28,0.28,0.263,0.462   c0.052,0.214-0.045,0.354-0.117,0.503c-0.121-0.072-0.215-0.182-0.252-0.368C39.358,52.764,39.367,52.552,39.374,52.338"></path><path fill-rule="evenodd" clip-rule="evenodd" fill="#FFFFFF" d="M38.269,52.585c0.063,0.156,0.146,0.368,0.32,0.424   c0.176,0.131,0.342,0.098,0.51,0.089c-0.021-0.139-0.084-0.268-0.24-0.375C38.665,52.738,38.467,52.664,38.269,52.585"></path><path fill-rule="evenodd" clip-rule="evenodd" fill="#FFFFFF" d="M38.978,51.152c0.063,0.156,0.146,0.368,0.321,0.424   c0.176,0.131,0.341,0.098,0.509,0.091c-0.021-0.14-0.083-0.269-0.24-0.377C39.374,51.306,39.176,51.231,38.978,51.152"></path><path fill-rule="evenodd" clip-rule="evenodd" fill="#FFFFFF" d="M40.332,50.487c0.011,0.141,0.022,0.33,0.139,0.419   c0.1,0.148,0.23,0.163,0.356,0.199c0.018-0.117,0.001-0.234-0.09-0.36C40.59,50.709,40.461,50.6,40.332,50.487"></path><path fill-rule="evenodd" clip-rule="evenodd" fill="#FFFFFF" d="M40.101,47.481c-0.018,0.139-0.045,0.328,0.051,0.438   c0.068,0.167,0.193,0.208,0.309,0.268c0.041-0.109,0.049-0.229-0.015-0.37C40.309,47.751,40.204,47.617,40.101,47.481"></path><path fill-rule="evenodd" clip-rule="evenodd" fill="#FFFFFF" d="M39.326,46.163c-0.017,0.14-0.044,0.328,0.052,0.438   c0.067,0.166,0.192,0.207,0.309,0.269c0.041-0.11,0.049-0.23-0.015-0.372C39.534,46.433,39.431,46.299,39.326,46.163"></path><path fill-rule="evenodd" clip-rule="evenodd" fill="#FFFFFF" d="M39.344,46.81c-0.018,0.139-0.045,0.327,0.052,0.438   c0.067,0.165,0.192,0.207,0.308,0.269c0.041-0.11,0.049-0.23-0.015-0.371C39.552,47.078,39.447,46.945,39.344,46.81"></path><path fill-rule="evenodd" clip-rule="evenodd" fill="#FFFFFF" d="M41.214,47.54c-0.022,0.141-0.049,0.332-0.175,0.411   c-0.112,0.143-0.246,0.146-0.377,0.174c-0.008-0.119,0.018-0.238,0.121-0.357C40.934,47.743,41.074,47.643,41.214,47.54"></path><path fill-rule="evenodd" clip-rule="evenodd" fill="#FFFFFF" d="M41.316,46.825c-0.023,0.153-0.05,0.36-0.175,0.447   c-0.113,0.154-0.247,0.16-0.378,0.189c-0.008-0.13,0.019-0.259,0.121-0.389C41.036,47.046,41.177,46.937,41.316,46.825"></path><path fill-rule="evenodd" clip-rule="evenodd" fill="#FFFFFF" d="M41.358,46.188c-0.022,0.153-0.05,0.361-0.175,0.447   c-0.113,0.155-0.246,0.16-0.377,0.188c-0.008-0.129,0.018-0.258,0.121-0.388C41.078,46.408,41.22,46.299,41.358,46.188"></path><path fill-rule="evenodd" clip-rule="evenodd" fill="#FFFFFF" d="M41.262,48.101c-0.003,0.16-0.002,0.378-0.135,0.486   c-0.107,0.176-0.263,0.202-0.411,0.253c-0.029-0.131-0.019-0.268,0.081-0.417C40.969,48.372,41.116,48.237,41.262,48.101"></path><path fill-rule="evenodd" clip-rule="evenodd" fill="#FFFFFF" d="M38.233,46.044c-0.021,0.151-0.054,0.354,0.062,0.474   c0.08,0.18,0.23,0.224,0.369,0.29c0.049-0.118,0.059-0.249-0.019-0.4C38.482,46.336,38.357,46.191,38.233,46.044"></path><path fill-rule="evenodd" clip-rule="evenodd" fill="#FFFFFF" d="M38.232,46.748c-0.001,0.141-0.006,0.331,0.102,0.43   c0.087,0.156,0.216,0.183,0.338,0.229c0.028-0.113,0.021-0.233-0.059-0.366C38.471,46.992,38.351,46.871,38.232,46.748"></path><path fill-rule="evenodd" clip-rule="evenodd" fill="#FFFFFF" d="M40.232,46.897c-0.018,0.14-0.045,0.327,0.052,0.438   c0.067,0.166,0.193,0.207,0.309,0.269c0.041-0.11,0.049-0.23-0.016-0.372C40.44,47.166,40.336,47.033,40.232,46.897"></path><path fill-rule="evenodd" clip-rule="evenodd" fill="#FFFFFF" d="M40.275,46.191c-0.018,0.14-0.045,0.327,0.051,0.438   c0.068,0.166,0.193,0.207,0.309,0.269c0.041-0.109,0.049-0.23-0.016-0.371C40.483,46.46,40.379,46.328,40.275,46.191"></path><path fill-rule="evenodd" clip-rule="evenodd" fill="#FFFFFF" d="M39.374,44.949c-0.018,0.141-0.045,0.328,0.051,0.438   c0.068,0.166,0.193,0.207,0.309,0.268c0.041-0.109,0.049-0.229-0.015-0.371C39.582,45.219,39.478,45.086,39.374,44.949"></path><path fill-rule="evenodd" clip-rule="evenodd" fill="#FFFFFF" d="M39.512,44.366c-0.027,0.139-0.069,0.324,0.019,0.44   c0.054,0.171,0.176,0.222,0.287,0.291c0.048-0.106,0.065-0.226,0.013-0.371C39.699,44.651,39.604,44.511,39.512,44.366"></path><path fill-rule="evenodd" clip-rule="evenodd" fill="#FFFFFF" d="M40.241,44.958c0.018,0.14,0.044,0.327-0.051,0.438   c-0.068,0.166-0.193,0.208-0.31,0.269c-0.04-0.11-0.048-0.23,0.016-0.371C40.032,45.228,40.138,45.094,40.241,44.958"></path><path fill-rule="evenodd" clip-rule="evenodd" fill="#FFFFFF" d="M40.334,45.57c-0.016,0.128-0.041,0.3,0.047,0.401   c0.062,0.151,0.177,0.189,0.282,0.245c0.037-0.101,0.044-0.21-0.014-0.34C40.524,45.817,40.429,45.694,40.334,45.57"></path><path fill-rule="evenodd" clip-rule="evenodd" fill="#FFFFFF" d="M38.293,45.536c-0.017,0.128-0.041,0.301,0.047,0.401   c0.062,0.152,0.176,0.189,0.282,0.246c0.037-0.102,0.045-0.212-0.014-0.341C38.483,45.783,38.388,45.661,38.293,45.536"></path><path fill-rule="evenodd" clip-rule="evenodd" fill="#FFFFFF" d="M39.146,45.554c0.016,0.127,0.041,0.3-0.047,0.401   c-0.062,0.151-0.177,0.188-0.282,0.245c-0.037-0.102-0.045-0.211,0.014-0.34C38.955,45.801,39.051,45.678,39.146,45.554"></path><path fill-rule="evenodd" clip-rule="evenodd" fill="#FFFFFF" d="M39.163,46.132c0.016,0.128,0.04,0.3-0.048,0.401   c-0.062,0.151-0.176,0.189-0.282,0.245c-0.037-0.102-0.045-0.211,0.014-0.34C38.972,46.378,39.068,46.257,39.163,46.132"></path><path fill-rule="evenodd" clip-rule="evenodd" fill="#FFFFFF" d="M39.18,46.804c0.016,0.128,0.041,0.301-0.048,0.401   c-0.061,0.151-0.176,0.188-0.281,0.245c-0.038-0.101-0.045-0.211,0.014-0.341C38.989,47.051,39.085,46.929,39.18,46.804"></path><path fill-rule="evenodd" clip-rule="evenodd" fill="#FFFFFF" d="M39.255,47.387c0.017,0.137,0.046,0.321-0.055,0.43   c-0.07,0.162-0.199,0.203-0.321,0.263c-0.041-0.108-0.05-0.226,0.017-0.364C39.037,47.65,39.146,47.52,39.255,47.387"></path><path fill-rule="evenodd" clip-rule="evenodd" fill="#FFFFFF" d="M38.42,45.095c-0.016,0.127-0.04,0.3,0.048,0.4   c0.062,0.151,0.176,0.189,0.282,0.245c0.037-0.101,0.045-0.21-0.015-0.34C38.611,45.341,38.515,45.219,38.42,45.095"></path><path fill-rule="evenodd" clip-rule="evenodd" fill="#FFFFFF" d="M38.42,45.095c-0.016,0.127-0.04,0.3,0.048,0.4   c0.062,0.151,0.176,0.189,0.282,0.245c0.037-0.101,0.045-0.21-0.015-0.34C38.611,45.341,38.515,45.219,38.42,45.095"></path><path fill-rule="evenodd" clip-rule="evenodd" fill="#FFFFFF" d="M40.771,51.22c0.058,0.129,0.131,0.305,0.27,0.349   c0.144,0.107,0.272,0.078,0.403,0.07c-0.022-0.114-0.077-0.222-0.204-0.31C41.09,51.345,40.931,51.283,40.771,51.22"></path><path fill-rule="evenodd" clip-rule="evenodd" fill="#FFFFFF" d="M41.714,50.716c0.066,0.125,0.161,0.289,0.111,0.428   c-0.002,0.179-0.104,0.263-0.188,0.362c-0.078-0.089-0.13-0.197-0.122-0.352C41.618,51.043,41.666,50.881,41.714,50.716"></path><path fill-rule="evenodd" clip-rule="evenodd" fill="#FFFFFF" d="M41.022,51.797c0.058,0.128,0.131,0.304,0.27,0.349   c0.143,0.108,0.271,0.079,0.402,0.071c-0.022-0.115-0.077-0.222-0.204-0.311C41.34,51.921,41.181,51.86,41.022,51.797"></path><path fill-rule="evenodd" clip-rule="evenodd" fill="#FFFFFF" d="M42.049,51.195c0.064,0.137,0.154,0.317,0.102,0.464   c-0.006,0.194-0.108,0.283-0.196,0.388c-0.076-0.096-0.125-0.216-0.113-0.383C41.945,51.548,41.998,51.372,42.049,51.195"></path><path fill-rule="evenodd" clip-rule="evenodd" fill="#FFFFFF" d="M41.328,52.43c0.058,0.128,0.131,0.304,0.27,0.349   c0.144,0.107,0.271,0.078,0.402,0.071c-0.021-0.116-0.076-0.222-0.204-0.311C41.646,52.554,41.487,52.493,41.328,52.43"></path><path fill-rule="evenodd" clip-rule="evenodd" fill="#FFFFFF" d="M42.496,51.794c0.032,0.18,0.08,0.421-0.003,0.578   c-0.047,0.227-0.167,0.298-0.276,0.395c-0.053-0.138-0.073-0.292-0.025-0.486C42.319,52.177,42.407,51.986,42.496,51.794"></path><path fill-rule="evenodd" clip-rule="evenodd" fill="#FFFFFF" d="M41.752,53.097c0.058,0.128,0.131,0.304,0.27,0.349   c0.144,0.108,0.271,0.079,0.402,0.071c-0.022-0.115-0.076-0.222-0.204-0.31C42.069,53.221,41.91,53.16,41.752,53.097"></path><path fill-rule="evenodd" clip-rule="evenodd" fill="#FFFFFF" d="M42.684,52.476c0.096,0.138,0.229,0.32,0.181,0.484   c0.016,0.209-0.102,0.316-0.197,0.439c-0.105-0.095-0.18-0.216-0.186-0.396C42.598,52.864,42.642,52.671,42.684,52.476"></path><path fill-rule="evenodd" clip-rule="evenodd" fill="#FFFFFF" d="M39.422,51.842c0.064,0.155,0.147,0.367,0.321,0.422   c0.177,0.132,0.342,0.099,0.51,0.091c-0.021-0.138-0.084-0.269-0.24-0.376C39.819,51.995,39.621,51.92,39.422,51.842"></path><path fill-rule="evenodd" clip-rule="evenodd" fill="#FFFFFF" d="M39.957,52.551c0.064,0.155,0.147,0.367,0.321,0.423   c0.176,0.131,0.342,0.098,0.51,0.091c-0.021-0.141-0.083-0.269-0.241-0.376C40.354,52.703,40.156,52.629,39.957,52.551"></path><path fill-rule="evenodd" clip-rule="evenodd" fill="#FFFFFF" d="M40.417,53.253c0.063,0.155,0.146,0.367,0.32,0.423   c0.176,0.132,0.342,0.099,0.509,0.091c-0.02-0.14-0.082-0.269-0.239-0.377C40.813,53.406,40.614,53.331,40.417,53.253"></path><path fill-rule="evenodd" clip-rule="evenodd" fill="#FFFFFF" d="M40.417,53.253c0.063,0.155,0.146,0.367,0.32,0.423   c0.176,0.132,0.342,0.099,0.509,0.091c-0.02-0.14-0.082-0.269-0.239-0.377C40.813,53.406,40.614,53.331,40.417,53.253"></path><path fill-rule="evenodd" clip-rule="evenodd" fill="#FFFFFF" d="M40.812,53.899c0.064,0.155,0.146,0.368,0.321,0.423   c0.176,0.131,0.342,0.098,0.509,0.09c-0.02-0.139-0.082-0.268-0.24-0.375C41.21,54.052,41.011,53.978,40.812,53.899"></path><path fill-rule="evenodd" clip-rule="evenodd" fill="#FFFFFF" d="M39.002,51.854c0.118,0.121,0.28,0.279,0.263,0.462   c0.052,0.213-0.044,0.353-0.116,0.504c-0.12-0.073-0.215-0.182-0.252-0.369C38.986,52.28,38.996,52.067,39.002,51.854"></path><path fill-rule="evenodd" clip-rule="evenodd" fill="#FFFFFF" d="M43.981,55.965c0.09,0.119,0.207,0.284,0.37,0.292   c0.18,0.073,0.315,0.008,0.457-0.035c-0.048-0.114-0.131-0.212-0.289-0.27C44.356,56.008,44.169,55.987,43.981,55.965    M44.373,56.437c0.09,0.12,0.208,0.284,0.37,0.293c0.18,0.074,0.315,0.009,0.457-0.034c-0.048-0.116-0.13-0.213-0.289-0.271   C44.748,56.48,44.562,56.461,44.373,56.437 M44.944,56.928c0.09,0.119,0.207,0.283,0.369,0.292c0.18,0.074,0.315,0.009,0.458-0.034   c-0.049-0.116-0.131-0.213-0.29-0.271C45.319,56.971,45.132,56.95,44.944,56.928 M45.476,57.377   c0.089,0.119,0.207,0.283,0.369,0.293c0.18,0.072,0.314,0.008,0.457-0.036c-0.048-0.114-0.13-0.212-0.289-0.27   C45.851,57.42,45.663,57.399,45.476,57.377 M46.096,56.771c0.109,0.102,0.26,0.236,0.251,0.398   c0.053,0.187-0.026,0.314-0.085,0.451c-0.109-0.061-0.197-0.153-0.236-0.317C46.099,57.148,46.099,56.96,46.096,56.771    M45.708,56.194c0.108,0.102,0.259,0.237,0.25,0.399c0.054,0.187-0.025,0.314-0.085,0.45c-0.109-0.06-0.196-0.152-0.236-0.317   C45.71,56.571,45.71,56.383,45.708,56.194 M44.855,55.132c0.109,0.103,0.259,0.236,0.25,0.399c0.055,0.188-0.025,0.314-0.084,0.451   c-0.109-0.06-0.196-0.153-0.237-0.318C44.858,55.509,44.858,55.321,44.855,55.132 M45.283,55.573   c0.108,0.102,0.258,0.237,0.25,0.399c0.054,0.187-0.026,0.314-0.085,0.451c-0.109-0.061-0.196-0.153-0.236-0.317   C45.285,55.951,45.285,55.763,45.283,55.573"></path><path fill-rule="evenodd" clip-rule="evenodd" fill="#FFFFFF" d="M46.282,54.52c0.256,0.419,0.587,0.691,0.737,1.525   c0.104,0.706,0.237,1.242,0.394,1.662C46.763,57.023,46.46,55.859,46.282,54.52"></path><path fill-rule="evenodd" clip-rule="evenodd" fill="#FFFFFF" d="M45.408,55.393c0.161,0.216,0.317,0.514,0.526,0.604   c0.169,0.053,0.314,0.146,0.444,0.268C46.043,55.689,45.723,55.476,45.408,55.393"></path><path fill-rule="evenodd" clip-rule="evenodd" fill="#FFFFFF" d="M45.802,54.619c0.056,0.265,0.074,0.6,0.226,0.768   c0.131,0.119,0.226,0.265,0.292,0.43C46.254,55.155,46.053,54.826,45.802,54.619"></path><path fill-rule="evenodd" clip-rule="evenodd" fill="#FFFFFF" d="M37.813,51.235c0.156-0.305,0.337-0.302,0.53-0.16   c0.19,0.31,0.413,0.505,0.659,0.611c-0.072,0.15-0.144,0.301-0.216,0.45c-0.257-0.11-0.468-0.341-0.633-0.691   c-0.111,0.237-0.017,1.206,0.188,2.242C37.957,53.132,37.846,52.234,37.813,51.235"></path><path fill-rule="evenodd" clip-rule="evenodd" fill="#FFFFFF" d="M38.512,52.106c0.277,0.088,0.398,0.277,0.361,0.57   C38.546,52.595,38.45,52.392,38.512,52.106"></path><path fill-rule="evenodd" clip-rule="evenodd" fill="#FFFFFF" d="M38.854,50.614c0.291-0.015,0.471,0.122,0.537,0.407   C39.057,51.06,38.896,50.903,38.854,50.614"></path><path fill-rule="evenodd" clip-rule="evenodd" fill="#FFFFFF" d="M39.72,50.363c0.181,0.229,0.174,0.454-0.021,0.675   C39.474,50.787,39.508,50.566,39.72,50.363"></path><path fill-rule="evenodd" clip-rule="evenodd" fill="#FFFFFF" d="M39.14,50.335c0.154-0.007,0.248,0.066,0.283,0.216   C39.247,50.57,39.161,50.488,39.14,50.335"></path><path fill-rule="evenodd" clip-rule="evenodd" fill="#FFFFFF" d="M38.72,50.226c0.151,0.024,0.229,0.113,0.233,0.27   C38.775,50.479,38.71,50.38,38.72,50.226"></path><path fill-rule="evenodd" clip-rule="evenodd" fill="#FFFFFF" d="M40.974,50.626c0.245,0.029,0.374,0.171,0.389,0.419   C41.077,51.027,40.966,50.873,40.974,50.626"></path><path fill-rule="evenodd" clip-rule="evenodd" fill="#FFFFFF" d="M40.042,48.248c0.268,0.04,0.41,0.22,0.425,0.542   C40.154,48.768,40.033,48.567,40.042,48.248"></path><path fill-rule="evenodd" clip-rule="evenodd" fill="#FFFFFF" d="M41.249,45.654c-0.269,0.04-0.409,0.221-0.425,0.542   C41.136,46.174,41.258,45.975,41.249,45.654"></path><path fill-rule="evenodd" clip-rule="evenodd" fill="#FFFFFF" d="M40.205,45.656c-0.258,0.085-0.366,0.286-0.327,0.606   C40.182,46.187,40.268,45.971,40.205,45.656"></path><path fill-rule="evenodd" clip-rule="evenodd" fill="#FFFFFF" d="M40.11,46.307c-0.225,0.073-0.319,0.249-0.284,0.526   C40.089,46.768,40.164,46.579,40.11,46.307"></path><path fill-rule="evenodd" clip-rule="evenodd" fill="#FFFFFF" d="M40.093,46.97c-0.224,0.073-0.318,0.248-0.284,0.525   C40.071,47.431,40.147,47.242,40.093,46.97"></path><path fill-rule="evenodd" clip-rule="evenodd" fill="#FFFFFF" d="M39.396,45.597c0.257,0.085,0.366,0.287,0.326,0.606   C39.42,46.127,39.333,45.91,39.396,45.597"></path><path fill-rule="evenodd" clip-rule="evenodd" fill="#FFFFFF" d="M38.278,48.007c0.271-0.003,0.438,0.153,0.505,0.469   C38.471,48.501,38.32,48.324,38.278,48.007"></path><path fill-rule="evenodd" clip-rule="evenodd" fill="#FFFFFF" d="M38.821,44.665c0.144,0.185,0.122,0.379-0.065,0.585   C38.575,45.05,38.621,44.854,38.821,44.665"></path><path fill-rule="evenodd" clip-rule="evenodd" fill="#FFFFFF" d="M39.202,45.108c-0.229,0.045-0.341,0.206-0.334,0.484   C39.136,45.56,39.229,45.384,39.202,45.108"></path><path fill-rule="evenodd" clip-rule="evenodd" fill="#FFFFFF" d="M38.21,47.496c0.271-0.003,0.439,0.153,0.505,0.47   C38.403,47.992,38.251,47.813,38.21,47.496"></path><path fill-rule="evenodd" clip-rule="evenodd" fill="#FFFFFF" d="M39.315,48.071c-0.268,0.044-0.406,0.227-0.417,0.549   C39.211,48.592,39.329,48.391,39.315,48.071"></path><path fill-rule="evenodd" clip-rule="evenodd" fill="#FFFFFF" d="M37.254,48.658c0.306,0.768,0.643,1.502,1.042,2.176l-0.285,0.008   C37.786,50.002,37.263,49.108,37.254,48.658"></path><path fill-rule="evenodd" clip-rule="evenodd" fill="#FFFFFF" d="M37.469,48.214c0.138,0.529,0.335,1.039,0.695,1.494   c0.385,0.537,0.783,1.247,0.716,1.661C38.098,50.52,37.609,49.204,37.469,48.214"></path><path fill-rule="evenodd" clip-rule="evenodd" fill="#FFFFFF" d="M39.51,47.506c0.188,0.437,0.247,0.983,0.52,1.335l-0.332-0.051   C39.54,48.437,39.531,47.971,39.51,47.506"></path><path fill-rule="evenodd" clip-rule="evenodd" fill="#FFFFFF" d="M41.348,48.909l0.374,0.136c-0.153-0.679-0.106-1.4,0.06-2.101   C41.548,47.483,41.354,48.12,41.348,48.909"></path><path fill-rule="evenodd" clip-rule="evenodd" fill="#FFFFFF" d="M40.735,45.711l0.102,0.017l0.026-0.398   C40.774,45.434,40.731,45.562,40.735,45.711"></path><path fill-rule="evenodd" clip-rule="evenodd" fill="#FFFFFF" d="M40.472,45.58l0.123,0.021l0.031-0.484   C40.52,45.243,40.468,45.397,40.472,45.58"></path><path fill="#FFFFFF" d="M38.104,45.947c-0.056-0.289-0.082-0.585-0.09-0.882c-0.009-0.296,0-0.595,0.013-0.895l0.074,0.002   c-0.013,0.299-0.021,0.597-0.013,0.891c0.008,0.294,0.033,0.585,0.088,0.87L38.104,45.947z"></path><rect x="40.64" y="47.273" transform="matrix(-0.3027 0.9531 -0.9531 -0.3027 99.1471 22.0806)" fill="#FFFFFF" width="1.713" height="0.075"></rect><rect x="41.028" y="45.819" transform="matrix(-0.384 0.9233 -0.9233 -0.384 100.2584 24.8232)" fill="#FFFFFF" width="1.64" height="0.073"></rect><rect x="41.498" y="44.925" transform="matrix(-0.441 0.8975 -0.8975 -0.441 100.9713 27.0372)" fill="#FFFFFF" width="1.136" height="0.074"></rect><path fill="#FFFFFF" d="M38.015,48.909c-0.174-0.326-0.313-0.675-0.428-1.04c-0.114-0.364-0.202-0.746-0.273-1.14l0.073-0.013   c0.07,0.389,0.157,0.769,0.271,1.131c0.112,0.361,0.251,0.705,0.423,1.026L38.015,48.909z"></path><path fill="#FFFFFF" d="M38.265,48.071c-0.203-0.282-0.359-0.592-0.478-0.924c-0.118-0.331-0.2-0.685-0.253-1.058l0.073-0.011   c0.053,0.368,0.133,0.717,0.249,1.043c0.117,0.327,0.27,0.631,0.468,0.906L38.265,48.071z"></path><path fill="#FFFFFF" d="M38.21,47.565c-0.16-0.295-0.28-0.613-0.368-0.948c-0.089-0.334-0.146-0.685-0.18-1.047l0.073-0.007   c0.034,0.358,0.091,0.705,0.178,1.035c0.087,0.329,0.205,0.642,0.362,0.932L38.21,47.565z"></path><path fill="#FFFFFF" d="M38.219,46.867c-0.169-0.34-0.278-0.694-0.344-1.061c-0.066-0.365-0.089-0.742-0.086-1.125l0.074,0.001   c-0.004,0.379,0.02,0.752,0.084,1.111c0.065,0.359,0.173,0.708,0.337,1.04L38.219,46.867z"></path><rect x="36.853" y="50.156" transform="matrix(0.3626 0.9319 -0.9319 0.3626 70.7375 -3.0415)" fill="#FFFFFF" width="1.479" height="0.073"></rect><rect x="36.818" y="50.589" transform="matrix(0.3398 0.9405 -0.9405 0.3398 72.3538 -1.8145)" fill="#FFFFFF" width="1.302" height="0.074"></rect><rect x="37.003" y="51.252" transform="matrix(0.3985 0.9172 -0.9172 0.3985 69.5959 -3.5372)" fill="#FFFFFF" width="0.983" height="0.074"></rect><rect x="37.369" y="52.116" transform="matrix(0.4835 0.8754 -0.8754 0.4835 65.1225 -6.0578)" fill="#FFFFFF" width="0.65" height="0.073"></rect><rect x="37.208" y="52.631" transform="matrix(0.4674 0.8841 -0.8841 0.4674 66.6402 -5.276)" fill="#FFFFFF" width="0.982" height="0.074"></rect><path fill-rule="evenodd" clip-rule="evenodd" fill="#FFFFFF" d="M39.978,55.244L39.8,55.346c-0.653-0.412-1.143-0.989-1.591-1.605   C38.764,54.294,39.333,54.826,39.978,55.244"></path><path fill-rule="evenodd" clip-rule="evenodd" fill="#FFFFFF" d="M43.176,53.739h0.238c0.087-0.434,0.014-0.867-0.171-1.302   c-0.161-0.302-0.27-0.738-0.34-1.267L43.176,53.739z"></path><path fill="#FFFFFF" d="M42.46,51.889c-0.092-0.266-0.164-0.543-0.222-0.829c-0.059-0.286-0.103-0.58-0.138-0.88l0.074-0.009   c0.035,0.297,0.078,0.59,0.136,0.874c0.058,0.283,0.129,0.558,0.22,0.819L42.46,51.889z"></path><path fill="#FFFFFF" d="M42.463,50.226c0.133,0.441,0.245,0.873,0.303,1.271c0.059,0.402,0.062,0.773-0.022,1.095l-0.071-0.019   c0.082-0.311,0.078-0.672,0.021-1.064c-0.057-0.396-0.168-0.823-0.301-1.263L42.463,50.226z"></path><rect x="38.986" y="57.245" transform="matrix(0.8535 0.5211 -0.5211 0.8535 35.6772 -12.3362)" fill="#FFFFFF" width="1.584" height="0.073"></rect><rect x="39.046" y="56.122" transform="matrix(0.7867 0.6173 -0.6173 0.7867 43.1622 -12.6066)" fill="#FFFFFF" width="1.557" height="0.074"></rect><rect x="41.866" y="56.776" transform="matrix(0.8691 0.4946 -0.4946 0.8691 33.6418 -13.4965)" fill="#FFFFFF" width="0.91" height="0.075"></rect><rect x="44.733" y="54.889" transform="matrix(0.6095 0.7928 -0.7928 0.6095 61.2702 -14.5295)" fill="#FFFFFF" width="1.3" height="0.074"></rect><rect x="46.106" y="56.746" transform="matrix(0.5363 0.8441 -0.8441 0.5363 69.5005 -12.9309)" fill="#FFFFFF" width="0.825" height="0.075"></rect><rect x="41.939" y="54.064" transform="matrix(0.5123 0.8588 -0.8588 0.5123 67.0267 -9.8336)" fill="#FFFFFF" width="0.465" height="0.073"></rect><rect x="42.259" y="53.898" transform="matrix(0.613 0.7901 -0.7901 0.613 59.0503 -12.685)" fill="#FFFFFF" width="0.43" height="0.074"></rect><rect x="42.436" y="53.749" transform="matrix(0.467 0.8843 -0.8843 0.467 70.314 -9.0823)" fill="#FFFFFF" width="0.51" height="0.074"></rect><rect x="5" y="21.181" fill="none" width="89.885" height="57.518"></rect><rect x="5" y="21.181" fill="none" width="90" height="57.639"></rect></g></svg>