<svg xmlns="http://www.w3.org/2000/svg" xmlns:xlink="http://www.w3.org/1999/xlink" version="1.1" x="0px" y="0px" viewBox="0 0 100 100" enable-background="new 0 0 100 100" xml:space="preserve"><g><rect x="5" y="20" width="90" height="23.071"></rect><rect x="12.888" y="56.24" fill-rule="evenodd" clip-rule="evenodd" fill="#FFFFFF" width="74.283" height="23.76"></rect><rect x="7.741" y="43.072" fill-rule="evenodd" clip-rule="evenodd" fill="#0072BA" width="84.578" height="13.167"></rect><path fill="#E5352C" d="M5,20v59.79h44.903L5.151,20H5z M94.907,20L50.216,79.79H95V20H94.907z"></path><polygon fill-rule="evenodd" clip-rule="evenodd" fill="#FFDD00" points="30.593,43.078 39.205,40.715 32.074,34.84 40.854,36.27    36.296,27.845 43.902,32.881 42.587,23.12 47.872,31.047 50.026,21.472 52.205,31.047 57.436,23.12 56.148,32.881 63.753,27.845    59.197,36.27 67.977,34.84 60.847,40.715 69.459,43.078  "></polygon></g></svg>