<svg xmlns="http://www.w3.org/2000/svg" xmlns:xlink="http://www.w3.org/1999/xlink" version="1.1" x="0px" y="0px" viewBox="0 0 100 100" enable-background="new 0 0 100 100" xml:space="preserve"><g><defs><rect id="h" x="5" y="20" width="90" height="60"></rect></defs><clipPath id="a"><use xlink:href="#h" overflow="visible"></use></clipPath><g clip-path="url(#a)"><text transform="matrix(0.9938 0 0 1 68.0596 -30.3467)" font-family="'Arial-BoldMT'" font-size="10.8661">ANGOLA</text></g><g clip-path="url(#a)"><text transform="matrix(0.9938 0 0 1 79.2568 -17.3076)" font-family="'Arial-BoldMT'" font-size="10.8661">ANG</text></g><g clip-path="url(#a)"><text transform="matrix(0.9938 0 0 1 67.8047 -9.8633)" font-family="'Arial-BoldMT'" font-size="5.148">Flag Proportion 2:3</text></g><g clip-path="url(#a)"><text transform="matrix(0.9938 0 0 1 31.3154 97.1475)" font-family="'Arial-BoldMT'" font-size="5.148">Horizontal Flag</text></g><g clip-path="url(#a)"><text transform="matrix(0.9938 0 0 1 140.0049 127.7002)"><tspan x="0" y="0" font-family="'Arial-BoldMT'" font-size="5.148">V</tspan><tspan x="3.15" y="0" font-family="'Arial-BoldMT'" font-size="5.148">ertical Flag</tspan></text></g><g clip-path="url(#a)"><text transform="matrix(0.9938 0 0 1 16.6885 174.4541)" font-family="'Arial-BoldMT'" font-size="5.148">Colours</text></g><path clip-path="url(#a)" fill="#FFFFFF" d="M185.203-68.634c-0.54,0-0.983-0.446-0.983-0.989   c0-0.542,0.443-0.988,0.983-0.988c0.538,0,0.979,0.446,0.979,0.988C186.182-69.08,185.741-68.634,185.203-68.634 M185.203-70.247   c-0.336,0-0.595,0.286-0.595,0.624c0,0.339,0.262,0.625,0.595,0.625c0.331,0,0.59-0.291,0.59-0.625   C185.793-69.961,185.535-70.247,185.203-70.247"></path><polygon clip-path="url(#a)" fill="#FFFFFF" points="188.034,-68.638 187.655,-68.737 187.952,-70.139 186.992,-69.618    186.789,-68.638 186.41,-68.737 186.806,-70.607 187.182,-70.507 187.091,-70.087 188.018,-70.607 188.388,-70.294  "></polygon><path clip-path="url(#a)" fill="#FFFFFF" d="M190.189-68.638l-0.375-0.1l0.087-0.404l-0.914,0.504l-0.37-0.312l0.348-1.657   l1.178,0.309l0.229-1.098l0.375,0.1L190.189-68.638z M189.264-70.144l-0.22,1.041L190-69.623l0.064-0.308L189.264-70.144z"></path><path clip-path="url(#a)" fill="#FFFFFF" d="M191.81-68.634c-0.539,0-0.983-0.446-0.983-0.989   c0-0.542,0.444-0.988,0.983-0.988s0.979,0.446,0.979,0.988C192.788-69.08,192.349-68.634,191.81-68.634 M191.81-70.247   c-0.336,0-0.595,0.286-0.595,0.624c0,0.339,0.263,0.625,0.595,0.625s0.591-0.291,0.591-0.625   C192.4-69.961,192.142-70.247,191.81-70.247"></path><polygon clip-path="url(#a)" fill="#FFFFFF" points="194.642,-68.638 194.263,-68.737 194.56,-70.139 193.599,-69.618    193.396,-68.638 193.017,-68.737 193.413,-70.607 193.788,-70.507 193.697,-70.087 194.626,-70.607 194.995,-70.294  "></polygon><path clip-path="url(#a)" fill="#FFFFFF" d="M202.86-78.623c-0.073-0.008-0.147-0.012-0.225-0.012   c-0.079,0-0.157,0.004-0.233,0.013c-0.096,1.113-0.889,2.024-1.94,2.299c0.065,1.145,1.014,2.057,2.174,2.057   s2.107-0.912,2.173-2.056C203.753-76.595,202.956-77.508,202.86-78.623 M207.635-78.977c-0.068-1.146-1.015-2.056-2.173-2.056   c-1.161,0-2.104,0.909-2.17,2.055c1.052,0.272,1.845,1.184,1.94,2.3c0.075,0.008,0.152,0.013,0.229,0.013   c0.079,0,0.158-0.006,0.234-0.015C205.794-77.793,206.584-78.703,207.635-78.977 M204.788-76.773   c-0.124-0.825-0.705-1.5-1.477-1.753C203.432-77.702,204.012-77.025,204.788-76.773 M201.975-78.976   c-0.066-1.146-1.01-2.057-2.171-2.057c-1.2,0-2.176,0.979-2.176,2.186c0,1.203,0.976,2.182,2.176,2.182   c0.08,0,0.158-0.005,0.233-0.014C200.134-77.792,200.924-78.701,201.975-78.976 M201.955-78.523   c-0.771,0.254-1.35,0.926-1.473,1.748C201.254-77.028,201.833-77.702,201.955-78.523 M210.441-76.774   c-0.123-0.825-0.704-1.501-1.476-1.753C209.087-77.702,209.668-77.027,210.441-76.774 M211.116-76.236   c-0.075,0-0.15-0.005-0.225-0.012c-0.104,1.35-1.228,2.411-2.6,2.411c-1.373,0-2.495-1.062-2.597-2.411   c-0.077,0.007-0.155,0.013-0.233,0.013c-0.076,0-0.152-0.006-0.229-0.012c-0.103,1.35-1.224,2.41-2.598,2.41   c-1.376,0-2.497-1.061-2.6-2.41c-0.076,0.006-0.153,0.012-0.232,0.012c-1.439,0-2.605-1.169-2.605-2.611   c0-1.444,1.166-2.614,2.605-2.614c1.371,0,2.495,1.062,2.6,2.41c0.077-0.007,0.154-0.013,0.232-0.013   c0.077,0,0.15,0.005,0.225,0.012c0.105-1.348,1.23-2.409,2.602-2.409c1.372,0,2.493,1.062,2.597,2.409   c0.076-0.007,0.155-0.012,0.233-0.012s0.153,0.005,0.229,0.012c0.104-1.348,1.223-2.409,2.596-2.409c1.444,0,2.61,1.17,2.61,2.614   C213.727-77.405,212.561-76.236,211.116-76.236 M207.614-78.524c-0.77,0.253-1.349,0.926-1.473,1.748   C206.913-77.03,207.492-77.702,207.614-78.524 M211.116-81.032c-1.158,0-2.103,0.909-2.17,2.055c1.05,0.272,1.848,1.183,1.943,2.3   c0.075,0.008,0.15,0.013,0.227,0.013c1.206,0,2.182-0.979,2.182-2.182C213.298-80.053,212.322-81.032,211.116-81.032    M208.521-78.622c-0.075-0.009-0.151-0.013-0.229-0.013c-0.08,0-0.158,0.005-0.234,0.013c-0.095,1.113-0.886,2.023-1.937,2.299   c0.066,1.144,1.012,2.057,2.171,2.057c1.162,0,2.104-0.912,2.17-2.056C209.41-76.596,208.616-77.508,208.521-78.622"></path><rect x="17.863" y="178.484" clip-path="url(#a)" fill="#CBCDD3" width="18.746" height="28.587"></rect><rect x="16.718" y="177.297" clip-path="url(#a)" fill="#FFFFFF" width="18.746" height="28.588"></rect><rect x="16.78" y="177.362" clip-path="url(#a)" fill="#DC002E" width="18.6" height="18.53"></rect><polygon clip-path="url(#a)" fill="#353C3D" points="35.465,205.885 35.465,205.777 16.826,205.777 16.826,177.405    35.357,177.405 35.357,205.885 35.465,205.885 35.465,205.777 35.465,205.885 35.572,205.885 35.572,177.189 16.611,177.189    16.611,205.992 35.572,205.992 35.572,205.885  "></polygon></g><g><defs><rect id="g" x="5" y="20" width="90" height="60"></rect></defs><clipPath id="c"><use xlink:href="#g" overflow="visible"></use></clipPath><g clip-path="url(#c)"><text transform="matrix(0.9938 0 0 1.3587 18.0527 200.3477)"><tspan x="0" y="0" fill="#1A171A" font-family="'Humanist521BT-Bold'" font-size="3.2435">P</tspan><tspan x="1.848" y="0" fill="#1A171A" font-family="'Humanist521BT-Bold'" font-size="3.2435">MS</tspan></text></g><g clip-path="url(#c)"><text transform="matrix(0.9938 0 0 1 18.0527 204.6416)" fill="#1A171A" font-family="'Humanist521BT-Bold'" font-size="4.4071">186</text></g><g clip-path="url(#c)"><text transform="matrix(0.9938 0 0 1.3587 43.1201 200.3477)"><tspan x="0" y="0" fill="#1A171A" font-family="'Humanist521BT-Bold'" font-size="3.2435">P</tspan><tspan x="1.848" y="0" fill="#1A171A" font-family="'Humanist521BT-Bold'" font-size="3.2435">MS</tspan></text></g><g clip-path="url(#c)"><text transform="matrix(0.9938 0 0 1 43.1201 204.6416)" fill="#1A171A" font-family="'Humanist521BT-Bold'" font-size="4.4071">109</text></g><g clip-path="url(#c)"><text transform="matrix(0.9938 0 0 1.3587 68.6748 200.3477)"><tspan x="0" y="0" fill="#1A171A" font-family="'Humanist521BT-Bold'" font-size="3.2435">P</tspan><tspan x="1.848" y="0" fill="#1A171A" font-family="'Humanist521BT-Bold'" font-size="3.2435">MS</tspan></text></g><g clip-path="url(#c)"><text transform="matrix(0.9938 0 0 1 68.6748 204.6416)" fill="#1A171A" font-family="'Humanist521BT-Bold'" font-size="4.4071">Black</text></g></g><rect x="5" y="20" fill="#E4312B" width="90" height="29.614"></rect><g><rect x="5" y="49.614" width="90" height="30.386"></rect></g><path fill-rule="evenodd" clip-rule="evenodd" fill="#FFDF00" d="M60.483,61.177c0.334-0.335,0.637-0.641,0.849-0.944l-0.938-0.822  c0.696-0.793,1.21-1.615,1.665-2.407l1.09,0.64c0.425-0.731,1.06-2.071,1.302-2.924l-1.181-0.396  c0.363-1.006,0.515-1.95,0.636-2.864l1.241,0.153c0.121-0.823,0.212-2.286,0.092-3.138l-1.242,0.06  c-0.061-1.065-0.272-1.979-0.515-2.894l1.212-0.306c-0.213-0.822-0.697-2.224-1.12-2.985l-1.121,0.549  c-0.455-0.975-1.029-1.737-1.574-2.468l0.999-0.792c-0.515-0.67-1.483-1.768-2.181-2.316l-0.817,0.945  c-0.787-0.701-1.604-1.219-2.361-1.676l0.575-1.097c-0.666-0.427-1.998-1.066-2.846-1.31l-0.394,1.188  c-1.03-0.365-1.968-0.518-2.847-0.64l-0.333,2.925c5.874,0.762,10.416,5.849,10.416,11.973c0,3.565-1.575,6.794-4.058,8.987  L60.483,61.177z"></path><path fill-rule="evenodd" clip-rule="evenodd" fill="#FFDF00" d="M55.7,64.468c-0.757,0.335-1.695,0.64-2.302,0.791l-0.303-1.188  c-0.907,0.212-1.815,0.426-2.876,0.487l0.061,1.249c-0.848,0.122-2.331,0.03-3.149-0.092l0.152-1.248  c-0.908-0.123-1.848-0.275-2.846-0.64l-0.395,1.187c-0.848-0.212-2.18-0.853-2.906-1.31l0.636-1.065  c-0.424-0.244-0.817-0.487-1.211-0.762l1.665-2.438c1.968,1.401,4.33,2.193,6.903,2.193c1.483,0,2.877-0.243,4.179-0.73  c0,0,0.727,0.456,1.665,1.035c0.121,0.092,0.363,0.183,0.394,0.365C55.55,63.37,55.7,64.468,55.7,64.468"></path><g><path fill-rule="evenodd" clip-rule="evenodd" fill="#FFDF00" d="M44.225,47.62c-2.24,3.412-0.333,7.099,2.635,8.804   c4.299,2.468,8.901,5.089,13.988,8.5l1.271-1.645C54.429,57.552,45.194,51.215,44.225,47.62"></path></g><g><path fill-rule="evenodd" clip-rule="evenodd" fill="#FFDF00" d="M62.119,63.279c-0.425,0.518-0.727,0.975-1.211,1.553   c-0.363,0.458,0.182,0.458,0.424,0.487c1.483,0.214,3.027,1.828,3.604,2.986c0.604,1.128,1.302,1.158,1.755,0.914   c0.333-0.183,0.909-1.006-0.151-2.225c-1.09-1.31-2.604-2.406-4.117-3.655C62.24,63.188,62.18,63.218,62.119,63.279"></path></g><g><path d="M66.218,69.419L66.218,69.419c-0.353,0-0.871-0.187-1.349-1.077c-0.548-1.102-2.085-2.736-3.548-2.946   c-0.021-0.003-0.049-0.006-0.077-0.008c-0.188-0.02-0.446-0.045-0.517-0.214c-0.044-0.104-0.004-0.231,0.121-0.389   c0.266-0.315,0.476-0.597,0.679-0.867c0.175-0.232,0.339-0.451,0.533-0.688c0.084-0.084,0.201-0.124,0.41,0.052   c0.324,0.267,0.65,0.528,0.971,0.787c1.181,0.947,2.296,1.843,3.156,2.877c0.612,0.705,0.669,1.263,0.607,1.606   c-0.068,0.386-0.3,0.637-0.478,0.734C66.563,69.375,66.392,69.419,66.218,69.419z M62.215,63.305c-0.008,0-0.018,0.003-0.043,0.028   c-0.187,0.229-0.35,0.446-0.523,0.677c-0.204,0.272-0.417,0.555-0.683,0.872c-0.082,0.104-0.117,0.187-0.099,0.233   c0.035,0.085,0.259,0.106,0.393,0.12c0.029,0.003,0.057,0.006,0.081,0.009c1.585,0.228,3.122,1.94,3.662,3.027   c0.35,0.65,0.77,0.995,1.215,0.995l0,0c0.149,0,0.297-0.038,0.438-0.114c0.119-0.065,0.338-0.271,0.401-0.627   c0.055-0.312,0-0.819-0.574-1.479c-0.852-1.023-1.961-1.915-3.135-2.858c-0.322-0.259-0.648-0.52-0.974-0.789   C62.276,63.317,62.233,63.305,62.215,63.305z"></path></g><polygon fill-rule="evenodd" clip-rule="evenodd" fill="#FFDF00" points="50.159,38.968 48.948,42.714 45.013,42.714 48.222,45.061   46.979,48.808 50.159,46.462 53.309,48.808 52.097,45.03 55.276,42.745 51.371,42.745 "></polygon><g><path fill-rule="evenodd" clip-rule="evenodd" d="M62.882,64.676c0.091,0,0.152-0.061,0.152-0.122c0-0.091-0.062-0.152-0.152-0.152   c-0.09,0-0.15,0.062-0.15,0.152C62.731,64.615,62.792,64.676,62.882,64.676 M64.396,65.955c0.091,0,0.15-0.061,0.15-0.152   c0-0.061-0.06-0.151-0.15-0.151s-0.151,0.091-0.151,0.151C64.245,65.895,64.306,65.955,64.396,65.955 M65.789,67.296   c0.091,0,0.151-0.062,0.151-0.152c0-0.092-0.061-0.153-0.151-0.153c-0.061,0-0.151,0.062-0.151,0.153   C65.638,67.234,65.729,67.296,65.789,67.296"></path></g><g><path d="M65.789,67.341c-0.08,0-0.197-0.076-0.197-0.197s0.117-0.198,0.197-0.198c0.116,0,0.196,0.082,0.196,0.198   S65.905,67.341,65.789,67.341z M65.789,67.036c-0.036,0-0.106,0.042-0.106,0.107s0.07,0.106,0.106,0.106   c0.065,0,0.106-0.041,0.106-0.106S65.854,67.036,65.789,67.036z M64.396,66c-0.115,0-0.196-0.081-0.196-0.197   c0-0.08,0.076-0.198,0.196-0.198s0.196,0.118,0.196,0.198C64.593,65.919,64.512,66,64.396,66z M64.396,65.696   c-0.065,0-0.106,0.07-0.106,0.106c0,0.066,0.04,0.106,0.106,0.106c0.065,0,0.106-0.041,0.106-0.106   C64.503,65.767,64.461,65.696,64.396,65.696z M62.882,64.721c-0.121,0-0.195-0.087-0.195-0.167c0-0.116,0.08-0.197,0.195-0.197   c0.116,0,0.197,0.081,0.197,0.197C63.079,64.634,63.004,64.721,62.882,64.721z M62.882,64.447c-0.065,0-0.105,0.04-0.105,0.106   c0,0.037,0.043,0.076,0.105,0.076c0.063,0,0.106-0.039,0.106-0.076C62.988,64.488,62.947,64.447,62.882,64.447z"></path></g><g><path d="M61.651,63.92c-1.003-0.728-2.016-1.453-3.021-2.174c-4.166-2.986-8.102-5.808-10.974-8.403l0.101-0.113   c2.866,2.59,6.798,5.408,10.961,8.392c1.007,0.723,2.019,1.448,3.021,2.175L61.651,63.92z"></path></g><g><defs><rect id="f" x="5" y="20" width="90" height="60"></rect></defs><clipPath id="e"><use xlink:href="#f" overflow="visible"></use></clipPath><g clip-path="url(#e)"><defs><rect id="d" x="125.299" y="19.581" width="60.525" height="91.353"></rect></defs><clipPath id="b"><use xlink:href="#d" overflow="visible"></use></clipPath><path clip-path="url(#b)" fill-rule="evenodd" clip-rule="evenodd" fill="#FFDF00" d="M144.071,75.782    c0.334,0.335,0.637,0.64,0.938,0.853l0.817-0.943c0.788,0.7,1.604,1.218,2.393,1.675l-0.637,1.097    c0.727,0.428,2.06,1.066,2.907,1.311l0.394-1.188c1,0.365,1.938,0.518,2.847,0.64l-0.152,1.249    c0.817,0.122,2.271,0.213,3.118,0.092l-0.06-1.249c1.06-0.062,1.968-0.274,2.877-0.519l0.303,1.22    c0.817-0.214,2.21-0.701,2.966-1.127l-0.545-1.129c0.97-0.457,1.727-1.034,2.453-1.583l0.787,1.005    c0.667-0.518,1.756-1.492,2.302-2.193l-0.939-0.823c0.697-0.791,1.212-1.614,1.666-2.376l1.09,0.579    c0.425-0.67,1.06-2.011,1.302-2.864l-1.181-0.396c0.363-1.036,0.515-1.979,0.636-2.863l-2.906-0.335    c-0.757,5.91-5.813,10.48-11.899,10.48c-3.543,0-6.753-1.584-8.932-4.082L144.071,75.782z"></path><path clip-path="url(#b)" fill-rule="evenodd" clip-rule="evenodd" fill="#FFDF00" d="M140.802,70.968    c-0.333-0.761-0.636-1.705-0.788-2.314l1.182-0.305c-0.212-0.914-0.424-1.828-0.484-2.895l-1.242,0.061    c-0.12-0.853-0.029-2.346,0.091-3.168l1.242,0.153c0.121-0.915,0.272-1.859,0.636-2.864l-1.181-0.396    c0.212-0.854,0.848-2.193,1.302-2.925l1.06,0.64c0.242-0.426,0.484-0.822,0.757-1.218l2.422,1.675    c-1.392,1.98-2.18,4.356-2.18,6.947c0,1.492,0.242,2.894,0.727,4.203c0,0-0.454,0.732-1.029,1.676    c-0.091,0.122-0.182,0.365-0.363,0.396C141.892,70.817,140.802,70.968,140.802,70.968"></path><path clip-path="url(#b)" fill-rule="evenodd" clip-rule="evenodd" fill="#FFDF00" d="M157.545,59.422    c-3.391-2.254-7.055-0.335-8.75,2.65c-2.452,4.326-5.057,8.957-8.447,14.075l1.635,1.279    C147.674,69.688,153.973,60.396,157.545,59.422"></path><path clip-path="url(#b)" fill-rule="evenodd" clip-rule="evenodd" fill="#FFDF00" d="M141.982,77.427    c-0.515-0.426-0.969-0.73-1.544-1.218c-0.454-0.366-0.454,0.183-0.484,0.426c-0.213,1.493-1.817,3.047-2.968,3.627    c-1.121,0.607-1.15,1.309-0.908,1.767c0.182,0.334,0.999,0.913,2.21-0.153c1.303-1.097,2.392-2.62,3.634-4.144    C142.073,77.549,142.043,77.488,141.982,77.427"></path><path clip-path="url(#b)" fill="none" stroke="#000000" stroke-width="0.311" stroke-miterlimit="2.613" d="    M141.982,77.427c-0.515-0.426-0.969-0.73-1.544-1.218c-0.454-0.366-0.454,0.183-0.484,0.426c-0.213,1.493-1.817,3.047-2.968,3.627    c-1.121,0.607-1.15,1.309-0.908,1.767c0.182,0.334,0.999,0.913,2.21-0.153c1.303-1.097,2.392-2.62,3.634-4.144    C142.073,77.549,142.043,77.488,141.982,77.427z"></path><polygon clip-path="url(#b)" fill-rule="evenodd" clip-rule="evenodd" fill="#FFDF00" points="166.144,65.394     162.42,64.175 162.42,60.215 160.089,63.443 156.364,62.194 158.696,65.394 156.364,68.562 160.118,67.343 162.39,70.542     162.39,66.612   "></polygon><path clip-path="url(#b)" fill-rule="evenodd" clip-rule="evenodd" d="M140.594,78.195c0,0.091,0.062,0.152,0.122,0.152    c0.091,0,0.15-0.062,0.15-0.152s-0.06-0.151-0.15-0.151C140.655,78.044,140.594,78.104,140.594,78.195 M139.322,79.719    c0,0.092,0.061,0.153,0.151,0.153c0.062,0,0.152-0.062,0.152-0.153c0-0.091-0.091-0.152-0.152-0.152    C139.383,79.566,139.322,79.628,139.322,79.719 M137.989,81.12c0,0.091,0.062,0.152,0.152,0.152s0.151-0.062,0.151-0.152    c0-0.061-0.061-0.152-0.151-0.152S137.989,81.06,137.989,81.12"></path><path clip-path="url(#b)" fill="none" stroke="#000000" stroke-width="0.186" stroke-miterlimit="2.613" d="    M140.594,78.195c0,0.091,0.062,0.152,0.122,0.152c0.091,0,0.15-0.062,0.15-0.152s-0.06-0.151-0.15-0.151    C140.655,78.044,140.594,78.104,140.594,78.195z M139.322,79.719c0,0.092,0.061,0.153,0.151,0.153    c0.062,0,0.152-0.062,0.152-0.153c0-0.091-0.091-0.152-0.152-0.152C139.383,79.566,139.322,79.628,139.322,79.719z M137.989,81.12    c0,0.091,0.062,0.152,0.152,0.152s0.151-0.062,0.151-0.152c0-0.061-0.061-0.152-0.151-0.152S137.989,81.06,137.989,81.12z"></path><path clip-path="url(#b)" fill="none" stroke="#000000" stroke-width="0.311" stroke-miterlimit="2.613" d="    M141.406,77.001c3.665-5.118,7.298-10.48,10.507-14.075"></path><g clip-path="url(#b)"><text transform="matrix(0.9938 0 0 -1 173.9727 17.4941)" fill="#FFFFFF" font-family="'MyriadPro-Regular'" font-size="0.6226">london 2012 .ANG - ANGOLA. 120X180 </text></g><polygon clip-path="url(#b)" fill="#FFFFFF" points="184.553,17.692 184.555,17.692 184.129,17.894 184.129,17.491     184.555,17.692   "></polygon></g></g></svg>