<svg xmlns="http://www.w3.org/2000/svg" xmlns:xlink="http://www.w3.org/1999/xlink" version="1.1" x="0px" y="0px" viewBox="0 0 100 100" enable-background="new 0 0 100 100" xml:space="preserve"><rect x="5" y="20" fill="#79ACDB" width="90" height="19.004"></rect><rect x="5" y="39.004" fill="#FFFFFF" width="90" height="21.699"></rect><rect x="5" y="60.703" fill="#79ACDB" width="90" height="19.004"></rect><polygon fill="#F5B41A" points="50,45.612 50.895,41.092 50.891,45.7 52.649,41.441 51.746,45.96 54.303,42.126 52.536,46.382   55.791,43.12 53.228,46.949 57.056,44.386 53.795,47.641 58.05,45.874 54.217,48.43 58.735,47.527 54.477,49.286 59.084,49.282   54.564,50.177 59.084,51.071 54.477,51.067 58.735,52.826 54.217,51.923 58.05,54.479 53.795,52.712 57.056,55.968 53.228,53.404   55.791,57.232 52.536,53.972 54.303,58.227 51.746,54.394 52.649,58.911 50.891,54.653 50.895,59.261 50,54.74 49.105,59.261   49.109,54.653 47.351,58.911 48.253,54.394 45.697,58.227 47.464,53.972 44.209,57.232 46.772,53.404 42.943,55.968 46.205,52.712   41.949,54.479 45.783,51.923 41.265,52.826 45.523,51.067 40.916,51.071 45.436,50.177 40.916,49.282 45.523,49.286 41.265,47.527   45.783,48.43 41.949,45.874 46.205,47.641 42.943,44.386 46.772,46.949 44.209,43.12 47.464,46.382 45.697,42.126 48.253,45.96   47.351,41.441 49.109,45.7 49.105,41.092 "></polygon></svg>