<svg xmlns="http://www.w3.org/2000/svg" xmlns:xlink="http://www.w3.org/1999/xlink" version="1.1" x="0px" y="0px" viewBox="0 0 100 100" enable-background="new 0 0 100 100" xml:space="preserve"><g><g><rect x="5" y="20" fill="#002B7F" width="30" height="60"></rect><rect x="65" y="20" fill="#002B7F" width="30" height="60"></rect><rect x="35" y="20" fill="#FFC61E" width="30" height="60"></rect><path d="M62.829,37.688c-3.594,0.109-7.703,3.922-6.719,3.406s1.469-0.312,1.469-0.312C55.918,43.792,54.72,52.25,54.72,52.25    l-3.107-0.438v-11.17c1.266-0.102,2.464,0.346,2.429,0.316c-1.063-0.92-2.937-4.46-3.98-7.264l-0.047-0.164    c-0.002,0.007-0.005,0.014-0.008,0.021c-0.002-0.007-0.005-0.014-0.008-0.021l0.006,0.026c-1.373,3.906-2.943,6.466-4.025,7.401    c-0.035,0.03,1.193-0.431,2.477-0.314v11.158l-3.176,0.447c0,0-1.197-8.458-2.859-11.469c0,0,0.484-0.203,1.469,0.312    s-3.125-3.297-6.719-3.406c-0.143-0.004,6.641,10.5,5.828,17.688l5.457-0.697v7.758h3.157v-7.75l5.389,0.689    C56.188,48.188,62.973,37.683,62.829,37.688z"></path></g></g></svg>