<svg xmlns="http://www.w3.org/2000/svg" xmlns:xlink="http://www.w3.org/1999/xlink" version="1.1" x="0px" y="0px" viewBox="0 0 100 100" enable-background="new 0 0 100 100" xml:space="preserve"><rect x="5" y="20" fill="#FFFFFF" width="90" height="60"></rect><polygon fill-rule="evenodd" clip-rule="evenodd" fill="#5BAC26" points="49.725,46.064 51.166,43.567 54.078,43.567 52.639,41.037   54.078,38.507 51.166,38.507 49.725,35.978 48.252,38.507 45.37,38.507 46.779,41.037 45.37,43.567 48.252,43.567 "></polygon><polygon fill-rule="evenodd" clip-rule="evenodd" fill="#5BAC26" points="41.624,60.312 43.096,57.816 45.978,57.816 44.537,55.254   45.978,52.725 43.096,52.725 41.624,50.258 40.151,52.725 37.269,52.725 38.709,55.254 37.269,57.816 40.151,57.816 "></polygon><polygon fill-rule="evenodd" clip-rule="evenodd" fill="#5BAC26" points="57.505,60.312 58.978,57.816 61.86,57.816 60.419,55.254   61.86,52.725 58.978,52.725 57.505,50.258 56.064,52.725 53.182,52.725 54.623,55.254 53.182,57.816 56.064,57.816 "></polygon><polygon fill-rule="evenodd" clip-rule="evenodd" fill="#DC002E" points="49.725,45.295 50.941,43.182 53.406,43.182 52.189,41.037   53.406,38.891 50.941,38.891 49.725,36.746 48.475,38.891 46.01,38.891 47.227,41.037 46.01,43.182 48.475,43.182 "></polygon><polygon fill-rule="evenodd" clip-rule="evenodd" fill="#DC002E" points="41.624,59.544 42.872,57.431 45.306,57.431 44.089,55.254   45.306,53.109 42.872,53.109 41.624,51.027 40.374,53.109 37.941,53.109 39.158,55.254 37.941,57.431 40.374,57.431 "></polygon><polygon fill-rule="evenodd" clip-rule="evenodd" fill="#DC002E" points="57.505,59.544 58.754,57.431 61.188,57.431 59.971,55.254   61.188,53.109 58.754,53.109 57.505,51.027 56.288,53.109 53.855,53.109 55.07,55.254 53.855,57.431 56.288,57.431 "></polygon><path fill="#5BAC26" d="M5,22.258v55.824l27.993-20.633c-0.94-2.182-1.462-4.584-1.462-7.106c0-2.543,0.531-4.967,1.488-7.166  L5,22.258z"></path><path fill="#DC002E" d="M49.588,68.4h-0.06c-0.086-0.002-0.171-0.002-0.257-0.004c-4.327-0.076-8.29-1.686-11.369-4.307L16.257,80  h66.771L61.274,64.089c-3.076,2.62-7.034,4.229-11.358,4.308c-0.09,0.002-0.18,0.002-0.271,0.004H49.588z"></path><path fill="#DC002E" d="M15.673,20l22.3,16.536c3.067-2.584,7-4.17,11.29-4.246c0.088-0.002,0.178-0.004,0.267-0.004l0.057-0.001  l0.056,0.001c0.094,0,0.188,0.002,0.281,0.004c4.298,0.08,8.238,1.674,11.306,4.27L83.618,20H15.673z"></path><path fill="#5BAC26" d="M95,78.626V21.834L66.161,43.184c0.954,2.197,1.484,4.618,1.484,7.159c0,2.521-0.521,4.923-1.462,7.104  L95,78.626z"></path></svg>