<svg xmlns="http://www.w3.org/2000/svg" xmlns:xlink="http://www.w3.org/1999/xlink" version="1.1" x="0px" y="0px" viewBox="0 0 100 100" enable-background="new 0 0 100 100" xml:space="preserve"><polygon fill="#FF0000" points="72.5,20 72.5,27.5 72.5,72.5 72.5,80 95,80 95,20 "></polygon><polygon fill="#FF0000" points="27.5,20 5,20 5,80 27.5,80 27.5,72.5 27.5,27.5 "></polygon><rect x="27.5" y="20" fill="#FFFFFF" width="45" height="60"></rect><path fill="#FFFFFF" d="M58.75,58.13l0.738,2.426c-2.906-0.336-5.512-0.84-8.42-1.149c-0.258-0.027-0.646,0.416-0.646,0.713  l0.223,8.867H49.23l0.385-8.886c0.002-0.299-0.428-0.723-0.684-0.694c-2.91,0.311-5.514,0.813-8.422,1.149l0.74-2.426  c0.117-0.423-0.051-0.89-0.385-1.147l-8.443-6.857l1.748-0.822c0.77-0.273,0.555-0.706,0.277-1.749l-1.289-4.685l4.906,1.031  c0.479,0.072,0.797-0.23,0.871-0.521l0.629-2.205l3.879,4.343c0.553,0.694,1.67,0.694,1.322-0.912l-1.656-8.796l2.223,1.151  c0.625,0.348,1.248,0.404,1.598-0.219L50,31.017l3.07,5.726c0.35,0.623,0.975,0.565,1.598,0.219l2.223-1.151l-1.656,8.796  c-0.348,1.606,0.77,1.606,1.32,0.912l3.879-4.343l0.631,2.205c0.072,0.29,0.391,0.594,0.871,0.521l4.904-1.031l-1.287,4.685  c-0.277,1.043-0.492,1.476,0.277,1.749l1.748,0.822l-8.443,6.857C58.801,57.242,58.631,57.709,58.75,58.13z"></path><path fill="#FF0000" d="M67.578,50.125l-1.748-0.822c-0.77-0.273-0.555-0.706-0.277-1.749l1.287-4.685L61.936,43.9  c-0.48,0.072-0.799-0.23-0.871-0.521l-0.631-2.205l-3.879,4.343c-0.551,0.694-1.668,0.694-1.32-0.912l1.656-8.796l-2.223,1.151  c-0.623,0.348-1.248,0.404-1.598-0.219L50,31.017l-3.07,5.726c-0.35,0.623-0.973,0.565-1.598,0.219l-2.223-1.151l1.656,8.796  c0.348,1.606-0.77,1.606-1.322,0.912l-3.879-4.343l-0.629,2.205c-0.074,0.29-0.393,0.594-0.871,0.521l-4.906-1.031l1.289,4.685  c0.277,1.043,0.492,1.476-0.277,1.749l-1.748,0.822l8.443,6.857c0.334,0.26,0.502,0.727,0.385,1.147l-0.74,2.426  c2.908-0.336,5.514-0.84,8.422-1.149c0.256-0.027,0.686,0.396,0.684,0.694l-0.385,8.886h1.414l-0.223-8.867  c0-0.297,0.389-0.74,0.646-0.713c2.908,0.311,5.514,0.813,8.42,1.149L58.75,58.13c-0.119-0.423,0.051-0.89,0.385-1.147  L67.578,50.125z"></path></svg>