<svg xmlns="http://www.w3.org/2000/svg" xmlns:xlink="http://www.w3.org/1999/xlink" version="1.1" x="0px" y="0px" viewBox="400 250 100 100" enable-background="new 400 250 100 100" xml:space="preserve"><g><path fill="#FFFFFF" d="M450,270v15c5.558,0,10.409,3.022,13.001,7.514c-2.199-2.751-5.583-4.514-9.378-4.514   c-1.263,0-2.479,0.195-3.623,0.557v7.035l5.183,1.684l3.202-4.408v5.449l5.183,1.684l-5.183,1.684v5.449l-3.202-4.408L450,304.408   v7.035c1.144,0.361,2.36,0.557,3.623,0.557c3.795,0,7.179-1.763,9.378-4.514C460.409,311.978,455.558,315,450,315v15h45v-60H450z"></path><polygon fill="#FFFFFF" points="453.203,300 450,295.592 450,304.408  "></polygon><path fill="#006233" d="M441.623,300c0,5.364,3.521,9.906,8.377,11.443v-7.035v-8.816v-7.035   C445.144,290.093,441.623,294.635,441.623,300z"></path><path fill="#006233" d="M435,300c0-8.284,6.716-15,15-15v-15h-45v60h45v-15C441.716,315,435,308.284,435,300z"></path><path fill="#D21034" d="M435,300c0,8.284,6.716,15,15,15c5.558,0,10.409-3.022,13.001-7.514c-2.199,2.751-5.583,4.514-9.378,4.514   c-1.263,0-2.479-0.195-3.623-0.557c-4.856-1.537-8.377-6.079-8.377-11.443c0-5.365,3.521-9.907,8.377-11.443   c1.144-0.362,2.36-0.557,3.623-0.557c3.795,0,7.179,1.763,9.378,4.514C460.409,288.022,455.558,285,450,285   C441.716,285,435,291.716,435,300z"></path><polygon fill="#D21034" points="450,304.408 455.183,302.725 458.385,307.133 458.385,301.684 463.567,300 458.385,298.316    458.385,292.867 455.183,297.275 450,295.592 453.203,300  "></polygon></g></svg>