<svg xmlns="http://www.w3.org/2000/svg" xmlns:xlink="http://www.w3.org/1999/xlink" version="1.1" x="0px" y="0px" viewBox="0 0 100 100" enable-background="new 0 0 100 100" xml:space="preserve"><g><polygon fill="#FFFFFF" points="32,20 32,44 5,44 5,47 35,47 35,20  "></polygon><polygon fill="#FFFFFF" points="5,53.001 5,55.999 32,55.999 32,80 35,80 35,53.001  "></polygon><polygon fill="#FFFFFF" points="44,20 41,20 41,47 95,47 95,44 44,44  "></polygon><polygon fill="#FFFFFF" points="41,53.001 41,80 44,80 44,55.999 95,55.999 95,53.001  "></polygon><rect x="5" y="20" fill="#0052A5" width="26.9" height="24"></rect><rect x="5" y="55.999" fill="#0052A5" width="26.9" height="24.001"></rect><rect x="44" y="20" fill="#0052A5" width="51" height="24"></rect><rect x="44" y="55.999" fill="#0052A5" width="51" height="24.001"></rect><polygon fill="#D71F29" points="95,47 41,47 41,20 35,20 35,47 5,47 5,53.001 35,53.001 35,80 41,80 41,53.001 95,53.001  "></polygon></g></svg>