<svg xmlns="http://www.w3.org/2000/svg" xmlns:xlink="http://www.w3.org/1999/xlink" version="1.1" x="0px" y="0px" viewBox="0 0 100 100" enable-background="new 0 0 100 100" xml:space="preserve"><g><polygon fill="#FFFFFF" points="31.5,20.5 31.5,44.5 4.5,44.5 4.5,47.5 34.5,47.5 34.5,20.5  "></polygon><polygon fill="#FFFFFF" points="4.5,53.501 4.5,56.499 31.5,56.499 31.5,80.5 34.5,80.5 34.5,53.501  "></polygon><polygon fill="#FFFFFF" points="43.5,20.5 40.5,20.5 40.5,47.5 94.5,47.5 94.5,44.5 43.5,44.5  "></polygon><polygon fill="#FFFFFF" points="40.5,53.501 40.5,80.5 43.5,80.5 43.5,56.499 94.5,56.499 94.5,53.501  "></polygon><rect x="4.5" y="20.5" fill="#D21034" width="26.9" height="24"></rect><rect x="4.5" y="56.499" fill="#D21034" width="26.9" height="24.001"></rect><rect x="43.5" y="20.5" fill="#D21034" width="51" height="24"></rect><rect x="43.5" y="56.499" fill="#D21034" width="51" height="24.001"></rect><polygon fill="#00559B" points="94.5,47.5 40.5,47.5 40.5,20.5 34.5,20.5 34.5,47.5 4.5,47.5 4.5,53.501 34.5,53.501 34.5,80.5    40.5,80.5 40.5,53.501 94.5,53.501  "></polygon></g></svg>