<svg xmlns="http://www.w3.org/2000/svg" xmlns:xlink="http://www.w3.org/1999/xlink" version="1.1" x="0px" y="0px" viewBox="0 0 100 100" enable-background="new 0 0 100 100" xml:space="preserve"><g><path fill="#004C93" d="M55.91,49.827L5,20v60h50.047l-29.58-30.173H55.91z M50.254,78.501H7.395V24.143l39.747,23.306H19.811   L50.254,78.501z"></path><polygon fill-rule="evenodd" clip-rule="evenodd" fill="#DC002E" points="47.142,47.448 19.811,47.448 50.254,78.501 7.395,78.501    7.395,24.143  "></polygon><polygon fill-rule="evenodd" clip-rule="evenodd" fill="#FFFFFF" points="18.133,72.127 19.658,68.71 22.708,70.905 22.374,67.184    26.094,67.551 23.898,64.5 27.315,62.976 23.898,61.419 26.094,58.399 22.374,58.734 22.708,55.044 19.658,57.24 18.133,53.792    16.638,57.24 13.587,55.044 13.923,58.734 10.203,58.399 12.398,61.419 8.981,62.976 12.398,64.5 10.203,67.551 13.923,67.184    13.587,70.905 16.638,68.71  "></polygon><path fill-rule="evenodd" clip-rule="evenodd" fill="#FFFFFF" d="M14.229,42.201l0.365-0.732l-2.135-0.884l2.288-0.55l-1.525-1.646   l2.258,0.396l-0.702-2.165L16.7,37.9l0.273-2.227l1.16,1.922l1.189-1.922l0.275,2.227l1.921-1.281l-0.702,2.165l2.257-0.396   l-1.525,1.646l2.289,0.55l-2.136,0.884l0.367,0.732c2.256-1.098,4.025-3.08,4.819-5.521c0,0.274,0.029,0.52,0.029,0.794   c0,4.85-3.935,8.785-8.784,8.785c-4.821,0-8.755-3.936-8.755-8.785c0-0.244,0.03-0.488,0.03-0.732   C10.202,39.151,11.971,41.135,14.229,42.201"></path></g></svg>