<svg xmlns="http://www.w3.org/2000/svg" xmlns:xlink="http://www.w3.org/1999/xlink" version="1.1" x="0px" y="0px" viewBox="0 0 100 100" enable-background="new 0 0 100 100" xml:space="preserve"><rect x="35.1" y="20.2" fill="#FFFFFF" width="60" height="20"></rect><rect x="35.1" y="60.2" fill="#009A44" width="60" height="20"></rect><polygon fill="#F9423A" points="95,40.2 35.1,40.2 35.1,20.2 5,20.2 5,80.2 35.1,80.2 35.1,60.2 95,60.2 "></polygon><path fill="#FFFFFF" d="M30,41.6c-0.3-0.2-0.8-0.5-1.6-1.1c-0.2-0.1-0.3-0.2-0.4-0.2c0,0,0,0,0,0c-2.2-1.6-4.5-3.7-6.6-6.2  c0-0.1,0-0.3,0-0.4c0,0,0,0,0,0h0c0,0,0,0,0,0v-0.4c0.3-0.3,0.5-0.7,0.7-1c0,0,0,0,0,0c0,0.4,0.2,0.6,0.6,0.6c0.1,0,0.3,0,0.3-0.1  c0.1,0,0.2,0,0.3,0l0.2,0c0.1,0,0.1,0,0.2,0c0,0.1,0.1,0.2,0.2,0.2h3c0.1,0,0.2-0.1,0.2-0.2v-1.7c0-0.1-0.1-0.2-0.2-0.2h-3  c-0.1,0-0.2,0.1-0.2,0.2c0,0-0.1,0-0.2,0l-0.2,0c-0.1,0-0.2,0-0.3,0c0,0-0.1,0-0.1-0.1c0,0,0,0,0,0c0,0,0,0,0.1,0c0,0,0,0,0.1,0  c2.4-3.8,3.7-5.9,4.4-7c0,0,0,0,0,0l0,0c0.7-1.2,0.6-1.3,0.5-1.4c0,0-0.1,0-0.1,0c-0.3,0-0.9,0.6-5,6l0,0L21.8,30c0,0,0,0,0,0  c0,0-0.1,0.1-0.1,0.1c0,0,0,0,0,0c0,0,0,0.1,0,0.1c-0.1,0.1-0.2,0.3-0.3,0.4v-2.5c0,0,0,0,0,0c-0.5-0.3-0.8-0.5-0.8-1.7c0,0,0,0,0,0  c0,0,0,0,0,0c0-0.1,0-0.2,0-0.3c0-0.3,0-0.6,0.1-0.8c0.3-0.1,0.6-0.3,0.7-0.6c0.1,0,0.2-0.2,0.2-0.3c0-0.1-0.1-0.3-0.2-0.3  c-0.1-0.3-0.5-0.5-0.9-0.6c0,0,0-0.1,0-0.1c0-0.1,0-0.1-0.1-0.2c-0.1-0.1-0.1-0.1-0.2-0.1c-0.2,0-0.3,0.1-0.3,0.3c0,0,0,0.1,0,0.1  c-0.4,0.1-0.7,0.3-0.8,0.6c-0.2,0-0.3,0.1-0.3,0.3c0,0.1,0.1,0.3,0.2,0.3c0.1,0.3,0.3,0.5,0.7,0.6c0,0.2,0.1,0.5,0.1,0.8  c0,1.4-0.3,1.6-0.8,1.9c0,0,0,0,0,0l0,0.4h0c0,0,0,0,0,0l0,0.3h0c0,0,0,0,0,0l0,0.6h0c0,0,0,0,0,0l0,0.3h0c0,0,0,0,0,0l0,0.5h0  c0,0,0,0,0,0l0,0.7c-0.2-0.3-0.4-0.6-0.6-0.9c0-0.1,0.1-0.1,0-0.1c0,0-0.1-0.1-0.1-0.1c0,0,0,0,0,0l-1.1-1.4l0,0c-4.1-5.3-4.8-6-5-6  c0,0-0.1,0-0.1,0c-0.1,0.1-0.2,0.2,0.5,1.4l0,0c0,0,0,0,0,0c0.6,1.1,1.9,3.2,4.4,7c0,0,0,0,0.1,0c0,0,0,0,0.1,0c0,0,0,0,0,0  c-0.3,0-0.4,0.2-0.5,0.5c0,0,0,0,0,0c-0.1,0-0.1,0-0.2,0c0,0-0.1,0-0.1,0v-0.4c0-0.1-0.1-0.2-0.2-0.2h-3c-0.1,0-0.2,0.1-0.2,0.2v1.7  c0,0.1,0.1,0.2,0.2,0.2h3c0.1,0,0.2-0.1,0.2-0.2v-0.4c0,0,0.1,0,0.1,0c0,0,0.1,0,0.2,0c0,0,0,0,0,0c0.1,0.3,0.2,0.5,0.6,0.5  c0.2,0,0.3,0,0.4-0.1l0.1,0c0.2,0,0.4,0,0.5-0.1c0.2,0.3,0.4,0.5,0.6,0.8c-0.1,0-0.3,0.1-0.5,0.1l0,0c0,0,0,0,0,0  c-0.1,0-0.3,0.1-0.5,0.1l0,0c0,0,0,0,0,0c-0.1,0-0.2,0-0.3,0l0,0c0,0,0,0,0,0c-0.1,0-0.3,0-0.4,0v0c0,0,0,0,0,0  c-0.2,0-0.4,0-0.6,0.1c0,0-0.1,0-0.1,0c0,0-0.1,0-0.1,0c0,0-0.1,0-0.1,0l0,0c0,0,0,0,0,0c-0.1,0-0.1,0-0.2,0c-0.1,0-0.2,0-0.2,0  c0,0,0,0,0,0c-0.3,0-0.7,0.1-0.9,0.1c0,0,0,0,0,0l0,0c-0.2,0.1-0.4,0.2-0.5,0.4c0,0,0,0.1,0,0.1c0,0.1,0.1,0.3,0.3,0.4l0,0  c0,0,0,0,0,0c0.1,0.1,0.2,0.1,0.4,0.2c0.2,0.1,0.6,0.3,0.9,0.4c0,0,0,0,0,0l0,0c0,0,0.1,0,0.1,0c0,0,0,0,0,0l0,0  c0.1,0.1,0.2,0.1,0.3,0.1c0,0,0,0,0,0c0.1,0,0.5,0.1,0.5,0.1c0,0,0.1,0,0.1,0c-1.6,1.7-3.3,3.2-5,4.4c0,0,0,0,0,0  c-0.1,0-0.2,0.1-0.4,0.2c-0.7,0.5-1.3,0.9-1.6,1.1c-0.2,0.1-0.4,0.4-0.3,0.6c0,0.1,0.1,0.3,0.5,0.3c0.1,0,0.2,0,0.3,0  c0.9-0.2,1.6-0.6,2.3-1.1c0.1-0.1,0.2-0.2,0.3-0.2l0,0c0.1-0.1,0.2-0.1,0.2-0.2c0,0,0,0,0,0c1.9-1.3,3.7-2.8,5.4-4.6  c0.1,0,0.1,0,0.2,0c0,0,0,0,0,0c0,0,0,0,0,0l0,0c0,0,0.1,0,0.1,0c0,0,0,0,0,0l0,0l0,0c0.2,0,0.5-0.1,0.7-0.1l0,0c0,0,0.1,0,0.1,0  c0,0,0,0,0,0v0c0.1,0,0.2-0.1,0.3-0.1c0,0,0,0,0,0v0c0,0,0.1,0,0.1,0c0,0,0.6,0,0.6,0c1.8,1.8,3.7,3.5,5.7,4.8c0,0,0,0,0,0  c0,0.1,0.1,0.1,0.2,0.2l0,0c0.1,0.1,0.2,0.2,0.3,0.2c0.8,0.5,1.4,1,2.3,1.1c0.1,0,0.2,0,0.3,0c0.4,0,0.5-0.2,0.5-0.3  C30.4,42,30.3,41.8,30,41.6z"></path></svg>