<svg xmlns="http://www.w3.org/2000/svg" xmlns:xlink="http://www.w3.org/1999/xlink" version="1.2" baseProfile="tiny" x="0px" y="0px" viewBox="0 0 100 100" xml:space="preserve"><rect x="40.883" y="20.084" fill="#FF0000" width="54.117" height="59.871"></rect><rect x="5" y="20.084" fill="#006600" width="35.922" height="59.871"></rect><path fill="#FFFF00" d="M40.909,35.214c-8.162,0-14.819,6.658-14.819,14.821c0,8.164,6.657,14.821,14.819,14.821  c8.162,0,14.82-6.657,14.82-14.821C55.729,41.872,49.07,35.214,40.909,35.214z M53.081,55.257c-0.759-0.724-1.842-1.6-3.166-2.567  c0.03-0.004,0.06-0.009,0.09-0.013c1.577-0.256,2.989-0.566,4.042-0.871C53.883,53.015,53.552,54.173,53.081,55.257z M28.343,45.875  c0.551,0.473,1.258,1.014,2.092,1.606c-1.016,0.225-1.915,0.486-2.641,0.75C27.906,47.422,28.091,46.634,28.343,45.875z   M40.12,46.476c-0.601-0.333-1.185-0.651-1.75-0.956c0.564,0.022,1.151,0.037,1.76,0.043v0.912  C40.127,46.476,40.124,46.476,40.12,46.476z M40.13,49.868v0.424c-1.158-0.705-2.283-1.397-3.349-2.065  c0.138-0.01,0.278-0.019,0.418-0.028C38.142,48.716,39.123,49.274,40.13,49.868z M34.771,43.664  c-1.238-0.606-2.332-1.099-3.253-1.46c0.232-0.05,0.47-0.099,0.718-0.145c2.191-0.382,4.717-0.571,7.895-0.587v2.492  C38.069,43.939,36.273,43.825,34.771,43.664z M27.672,50.021c0-0.038,0.001-0.076,0.001-0.114c1.049-0.397,2.383-0.741,3.515-0.965  c0.35-0.068,0.715-0.133,1.093-0.196c1.323,0.879,2.834,1.835,4.457,2.832c-1.748-0.106-3.262-0.275-4.555-0.475  c-0.858-0.14-2.891-0.502-4.51-1.011C27.673,50.069,27.672,50.045,27.672,50.021z M34.457,46.746  c0.046,0.023,0.093,0.047,0.14,0.071c-0.009,0-0.017,0.001-0.026,0.002C34.533,46.795,34.495,46.771,34.457,46.746z M32.132,52.705  c1.961,0.301,4.423,0.536,7.442,0.588c0.186,0.111,0.372,0.222,0.556,0.331v0.573c-3.174,0.045-6.474,0.325-9.51,1.208  c-0.522,0.151-1.064,0.332-1.545,0.523c-0.649-1.29-1.094-2.697-1.29-4.181C28.853,52.077,30.324,52.441,32.132,52.705z   M29.91,57.358c0.4-0.16,0.812-0.297,1.147-0.391c2.771-0.795,5.923-1.125,9.072-1.146v3.036c-3.562-0.12-6.885-0.622-10.12-1.352  C29.977,57.457,29.943,57.408,29.91,57.358z M51.957,42.724c-0.797,0.246-1.866,0.505-3.226,0.691  c-1.838,0.264-4.128,0.507-7.017,0.546v-2.49c2.842,0.018,5.568,0.178,7.759,0.589c0.88,0.167,1.688,0.346,2.395,0.531  C51.897,42.636,51.927,42.68,51.957,42.724z M54.169,50.021c0,0.035-0.001,0.07-0.001,0.105c-1.246,0.386-2.896,0.758-4.211,0.949  c-0.605,0.093-1.262,0.18-1.964,0.257c-1.51-1.031-3.214-2.125-5.029-3.223c2.739,0.099,5.333,0.396,7.478,0.813  c1.2,0.241,2.609,0.588,3.727,1.033C54.168,49.978,54.169,50,54.169,50.021z M48.627,58.176c-0.196,0.032-0.398,0.064-0.605,0.097  c-1.809,0.247-3.252,0.491-6.306,0.587v-3.036c0.836,0.008,1.647,0.036,2.437,0.085C45.831,56.819,47.348,57.588,48.627,58.176z   M45.104,53.181c0.093-0.005,0.187-0.01,0.277-0.016c0.42,0.278,0.824,0.551,1.21,0.815C46.112,53.728,45.615,53.461,45.104,53.181z   M43.064,51.666c-0.201,0.006-0.404,0.011-0.611,0.016c-0.245-0.143-0.49-0.288-0.739-0.435v-0.422  C42.178,51.109,42.628,51.39,43.064,51.666z M41.716,60.486c2.415-0.053,4.983-0.324,6.706-0.68c0.412-0.066,1.07-0.204,1.798-0.38  c-2.222,2.197-5.208,3.621-8.504,3.819V60.486z M50.505,47.325c-2.487-0.484-5.575-0.809-8.79-0.851v-0.912  c3.045-0.041,5.519-0.295,7.45-0.589c1.469-0.254,2.712-0.55,3.625-0.811c0.634,1.271,1.068,2.657,1.263,4.116  C53.126,47.929,51.925,47.609,50.505,47.325z M50.272,40.667c-0.345-0.083-0.7-0.16-1.056-0.229  c-2.111-0.379-4.768-0.552-7.502-0.573v-3.068C45.036,36.996,48.044,38.44,50.272,40.667z M40.13,36.796v3.073  c-2.874,0.035-5.519,0.225-7.612,0.606c-0.335,0.065-0.655,0.134-0.961,0.205C33.787,38.444,36.802,36.996,40.13,36.796z   M31.557,59.363c2.252,0.551,5.212,1.01,8.573,1.114v2.77C36.802,63.048,33.787,61.598,31.557,59.363z"></path><path fill="#FFFFFF" d="M46.242,43.312l0.001,7.683l-0.006,0.813l0,0c0,0.214-0.012,0.457-0.038,0.665  c-0.146,1.215-0.704,2.273-1.531,3.097c-0.969,0.965-2.306,1.563-3.779,1.563c-1.466,0-2.772-0.619-3.745-1.588  c-0.997-0.993-1.576-2.355-1.576-3.764l-0.002-8.49L46.242,43.312L46.242,43.312L46.242,43.312z"></path><path fill="#FF0000" d="M31.938,51.759v0.007c0,2.445,1.013,4.672,2.636,6.288c1.627,1.619,3.868,2.626,6.32,2.626  c2.464,0,4.7-0.999,6.32-2.612c1.621-1.613,2.625-3.84,2.625-6.293h-0.001V39.7l-17.891-0.003L31.938,51.759 M46.242,43.312  l0.001,7.683l-0.006,0.813l0,0c0,0.214-0.012,0.457-0.038,0.665c-0.146,1.215-0.704,2.273-1.531,3.097  c-0.969,0.965-2.306,1.563-3.779,1.563c-1.466,0-2.772-0.619-3.745-1.588c-0.997-0.993-1.576-2.355-1.576-3.764l-0.002-8.49  L46.242,43.312L46.242,43.312L46.242,43.312z"></path><path fill="#003399" d="M39.82,50.38L39.82,50.38c0,0.331,0.126,0.634,0.331,0.853c0.204,0.219,0.485,0.355,0.793,0.355  c0.31,0,0.591-0.136,0.794-0.354c0.203-0.219,0.33-0.521,0.33-0.853V48.77l-2.244-0.002L39.82,50.38"></path><circle fill="#FFFFFF" cx="40.334" cy="49.381" r="0.222"></circle><circle fill="#FFFFFF" cx="41.58" cy="49.382" r="0.222"></circle><circle fill="#FFFFFF" cx="40.955" cy="49.98" r="0.223"></circle><circle fill="#FFFFFF" cx="40.334" cy="50.606" r="0.222"></circle><circle fill="#FFFFFF" cx="41.578" cy="50.604" r="0.222"></circle><path fill="#003399" d="M39.82,46.486L39.82,46.486c0,0.332,0.126,0.633,0.331,0.852c0.204,0.22,0.485,0.356,0.793,0.356  c0.31,0,0.591-0.135,0.794-0.354c0.203-0.218,0.33-0.52,0.33-0.852v-1.612l-2.244-0.001L39.82,46.486"></path><circle fill="#FFFFFF" cx="40.334" cy="45.487" r="0.222"></circle><circle fill="#FFFFFF" cx="41.58" cy="45.489" r="0.222"></circle><circle fill="#FFFFFF" cx="40.955" cy="46.086" r="0.222"></circle><circle fill="#FFFFFF" cx="40.334" cy="46.712" r="0.223"></circle><circle fill="#FFFFFF" cx="41.578" cy="46.71" r="0.222"></circle><path fill="#003399" d="M36.707,50.38L36.707,50.38c0,0.331,0.127,0.634,0.332,0.853c0.205,0.219,0.485,0.355,0.793,0.355  c0.31,0,0.591-0.136,0.794-0.354c0.203-0.219,0.33-0.521,0.33-0.853V48.77l-2.245-0.002L36.707,50.38"></path><circle fill="#FFFFFF" cx="37.222" cy="49.381" r="0.222"></circle><circle fill="#FFFFFF" cx="38.466" cy="49.382" r="0.222"></circle><circle fill="#FFFFFF" cx="37.842" cy="49.98" r="0.223"></circle><circle fill="#FFFFFF" cx="37.222" cy="50.606" r="0.222"></circle><circle fill="#FFFFFF" cx="38.465" cy="50.604" r="0.222"></circle><path fill="#003399" d="M42.924,50.38L42.924,50.38c0,0.331,0.128,0.634,0.331,0.853c0.206,0.219,0.486,0.355,0.794,0.355  c0.31,0,0.591-0.136,0.794-0.354c0.204-0.219,0.33-0.521,0.33-0.853V48.77l-2.245-0.002L42.924,50.38"></path><circle fill="#FFFFFF" cx="43.439" cy="49.381" r="0.222"></circle><circle fill="#FFFFFF" cx="44.685" cy="49.382" r="0.222"></circle><circle fill="#FFFFFF" cx="44.061" cy="49.98" r="0.223"></circle><circle fill="#FFFFFF" cx="43.439" cy="50.606" r="0.222"></circle><circle fill="#FFFFFF" cx="44.684" cy="50.604" r="0.222"></circle><path fill="#003399" d="M39.82,54.239L39.82,54.239c0,0.331,0.126,0.633,0.331,0.852c0.204,0.22,0.485,0.356,0.793,0.356  c0.31,0,0.591-0.136,0.794-0.354c0.203-0.219,0.33-0.521,0.33-0.853v-1.612l-2.244-0.002L39.82,54.239"></path><circle fill="#FFFFFF" cx="40.334" cy="53.241" r="0.222"></circle><circle fill="#FFFFFF" cx="41.58" cy="53.241" r="0.223"></circle><circle fill="#FFFFFF" cx="40.955" cy="53.839" r="0.222"></circle><circle fill="#FFFFFF" cx="40.334" cy="54.465" r="0.223"></circle><circle fill="#FFFFFF" cx="41.578" cy="54.463" r="0.222"></circle><path fill="#FFFF00" d="M42.19,42.676h-0.034l-0.106-0.909h0.035c0.049,0,0.089-0.048,0.089-0.105c0-0.058-0.04-0.105-0.089-0.105  h0.055c0.051,0,0.092-0.048,0.092-0.105s-0.041-0.106-0.092-0.106h-0.114l-0.019-0.505h0.036c0.043,0,0.081-0.03,0.081-0.077v-0.301  l-0.184-0.001v0.134h-0.131v-0.133l-0.184-0.001v0.134h-0.131v-0.13l-0.18,0l0,0l0,0v0.298c0,0.043,0.041,0.078,0.084,0.078h0.029  l-0.017,0.505h-0.165l-0.041-0.972l0.056-0.001c0.044,0,0.082-0.031,0.082-0.078v-0.301h-0.189v0.133H41.02v-0.133l-0.188,0v0.133  h-0.135v-0.131h-0.183l0,0l0,0v0.298c0.001,0.043,0.041,0.079,0.085,0.079h0.046l-0.042,0.973h-0.166l-0.019-0.505h0.036  c0.043,0,0.081-0.03,0.081-0.077v-0.301l-0.185-0.001v0.134H40.22v-0.133l-0.185-0.001v0.134h-0.131v-0.13l-0.18,0l0,0l0,0v0.298  c0,0.043,0.041,0.078,0.084,0.078h0.03l-0.018,0.505h-0.113c-0.051,0-0.093,0.048-0.093,0.106c0,0.058,0.042,0.105,0.093,0.105  h0.051c-0.049,0-0.09,0.047-0.09,0.105c0,0.058,0.041,0.105,0.09,0.105h0.036l-0.098,0.909h-0.043c-0.053,0-0.097,0.053-0.097,0.117  c0,0.064,0.043,0.117,0.097,0.117h2.537c0.053,0,0.098-0.053,0.098-0.117C42.288,42.729,42.244,42.676,42.19,42.676z M41.776,41.031  v0.178h-0.123v-0.178l0,0C41.651,40.94,41.778,40.938,41.776,41.031z M40.862,40.703c-0.003-0.094,0.131-0.095,0.13,0v0.23h-0.13  V40.703z M40.188,41.031v0.178h-0.124v-0.178l0,0C40.063,40.94,40.19,40.938,40.188,41.031z M41.273,42.676  c-0.01-0.479-0.352-0.622-0.352-0.622c-0.002,0-0.33,0.139-0.34,0.622h-0.264c0.012-0.773,0.593-0.903,0.607-0.9  c0.013,0,0.589,0.172,0.612,0.9H41.273z"></path><path fill="#FFFF00" d="M49.44,42.676h-0.034L49.3,41.767h0.034c0.049,0,0.089-0.048,0.089-0.105c0-0.058-0.04-0.105-0.089-0.105  h0.056c0.051,0,0.092-0.048,0.092-0.105s-0.041-0.106-0.092-0.106h-0.114l-0.019-0.505h0.036c0.043,0,0.081-0.03,0.081-0.077v-0.301  l-0.185-0.001v0.134h-0.132v-0.133l-0.183-0.001v0.134h-0.131v-0.13l-0.18,0l0,0l0,0v0.298c0,0.043,0.04,0.078,0.083,0.078h0.03  l-0.017,0.505h-0.164l-0.041-0.972l0.055-0.001c0.043,0,0.083-0.031,0.083-0.078v-0.301h-0.189v0.133h-0.134v-0.133l-0.188,0v0.133  h-0.135v-0.131h-0.183l0,0l0,0v0.298c0,0.043,0.041,0.079,0.085,0.079h0.045l-0.041,0.973h-0.166l-0.019-0.505h0.035  c0.043,0,0.081-0.03,0.081-0.077v-0.301l-0.184-0.001v0.134H47.47v-0.133l-0.184-0.001v0.134h-0.131v-0.13l-0.18,0l0,0l0,0v0.298  c0,0.043,0.041,0.078,0.084,0.078h0.029l-0.017,0.505h-0.113c-0.051,0-0.093,0.048-0.093,0.106c0,0.058,0.042,0.105,0.093,0.105  h0.05c-0.049,0-0.089,0.047-0.089,0.105c0,0.058,0.04,0.105,0.089,0.105h0.037l-0.098,0.909h-0.043  c-0.054,0-0.097,0.053-0.097,0.117c0,0.064,0.043,0.117,0.097,0.117h2.537c0.053,0,0.096-0.053,0.096-0.117  C49.537,42.729,49.494,42.676,49.44,42.676z M49.026,41.031v0.178h-0.123v-0.178l0,0C48.901,40.94,49.027,40.938,49.026,41.031z   M48.112,40.703c-0.003-0.094,0.131-0.095,0.13,0v0.23h-0.13V40.703z M47.438,41.031v0.178h-0.124v-0.178l0,0  C47.313,40.94,47.439,40.938,47.438,41.031z M48.523,42.676c-0.01-0.479-0.352-0.622-0.352-0.622c-0.002,0-0.33,0.139-0.34,0.622  h-0.266c0.013-0.773,0.594-0.903,0.609-0.9c0.013,0,0.589,0.172,0.612,0.9H48.523z"></path><path fill="#FFFF00" d="M34.904,42.676H34.87l-0.106-0.909h0.035c0.049,0,0.089-0.048,0.089-0.105c0-0.058-0.04-0.105-0.089-0.105  h0.055c0.051,0,0.094-0.048,0.094-0.105s-0.042-0.106-0.094-0.106H34.74l-0.019-0.505h0.036c0.043,0,0.081-0.03,0.081-0.077v-0.301  l-0.184-0.001v0.134h-0.131v-0.133l-0.184-0.001v0.134h-0.131v-0.13l-0.18,0l0,0l0,0v0.298c0,0.043,0.041,0.078,0.084,0.078h0.029  l-0.017,0.505h-0.164l-0.042-0.972l0.055-0.001c0.044,0,0.082-0.031,0.082-0.078v-0.301h-0.188v0.133h-0.134v-0.133l-0.188,0v0.133  h-0.134v-0.131h-0.184l0,0l0,0l0,0.298c0.001,0.043,0.042,0.079,0.085,0.079h0.046l-0.042,0.973h-0.165l-0.019-0.505h0.036  c0.043,0,0.081-0.03,0.081-0.077v-0.301l-0.184-0.001v0.134h-0.131v-0.133l-0.185-0.001v0.134h-0.131v-0.13l-0.18,0l0,0l0,0l0,0.298  c0,0.043,0.041,0.078,0.084,0.078h0.03l-0.018,0.505h-0.114c-0.051,0-0.093,0.048-0.093,0.106c0,0.058,0.042,0.105,0.093,0.105  h0.051c-0.049,0-0.09,0.047-0.09,0.105c0,0.058,0.041,0.105,0.09,0.105h0.036l-0.098,0.909h-0.043c-0.053,0-0.097,0.053-0.097,0.117  c0,0.064,0.043,0.117,0.097,0.117h2.537c0.054,0,0.098-0.053,0.098-0.117C35.001,42.729,34.958,42.676,34.904,42.676z   M34.489,41.031v0.178h-0.123v-0.178l0,0C34.365,40.94,34.491,40.938,34.489,41.031z M33.575,40.703  c-0.003-0.094,0.132-0.095,0.13,0v0.23h-0.13V40.703z M32.901,41.031v0.178h-0.124v-0.178l0,0  C32.777,40.94,32.903,40.938,32.901,41.031z M33.986,42.676c-0.01-0.479-0.352-0.622-0.352-0.622c-0.002,0-0.33,0.139-0.339,0.622  H33.03c0.013-0.773,0.594-0.903,0.608-0.9c0.013,0,0.59,0.172,0.612,0.9H33.986z"></path><path fill="#FFFF00" d="M49.44,50.01h-0.034l-0.106-0.91h0.034c0.049,0,0.089-0.047,0.089-0.105c0-0.058-0.04-0.105-0.089-0.105  h0.056c0.051,0,0.092-0.047,0.092-0.105c0-0.058-0.041-0.105-0.092-0.105h-0.114l-0.019-0.505h0.036c0.043,0,0.081-0.03,0.081-0.078  v-0.301l-0.185-0.001v0.134h-0.132v-0.133l-0.183-0.001v0.134h-0.131v-0.131l-0.18,0l0,0l0,0v0.298c0,0.043,0.04,0.079,0.083,0.079  h0.03l-0.017,0.505h-0.164l-0.041-0.972l0.055-0.001c0.043,0,0.083-0.031,0.083-0.078v-0.301h-0.189v0.133h-0.134v-0.133l-0.188,0  v0.133h-0.135v-0.13l-0.183,0v0l0,0v0.297c0,0.043,0.041,0.079,0.085,0.079h0.045l-0.041,0.973h-0.166l-0.019-0.505h0.035  c0.043,0,0.081-0.03,0.081-0.078v-0.301l-0.184-0.001v0.134H47.47v-0.133l-0.184-0.001v0.134h-0.131v-0.131l-0.18,0l0,0l0,0v0.298  c0,0.043,0.041,0.079,0.084,0.079h0.029l-0.017,0.505h-0.113c-0.051,0-0.093,0.048-0.093,0.105c0,0.058,0.042,0.105,0.093,0.105  h0.05c-0.049,0-0.089,0.048-0.089,0.105c0,0.058,0.04,0.105,0.089,0.105h0.037l-0.098,0.91h-0.043c-0.054,0-0.097,0.053-0.097,0.117  c0,0.064,0.043,0.117,0.097,0.117h2.537c0.053,0,0.096-0.053,0.096-0.117C49.537,50.063,49.494,50.01,49.44,50.01z M49.026,48.365  v0.177h-0.123v-0.177l0,0C48.901,48.274,49.027,48.272,49.026,48.365z M48.112,48.037c-0.003-0.094,0.131-0.095,0.13,0v0.23h-0.13  V48.037z M47.438,48.365v0.177h-0.124v-0.177l0,0C47.313,48.274,47.439,48.272,47.438,48.365z M48.523,50.01  c-0.01-0.479-0.352-0.622-0.352-0.622c-0.002-0.001-0.33,0.138-0.34,0.622h-0.266c0.013-0.774,0.594-0.904,0.609-0.9  c0.013-0.001,0.589,0.172,0.612,0.9H48.523z"></path><path fill="#FFFF00" d="M34.904,50.01H34.87l-0.106-0.91h0.035c0.049,0,0.089-0.047,0.089-0.105c0-0.058-0.04-0.105-0.089-0.105  h0.055c0.051,0,0.094-0.047,0.094-0.105c0-0.058-0.042-0.105-0.094-0.105H34.74l-0.019-0.505h0.036c0.043,0,0.081-0.03,0.081-0.078  v-0.301l-0.184-0.001v0.134h-0.131v-0.133l-0.184-0.001v0.134h-0.131v-0.131l-0.18,0l0,0l0,0v0.298c0,0.043,0.041,0.079,0.084,0.079  h0.029l-0.017,0.505h-0.164l-0.042-0.972l0.055-0.001c0.044,0,0.082-0.031,0.082-0.078v-0.301h-0.188v0.133h-0.134v-0.133l-0.188,0  v0.133h-0.134v-0.13l-0.184,0v0l0,0l0,0.297c0.001,0.043,0.042,0.079,0.085,0.079h0.046l-0.042,0.973h-0.165l-0.019-0.505h0.036  c0.043,0,0.081-0.03,0.081-0.078v-0.301l-0.184-0.001v0.134h-0.131v-0.133l-0.185-0.001v0.134h-0.131v-0.131l-0.18,0l0,0l0,0  l0,0.298c0,0.043,0.041,0.079,0.084,0.079h0.03l-0.018,0.505h-0.114c-0.051,0-0.093,0.048-0.093,0.105  c0,0.058,0.042,0.105,0.093,0.105h0.051c-0.049,0-0.09,0.048-0.09,0.105c0,0.058,0.041,0.105,0.09,0.105h0.036l-0.098,0.91h-0.043  c-0.053,0-0.097,0.053-0.097,0.117c0,0.064,0.043,0.117,0.097,0.117h2.537c0.054,0,0.098-0.053,0.098-0.117  C35.001,50.063,34.958,50.01,34.904,50.01z M34.489,48.365v0.177h-0.123v-0.177l0,0C34.365,48.274,34.491,48.272,34.489,48.365z   M33.575,48.037c-0.003-0.094,0.132-0.095,0.13,0v0.23h-0.13V48.037z M32.901,48.365v0.177h-0.124v-0.177l0,0  C32.777,48.274,32.903,48.272,32.901,48.365z M33.986,50.01c-0.01-0.479-0.352-0.622-0.352-0.622  c-0.002-0.001-0.33,0.138-0.339,0.622H33.03c0.013-0.774,0.594-0.904,0.608-0.9c0.013-0.001,0.59,0.172,0.612,0.9H33.986z"></path><path fill="#FFFF00" d="M37.427,56.403l-0.024,0.024l-0.718-0.568l0.024-0.024c0.034-0.034,0.03-0.096-0.011-0.137  s-0.104-0.047-0.138-0.012l0.039-0.039c0.037-0.036,0.033-0.1-0.008-0.141c-0.041-0.041-0.104-0.045-0.141-0.009l-0.08,0.08  l-0.371-0.344l0.025-0.025c0.03-0.03,0.035-0.078,0.001-0.111l-0.212-0.213l-0.131,0.13l0.094,0.094l-0.092,0.094l-0.094-0.095  l-0.13,0.13l0.094,0.095l-0.092,0.093l-0.093-0.092l-0.127,0.126l0,0l0,0l0.211,0.211c0.031,0.03,0.084,0.026,0.115-0.004  l0.021-0.021l0.345,0.369l-0.115,0.115l-0.716-0.657l0.038-0.04c0.031-0.031,0.037-0.08,0.003-0.113l-0.213-0.213l-0.133,0.133  l0.095,0.095l-0.095,0.095l-0.094-0.094l-0.133,0.133l0.094,0.094l-0.095,0.095l-0.092-0.092l-0.13,0.129l0,0v0.001l0.211,0.21  c0.03,0.03,0.084,0.027,0.116-0.005l0.032-0.032l0.659,0.717l-0.117,0.117l-0.37-0.344l0.025-0.025  c0.031-0.03,0.035-0.078,0.001-0.111l-0.212-0.214l-0.131,0.131l0.094,0.094l-0.093,0.093l-0.094-0.094l-0.131,0.13l0.095,0.095  l-0.093,0.093l-0.093-0.093l-0.127,0.127l0,0v0.001l0.211,0.209c0.03,0.031,0.084,0.027,0.114-0.003l0.021-0.021l0.346,0.369  l-0.08,0.08c-0.037,0.037-0.032,0.101,0.009,0.141c0.041,0.041,0.104,0.046,0.14,0.009l0.036-0.035  c-0.035,0.035-0.029,0.097,0.011,0.138c0.042,0.041,0.103,0.046,0.138,0.012l0.025-0.025l0.574,0.712l-0.03,0.03  c-0.038,0.037-0.032,0.106,0.014,0.151c0.046,0.046,0.114,0.052,0.151,0.015l1.793-1.794c0.038-0.038,0.031-0.105-0.014-0.151  C37.532,56.372,37.465,56.365,37.427,56.403z M35.97,55.533l0.126,0.126l-0.088,0.087l-0.125-0.125l0,0  C35.819,55.558,35.906,55.467,35.97,55.533z M35.092,55.948c-0.069-0.063,0.026-0.16,0.092-0.092l0.163,0.162l-0.091,0.092  L35.092,55.948z M34.848,56.656l0.126,0.126l-0.088,0.087l-0.125-0.126v0.001C34.696,56.68,34.783,56.59,34.848,56.656z   M36.778,57.053c-0.346-0.332-0.688-0.19-0.688-0.19c-0.002,0.001-0.135,0.33,0.199,0.679l-0.188,0.188  c-0.538-0.556-0.218-1.059-0.206-1.066c0.009-0.01,0.538-0.295,1.069,0.204L36.778,57.053z"></path><path fill="#FFFF00" d="M46.177,58.195l-0.023-0.024l0.568-0.718l0.024,0.023c0.034,0.035,0.097,0.03,0.138-0.012  c0.041-0.041,0.045-0.103,0.011-0.137l0.039,0.039c0.037,0.036,0.1,0.032,0.141-0.009s0.044-0.104,0.009-0.141l-0.081-0.08  l0.344-0.371l0.025,0.025c0.03,0.03,0.078,0.035,0.111,0.002l0.213-0.213l-0.13-0.13l-0.094,0.094l-0.092-0.093l0.093-0.094  l-0.13-0.131l-0.094,0.095l-0.092-0.093l0.092-0.093l-0.126-0.127l0,0h-0.001l-0.21,0.211c-0.03,0.03-0.026,0.084,0.003,0.114  l0.021,0.021l-0.369,0.345l-0.115-0.115l0.657-0.717l0.04,0.038c0.031,0.031,0.08,0.036,0.113,0.003l0.213-0.213l-0.133-0.133  l-0.094,0.094l-0.096-0.095l0.094-0.094l-0.133-0.134l-0.094,0.095l-0.094-0.095l0.092-0.093l-0.13-0.13l0,0l0,0l-0.209,0.211  c-0.03,0.03-0.027,0.085,0.004,0.116l0.032,0.032l-0.718,0.658l-0.116-0.116l0.344-0.371l0.025,0.025  c0.03,0.031,0.078,0.035,0.111,0.002l0.213-0.213l-0.13-0.13l-0.094,0.094l-0.094-0.093l0.095-0.094l-0.13-0.131l-0.095,0.095  l-0.092-0.093l0.092-0.093L46,54.887h-0.001l0,0l-0.21,0.211c-0.03,0.03-0.027,0.084,0.003,0.114l0.021,0.021l-0.369,0.346  l-0.08-0.08c-0.037-0.037-0.1-0.032-0.141,0.008c-0.041,0.041-0.044,0.104-0.009,0.141l0.036,0.036  c-0.035-0.035-0.097-0.029-0.137,0.011c-0.041,0.041-0.046,0.104-0.012,0.138l0.025,0.025l-0.712,0.574l-0.031-0.03  c-0.038-0.038-0.105-0.031-0.151,0.015c-0.045,0.045-0.052,0.113-0.014,0.151l1.793,1.794c0.038,0.037,0.105,0.031,0.151-0.015  C46.208,58.301,46.215,58.232,46.177,58.195z M47.048,56.739l-0.125,0.125l-0.087-0.087l0.125-0.126l0,0  C47.024,56.587,47.115,56.675,47.048,56.739z M46.634,55.86c0.063-0.068,0.16,0.026,0.091,0.092l-0.162,0.163l-0.092-0.092  L46.634,55.86z M45.925,55.616L45.8,55.742l-0.088-0.088l0.125-0.126l0,0C45.902,55.464,45.992,55.552,45.925,55.616z   M45.529,57.546c0.332-0.346,0.191-0.688,0.191-0.688c-0.001-0.001-0.331-0.135-0.68,0.199l-0.188-0.188  c0.555-0.537,1.058-0.218,1.067-0.206c0.009,0.009,0.294,0.538-0.204,1.069L45.529,57.546z"></path></svg>