<svg xmlns="http://www.w3.org/2000/svg" xmlns:xlink="http://www.w3.org/1999/xlink" version="1.1" x="0px" y="0px" viewBox="0 0 100 100" enable-background="new 0 0 100 100" xml:space="preserve"><polygon fill="#6C1D45" points="24.9,80.7 94.8,80.7 94.8,20.7 24.8,20.7 39.8,24 24.8,27.3 39.8,30.6 24.8,34 39.8,37.4 24.8,40.7   39.8,44 24.8,47.3 39.8,50.7 24.8,54 39.8,57.4 24.8,60.7 39.8,64 24.8,67.3 39.8,70.7 24.8,74 39.8,77.3 24.8,80.7 "></polygon><polygon fill="#FFFFFF" points="39.8,77.3 24.8,74 39.8,70.7 24.8,67.3 39.8,64 24.8,60.7 39.8,57.4 24.8,54 39.8,50.7 24.8,47.3   39.8,44 24.8,40.7 39.8,37.4 24.8,34 39.8,30.6 24.8,27.3 39.8,24 24.8,20.7 4.8,20.7 4.8,80.7 24.9,80.7 24.8,80.7 "></polygon></svg>