<svg xmlns="http://www.w3.org/2000/svg" xmlns:xlink="http://www.w3.org/1999/xlink" version="1.1" x="0px" y="0px" viewBox="0 0 100 100" enable-background="new 0 0 100 100" xml:space="preserve"><rect x="5.6" y="19.9" fill="#046A38" width="90" height="60"></rect><path fill-rule="evenodd" clip-rule="evenodd" fill="#FFFFFF" d="M64.7,64.9h-4.2c-0.2,0-0.3-0.2-0.3-0.2v-0.7c0,0,0.3-0.4,0.3-0.5  c0-0.1-0.4-0.7-0.5-0.7c-0.1,0-0.4,0.6-0.4,0.7c0,0.1,0.2,0.5,0.2,0.5v0.7c0,0,0,0.1-0.2,0.1h-24c0,0,1.2,1.1,3.8,1.1h20.1  c0.2,0,0.2,0.2,0.2,0.2v0.6c0,0-0.2,0.5-0.2,0.6c0,0.1,0.4,0.7,0.5,0.7c0.1,0,0.3-0.4,0.5-0.6h1.2c0,0,0.6,0.4,0.7,0.4  c0.1,0,0.7-0.4,0.7-0.4h1c0.2,0.1,0.1,0.7,0.8,0.7c0.4,0,0.7-0.3,0.7-0.7v-1.6C65.7,65.4,65.1,64.9,64.7,64.9z M64.3,67.1  c0,0.1,0,0.1-0.2,0.1h-0.9c0,0-0.5-0.3-0.6-0.3c-0.1,0-0.7,0.3-0.7,0.3h-1.2c-0.1-0.1-0.3-0.4-0.3-0.4v-0.6c0-0.2,0.1-0.2,0.3-0.2  c0.2,0,3.2,0,3.4,0c0.2,0,0.3,0.1,0.3,0.3V67.1z"></path><path fill="#FFFFFF" d="M70.6,37.8c0.3,2.9,0.5,7.4,0.5,8.4c-0.1,1.5-1.6,4.5-4.1,3.7c0.8-0.3,1.2-0.3,1.8-0.9  c0.6-0.6,1-0.7,1.5-1.7c-0.4-0.8-1.2-1.9-2-3.1c0,0.8,0.1,1.3,0.1,1.3c0,0.6,0.1,1.1,0.1,1.7c-0.1,0.7-0.2,1.1-0.5,1.7L67.7,49  c0.1-0.5-0.1-3.1-0.3-6c-0.4-0.5-0.8-1.1-1.2-1.6c0.1,1.7,0.3,3.6,0.3,4.6c0.1,1.6-0.7,2.2-1.1,2.3c-0.4,0.2-1,0.1-1.4-0.3  c-0.3-0.3-0.6-1.6-0.8-1.6c-0.3,0-0.5,0.9-0.7,1.5c-0.2,0.5-0.3,0.9-0.7,1.3c-0.5,0.5-0.8,0.4-1.3-0.1c-0.6-0.7-0.5-2.5-0.3-2.7  c0,1.2,0.5,2.2,0.9,2.2c0.4,0,0.9-0.7,1.1-1.4c0.3-1,0.6-1.8,1.3-1.7c0.6,0.1,0.4,2,1.6,1.9c0.3,0,0.6-0.2,0.6-0.5  c0-0.6-0.2-4.2-0.4-6.5c-0.5-0.7-1-1.3-1.2-1.7c-0.3-0.5-0.8-1.1-1.1-1.4c0-0.3,0.1-0.8,0.1-1.1c0.7,0.4,1,0.8,1.7,1.4  c-0.2,0.1-0.3,0.1-0.4,0.1c0.2,0.3,0.5,0.8,0.8,1.2c0-0.4,0-0.6-0.1-0.7c-0.1-1.4-0.2-1.1-0.4-1.7c0.3-0.6,0.6-1.3,0.6-1.3l1.2,2.6  c0,0-0.4,0-0.6-0.1c0,0,0.1,1.1,0.2,2.4c0.4,0.6,0.8,1.1,1.2,1.6c-0.1-1.3-0.2-2.6-0.3-3.7c-0.1-0.9-0.2-0.7-0.5-1.6  c0.3-0.6,0.4-0.6,0.7-1.2c0.5,1.2,0.7,1.7,1.1,2.8c-0.2,0-0.3,0-0.5-0.1c0.1,0.6,0.2,3.1,0.4,5c0.9,1.4,1.4,2.2,2.3,3.8  c0.3-1.6-0.5-7.4-0.5-8.3c0-0.5-0.2-1.3-0.7-2.1c0.2-0.4,0.6-1.3,0.6-1.3c0.6,1.2,0.8,1.7,1.3,2.8C71,37.7,70.6,37.8,70.6,37.8z   M62.7,40.2c0.1,0.3,0.1,1,0.5,1c0.5,0,0.4-0.8,0.4-1.3c0.2,0,0.5-0.2,0.5-0.4c0-0.2-0.1-0.4-0.3-0.4c-0.5,0-0.6,0.5-0.6,1  c0-0.5-0.3-0.9-0.5-0.9c-0.2,0-0.4,0.3-0.4,0.5c0,0.2-0.1,0.3,0.1,0.4C62.4,40.2,62.6,40,62.7,40.2z M64.5,41.5  c0-0.1-0.7,0.6-1.2,0.8c-0.6,0.3-1.1,0.4-1.3,0.9c0.5-0.2,0.9-0.2,1.5-0.4C64.3,42.5,64.6,42.1,64.5,41.5z M64.6,43.8  c0-0.3-0.1-0.8-0.4-0.8c-0.2,0-0.3,0.3-0.3,0.5c0,0.5,0.5,0.6,0.4,1.3C64.7,44.4,64.6,44.3,64.6,43.8z M66.3,49.3  c-0.1,0-0.3,0.1-0.3,0.1c0.1-0.1,0.3-0.3,0.3-0.6c0-0.1-0.1-0.3-0.2-0.3c-0.1,0-0.5,0.1-0.5,0.4c0,0.1,0.1,0.2,0.1,0.3  c0,0.3-0.3,0.3-0.3,0.6c0,0.1,0.1,0.2,0.6,0c0.2-0.1,0.3-0.1,0.4-0.3C66.3,49.5,66.4,49.3,66.3,49.3z M61.4,47.1  c0.2-1.5,0.3-1.7,0.3-2.8c-0.2-1.9-0.6-5.2-0.9-7c0-0.5,0.1-0.7,0.2-0.8c-0.6-1-0.3-0.6-0.9-1.4c-0.3,0.5-0.3,1-0.5,1.6  c0.3,0.6,0.4,0.3,0.5,1.3c0.7,6.1,1,7,1,10.1C61.1,48,61.4,47.8,61.4,47.1z M59.4,37.6c-0.5-1.1-0.3-1.3-0.9-2.5  c0,0-0.6,0.8-0.8,1.2c0.1,0.1,0.5,0.3,0.5,0.4c0,0.1-0.3,0.1-0.3,0.2c0.1,0.5,0.1,0.8,0.1,1.2c0.2,1.1,1,7,0.7,8.6  c-0.6-2-1.3-3-2.2-4.7c-0.3-0.5-0.6-1-0.9-1.4c-0.2-1.2-0.3-2.3-0.3-3c0.2,0,0.4,0.1,0.6,0.2c-0.5-1.1-0.6-1.3-1.2-2.5  c-0.3,0.5-0.3,0.6-0.5,1.2c0.3,1,0.2,0.5,0.3,0.9c0.1,0.6,0.1,1.2,0.2,1.8c-0.5-0.6-0.9-1.3-1.2-1.8c0.2-0.1,0.1-0.1,0.4-0.2  c-0.6-0.7-1.1-1.3-1.7-2c-0.1,0.4-0.1,1.3-0.1,1.6c0.5,0.3,0.5,0.5,0.7,1c0.8,1.6,1.6,2.6,2.1,3.2c0.3,3.5,0.6,7.2,0.7,7.9l0.2-0.3  c0.3-0.7,0.3-0.7,0.4-1.4c0.1-0.6,0.1-1.1,0.1-1.7c-0.1-1-0.2-2-0.3-3c1.6,2.7,2.1,3.1,2.5,4.8c0.1,0.4-0.4,1-1.2,1.5  c-0.7,0.4-1.2,0.6-2,0.9c2.8,0.5,4.1-1.6,4.3-3.7c0.1-1-0.3-5.7-0.7-8.5C58.9,37.4,59.2,37.6,59.4,37.6z M43.6,40.6  c0.5,0,0.8-0.5,0.9-0.9c0.1-0.5,0.6-2,0.9-2c0.4,0.1-0.1,0.8-0.1,1.5c0,0.5,0.1,1.4,1.1,1.5c0.4,0,1.8-0.8,2.1-1.4  c0.1,1,0.6,1.4,1.2,1.4c0.5,0,1.3-0.3,1.4-1.4c0.1-0.7,0.1-0.3,0.1-1.1c0-0.6-0.1-0.9-0.3-1.5c0.2,0,0.2,0,0.4,0.1  c-0.4-0.9-0.7-1.1-1.1-2.2c0,0-0.4,0.9-0.6,1.4c0.5,0.7,0.8,1.7,0.8,2.6c0,0.4,0,0.9-0.5,0.9c-0.6,0-0.9-0.7-1-1.3  c-0.2-1.3-0.2-2-0.4-3.4c-0.3,0.6-0.5,0.7-0.8,1.1c0,0.8,0.5,1.6,0.4,2.4c0,0.5-0.9,1.2-1.5,1.2c-0.4,0-0.9-0.1-0.6-1.6  c0-0.2,0.4-1.9-0.1-1.9c-0.6,0-1.2,1.2-1.3,1.6c-0.2,0.6-0.5,1.8-1.1,1.7c-0.4,0-0.4-0.8-0.4-1.6c0-0.9,0.1-1.8,0.1-1.8  c-0.3,0.9-0.5,1.4-0.6,2.3C42.6,39.5,42.8,40.6,43.6,40.6z M47.3,37.3c0.1-0.5,0.2-0.8,0.2-1.3c0-0.2-0.1-0.9-0.4-0.9  c-0.2,0-0.3,0.3-0.3,0.5c0,0.2,0.2,0.3,0.3,0.5C47.2,36.4,47.2,37.1,47.3,37.3z M44.5,36.4c0.1,0,0.3-0.1,0.3-0.2  c0-0.3-0.2-0.2-0.3-0.4c0-0.1,0-0.4,0-0.5c-0.1,0.3-0.4,0.5-0.4,0.8C44.2,36.3,44.3,36.4,44.5,36.4z M53.3,45c0.4,0,0.7,0,1.1,0  c-0.3,1.1-0.5,1-1.8,1.2c-0.2,0-0.9,0.1-1.1,0.2c-0.3,0.1-1.5,0.4-1.6,1.2c-0.1,0.7,0.8,0.8,1.3,1.1c0,0.1,0.1,0.9,0,1  c-0.4,0-0.9,0-1.3-0.1c-1.2-0.4-2.6-1.5-3.2-2.5c-1,1.5-2.4,2.9-3.4,2.9c-0.4,0-1.3-0.6-1.6-1.4c-0.7,0.4-1.5,0.7-2.2,1  c-1,0.3-0.9,0.4-2.4,0.5c2.1-1.1,3.3-1.7,4.4-2.3l0.1-0.1c0-0.5,0.2-1.3,0.4-2c0.2-0.1,0.1,0,0.3-0.2c-0.1,0.6-0.2,1.2-0.2,1.7  c0,0,0,0.1,0,0.2c0.6-0.5,1.1-0.9,1.4-1.2c0.4-0.3,0.9-0.9,0.9-1.1c-0.1-0.4-0.1-0.5-0.4-1.1c-0.1-0.3-0.4-0.8-0.7-1.1  c0.2-0.4,0.3-0.8,0.4-1.3c0,0,0.8,0.9,1.2,1.5l-0.4,0c0.3,0.7,0.6,1.1,0.6,1.9c0,1.2-1.2,2.4-2.6,3.4c0.1,0.2,0.4,0.4,0.9,0.4  c0.9,0,1.7-0.7,2-1c0.6-0.6,1.1-0.8,1-1.6c-0.1-0.7-0.9-2.8-1-3.2c0.1-0.2,0.7-1.3,0.7-1.3l0.9,3.4c0.2,1.2,1.3,3,2,3.2  c0-0.3,0.1-0.9,0.5-1.4c0.2-0.2,0.9-0.7,1.5-1c-0.2,0-1.6,0-1.7,0c-0.6,0-1-0.1-1.7-0.1c0.1-0.4,0.2-0.8,0.6-1.2  c0.5-0.5,2.1-1,2.3-1.2c-0.2-0.1-0.2-0.3-0.3-0.6c-0.1-0.7,0.6-1.5,1.5-1.4c0.2,0,0.8,0.1,1.1,0.3c0.4,0.3,0.7,0.6,0.7,1.1  c0,0.3-0.1,0.5-0.3,0.7c-0.3,0.3-0.6,0.4-1,0.4c-0.5,0.1-2.6,0.6-2.9,0.9C50,44.8,53.3,45,53.3,45z M51,42.5c0,0.2,0.2,0.4,0.4,0.5  c0,0,0.9-0.1,0.9-0.3c0-0.2-0.4-0.6-0.9-0.5C51.2,42.2,51,42.3,51,42.5z M40.2,47.4c0.6-0.5,0.9-0.8,1-1.6c0.1-0.4-0.2-0.9-0.5-0.9  c-0.3,0-0.6,0.3-0.6,0.7v0.2c0.1-0.1,0.2-0.3,0.4-0.3c0.1,0,0.3,0,0.2,0.5C40.6,46.7,40.2,47.4,40.2,47.4z M53.2,49.1  c-0.2,0-0.1-0.1-0.1-0.2c0-0.2,0.2-0.3,0.2-0.5c0-0.1-0.1-0.3-0.2-0.3c-0.5,0-0.8,0.3-0.9,0.7l0.1,0.1c0.1,0,0.3-0.1,0.4-0.1  c0.1,0.1-0.1,0.5-0.1,0.7c0,0.2,0.2,0.2,0.3,0.2c0.6,0,0.8-0.3,1.3-0.5l-0.1-0.5C53.9,48.9,53.6,49.1,53.2,49.1z M53.1,39.8  c0-0.1,0.1-0.1,0.1-0.2l-0.3-0.3c0,0.1-0.1,0.1-0.2,0.2c-0.1-0.1-0.2-0.1-0.3-0.1c-0.1,0-0.2,0.4-0.2,0.5c0.4-0.1,0.3,0.3,0.3,0.5  c0.2,0,0.2,0,0.4,0.1c0-0.2,0-0.1,0-0.3C53,40.1,53,40,53.1,39.8z M31,48.3c-0.1,0-0.3-0.1-0.3-0.5c0.1-0.6,0.2-1.6,0.2-1.6  c-0.5,0.8-0.7,1.3-0.7,2.1c0,0.8,0.2,1.2,0.5,1.2c0.5,0,1-1.1,0.9-1.4C31.5,48.1,31.2,48.3,31,48.3z M33,42.4  c-0.5,0.3-0.8,0.4-1.3,0.6c-0.9,0.3-1.1,0.4-1.8,0.9c0.9-0.1,1.1-0.1,1.9-0.3C32.5,43.4,33.1,43,33,42.4z M30.8,41.6  c0.7,0.1,1.2-2.4,1.2-2.5c0,0.3,0,1,0.1,1.3c0.1,0.3,0.4,1.1,1.4,1.2c0.1,1.1,0.2,2.1,0.3,2.9c0.1,0.6,0.1,1,0.1,1.6  c0.4-0.6,0.5-1.1,0.5-1.7c0-1.3,0-1.7-0.2-2.9c0.3-0.1,0.6-0.5,0.9-0.9c0.2,0.6,1.1,0.9,1.5,0.9c1.4,0,0.6-3.3,0.6-3.4l0.5-0.1  c0,0-0.8-1.6-1.1-1.9c-0.1,0.3-0.5,1-0.7,1.4c0.5,0.9,1.1,2.9,0.8,2.9c-0.3,0.1-0.6-0.3-0.8-0.6c-0.5-0.9-0.5-2.6-1-3.1  c-0.1,0.2-0.4,0.6-0.5,0.9c0,0.4,0.5,1.3,0.5,2c0,0.3-0.3,0.6-0.8,0.7c-0.1-1-0.3-2.3-0.4-3.2l0.5,0c-0.3-0.9-0.4-1.2-0.7-2.1  c-0.4,0.4-0.5,0.4-0.8,0.9c0.2,0.3,0.2,1.4,0.3,2c0.1,0.8,0.3,1.7,0.4,2.5c-0.5-0.2-0.9-0.9-0.7-1.9c0.1-0.4,0.2-0.8-0.2-0.8  c-0.7,0-0.8,2.8-1.5,2.8c-0.3,0-0.5-0.5-0.5-0.9c-0.1-0.6-0.1-0.9-0.3-1.5c-0.1,0.1-0.3,0.9-0.3,1.1C29.8,40.2,30.2,41.5,30.8,41.6z   M41.1,40.1c0,0.2,0.2,0.5,0.4,0.5c0.3,0,0.5-0.4,0.6-0.7c0,0-0.6,0.2-0.6-0.4c0-0.3,0-0.4,0.2-0.8C41.2,39.1,41.1,39.4,41.1,40.1z   M41.5,37.2c0,0-0.2-0.1-0.2-0.2c-0.1-0.2-0.2-0.2-0.1-0.5c0-0.2,0.2-0.5,0.5-0.5c0.1,0,0.6,0,0.6,0.8c0,0.1-0.1,0.3-0.2,0.4  c-0.2,0.2-1.3,1.5-2.6,1.6C40.1,38.4,41.5,37.3,41.5,37.2z M41.5,36.6L41.5,36.6c0.1,0.1,0.2,0,0.2-0.1l-0.1-0.1  C41.6,36.5,41.5,36.6,41.5,36.6z M34.5,49.9c-1.6,0.1-3.3-2.5-1.9-5.3c-0.2,0.8-0.4,4.4,1.7,4.2c1.6-0.1,4.3-1.8,4.3-2.7  c0-0.5-0.1-1.4-0.2-2.3c-0.2,0.1-0.5,0.2-0.8,0.3c0,0.4,0,1.2-1,2.3c-0.9,1-1.6,1.6-2.5,1.6c-1,0-1.6-1.7-0.7-3.5  c0,0-0.4,2.3,0.9,2.3c0.6,0,1.3-0.4,1.9-1c0.6-0.6,1.1-1.2,1-1.6c-0.3,0.2-1.7,0.4-1.7-0.6c0-0.3,0.1-1.8,0.8-1.8  c0.8,0,1.4,1.2,1.4,1.2s0.4-0.2,0.9-0.3c-0.1-1.5-0.3-3.1-0.4-4.3c-0.1-0.6-0.3-1.7-0.5-2c0.2-0.5,0.3-0.7,0.6-1.2  c0.5,0.8,0.8,1.5,1.1,2.4l-0.5,0c0.2,1.3,0.3,3.3,0.4,4.4c0,0.2,0,0.3,0,0.5c0.1,0,0.2-0.1,0.2-0.1c0.3-0.2,0.5-0.6,0.7-0.6  c0.2,0-0.3,0.9,0.5,0.9c0.5,0,0.6-0.9,0.9-0.9c0.2,0,0,1.1,0.4,1c0.3-0.1,0.1-0.4,0.1-0.4c0.2-0.3,0.3-0.4,0.5-0.7  c0.3,0.4,0.3,0.7,0.3,1.2c0,0.5-0.3,1-0.7,1c-0.2,0-0.8-0.2-0.9-0.4c-0.1,0.3-0.5,0.5-0.8,0.5c-0.4,0-0.7-0.2-0.7-0.6  c-0.1,0.1-0.2,0.1-0.3,0.2c0.1,0.9,0.1,1.9,0.2,2.7C39.4,46.6,38.1,49.6,34.5,49.9z M36.8,43.3c0,0-0.3-0.4-0.4-0.4  c-0.2-0.1-0.4-0.1-0.4,0.1C36,43.7,36.8,43.3,36.8,43.3z M69.1,38.5c0,0.4,0.1,0.3,0.2,0c0.1-0.3,0.1-1-0.1-1.4  c-0.2-0.5-0.2-0.3-0.4-0.1c-0.1,0.2-0.1,0.2,0.1,0.5C68.9,37.7,69.1,38.1,69.1,38.5z M56.8,37.3c0,0.4,0.1,0.3,0.2,0  c0.1-0.3,0.1-1-0.1-1.4c-0.2-0.5-0.2-0.3-0.4-0.1c-0.1,0.2-0.1,0.2,0.1,0.5C56.6,36.5,56.8,36.9,56.8,37.3z M30.6,37.2  c0,0.4,0.1,0.3,0.2,0c0.1-0.3,0.1-1-0.1-1.4c-0.2-0.5-0.2-0.3-0.4-0.1c-0.1,0.2-0.1,0.2,0.1,0.5C30.5,36.4,30.6,36.8,30.6,37.2z   M35.2,36c0.1-0.2,0.1-0.2,0.2-0.1c0.1,0.1,0.6,0,0.4-0.7c-0.1-0.2-0.1-0.1-0.1,0.2c0,0.6-0.2,0.6-0.4,0c-0.1-0.2-0.1-0.2-0.2,0.1  c0,0.5-0.2,0.6-0.4,0.1c-0.1-0.2-0.1-0.4-0.1-0.1c-0.1,0.3,0,0.5,0.1,0.6C34.9,36.2,35.1,36.2,35.2,36z M56.7,39.2  c0.1-0.2,0.1-0.2,0.2-0.1c0.1,0.1,0.6,0,0.4-0.7c-0.1-0.2-0.1-0.1-0.1,0.2c0,0.6-0.2,0.6-0.4,0c-0.1-0.2-0.1-0.2-0.2,0.1  c0,0.5-0.2,0.6-0.4,0.1c-0.1-0.2-0.1-0.4-0.1-0.1c-0.1,0.3,0,0.5,0.1,0.6C56.5,39.4,56.7,39.4,56.7,39.2z M47.9,41.9  c-0.1-0.2-0.1-0.4-0.2-0.1c-0.1,0.4,0,0.6,0.2,0.7c0.2,0.1,0.4,0.1,0.4-0.1c0.1-0.2,0.1-0.2,0.3-0.1c0.2,0.1,0.8,0,0.5-0.9  c-0.2-0.2-0.2-0.1-0.1,0.2c0,0.7-0.2,0.7-0.5,0c-0.1-0.2-0.2-0.2-0.2,0.1C48.3,42.4,48.1,42.5,47.9,41.9z"></path></svg>