<svg xmlns="http://www.w3.org/2000/svg" xmlns:xlink="http://www.w3.org/1999/xlink" version="1.1" x="0px" y="0px" viewBox="0 0 100 125" enable-background="new 0 0 100 100" xml:space="preserve"><g><rect x="5" y="20" fill="#E30A17" width="90" height="60"/><g><path fill="#FFFFFF" d="M40.6,62c-6.6,0-12-5.4-12-12s5.4-12,12-12c3.5,0,6.7,1.5,8.9,4c-2.7-4.2-7.3-7-12.7-7    c-8.3,0-15,6.7-15,15s6.7,15,15,15c5.3,0,10-2.8,12.7-7C47.3,60.5,44.2,62,40.6,62z"/></g><polygon fill="#FFFFFF" points="59.1,50 62.3,45.6 57.1,47.3 53.9,42.9 53.9,48.3 48.8,50 53.9,51.7 53.9,57.1 57.1,52.7    62.3,54.4  "/></g><text x="0" y="115" fill="#000000" font-size="5px" font-weight="bold" font-family="'Helvetica Neue', Helvetica, Arial-Unicode, Arial, Sans-serif">Created by Nadir Balcikli</text><text x="0" y="120" fill="#000000" font-size="5px" font-weight="bold" font-family="'Helvetica Neue', Helvetica, Arial-Unicode, Arial, Sans-serif">from the Noun Project</text></svg>