<svg xmlns="http://www.w3.org/2000/svg" xmlns:xlink="http://www.w3.org/1999/xlink" version="1.1" x="0px" y="0px" viewBox="0 0 100 100" enable-background="new 0 0 100 100" xml:space="preserve"><rect x="5" y="20" fill="#FFFFFF" width="90" height="60"></rect><path fill="#FFD700" d="M32.507,31.781c-0.332-0.126-0.72-0.241-0.903-0.274c-0.298-0.039-0.669,0.014-0.997,0.141  c-0.277,0.117-0.616,0.305-1.07,0.59c-0.511,0.322-1.133,0.518-1.557,0.638c-0.398,0.112-1.233,0.115-1.242,0.115l-0.124,0.213  c0.002,0,0.008,0,0.016,0l-1.45,2.07c-0.041,0.013,0.037,0.212,0.159,0.171l1.913,0.061c-0.01,0.005-0.016,0.008-0.017,0.008  l0.276,0.099c0.049-0.021,1.195-0.494,1.733-0.948c0.41-0.34,0.952-0.916,1.218-1.255c0.245-0.313,0.694-0.798,0.884-0.929  c0.365-0.243,0.635-0.274,0.832-0.297l0.077-0.01c0.193-0.025,0.702-0.029,0.707-0.029c0,0,0.202-0.005,0.269-0.013  C33.231,32.131,32.868,31.891,32.507,31.781z"></path><path fill="#231F20" d="M32.507,31.781c-0.332-0.126-0.72-0.241-0.903-0.274c-0.298-0.039-0.669,0.014-0.997,0.141  c-0.277,0.117-0.616,0.305-1.07,0.59c-0.511,0.322-1.133,0.518-1.557,0.638c-0.398,0.112-1.233,0.115-1.242,0.115l-0.124,0.213  c0.035,0,0.998-0.003,1.424-0.124c0.437-0.123,1.078-0.325,1.612-0.661c0.444-0.28,0.773-0.462,1.037-0.573  c0.289-0.111,0.629-0.161,0.885-0.127c0.058,0.01,0.142,0.031,0.24,0.059c-0.391,0.041-0.811,0.168-1.191,0.455  c-1.155,0.874-2.163,1.561-2.698,1.835c-0.568,0.294-2.269,0.961-2.597,1.021l0.037,0.209c0.376-0.067,2.11-0.758,2.658-1.04  c0.543-0.28,1.563-0.974,2.729-1.854c0.431-0.325,0.928-0.421,1.356-0.425c-0.205,0.024-0.499,0.073-0.879,0.327  c-0.227,0.156-0.703,0.681-0.932,0.973c-0.26,0.331-0.787,0.893-1.188,1.223c-0.513,0.434-1.861,1.009-1.873,1.014l0.276,0.099  c0.049-0.021,1.195-0.494,1.733-0.948c0.41-0.34,0.952-0.916,1.218-1.255c0.245-0.313,0.694-0.798,0.884-0.929  c0.365-0.243,0.635-0.274,0.832-0.297l0.077-0.01c0.193-0.025,0.702-0.029,0.707-0.029l0,0c0,0,0.202-0.005,0.269-0.013  C33.231,32.131,32.868,31.891,32.507,31.781z"></path><path fill="#FFD700" d="M10.469,41.564c0.331,0.126,0.718,0.24,0.902,0.274c0.298,0.039,0.669-0.014,0.997-0.141  c0.277-0.117,0.616-0.305,1.07-0.59c0.511-0.322,1.133-0.519,1.557-0.638c0.398-0.112,1.233-0.115,1.242-0.115l0.124-0.213  c-0.002,0-0.008,0-0.016,0l1.575-2.195c0.041-0.013-0.037-0.212-0.159-0.171l-2.038,0.063c0.011-0.005,0.017-0.007,0.017-0.007  l-0.277-0.099c-0.049,0.021-1.194,0.494-1.732,0.948c-0.41,0.34-0.952,0.916-1.218,1.255c-0.245,0.313-0.694,0.798-0.885,0.929  c-0.365,0.244-0.635,0.274-0.831,0.297l-0.076,0.01c-0.194,0.025-0.703,0.029-0.708,0.029c0,0-0.202,0.005-0.269,0.013  C9.745,41.215,10.108,41.455,10.469,41.564z"></path><path fill="#231F20" d="M10.469,41.564c0.331,0.126,0.718,0.24,0.902,0.274c0.298,0.039,0.669-0.014,0.997-0.141  c0.277-0.117,0.616-0.305,1.07-0.59c0.511-0.322,1.133-0.519,1.557-0.638c0.398-0.112,1.233-0.115,1.242-0.115l0.124-0.213  c-0.035,0-0.998,0.003-1.424,0.124c-0.437,0.122-1.078,0.324-1.612,0.661c-0.444,0.279-0.773,0.462-1.037,0.573  c-0.289,0.111-0.629,0.161-0.884,0.127c-0.059-0.01-0.144-0.031-0.241-0.059c0.39-0.041,0.811-0.168,1.191-0.455  c1.155-0.874,2.163-1.56,2.698-1.836c0.568-0.293,2.268-0.96,2.597-1.02l-0.037-0.209c-0.376,0.067-2.11,0.758-2.657,1.04  c-0.545,0.28-1.564,0.974-2.729,1.854c-0.431,0.325-0.928,0.422-1.357,0.424c0.205-0.024,0.5-0.072,0.879-0.326  c0.228-0.156,0.704-0.681,0.933-0.974c0.26-0.329,0.787-0.892,1.188-1.222c0.513-0.434,1.861-1.01,1.873-1.014l-0.277-0.099  c-0.049,0.021-1.194,0.494-1.732,0.948c-0.41,0.34-0.952,0.916-1.218,1.255c-0.245,0.313-0.694,0.798-0.885,0.929  c-0.365,0.244-0.635,0.274-0.831,0.297l-0.076,0.01c-0.194,0.025-0.703,0.029-0.708,0.029l0,0c0,0-0.202,0.005-0.269,0.013  C9.745,41.215,10.108,41.455,10.469,41.564z"></path><path fill="#FFD700" d="M25.794,25.485c-0.323,0.145-0.678,0.338-0.832,0.443c-0.238,0.184-0.463,0.483-0.605,0.805  c-0.113,0.279-0.221,0.651-0.34,1.174c-0.134,0.59-0.435,1.168-0.649,1.552c-0.203,0.361-0.791,0.954-0.797,0.96l0.063,0.238  c0.001-0.001,0.005-0.006,0.011-0.012l0.401,2.549c-0.02,0.037,0.177,0.123,0.234,0.008l1.433-1.367  c-0.005,0.01-0.007,0.016-0.008,0.016l0.267-0.125c0.021-0.049,0.495-1.195,0.554-1.896c0.05-0.529,0.026-1.32-0.025-1.748  c-0.049-0.396-0.073-1.056-0.032-1.282c0.087-0.431,0.256-0.643,0.379-0.798l0.048-0.061c0.118-0.156,0.475-0.519,0.479-0.521  c0,0,0.14-0.146,0.181-0.199C26.553,25.22,26.127,25.308,25.794,25.485z"></path><path fill="#231F20" d="M25.794,25.485c-0.323,0.145-0.678,0.338-0.832,0.443c-0.238,0.184-0.463,0.483-0.605,0.805  c-0.113,0.279-0.221,0.651-0.34,1.174c-0.134,0.59-0.435,1.168-0.649,1.552c-0.203,0.361-0.791,0.954-0.797,0.96l0.063,0.238  c0.024-0.025,0.703-0.707,0.92-1.094c0.221-0.396,0.531-0.993,0.672-1.608c0.116-0.512,0.22-0.873,0.328-1.138  c0.125-0.283,0.33-0.56,0.534-0.717c0.049-0.033,0.123-0.078,0.212-0.128c-0.246,0.306-0.454,0.692-0.52,1.165  c-0.199,1.434-0.428,2.632-0.61,3.205c-0.195,0.609-0.925,2.283-1.115,2.557l0.174,0.122c0.218-0.313,0.956-2.027,1.145-2.614  c0.186-0.584,0.417-1.795,0.618-3.24c0.074-0.535,0.357-0.954,0.659-1.261c-0.128,0.163-0.301,0.405-0.391,0.853  c-0.051,0.271-0.016,0.979,0.029,1.348c0.05,0.417,0.074,1.188,0.024,1.704c-0.056,0.669-0.604,2.029-0.608,2.04l0.267-0.125  c0.021-0.049,0.495-1.195,0.554-1.896c0.05-0.529,0.026-1.32-0.025-1.748c-0.049-0.396-0.073-1.056-0.032-1.282  c0.087-0.431,0.256-0.643,0.379-0.798l0.048-0.061c0.118-0.156,0.475-0.519,0.479-0.521l0,0c0,0,0.14-0.146,0.181-0.199  C26.553,25.22,26.127,25.308,25.794,25.485z"></path><path fill="#FFD700" d="M17.306,47.86c0.323-0.145,0.678-0.338,0.832-0.443c0.238-0.184,0.463-0.482,0.605-0.805  c0.113-0.278,0.221-0.65,0.34-1.174c0.134-0.589,0.436-1.167,0.649-1.551c0.203-0.361,0.791-0.954,0.798-0.96l-0.063-0.238  c-0.002,0.001-0.006,0.006-0.012,0.011l-0.276-2.548c0.02-0.037-0.177-0.123-0.234-0.008l-1.558,1.367  c0.004-0.01,0.007-0.016,0.007-0.017l-0.266,0.126c-0.021,0.049-0.495,1.195-0.554,1.896c-0.051,0.529-0.026,1.32,0.025,1.748  c0.048,0.396,0.073,1.056,0.031,1.282c-0.086,0.43-0.255,0.643-0.378,0.797l-0.048,0.061c-0.118,0.156-0.475,0.52-0.479,0.521  c0,0-0.14,0.146-0.181,0.199C16.547,48.125,16.974,48.038,17.306,47.86z"></path><path fill="#231F20" d="M17.306,47.86c0.323-0.145,0.678-0.338,0.832-0.443c0.238-0.184,0.463-0.482,0.605-0.805  c0.113-0.278,0.221-0.65,0.34-1.174c0.134-0.589,0.436-1.167,0.649-1.551c0.203-0.361,0.791-0.954,0.798-0.96l-0.063-0.238  c-0.025,0.025-0.703,0.707-0.92,1.094c-0.223,0.396-0.533,0.993-0.673,1.608c-0.116,0.512-0.22,0.873-0.327,1.138  c-0.126,0.285-0.331,0.56-0.536,0.716c-0.049,0.033-0.123,0.078-0.211,0.129c0.246-0.307,0.454-0.693,0.52-1.166  c0.199-1.434,0.428-2.633,0.61-3.205c0.195-0.609,0.925-2.283,1.115-2.557l-0.175-0.122c-0.217,0.313-0.955,2.027-1.143,2.614  c-0.187,0.584-0.418,1.795-0.619,3.24c-0.074,0.535-0.357,0.955-0.659,1.261c0.128-0.164,0.302-0.406,0.392-0.853  c0.049-0.271,0.015-0.979-0.03-1.348c-0.05-0.416-0.073-1.188-0.024-1.704c0.056-0.669,0.603-2.029,0.607-2.041l-0.266,0.126  c-0.021,0.049-0.495,1.195-0.554,1.896c-0.051,0.529-0.026,1.32,0.025,1.748c0.048,0.396,0.073,1.056,0.031,1.282  c-0.086,0.43-0.255,0.643-0.378,0.797l-0.048,0.061c-0.118,0.156-0.475,0.52-0.479,0.521l0,0c0,0-0.14,0.146-0.181,0.199  C16.547,48.125,16.974,48.038,17.306,47.86z"></path><path fill="#FFD700" d="M16.596,25.653c-0.127,0.332-0.24,0.719-0.274,0.902c-0.039,0.299,0.014,0.67,0.141,0.998  c0.117,0.277,0.305,0.616,0.591,1.07c0.321,0.511,0.518,1.133,0.637,1.557c0.112,0.398,0.115,1.233,0.115,1.242l0.213,0.124  c0-0.002,0-0.008,0-0.016l2.07,1.575c0.013,0.041,0.212-0.037,0.172-0.159l0.186-2.038c0.004,0.01-0.118,0.016-0.118,0.017  l0.099-0.277c-0.02-0.048-0.494-1.194-0.949-1.732c-0.339-0.41-0.915-0.952-1.254-1.218c-0.313-0.246-0.798-0.695-0.929-0.885  c-0.243-0.365-0.274-0.635-0.297-0.831l-0.01-0.077c-0.026-0.193-0.03-0.702-0.03-0.707c0,0-0.004-0.201-0.012-0.269  C16.946,24.93,16.706,25.293,16.596,25.653z"></path><path fill="#231F20" d="M16.596,25.653c-0.127,0.332-0.24,0.719-0.274,0.902c-0.039,0.299,0.014,0.67,0.141,0.998  c0.117,0.277,0.305,0.616,0.591,1.07c0.321,0.511,0.518,1.133,0.637,1.557c0.112,0.398,0.115,1.233,0.115,1.242l0.213,0.124  c0-0.035-0.003-0.998-0.124-1.425c-0.123-0.436-0.325-1.078-0.661-1.611c-0.279-0.444-0.462-0.773-0.573-1.037  c-0.111-0.289-0.161-0.629-0.128-0.885c0.012-0.059,0.032-0.143,0.06-0.24c0.041,0.391,0.168,0.811,0.456,1.191  c0.873,1.154,1.559,2.164,1.834,2.697c0.294,0.57,0.961,2.27,1.021,2.598l0.209-0.037c-0.067-0.375-0.758-2.109-1.04-2.658  c-0.28-0.544-0.974-1.564-1.854-2.729c-0.325-0.43-0.421-0.928-0.424-1.357c0.024,0.205,0.072,0.5,0.325,0.879  c0.156,0.228,0.682,0.703,0.975,0.933c0.33,0.259,0.892,0.787,1.222,1.187c0.434,0.514,1.009,1.862,1.014,1.874l0.099-0.277  c-0.02-0.048-0.494-1.194-0.949-1.732c-0.339-0.41-0.915-0.952-1.254-1.218c-0.313-0.246-0.798-0.695-0.929-0.885  c-0.243-0.365-0.274-0.635-0.297-0.831l-0.01-0.077c-0.026-0.193-0.03-0.702-0.03-0.707l0,0c0,0-0.004-0.201-0.012-0.269  C16.946,24.93,16.706,25.293,16.596,25.653z"></path><path fill="#FFD700" d="M26.504,47.692c0.127-0.332,0.24-0.719,0.274-0.902c0.039-0.298-0.014-0.669-0.142-0.998  c-0.116-0.277-0.304-0.616-0.589-1.07c-0.322-0.511-0.519-1.133-0.638-1.557c-0.126-0.446-0.115-1.117-0.115-1.242l-0.213-0.125  c0,0.002,0,0.008,0,0.017l-1.945-1.45c-0.013-0.041-0.212,0.037-0.171,0.159l-0.312,1.913c-0.004-0.01-0.007-0.016-0.007-0.018  l0.026,0.277c0.021,0.049,0.494,1.195,0.949,1.733c0.339,0.409,0.915,0.952,1.254,1.218c0.313,0.246,0.798,0.694,0.929,0.885  c0.243,0.365,0.274,0.634,0.297,0.83l0.01,0.078c0.026,0.193,0.029,0.703,0.029,0.707c0,0,0.005,0.201,0.013,0.268  C26.155,48.415,26.395,48.053,26.504,47.692z"></path><path fill="#231F20" d="M26.504,47.692c0.127-0.332,0.24-0.719,0.274-0.902c0.039-0.298-0.014-0.669-0.142-0.998  c-0.116-0.277-0.304-0.616-0.589-1.07c-0.322-0.511-0.519-1.133-0.638-1.557c-0.112-0.398-0.115-1.234-0.115-1.242l-0.213-0.125  c0,0.035,0.003,0.998,0.123,1.426c0.123,0.436,0.326,1.078,0.662,1.611c0.279,0.444,0.462,0.773,0.573,1.037  c0.111,0.289,0.161,0.629,0.127,0.884c-0.011,0.059-0.031,0.143-0.059,0.24c-0.041-0.39-0.168-0.81-0.456-1.191  c-0.873-1.154-1.559-2.164-1.834-2.697c-0.294-0.57-0.961-2.27-1.02-2.598l-0.21,0.037c0.067,0.375,0.758,2.109,1.04,2.657  c0.281,0.544,0.974,1.565,1.854,2.729c0.325,0.43,0.421,0.927,0.425,1.357c-0.024-0.205-0.073-0.5-0.326-0.878  c-0.157-0.228-0.682-0.704-0.975-0.933c-0.33-0.26-0.891-0.788-1.223-1.188c-0.434-0.513-1.008-1.862-1.013-1.874l-0.099,0.277  c0.021,0.049,0.494,1.195,0.949,1.733c0.339,0.409,0.915,0.952,1.254,1.218c0.313,0.246,0.798,0.694,0.929,0.885  c0.243,0.365,0.274,0.634,0.297,0.83l0.01,0.078c0.026,0.193,0.029,0.703,0.029,0.707l0,0c0,0,0.005,0.201,0.013,0.268  C26.155,48.415,26.395,48.053,26.504,47.692z"></path><path fill="#FFD700" d="M10.3,32.366c0.145,0.323,0.338,0.678,0.444,0.832c0.183,0.238,0.482,0.463,0.805,0.605  c0.278,0.113,0.65,0.221,1.174,0.34c0.588,0.133,1.167,0.435,1.551,0.65c0.361,0.201,0.954,0.791,0.96,0.797l0.238-0.063  c-0.001-0.002-0.005-0.006-0.011-0.012l2.547-0.276c0.039,0.02,0.124-0.177,0.009-0.234l-1.368-1.558  c0.011,0.004,0.017,0.007,0.018,0.008l-0.126-0.267c-0.049-0.021-1.195-0.495-1.896-0.554c-0.53-0.051-1.32-0.025-1.748,0.025  c-0.396,0.049-1.056,0.073-1.282,0.031c-0.431-0.086-0.643-0.255-0.798-0.378l-0.061-0.048c-0.156-0.119-0.519-0.475-0.522-0.479  c0,0-0.145-0.14-0.197-0.182C10.036,31.606,10.123,32.033,10.3,32.366z"></path><path fill="#231F20" d="M10.3,32.366c0.145,0.323,0.338,0.678,0.444,0.832c0.183,0.238,0.482,0.463,0.805,0.605  c0.278,0.113,0.65,0.221,1.174,0.34c0.588,0.133,1.167,0.435,1.551,0.65c0.361,0.201,0.954,0.791,0.96,0.797l0.238-0.063  c-0.024-0.025-0.708-0.704-1.094-0.92c-0.396-0.223-0.993-0.533-1.608-0.673c-0.512-0.116-0.873-0.22-1.138-0.327  c-0.284-0.125-0.56-0.332-0.716-0.535c-0.034-0.049-0.079-0.123-0.129-0.212c0.306,0.246,0.691,0.454,1.165,0.52  c1.434,0.199,2.632,0.427,3.204,0.61c0.61,0.195,2.284,0.925,2.558,1.115l0.122-0.174c-0.313-0.219-2.027-0.957-2.614-1.145  c-0.584-0.186-1.795-0.417-3.241-0.618c-0.534-0.074-0.953-0.358-1.26-0.659c0.162,0.127,0.405,0.301,0.853,0.391  c0.271,0.05,0.979,0.016,1.348-0.029c0.417-0.05,1.187-0.074,1.704-0.025c0.669,0.057,2.029,0.604,2.041,0.609l-0.126-0.267  c-0.049-0.021-1.195-0.495-1.896-0.554c-0.53-0.051-1.32-0.025-1.748,0.025c-0.396,0.049-1.056,0.073-1.282,0.031  c-0.431-0.086-0.643-0.255-0.798-0.378l-0.061-0.048c-0.156-0.119-0.519-0.475-0.522-0.479l0,0c0,0-0.145-0.14-0.197-0.182  C10.036,31.606,10.123,32.033,10.3,32.366z"></path><path fill="#FFD700" d="M32.801,40.979c-0.146-0.324-0.339-0.678-0.444-0.832c-0.184-0.238-0.483-0.463-0.805-0.605  c-0.279-0.113-0.651-0.221-1.174-0.34c-0.59-0.133-1.168-0.436-1.552-0.65c-0.361-0.201-0.954-0.79-0.96-0.796l-0.238,0.062  c0.001,0.002,0.005,0.006,0.011,0.012l-2.547,0.276c-0.038-0.02-0.124,0.177-0.009,0.234l1.368,1.558  c-0.011-0.004-0.017-0.007-0.018-0.008l0.126,0.267c0.049,0.021,1.194,0.495,1.896,0.554c0.529,0.051,1.32,0.026,1.749-0.025  c0.395-0.049,1.055-0.073,1.281-0.031c0.43,0.086,0.643,0.254,0.798,0.377l0.061,0.049c0.156,0.119,0.519,0.475,0.522,0.479  c0,0,0.146,0.14,0.198,0.182C33.066,41.739,32.979,41.312,32.801,40.979z"></path><path fill="#231F20" d="M32.801,40.979c-0.146-0.324-0.339-0.678-0.444-0.832c-0.184-0.238-0.483-0.463-0.805-0.605  c-0.279-0.113-0.651-0.221-1.174-0.34c-0.59-0.133-1.168-0.436-1.552-0.65c-0.361-0.201-0.954-0.79-0.96-0.796l-0.238,0.062  c0.024,0.025,0.708,0.704,1.095,0.92c0.395,0.223,0.992,0.533,1.607,0.672c0.512,0.117,0.873,0.221,1.138,0.328  c0.284,0.126,0.56,0.331,0.717,0.535c0.033,0.049,0.078,0.123,0.128,0.212c-0.305-0.246-0.691-0.454-1.165-0.52  c-1.434-0.199-2.632-0.428-3.205-0.61c-0.609-0.195-2.283-0.926-2.558-1.115l-0.121,0.174c0.313,0.219,2.027,0.957,2.614,1.145  c0.584,0.186,1.795,0.417,3.241,0.618c0.534,0.074,0.953,0.357,1.26,0.659c-0.163-0.128-0.405-0.301-0.853-0.391  c-0.271-0.051-0.979-0.016-1.348,0.029c-0.417,0.05-1.187,0.074-1.704,0.025c-0.669-0.057-2.029-0.604-2.041-0.609l0.126,0.267  c0.049,0.021,1.194,0.495,1.896,0.554c0.529,0.051,1.32,0.026,1.749-0.025c0.395-0.049,1.055-0.073,1.281-0.031  c0.43,0.086,0.643,0.254,0.798,0.377l0.061,0.049c0.156,0.119,0.519,0.475,0.522,0.479l0,0c0,0,0.146,0.14,0.198,0.182  C33.066,41.739,32.979,41.312,32.801,40.979z"></path><g><path fill="#FFD700" d="M33.817,36.626l-8.735-1.541l-0.036,0.205l0.024,0.005v2.895h0.02l0.034,0.192l8.726-1.539l0.6-0.105   L33.817,36.626z"></path><polygon fill="#231F20" points="34.449,36.737 33.817,36.626 24.686,35.016 24.65,35.222 32.616,36.626 25.595,36.626    25.595,36.834 32.699,36.834 25.087,38.177 25.124,38.382 33.849,36.843  "></polygon></g><g><path fill="#FFD700" d="M9.267,36.771l8.735,1.541l0.037-0.205l-0.025-0.005v-2.895h-0.02l-0.034-0.192l-8.725,1.538l-0.601,0.105   L9.267,36.771z"></path><polygon fill="#231F20" points="8.635,36.659 9.267,36.771 18.399,38.382 18.435,38.177 10.468,36.771 17.489,36.771    17.489,36.563 10.385,36.563 17.997,35.222 17.96,35.016 9.236,36.554  "></polygon></g><g><path fill="#FFD700" d="M30.169,27.968l-7.266,5.087l0.119,0.171l0.021-0.014l2.046,2.047l0.015-0.015l0.16,0.112l5.081-7.258   l0.351-0.499L30.169,27.968z"></path><polygon fill="#231F20" points="30.697,27.6 30.169,27.968 22.575,33.286 22.695,33.456 29.321,28.816 24.357,33.781    24.503,33.929 29.527,28.905 25.093,35.236 25.265,35.356 30.346,28.099  "></polygon></g><g><path fill="#FFD700" d="M12.915,45.43l7.266-5.087l-0.119-0.171l-0.021,0.014l-2.047-2.047l-0.015,0.015l-0.159-0.112l-5.082,7.258   l-0.35,0.499L12.915,45.43z"></path><polygon fill="#231F20" points="12.388,45.798 12.915,45.43 20.509,40.112 20.39,39.94 13.763,44.581 18.728,39.616 18.581,39.469    13.557,44.491 17.991,38.161 17.82,38.041 12.738,45.299  "></polygon></g><g><path fill="#FFD700" d="M21.469,24.424l-1.541,8.735l0.205,0.036l0.006-0.024h2.894v-0.02l0.192-0.034l-1.538-8.726l-0.105-0.6   L21.469,24.424z"></path><polygon fill="#231F20" points="21.582,23.792 21.469,24.424 19.859,33.556 20.064,33.591 21.469,25.625 21.469,32.646    21.677,32.646 21.677,25.542 23.02,33.153 23.225,33.117 21.687,24.392  "></polygon></g><g><path fill="#FFD700" d="M21.615,48.973l1.541-8.735l-0.205-0.036l-0.005,0.023h-2.895v0.021l-0.192,0.033l1.539,8.724l0.105,0.602   L21.615,48.973z"></path><polygon fill="#231F20" points="21.503,49.606 21.615,48.973 23.225,39.843 23.02,39.806 21.615,47.772 21.615,40.751    21.407,40.751 21.407,47.856 20.064,40.244 19.859,40.28 21.398,49.004  "></polygon></g><g><path fill="#FFD700" d="M12.811,28.07l5.087,7.267l0.171-0.119l-0.014-0.021l2.047-2.047l-0.014-0.014l0.111-0.16l-7.258-5.082   l-0.498-0.35L12.811,28.07z"></path><polygon fill="#231F20" points="12.444,27.544 12.811,28.07 18.129,35.665 18.3,35.546 13.66,28.92 18.625,33.884 18.772,33.737    13.75,28.714 20.081,33.147 20.2,32.976 12.942,27.894  "></polygon></g><g><path fill="#FFD700" d="M30.273,45.327l-5.087-7.268l-0.171,0.12l0.014,0.021l-2.047,2.047l0.015,0.014l-0.112,0.16l7.258,5.082   l0.499,0.35L30.273,45.327z"></path><polygon fill="#231F20" points="30.641,45.853 30.273,45.327 24.955,37.731 24.784,37.851 29.424,44.478 24.459,39.513    24.312,39.66 29.335,44.684 23.004,40.251 22.884,40.421 30.142,45.503  "></polygon></g><path fill="#FFD700" d="M21.472,32.71c-2.247,0-4.069,1.826-4.069,4.078c0,2.251,1.822,4.076,4.069,4.076  c2.248,0,4.07-1.825,4.07-4.076C25.542,34.536,23.72,32.71,21.472,32.71z"></path><path fill="#231F20" d="M21.485,32.589c-2.312,0-4.186,1.873-4.186,4.186s1.874,4.186,4.186,4.186c2.313,0,4.187-1.873,4.187-4.186  S23.797,32.589,21.485,32.589z M21.485,40.792c-2.219,0-4.018-1.799-4.018-4.018s1.799-4.018,4.018-4.018  c2.22,0,4.019,1.799,4.019,4.018S23.705,40.792,21.485,40.792z"></path><g><g><g><path fill="#231F20" d="M18.641,35.174c0,0,0.898-0.396,1.441-0.261s0.752,0.334,0.752,0.334s0.323,0.178,0.167-0.084     c-0.156-0.26-0.689-0.5-0.689-0.5s-0.479-0.314-1.075-0.012S18.413,35.132,18.641,35.174z"></path><path fill="#231F20" d="M18.749,35.781c0,0,0.746-0.479,1.219-0.39c0.472,0.09,0.586,0.118,0.782,0.37     c0,0,0.009-0.476-0.554-0.515c-0.563-0.039-0.953,0.129-0.994,0.155C19.025,35.497,18.749,35.781,18.749,35.781z"></path><path fill="#231F20" d="M20.309,35.571c-0.058-0.201-0.302-0.297-0.544-0.214c-0.244,0.083-0.396,0.313-0.338,0.516     c0.057,0.202,0.301,0.298,0.545,0.215C20.215,36.005,20.367,35.774,20.309,35.571z"></path><path fill="#231F20" d="M18.99,35.794c0,0,0.362,0.348,0.581,0.418s0.532,0.033,0.651-0.02c0.12-0.051,0.334-0.148,0.36-0.172     c0.025-0.023,0.146-0.281-0.13-0.146c-0.245,0.12-0.365,0.245-0.522,0.255c-0.106,0.006-0.364-0.047-0.463-0.102     C19.368,35.974,18.99,35.794,18.99,35.794z"></path><path fill="#231F20" d="M19.277,35.992c0,0-0.181-0.281,0.067-0.526s-0.122,0.006-0.122,0.006s-0.039,0.049-0.045,0.086     c-0.018,0.117-0.014,0.348,0.037,0.403C19.3,36.055,19.277,35.992,19.277,35.992z"></path></g><g><path fill="#231F20" d="M24.329,35.174c0,0-0.897-0.396-1.44-0.261s-0.752,0.334-0.752,0.334s-0.323,0.178-0.167-0.084     c0.157-0.26,0.689-0.5,0.689-0.5s0.48-0.314,1.075-0.012S24.559,35.132,24.329,35.174z"></path><path fill="#231F20" d="M24.21,35.781c0,0-0.746-0.479-1.218-0.39s-0.586,0.118-0.782,0.37c0,0-0.009-0.476,0.554-0.515     s0.953,0.129,0.994,0.155C23.935,35.497,24.21,35.781,24.21,35.781z"></path><path fill="#231F20" d="M22.651,35.571c0.057-0.201,0.301-0.297,0.545-0.214c0.243,0.083,0.395,0.313,0.337,0.516     s-0.302,0.298-0.544,0.215C22.745,36.005,22.593,35.774,22.651,35.571z"></path><path fill="#231F20" d="M23.97,35.794c0,0-0.362,0.348-0.581,0.418c-0.22,0.07-0.532,0.033-0.652-0.02     c-0.119-0.051-0.333-0.148-0.359-0.172s-0.146-0.281,0.131-0.146c0.245,0.12,0.365,0.245,0.521,0.255     c0.107,0.006,0.365-0.047,0.465-0.102C23.592,35.974,23.97,35.794,23.97,35.794z"></path><path fill="#231F20" d="M23.683,35.992c0,0,0.181-0.281-0.067-0.526c-0.247-0.245,0.123,0.006,0.123,0.006     s0.038,0.049,0.044,0.086c0.018,0.117,0.014,0.348-0.036,0.403C23.66,36.055,23.683,35.992,23.683,35.992z"></path></g></g><path fill="#231F20" d="M22.703,37.608c-0.107-0.033-0.233-0.041-0.274-0.144c-0.04-0.103-0.176-0.372-0.202-0.396   c-0.025-0.023-0.209-0.157-0.141-0.031c0.334,0.308,0.015,0.607-0.257,0.305c0.134,0.322-0.341,0.299-0.341,0.299h-0.003h-0.002   c0,0-0.474,0.023-0.341-0.299c-0.271,0.303-0.591,0.003-0.257-0.305c0.069-0.126-0.114,0.008-0.141,0.031s-0.162,0.293-0.203,0.396   c-0.04,0.103-0.166,0.11-0.273,0.144s-0.286,0.271-0.291,0.297c-0.005,0.026,0.193-0.147,0.313-0.186s0.355-0.096,0.548-0.086   c0.186,0.015,0.379,0.2,0.629,0.213c0.007,0,0.013-0.001,0.019-0.001c0.007,0,0.013,0.001,0.02,0.001   c0.251-0.013,0.443-0.198,0.629-0.213c0.193-0.01,0.429,0.048,0.548,0.086s0.317,0.212,0.313,0.186   C22.989,37.88,22.81,37.642,22.703,37.608z"></path><path fill="#231F20" d="M23.243,38.271c0,0,0.096,0.124,0.193,0.263c-0.062-0.001-0.476-0.017-0.588-0.051   c-0.114-0.035-0.384-0.146-0.548-0.188c-0.164-0.042-0.34-0.046-0.449-0.012c-0.098,0.032-0.319,0.06-0.366,0.065   c-0.045-0.006-0.267-0.033-0.365-0.065c-0.109-0.034-0.285-0.03-0.449,0.012c-0.165,0.043-0.435,0.153-0.548,0.188   c-0.112,0.034-0.525,0.05-0.588,0.051c0.098-0.139,0.193-0.263,0.193-0.263c-0.305,0.149-0.375,0.548-0.375,0.548   c0.035-0.072,0.107-0.18,0.179-0.281c0.032,0.029,0.441,0.19,0.622,0.301c0.199,0.121,0.856,0.371,1.1,0.379   c0.136,0.004,0.2,0.004,0.231,0.002c0.032,0.002,0.097,0.002,0.233-0.002c0.242-0.008,0.899-0.258,1.099-0.379   c0.182-0.11,0.59-0.271,0.622-0.301c0.071,0.102,0.144,0.209,0.18,0.281C23.619,38.819,23.548,38.421,23.243,38.271z    M21.513,38.917L21.513,38.917h-0.019c-0.003,0-0.006,0-0.01,0c-0.003,0-0.006,0-0.01,0h-0.017l0,0   c-0.634,0.024-1.179-0.227-1.179-0.227c0.226-0.063,1.192-0.063,1.192-0.063h0.026c0,0,0.966,0,1.193,0.063   C22.692,38.69,22.146,38.941,21.513,38.917z"></path><path fill="#231F20" d="M21.503,39.647l0.318-0.004c0,0-0.117-0.086-0.302-0.098c-0.006,0-0.012,0-0.019-0.001   c-0.001,0-0.003,0-0.004,0c-0.005,0-0.008,0-0.013,0c-0.004,0-0.008,0-0.013,0c-0.001,0-0.001,0-0.003,0   c-0.007,0.001-0.013,0.001-0.019,0.001c-0.185,0.012-0.301,0.098-0.301,0.098l0.317,0.004h0.001h0.017H21.503L21.503,39.647z"></path></g><rect x="38.333" y="26.667" fill="#143A99" width="56.667" height="6.666"></rect><rect x="38.333" y="40.001" fill="#143A99" width="56.667" height="6.666"></rect><rect x="5" y="53.334" fill="#143A99" width="90" height="6.666"></rect><rect x="5" y="66.666" fill="#143A99" width="90" height="6.666"></rect></svg>