<svg xmlns:dc="http://purl.org/dc/elements/1.1/" xmlns:cc="http://creativecommons.org/ns#" xmlns:rdf="http://www.w3.org/1999/02/22-rdf-syntax-ns#" xmlns:svg="http://www.w3.org/2000/svg" xmlns:sodipodi="http://sodipodi.sourceforge.net/DTD/sodipodi-0.dtd" xmlns:inkscape="http://www.inkscape.org/namespaces/inkscape" xmlns="http://www.w3.org/2000/svg" xmlns:xlink="http://www.w3.org/1999/xlink" version="1.1" x="0px" y="0px" viewBox="-5 -20 100 125" enable-background="new -5 -20 100 100" xml:space="preserve"><polygon fill="#E41E20" points="90,60 90,0 0,0 0,60 "/><path d="M38.581,10.356c-0.625-0.012-1.662,0.199-1.639,0.678  c-1.741-0.299-1.922,0.422-1.82,1.063c0.166-0.255,0.368-0.393,0.521-0.418c0.232-0.039,0.476,0.035,0.725,0.188  c0.248,0.152,0.521,0.398,0.643,0.551c-0.614,0.146-1.089,0.053-1.57-0.032c-0.237-0.042-0.57-0.175-0.768-0.313  c-0.198-0.139-0.26-0.268-0.571-0.586c-0.365-0.375-0.756-0.27-0.635,0.313c0.281,0.542,0.75,0.783,1.342,0.882  c0.285,0.047,0.709,0.146,1.189,0.147c0.479,0,1.021-0.07,1.313-0.009c-0.176,0.111-0.375,0.302-0.771,0.377  c-0.402,0.078-1.013-0.237-1.386-0.324c0.047,0.313,0.442,0.605,1.222,0.759c1.279,0.279,2.342,0.49,3.045,0.873  c0.703,0.381,1.146,0.858,1.463,1.231c0.63,0.746,0.663,1.316,0.703,1.443c0.129,1.189-0.285,1.859-1.057,2.064  c-0.387,0.104-1.07-0.092-1.322-0.387c-0.251-0.293-0.495-0.801-0.426-1.594c0.067-0.313,0.424-1.123,0.121-1.291  c-1.396-0.771-3.094-1.552-4.319-2.017c-0.335-0.127-0.612,0.327-0.719,0.506c-2.084-0.254-3.964-1.664-4.811-3.166  c-0.575-1.022-1.525,0.002-1.365,0.97c0.258,1.077,1.079,1.856,2.064,2.409c1.012,0.558,2.276,1.104,3.556,1.077  c0.689,0.13,0.684,1.021-0.145,1.188c-1.618,0.012-2.908-0.029-4.126-1.205c-0.924-0.844-1.444,0.162-1.177,0.731  c0.453,1.757,2.958,2.248,5.493,1.681c0.98-0.164,0.394,0.889,0.115,0.898c-1.059,0.76-2.955,1.503-4.625-0.008  c-0.764-0.584-1.279-0.094-0.997,0.752c0.741,2.201,3.575,1.738,5.521,0.654c0.501-0.279,0.956,0.371,0.346,0.863  c-2.42,1.69-3.629,1.711-4.721,1.061c-1.367-0.537-1.487,0.979-0.675,1.476c0.901,0.554,3.198,0.14,4.882-0.92  c0.722-0.537,0.754,0.302,0.297,0.636c-1.999,1.728-2.786,2.182-4.87,1.899c-1.033-0.081-1.018,1.192-0.205,1.69  c1.11,0.682,3.276-0.447,4.958-1.844c0.708-0.378,0.824,0.241,0.475,0.977c-1.027,1.297-1.992,2.061-2.921,2.414  c-0.93,0.354-1.823,0.299-2.455,0.082c-0.771-0.267-0.868,0.535-0.442,1.266c0.257,0.439,1.322,0.58,2.471,0.172  c1.149-0.406,2.384-1.363,3.23-2.482c0.737-0.646,0.645,0.222,0.309,0.832c-1.695,2.682-3.248,3.676-5.292,3.508  c-0.905-0.153-1.111,0.551-0.534,1.201c1.015,0.84,2.282,0.813,3.392-0.017c0.985-0.95,2.872-2.997,3.86-4.095  c0.697-0.557,0.921-0.008,0.716,1.121c-0.187,0.646-0.651,1.326-1.92,1.824c-0.867,0.494-0.217,1.176,0.434,1.188  c0.358,0.007,1.084-0.411,1.64-1.037c0.73-0.821,0.774-1.375,1.178-2.655c0.381-0.623,1.061-0.332,1.061,0.321  c-0.326,1.282-0.604,1.513-1.266,2.037c-0.63,0.593,0.438,0.789,0.8,0.547c1.043-0.702,1.424-1.612,1.771-2.438  c0.251-0.598,0.98-0.307,0.644,0.666c-0.81,2.33-2.137,3.246-4.46,3.718c-0.235,0.042-0.379,0.181-0.297,0.454  c0.312,0.322,0.625,0.617,0.937,0.939c-1.438,0.418-2.604,0.653-4.043,1.072c-0.705-0.463-1.274-0.854-1.979-1.316  c-0.187-0.437-0.273-1.101-1.314-0.631c-0.706-0.326-1.031-0.207-1.422,0.119c0.565,0.021,0.811,0.174,1.033,0.43  c0.289,0.764,0.957,0.836,1.639,0.619c0.444,0.375,0.681,0.661,1.125,1.036c-0.829-0.028-1.407-0.043-2.234-0.067  c-0.79-0.849-1.419-0.801-1.984-0.137c-0.431,0.065-0.613,0.075-0.908,0.6c0.464-0.19,0.755-0.248,0.957-0.041  c0.839,0.486,1.388,0.379,1.804,0c0.811,0.05,1.54,0.092,2.351,0.146c-0.298,0.253-0.707,0.388-1.004,0.644  c-1.217-0.348-1.852,0.119-2.065,1.113c-0.163,0.399-0.24,0.813-0.169,1.24c0.118-0.393,0.307-0.729,0.655-0.939  c1.084,0.274,1.492-0.168,1.551-0.815c0.523-0.427,1.311-0.521,1.833-0.952c0.61,0.195,0.904,0.316,1.519,0.51  c0.219,0.664,0.713,0.928,1.516,0.756c0.955,0.031,0.787,0.422,0.864,0.735c0.254-0.45,0.246-0.889-0.342-1.286  c-0.214-0.58-0.688-0.846-1.31-0.51c-0.585-0.166-0.739-0.404-1.322-0.57c1.476-0.471,2.521-0.576,3.994-1.045  c0.369,0.348,0.661,0.598,1.033,0.908c0.195,0.116,0.383,0.146,0.498,0c0.923-1.337,1.336-2.516,2.192-3.396  c0.328-0.363,0.742-0.855,1.201-0.977c0.23-0.061,0.512-0.023,0.691,0.174c0.179,0.195,0.321,0.557,0.262,1.096  c-0.086,0.774-0.272,1.02-0.49,1.482c-0.218,0.465-0.481,0.75-0.756,1.105c-0.545,0.711-1.266,1.123-1.69,1.402  c-0.853,0.555-1.214,0.313-1.873,0.276c-0.853,0.097-1.079,0.511-0.382,1.085c0.652,0.339,1.238,0.381,1.716,0.293  c0.409-0.076,0.889-0.604,1.229-0.889c0.384-0.443,1.021,0.082,0.586,0.6c-0.789,0.938-1.578,1.557-2.551,1.543  c-1.023,0.137-0.832,0.713-0.152,0.992c1.222,0.504,2.324-0.439,2.886-1.061c0.432-0.475,0.737-0.492,0.661,0.24  c-0.429,1.325-1.016,1.838-1.973,1.904c-0.776-0.072-0.785,0.527-0.217,0.932c1.293,0.896,2.229-0.629,2.668-1.551  c0.312-0.831,0.79-0.436,0.84,0.249c0.006,0.915-0.407,1.663-1.516,2.601c0.848,1.351,1.836,2.724,2.685,4.078  c0.85-1.354,1.837-2.729,2.685-4.078c-1.107-0.938-1.521-1.686-1.516-2.601c0.05-0.685,0.528-1.08,0.84-0.249  c0.438,0.922,1.374,2.446,2.668,1.551c0.567-0.404,0.561-1.004-0.217-0.932c-0.957-0.066-1.544-0.579-1.973-1.904  c-0.076-0.732,0.229-0.715,0.663-0.242c0.56,0.621,1.663,1.565,2.885,1.063c0.679-0.279,0.87-0.855-0.153-0.993  c-0.973,0.015-1.762-0.604-2.551-1.542c-0.435-0.518,0.202-1.043,0.586-0.6c0.342,0.283,0.82,0.813,1.229,0.889  c0.477,0.088,1.063,0.046,1.716-0.294c0.698-0.573,0.472-0.987-0.382-1.084c-0.659,0.035-1.021,0.278-1.872-0.276  c-0.427-0.279-1.146-0.691-1.691-1.402c-0.271-0.355-0.538-0.641-0.755-1.105c-0.218-0.464-0.404-0.708-0.49-1.482  c-0.061-0.539,0.081-0.899,0.262-1.096c0.18-0.197,0.461-0.232,0.69-0.174c0.459,0.12,0.873,0.611,1.201,0.977  c0.858,0.881,1.271,2.06,2.193,3.396c0.114,0.146,0.303,0.117,0.497,0c0.372-0.31,0.664-0.56,1.033-0.907  c1.475,0.469,2.521,0.574,3.993,1.045c-0.583,0.166-0.736,0.404-1.321,0.57c-0.622-0.336-1.096-0.07-1.31,0.51  c-0.589,0.397-0.596,0.836-0.342,1.286c0.077-0.313-0.093-0.706,0.862-0.735c0.804,0.172,1.298-0.092,1.516-0.756  c0.614-0.193,0.909-0.313,1.52-0.51c0.521,0.432,1.311,0.525,1.832,0.952c0.06,0.647,0.467,1.091,1.551,0.815  c0.349,0.211,0.537,0.547,0.655,0.939c0.07-0.429-0.006-0.841-0.169-1.24c-0.215-0.994-0.85-1.463-2.064-1.113  c-0.299-0.256-0.707-0.391-1.006-0.645c0.813-0.053,1.541-0.095,2.352-0.145c0.416,0.379,0.965,0.486,1.805,0  c0.201-0.207,0.492-0.149,0.956,0.041c-0.295-0.523-0.478-0.533-0.908-0.6c-0.564-0.664-1.194-0.712-1.984,0.137  c-0.826,0.024-1.404,0.039-2.233,0.067c0.444-0.375,0.681-0.661,1.125-1.036c0.684,0.217,1.351,0.143,1.641-0.619  c0.221-0.256,0.467-0.408,1.031-0.43c-0.392-0.326-0.717-0.445-1.423-0.12c-1.041-0.469-1.127,0.195-1.313,0.632  c-0.705,0.463-1.275,0.854-1.98,1.316c-1.438-0.42-2.604-0.654-4.042-1.073c0.313-0.321,0.624-0.616,0.937-0.938  c0.082-0.273-0.063-0.412-0.298-0.455c-2.322-0.471-3.65-1.387-4.46-3.717c-0.338-0.974,0.393-1.264,0.644-0.666  c0.349,0.826,0.729,1.735,1.771,2.438c0.36,0.242,1.431,0.045,0.8-0.547c-0.659-0.524-0.939-0.755-1.267-2.037  c0.001-0.653,0.682-0.944,1.063-0.321c0.401,1.28,0.445,1.834,1.177,2.655c0.556,0.626,1.282,1.044,1.64,1.037  c0.649-0.013,1.302-0.694,0.435-1.188c-1.27-0.498-1.734-1.179-1.921-1.824c-0.204-1.129,0.019-1.676,0.716-1.121  c0.989,1.098,2.875,3.144,3.86,4.095c1.108,0.831,2.378,0.856,3.392,0.017c0.578-0.65,0.372-1.354-0.534-1.201  c-2.044,0.168-3.595-0.825-5.292-3.508c-0.336-0.611-0.428-1.478,0.31-0.832c0.849,1.119,2.081,2.076,3.23,2.482  c1.149,0.408,2.214,0.268,2.471-0.172c0.428-0.729,0.33-1.531-0.44-1.266c-0.633,0.217-1.526,0.272-2.455-0.082  c-0.929-0.354-1.895-1.117-2.921-2.414c-0.351-0.734-0.233-1.354,0.474-0.978c1.682,1.396,3.849,2.524,4.958,1.845  c0.813-0.498,0.829-1.771-0.204-1.69c-2.084,0.282-2.871-0.173-4.87-1.899c-0.457-0.334-0.425-1.172,0.298-0.636  c1.685,1.06,3.979,1.474,4.882,0.92c0.813-0.498,0.69-2.013-0.676-1.476c-1.091,0.65-2.301,0.631-4.721-1.061  c-0.609-0.492-0.155-1.145,0.346-0.863c1.945,1.084,4.779,1.547,5.521-0.654c0.284-0.846-0.232-1.336-0.997-0.752  c-1.669,1.511-3.565,0.768-4.624,0.008c-0.277-0.01-0.865-1.063,0.116-0.898c2.535,0.567,5.04,0.076,5.492-1.681  c0.268-0.569-0.253-1.575-1.178-0.731c-1.219,1.176-2.509,1.217-4.126,1.207c-0.826-0.168-0.834-1.061-0.146-1.189  c1.279,0.027,2.545-0.52,3.557-1.077c0.985-0.553,1.809-1.332,2.064-2.409c0.16-0.968-0.789-1.992-1.365-0.97  c-0.847,1.502-2.726,2.912-4.81,3.166c-0.108-0.179-0.385-0.634-0.721-0.506c-1.227,0.465-2.923,1.245-4.318,2.017  c-0.304,0.168,0.054,0.979,0.121,1.29c0.068,0.793-0.176,1.302-0.427,1.595c-0.251,0.295-0.937,0.489-1.321,0.387  c-0.771-0.205-1.188-0.875-1.058-2.064c0.04-0.127,0.073-0.697,0.703-1.443c0.316-0.373,0.76-0.852,1.463-1.231  c0.702-0.383,1.767-0.595,3.045-0.873c0.779-0.151,1.175-0.444,1.223-0.759c-0.373,0.087-0.984,0.402-1.387,0.324  c-0.396-0.075-0.596-0.266-0.771-0.377c0.293-0.063,0.833,0.008,1.313,0.008c0.48,0,0.904-0.102,1.189-0.146  c0.592-0.099,1.061-0.34,1.342-0.882c0.121-0.582-0.269-0.688-0.635-0.313c-0.312,0.318-0.373,0.447-0.57,0.586  c-0.198,0.14-0.53,0.271-0.768,0.313c-0.481,0.085-0.957,0.179-1.571,0.032c0.122-0.152,0.396-0.398,0.644-0.551  s0.49-0.227,0.724-0.188c0.155,0.026,0.355,0.164,0.521,0.418c0.104-0.64-0.079-1.358-1.819-1.062  c0.022-0.479-1.015-0.689-1.641-0.678c-0.354,0.006-1.08,0.213-1.603,0.457c-0.827,0.25-1.649,0.435-2.611,0.502  c0.557,0.467,0.665,0.494,1.227,0.893c-0.85,0.309-1.507,0.947-1.802,1.365c0.741,0.037,0.986-0.025,1.238,0.08  c-1.033,0.301-1.5,0.476-2.046,1.021c0.193,0.035,0.48,0.087,0.603,0.133c0.128,0.047,0.075,0.113-0.012,0.205  c-0.235,0.148-1.143,1.215-1.41,1.463c-0.268-0.248-1.174-1.314-1.409-1.463c-0.088-0.092-0.141-0.158-0.014-0.205  c0.123-0.046,0.41-0.098,0.604-0.133c-0.545-0.546-1.014-0.721-2.045-1.021c0.251-0.105,0.496-0.043,1.235-0.08  c-0.293-0.418-0.951-1.057-1.799-1.365c0.562-0.398,0.669-0.426,1.226-0.893c-0.963-0.067-1.784-0.252-2.611-0.502  C39.661,10.569,38.937,10.362,38.581,10.356z M38.674,11.478c0.509,0,0.823,0.174,0.823,0.385c0,0.215-0.314,0.391-0.823,0.391  c-0.507,0-0.827-0.191-0.827-0.406C37.847,11.636,38.167,11.478,38.674,11.478z M51.322,11.478c0.507,0,0.827,0.158,0.827,0.369  c0,0.215-0.32,0.405-0.827,0.405c-0.509,0-0.824-0.176-0.824-0.392C50.498,11.651,50.813,11.478,51.322,11.478z"/><text x="-5" y="95" fill="#000000" font-size="5px" font-weight="bold" font-family="'Helvetica Neue', Helvetica, Arial-Unicode, Arial, Sans-serif">Created by Henrique Sales</text><text x="-5" y="100" fill="#000000" font-size="5px" font-weight="bold" font-family="'Helvetica Neue', Helvetica, Arial-Unicode, Arial, Sans-serif">from the Noun Project</text></svg>