<svg xmlns="http://www.w3.org/2000/svg" xmlns:xlink="http://www.w3.org/1999/xlink" version="1.1" x="0px" y="0px" viewBox="0 0 100 100" enable-background="new 0 0 100 100" xml:space="preserve"><g><rect x="5" y="20" fill="#008FC1" width="90" height="20.326"></rect><rect x="5" y="60.652" fill="#00A276" width="90" height="19.348"></rect><rect x="5" y="40.326" fill="#E53138" width="90" height="20.326"></rect></g><path fill-rule="evenodd" clip-rule="evenodd" fill="#FFFFFF" d="M57.267,45.481l0.93,2.693l2.63-1.25l-1.22,2.597l2.693,0.961  l-2.693,0.962l1.22,2.564l-2.598-1.25l-0.962,2.726l-0.931-2.726l-2.597,1.25l1.251-2.564l-2.693-0.962l2.693-0.961l-1.251-2.597  l2.63,1.25L57.267,45.481z M38.189,50.482c0,4.97,4.04,9.009,9.041,9.009c2.918,0,5.515-1.378,7.183-3.526  c-1.348,1.25-3.143,2.02-5.13,2.02c-4.168,0-7.536-3.365-7.536-7.502c0-4.135,3.368-7.502,7.536-7.502  c1.987,0,3.782,0.771,5.13,2.021c-1.668-2.181-4.265-3.559-7.183-3.559C42.229,41.441,38.189,45.481,38.189,50.482"></path></svg>