<svg xmlns="http://www.w3.org/2000/svg" xmlns:xlink="http://www.w3.org/1999/xlink" version="1.1" x="0px" y="0px" viewBox="0 0 100 100" enable-background="new 0 0 100 100" xml:space="preserve"><g><rect x="5" y="20" fill="#FFED00" width="90" height="60"></rect><polygon fill="#FFFFFF" points="5,40.56 95,58.759 95,43.451 5,25.34  "></polygon><polygon points="5,53.821 95,72.062 95,58.695 5,40.465  "></polygon></g><g><g><path fill-rule="evenodd" clip-rule="evenodd" fill="#E5352C" d="M47.51,35.607c0.2-0.177,1.558-0.879,2.707-0.879    c1.147,0,2.195,0.771,2.497,1.041c-0.193,0.186-0.957,0.663-2.352,0.663C48.967,36.433,47.795,35.932,47.51,35.607"></path><path fill="none" stroke="#000000" stroke-width="0.239" stroke-miterlimit="10" d="M47.51,35.607    c0.2-0.177,1.558-0.879,2.707-0.879c1.147,0,2.195,0.771,2.497,1.041c-0.193,0.186-0.957,0.663-2.352,0.663    C48.967,36.433,47.795,35.932,47.51,35.607z"></path><path fill-rule="evenodd" clip-rule="evenodd" fill="#E5352C" d="M47.51,35.6c0.146,0.14,1.071,0.832,2.774,0.832    c1.705,0,2.136-0.508,2.438-0.678c0.046,0.132,0.131,1.296,0.478,2.027c-0.231-0.054-0.748-0.354-1.033-0.601    c-0.186,0.154-0.586,0.57-0.755,0.748c-0.146-0.123-0.486-0.502-0.625-0.679c-0.1,0.085-0.494,0.485-0.655,0.725    c-0.093-0.085-0.501-0.578-0.609-0.71c-0.154,0.094-0.647,0.532-0.84,0.688c-0.177-0.201-0.532-0.664-0.679-0.748    c-0.123,0.068-0.663,0.362-0.895,0.539C47.178,37.451,47.486,36.194,47.51,35.6"></path><path fill="none" stroke="#000000" stroke-width="0.239" stroke-miterlimit="10" d="M47.51,35.6    c0.146,0.14,1.071,0.832,2.774,0.832c1.705,0,2.136-0.508,2.438-0.678c0.046,0.132,0.131,1.296,0.478,2.027    c-0.231-0.054-0.748-0.354-1.033-0.601c-0.186,0.154-0.586,0.57-0.755,0.748c-0.146-0.123-0.486-0.502-0.625-0.679    c-0.1,0.085-0.494,0.485-0.655,0.725c-0.093-0.085-0.501-0.578-0.609-0.71c-0.154,0.094-0.647,0.532-0.84,0.688    c-0.177-0.201-0.532-0.664-0.679-0.748c-0.123,0.068-0.663,0.362-0.895,0.539C47.178,37.451,47.486,36.194,47.51,35.6z"></path><path fill-rule="evenodd" clip-rule="evenodd" fill="#E5352C" d="M50.308,37.759l0.039,1.766c0.108-0.192,0.778-1.272,2.544-1.272    c1.588,0,3.03,1.103,3.492,1.411c0.463,0.308,2.321,1.496,4.264,0.732c-0.085,0.3-0.517,1.811-1.936,1.851    c-0.007,0.223-0.485,1.188-1.704,0.94C57,43.333,56.422,44.45,55.18,43.825c0.055,0.842-1.673,1.258-3.353-0.801    c0.022,0.154,0.277,1.156-0.979,0.701c-0.016,0.07-0.024,0.162,0.061,0.24c0.085,0.076,1.126,0.801-0.947,2.188    c-0.417-0.394-1.696-1.326-0.811-2.267c0.062-0.062,0.038-0.076,0.023-0.162c-0.539,0.162-1.126,0.301-1.01-0.732    c-1.227,1.381-2.93,2.105-3.33,0.825c-0.231,0.154-1.411,0.718-1.827-0.71c-0.193,0.047-1.488,0.093-1.704-0.932    c-0.332-0.039-1.434-0.009-1.865-1.851c0.33,0.085,2.166,0.848,4.518-0.856c0.478-0.292,1.703-1.24,3.269-1.24    c1.564,0,2.273,0.832,2.684,1.249c0.015-0.386,0.054-1.704,0.054-1.704L50.308,37.759z"></path><path fill="none" stroke="#000000" stroke-width="0.239" stroke-miterlimit="10" d="M50.308,37.759l0.039,1.766    c0.108-0.192,0.778-1.272,2.544-1.272c1.588,0,3.03,1.103,3.492,1.411c0.463,0.308,2.321,1.496,4.264,0.732    c-0.085,0.3-0.517,1.811-1.936,1.851c-0.007,0.223-0.485,1.188-1.704,0.94C57,43.333,56.422,44.45,55.18,43.825    c0.055,0.842-1.673,1.258-3.353-0.801c0.022,0.154,0.277,1.156-0.979,0.701c-0.016,0.07-0.024,0.162,0.061,0.24    c0.085,0.076,1.126,0.801-0.947,2.188c-0.417-0.394-1.696-1.326-0.811-2.267c0.062-0.062,0.038-0.076,0.023-0.162    c-0.539,0.162-1.126,0.301-1.01-0.732c-1.227,1.381-2.93,2.105-3.33,0.825c-0.231,0.154-1.411,0.718-1.827-0.71    c-0.193,0.047-1.488,0.093-1.704-0.932c-0.332-0.039-1.434-0.009-1.865-1.851c0.33,0.085,2.166,0.848,4.518-0.856    c0.478-0.292,1.703-1.24,3.269-1.24c1.564,0,2.273,0.832,2.684,1.249c0.015-0.386,0.054-1.704,0.054-1.704L50.308,37.759z"></path><path fill="none" stroke="#000000" stroke-width="0.239" stroke-miterlimit="10" d="M44.826,40.974    c-0.161,0-0.809,0.008-1.927,0.655s-1.596,0.548-1.596,0.548"></path><path fill="none" stroke="#000000" stroke-width="0.239" stroke-miterlimit="10" d="M45.906,41.838    c-0.355,0-0.756-0.009-1.551,0.416c-0.538,0.385-0.646,0.454-1.341,0.847"></path><path fill="none" stroke="#000000" stroke-width="0.239" stroke-miterlimit="10" d="M47.225,42.191    c-0.332,0.178-1.342,0.733-2.375,1.657"></path><path fill="none" stroke="#000000" stroke-width="0.239" stroke-miterlimit="10" d="M48.789,42.408    c-0.161,0.153-0.624,0.585-0.624,0.585"></path><path fill="none" stroke="#000000" stroke-width="0.239" stroke-miterlimit="10" d="M55.216,41.12c0.218,0,0.917-0.082,1.751,0.48    c0.834,0.563,1.743,0.647,1.743,0.647"></path><path fill="none" stroke="#000000" stroke-width="0.239" stroke-miterlimit="10" d="M54.073,41.788    c0.782,0,1.564,0.444,1.781,0.594c0.218,0.15,1.022,0.737,1.165,0.812"></path><path fill="none" stroke="#000000" stroke-width="0.239" stroke-miterlimit="10" d="M52.818,42.33c0.383,0,1.09,0.563,1.375,0.773    c0.285,0.211,0.79,0.608,0.992,0.714"></path><line fill="none" stroke="#000000" stroke-width="0.239" stroke-miterlimit="10" x1="51.322" y1="42.375" x2="51.826" y2="43.029"></line><path fill-rule="evenodd" clip-rule="evenodd" fill="#E5352C" d="M50.008,29.717c0-0.122,0.424-0.046,0.416,0.047    s-0.085,0.101-0.2,0.161c0.122,0.116,2.428,2.121,2.428,2.121l-1.295,0.146l1.079,1.912l-2.09-1.372v2.759h-0.292    C50.054,35.491,50.008,29.841,50.008,29.717"></path><path fill="none" stroke="#000000" stroke-width="0.239" stroke-miterlimit="10" d="M50.008,29.717    c0-0.122,0.424-0.046,0.416,0.047s-0.085,0.101-0.2,0.161c0.122,0.116,2.428,2.121,2.428,2.121l-1.295,0.146l1.079,1.912    l-2.09-1.372v2.759h-0.292C50.054,35.491,50.008,29.841,50.008,29.717z"></path><path fill-rule="evenodd" clip-rule="evenodd" fill="#E5352C" d="M48.406,45.358c0.158-0.037,0.594-0.226,1.271,0.534    c0.037-0.286,0.075-0.632,0.346-0.895c0.181,0.166,0.301,0.436,0.308,0.909c0.271-0.232,0.691-0.759,1.263-0.488    c-0.149,0.421-1.33,1.157-0.391,2.99c0.233,0.467,0.459,2.098-0.631,2.481c-0.053-0.302-0.278-0.685-0.557-0.926    c-0.218,0.151-0.525,0.422-0.631,0.806c-0.263-0.068-1.301-0.504-0.459-2.54C49.112,47.854,49.827,46.696,48.406,45.358"></path><path fill="none" stroke="#000000" stroke-width="0.239" stroke-miterlimit="10" d="M48.406,45.358    c0.158-0.037,0.594-0.226,1.271,0.534c0.037-0.286,0.075-0.632,0.346-0.895c0.181,0.166,0.301,0.436,0.308,0.909    c0.271-0.232,0.691-0.759,1.263-0.488c-0.149,0.421-1.33,1.157-0.391,2.99c0.233,0.467,0.459,2.098-0.631,2.481    c-0.053-0.302-0.278-0.685-0.557-0.926c-0.218,0.151-0.525,0.422-0.631,0.806c-0.263-0.068-1.301-0.504-0.459-2.54    C49.112,47.854,49.827,46.696,48.406,45.358z"></path><path fill-rule="evenodd" clip-rule="evenodd" fill="#E5352C" d="M51.556,50.589c-0.15,0.203-0.992,1.376-0.135,3.014    c0.135,0.392,0.69,2.361-0.519,3.007c0-0.36-0.083-0.804-0.579-1.473c-0.18-0.24-0.256-0.368-0.339-0.601    c-0.104,0.27-0.263,0.383-0.391,0.541s-0.653,0.555-0.653,1.449c-0.323-0.164-1.188-0.69-0.436-3.193    c0.112-0.24,0.998-1.805-0.113-2.767c0.211,0,0.594-0.044,1.06,0.603c0.181-0.52,0.263-0.85,0.511-0.993    c0.203,0.174,0.444,0.481,0.48,1.106C50.699,51.049,51.03,50.604,51.556,50.589"></path><path fill-rule="evenodd" clip-rule="evenodd" fill="#E5352C" d="M46.903,55.579c0.128,0.113,0.526,0.558,1.136,0.52    c0.157,0.188,0.766,0.872,1.337,0.759c0.021-0.112,0.015-0.263-0.067-0.323c-0.083-0.061-0.309-0.264-0.061-0.616    c0.249-0.353,0.518-0.64,0.684-0.88c0.121,0.182,0.526,0.692,0.602,0.82c0.075,0.127,0.218,0.579-0.045,0.796    c-0.075,0.075-0.067,0.203-0.067,0.308c0.135,0,0.826-0.029,1.24-0.766c0.15,0,0.826-0.104,1.284-0.512    c-0.104,0.338-0.834,2.143-3.021,2.143C47.737,57.827,47.099,56.159,46.903,55.579"></path><path fill-rule="evenodd" clip-rule="evenodd" fill="#E5352C" d="M41.319,42.375c-0.315,0.534-1.549,2.376-1.549,5.179    c0,4.689,4.006,10.484,10.214,10.484c1.398,0,10.004-1.309,10.004-10.529c0-3.06-1.061-4.758-1.285-5.074    c0.323,0.301,3.119,2.977,3.119,7.471c0,4.63-2.961,12.131-12.101,12.131c-8.861-0.113-11.521-7.959-11.521-12.213    C38.201,48.786,38.426,44.976,41.319,42.375"></path><path fill="none" stroke="#000000" stroke-width="0.239" stroke-miterlimit="10" d="M41.319,42.375    c-0.315,0.534-1.549,2.376-1.549,5.179c0,4.689,4.006,10.484,10.214,10.484c1.398,0,10.004-1.309,10.004-10.529    c0-3.06-1.061-4.758-1.285-5.074c0.323,0.301,3.119,2.977,3.119,7.471c0,4.63-2.961,12.131-12.101,12.131    c-8.861-0.113-11.521-7.959-11.521-12.213C38.201,48.786,38.426,44.976,41.319,42.375z"></path><path fill-rule="evenodd" clip-rule="evenodd" fill="#E5352C" d="M57.688,65.321c-0.278-0.012-1.548-0.121-0.819-1.564    c-0.255,0.256-2.533,2.09-7.125,2.09s-6.388-1.76-6.621-1.954c0.12,0.518,0.105,1.419-1.082,1.419    c-1.474,0-2.165-2.021-4.615-2.021c-1.104,0-1.721,0.542-1.721,0.542c-0.03-0.353-0.271-1.18,1.24-1.577    c-0.392-0.505-0.684-1.812,1.104-1.812c1.016,0,1.309,0.323,1.309,0.323c-0.165-0.165-0.677-0.819-0.677-1.458    S39.261,58,39.981,58c0.722,0,1.247,0.661,1.338,0.767c0.09,0.105,3.217,3.758,8.553,3.758c4.907,0,7.733-2.713,8.665-3.592    c0.211-0.188,0.557-0.594,1.188-0.594c0.632,0,1.248,0.511,1.248,1.367c0,0.857-0.466,1.165-0.466,1.165    c0.21-0.136,0.797-0.271,1.098-0.271c0.3,0,1.555,0.12,1.555,1.037c0,0.721-0.436,0.991-0.436,0.991    c0.196,0,1.525-0.097,1.247,1.542c-0.27-0.136-0.916-0.587-2.081-0.587s-2.007,0.601-2.112,0.684S58.815,65.364,57.688,65.321"></path><path fill="none" stroke="#000000" stroke-width="0.239" stroke-miterlimit="10" d="M57.688,65.321    c-0.278-0.012-1.548-0.121-0.819-1.564c-0.255,0.256-2.533,2.09-7.125,2.09s-6.388-1.76-6.621-1.954    c0.12,0.518,0.105,1.419-1.082,1.419c-1.474,0-2.165-2.021-4.615-2.021c-1.104,0-1.721,0.542-1.721,0.542    c-0.03-0.353-0.271-1.18,1.24-1.577c-0.392-0.505-0.684-1.812,1.104-1.812c1.016,0,1.309,0.323,1.309,0.323    c-0.165-0.165-0.677-0.819-0.677-1.458S39.261,58,39.981,58c0.722,0,1.247,0.661,1.338,0.767c0.09,0.105,3.217,3.758,8.553,3.758    c4.907,0,7.733-2.713,8.665-3.592c0.211-0.188,0.557-0.594,1.188-0.594c0.632,0,1.248,0.511,1.248,1.367    c0,0.857-0.466,1.165-0.466,1.165c0.21-0.136,0.797-0.271,1.098-0.271c0.3,0,1.555,0.12,1.555,1.037    c0,0.721-0.436,0.991-0.436,0.991c0.196,0,1.525-0.097,1.247,1.542c-0.27-0.136-0.916-0.587-2.081-0.587s-2.007,0.601-2.112,0.684    S58.815,65.364,57.688,65.321z"></path><path fill-rule="evenodd" clip-rule="evenodd" fill="#E5352C" d="M34.09,58.706c0.759,0.045,1.841-0.293,2.006-0.314    c0.165-0.023,0.458-0.039,0.233,0.397c-0.226,0.437-0.85,0.616-2.149,0.616c-1.301,0-2.143-0.068-2.759-0.736    c-0.285-0.377,0.128-0.608,0.496-0.412C32.037,58.308,33.015,58.706,34.09,58.706"></path><path fill-rule="evenodd" clip-rule="evenodd" fill="#E5352C" d="M34.27,57.865c0.248,0,0.835-0.046,1.338-0.226    c0.504-0.182,0.722,0.173,0.368,0.383c-0.354,0.211-0.871,0.375-1.826,0.375c-0.954,0-1.812-0.254-2.262-0.525    c-0.166-0.083-0.091-0.465,0.18-0.398C32.429,57.579,33.21,57.865,34.27,57.865"></path><path fill-rule="evenodd" clip-rule="evenodd" fill="#E5352C" d="M32.526,56.857c0.252,0.099,0.88,0.347,1.48,0.347    c0.602,0,1.39-0.227,1.601-0.301c0.21-0.076,0.36,0.24,0.173,0.346s-0.698,0.33-1.556,0.33s-1.639-0.219-2.014-0.398    C31.835,57.001,32.173,56.737,32.526,56.857"></path><path fill-rule="evenodd" clip-rule="evenodd" fill="#E5352C" d="M30.422,42.804c0.077,0.104,0.12,0.112,0.188-0.029    c0.068-0.144,0.302-0.415,0.564,0.187c0.09-0.075,0.353-0.285,0.548-0.022c0.195,0.264,0.203,0.443,0.188,0.623    c0.151-0.164,0.617-0.697,0.723,0.242c0,0.255-0.136,0.773-0.256,0.916c0.053,0.098,0.195,0.315,0.195,0.669    s-0.067,0.549,0.406,0.85c0.541,0.518,2.713,0.955,2.713,3.119c0,1.276-0.248,0.871-0.248,3.097c0,2.225,0.24,3.758,0.271,4.027    c-0.158,0.137-0.707,0.451-1.616,0.451s-1.684-0.323-1.849-0.525c0.293-1.315,0.496-5.479,0.519-5.75    c-0.016-0.227-0.067-0.624-0.736-1.172c-0.579-0.31-2.21-1.939-2.21-5.39C29.82,43.675,30.001,42.225,30.422,42.804"></path><path fill="none" stroke="#000000" stroke-width="0.239" stroke-miterlimit="10" d="M30.422,42.804    c0.077,0.104,0.12,0.112,0.188-0.029c0.068-0.144,0.302-0.415,0.564,0.187c0.09-0.075,0.353-0.285,0.548-0.022    c0.195,0.264,0.203,0.443,0.188,0.623c0.151-0.164,0.617-0.697,0.723,0.242c0,0.255-0.136,0.773-0.256,0.916    c0.053,0.098,0.195,0.315,0.195,0.669s-0.067,0.549,0.406,0.85c0.541,0.518,2.713,0.955,2.713,3.119    c0,1.276-0.248,0.871-0.248,3.097c0,2.225,0.24,3.758,0.271,4.027c-0.158,0.137-0.707,0.451-1.616,0.451s-1.684-0.323-1.849-0.525    c0.293-1.315,0.496-5.479,0.519-5.75c-0.016-0.227-0.067-0.624-0.736-1.172c-0.579-0.31-2.21-1.939-2.21-5.39    C29.82,43.675,30.001,42.225,30.422,42.804z"></path><path fill-rule="evenodd" clip-rule="evenodd" d="M30.534,43.217c-0.032-0.124,0.061-0.24,0.174,0.008    c0.112,0.248,0.164,0.804-0.061,1.21c0.135,0.128,0.563,0.789,0.563,2.18c0.271,0.202,1.007,0.722,1.232,1.375    c0.128,0.053,0.233,0.091,0.286,0.128c-0.129-0.218-0.241-0.429-0.376-0.526c-0.136-0.098-0.248-0.308-0.308-0.45    c-0.061-0.144-0.331-0.55-0.481-0.723c-0.15-0.172-0.136-0.368-0.128-0.533s0.075-1.157-0.421-1.436    c0.061-0.158,0.203-0.593,0.105-1.42c-0.031-0.173,0.067-0.129,0.075,0.059c0.053,0.106,0.3,0.362,0.082,1.264    c0.067,0.098,0.392,0.429,0.392,1.21c0.157,0.008,0.368,0,0.368,0v-0.278c0-0.173-0.174-0.532-0.489-0.751    c0.144-0.21,0.271-0.429,0.278-0.669s0.143-0.007,0.15,0.112c0.008,0.12-0.038,0.398-0.143,0.504    c0.082,0.075,0.488,0.586,0.48,1.15c0.105,0.112,0.496,0.503,0.64,1.074c0.21,0,0.766,0.016,1.201,0.857    c0.219,0,0.55-0.016,0.948,0.525c0.157,0.226,0.021,0.241-0.091,0.135c-0.112-0.104-0.315-0.42-0.909-0.413    c-0.166-0.194-0.594-1-1.277-0.917c-0.098-0.188-0.264-0.743-0.646-1.007c0,0.165,0.007,0.533-0.203,0.661    c0.12,0.203,0.255,0.481,0.308,0.608c0.053,0.129,0.233,0.339,0.406,0.467c0.173,0.127,0.218,0.301,0.256,0.451    c0.037,0.149,0.338,0.421,0.722,0.571c-0.233,0.06-0.579,0.015-0.662,0.074c-0.082,0.061-0.082-0.021-0.09-0.09    c-0.008-0.067-0.143-0.346-0.503-0.384c-0.166-0.014-0.188-0.111-0.233-0.255c-0.046-0.143-0.459-0.714-1.157-1.217    c-0.008-0.174-0.008-1.797-0.632-2.293C30.534,44.299,30.692,43.817,30.534,43.217"></path><path fill-rule="evenodd" clip-rule="evenodd" fill="#E5352C" d="M31.737,46.02c-0.005-0.092,0.112-0.271,0.18-0.082    c0.061,0.173-0.015,0.301-0.067,0.36C31.798,46.358,31.753,46.336,31.737,46.02"></path><path fill-rule="evenodd" clip-rule="evenodd" d="M32.166,45.374c0.029,0.18,0.045,0.256,0.045,0.315    c0.06,0.053,0.218,0.188,0.308,0.375c-0.136-0.149-0.331-0.33-0.421-0.375C32.098,45.637,32.173,45.591,32.166,45.374"></path><path fill-rule="evenodd" clip-rule="evenodd" d="M31.617,46.328c-0.065-0.047-0.15-0.616,0.082-0.661    c0.233-0.045,0.256-0.045,0.338,0.188c0.083,0.233,0.038,0.632-0.226,0.639c-0.074,0-0.082-0.067,0-0.075    c0.083-0.007,0.181-0.188,0.181-0.383c0-0.195-0.142-0.339-0.188-0.339c-0.045,0-0.226,0.105-0.12,0.579    C31.715,46.336,31.669,46.366,31.617,46.328"></path><path fill-rule="evenodd" clip-rule="evenodd" fill="#E5352C" d="M65.881,58.895c-0.766,0.045-1.854-0.294-2.021-0.316    c-0.167-0.022-0.463-0.037-0.235,0.399c0.228,0.436,0.855,0.615,2.164,0.615c1.311,0,2.158-0.067,2.779-0.736    c0.287-0.376-0.129-0.609-0.5-0.414C67.947,58.495,66.963,58.895,65.881,58.895"></path><path fill-rule="evenodd" clip-rule="evenodd" fill="#E5352C" d="M65.699,58.053c-0.25,0-0.84-0.045-1.348-0.226    c-0.507-0.181-0.727,0.173-0.37,0.383c0.355,0.211,0.878,0.376,1.839,0.376s1.824-0.255,2.278-0.526    c0.167-0.082,0.091-0.465-0.181-0.398C67.554,57.767,66.766,58.053,65.699,58.053"></path><path fill-rule="evenodd" clip-rule="evenodd" d="M33.082,48.508c0.031-0.063,0.105-0.046,0.158,0.015    S33.045,48.583,33.082,48.508"></path><path fill-rule="evenodd" clip-rule="evenodd" fill="#E5352C" d="M67.455,57.046c-0.255,0.098-0.886,0.345-1.491,0.345    c-0.604,0-1.4-0.225-1.612-0.3c-0.211-0.076-0.363,0.24-0.174,0.346s0.704,0.33,1.567,0.33c0.862,0,1.649-0.218,2.027-0.398    C68.152,57.188,67.812,56.926,67.455,57.046"></path><path fill-rule="evenodd" clip-rule="evenodd" fill="#E5352C" d="M69.574,42.991c-0.076,0.104-0.121,0.112-0.188-0.03    c-0.068-0.143-0.303-0.413-0.568,0.188c-0.091-0.074-0.356-0.284-0.553-0.021c-0.195,0.264-0.204,0.442-0.189,0.624    c-0.15-0.166-0.62-0.699-0.726,0.24c0,0.256,0.136,0.773,0.257,0.917c-0.053,0.098-0.196,0.314-0.196,0.669    c0,0.353,0.067,0.548-0.409,0.849c-0.545,0.519-2.732,0.955-2.732,3.119c0,1.278,0.25,0.872,0.25,3.097s-0.242,3.758-0.272,4.028    c0.159,0.135,0.711,0.451,1.627,0.451s1.695-0.323,1.862-0.526c-0.295-1.316-0.5-5.479-0.522-5.75    c0.016-0.226,0.068-0.624,0.741-1.172c0.584-0.309,2.226-1.939,2.226-5.389C70.18,43.863,69.999,42.412,69.574,42.991"></path><path fill="none" stroke="#000000" stroke-width="0.239" stroke-miterlimit="10" d="M69.574,42.991    c-0.076,0.104-0.121,0.112-0.188-0.03c-0.068-0.143-0.303-0.413-0.568,0.188c-0.091-0.074-0.356-0.284-0.553-0.021    c-0.195,0.264-0.204,0.442-0.189,0.624c-0.15-0.166-0.62-0.699-0.726,0.24c0,0.256,0.136,0.773,0.257,0.917    c-0.053,0.098-0.196,0.314-0.196,0.669c0,0.353,0.067,0.548-0.409,0.849c-0.545,0.519-2.732,0.955-2.732,3.119    c0,1.278,0.25,0.872,0.25,3.097s-0.242,3.758-0.272,4.028c0.159,0.135,0.711,0.451,1.627,0.451s1.695-0.323,1.862-0.526    c-0.295-1.316-0.5-5.479-0.522-5.75c0.016-0.226,0.068-0.624,0.741-1.172c0.584-0.309,2.226-1.939,2.226-5.389    C70.18,43.863,69.999,42.412,69.574,42.991z"></path><path fill-rule="evenodd" clip-rule="evenodd" d="M69.461,43.404c0.032-0.123-0.061-0.24-0.174,0.008    c-0.114,0.248-0.167,0.805,0.061,1.21c-0.137,0.129-0.568,0.789-0.568,2.18c-0.272,0.202-1.014,0.722-1.241,1.375    c-0.129,0.054-0.235,0.091-0.287,0.128c0.129-0.218,0.242-0.429,0.378-0.526c0.137-0.098,0.25-0.308,0.311-0.45    s0.333-0.549,0.484-0.722s0.137-0.368,0.129-0.533c-0.008-0.166-0.076-1.158,0.424-1.436c-0.061-0.158-0.204-0.595-0.105-1.421    c0.03-0.174-0.068-0.128-0.076,0.061c-0.053,0.104-0.304,0.36-0.084,1.263c-0.067,0.098-0.393,0.428-0.393,1.209    c-0.159,0.008-0.371,0-0.371,0v-0.277c0-0.173,0.174-0.534,0.492-0.752c-0.145-0.211-0.272-0.429-0.28-0.668    c-0.007-0.241-0.144-0.009-0.151,0.112c-0.008,0.12,0.037,0.397,0.145,0.503c-0.084,0.076-0.493,0.587-0.485,1.15    c-0.106,0.113-0.5,0.503-0.644,1.074c-0.211,0-0.771,0.015-1.211,0.857c-0.22,0-0.552-0.016-0.953,0.525    c-0.16,0.226-0.023,0.24,0.091,0.136c0.113-0.105,0.317-0.422,0.915-0.413c0.168-0.196,0.599-1,1.287-0.917    c0.099-0.188,0.265-0.744,0.651-1.007c0,0.165-0.008,0.533,0.204,0.661c-0.121,0.203-0.257,0.48-0.311,0.608    c-0.053,0.128-0.234,0.338-0.409,0.466c-0.174,0.128-0.219,0.301-0.257,0.451s-0.341,0.421-0.727,0.571    c0.234,0.06,0.582,0.015,0.666,0.075c0.083,0.061,0.083-0.022,0.091-0.091c0.008-0.067,0.144-0.346,0.507-0.383    c0.167-0.016,0.189-0.113,0.235-0.256c0.045-0.143,0.461-0.714,1.165-1.217c0.008-0.174,0.008-1.797,0.636-2.293    C69.461,44.487,69.302,44.006,69.461,43.404"></path><path fill-rule="evenodd" clip-rule="evenodd" fill="#E5352C" d="M68.25,46.209c0.005-0.094-0.113-0.271-0.182-0.084    c-0.061,0.173,0.015,0.3,0.068,0.36C68.189,46.546,68.234,46.523,68.25,46.209"></path><path fill-rule="evenodd" clip-rule="evenodd" d="M67.818,45.562c-0.03,0.18-0.045,0.256-0.045,0.316    c-0.062,0.052-0.22,0.187-0.311,0.375c0.136-0.149,0.333-0.331,0.424-0.375C67.887,45.824,67.812,45.779,67.818,45.562"></path><path fill-rule="evenodd" clip-rule="evenodd" d="M68.371,46.517c0.065-0.047,0.152-0.617-0.083-0.662    c-0.234-0.045-0.258-0.045-0.341,0.188c-0.083,0.232-0.038,0.632,0.228,0.638c0.075,0,0.083-0.066,0-0.074    c-0.084-0.008-0.183-0.188-0.183-0.384s0.144-0.338,0.189-0.338s0.228,0.105,0.121,0.579    C68.272,46.523,68.318,46.554,68.371,46.517"></path><path fill-rule="evenodd" clip-rule="evenodd" fill="#FFED00" d="M40.522,53.364c-0.308,0.127-0.849,0.224-0.849,1.035    c0,0.812,0.473,1.143,0.714,1.278c0.24,0.135,0.226-0.233,0.195-0.368c-0.437-0.76,0.33-0.715,0.602-0.609    c0.27,0.105,0.962,0.444,0.962,0.895c0,0.451-0.406,0.451-0.512,0.481c-0.029-0.083-0.098-0.203-0.143-0.256    c0.083-0.067,0.609-0.286,0.091-0.661c-0.52-0.376-0.79-0.232-0.677,0.083c0.112,0.315,0.082,0.676,0.066,0.744    c-0.014,0.067-0.292,0.045-0.458-0.016c-0.165-0.06-1.263-0.368-1.263-1.585C39.252,53.167,40.162,53.28,40.522,53.364"></path><path fill="none" stroke="#000000" stroke-width="0.239" stroke-miterlimit="10" d="M40.522,53.364    c-0.308,0.127-0.849,0.224-0.849,1.035c0,0.812,0.473,1.143,0.714,1.278c0.24,0.135,0.226-0.233,0.195-0.368    c-0.437-0.76,0.33-0.715,0.602-0.609c0.27,0.105,0.962,0.444,0.962,0.895c0,0.451-0.406,0.451-0.512,0.481    c-0.029-0.083-0.098-0.203-0.143-0.256c0.083-0.067,0.609-0.286,0.091-0.661c-0.52-0.376-0.79-0.232-0.677,0.083    c0.112,0.315,0.082,0.676,0.066,0.744c-0.014,0.067-0.292,0.045-0.458-0.016c-0.165-0.06-1.263-0.368-1.263-1.585    C39.252,53.167,40.162,53.28,40.522,53.364z"></path><path fill-rule="evenodd" clip-rule="evenodd" fill="#FFED00" d="M42.853,55.986c0,0-0.021,0.276-0.939,1.173    c-0.083,0.098-0.045,0.291,0.195,0.18c0.24-0.113,0.789-0.504,1.03-0.263c0.149,0.149-0.03,0.556-0.632,0.601    c-0.323,0.022-0.338,0.022-0.436,0.112c0.104-0.075,0.255-0.142,0.706-0.022c0.248,0.061,0.526-0.007,0.669-0.143    c0.143-0.135,0.526-0.668,0.586-0.706c0.061-0.038,0.046-0.188,0.046-0.226c0.112,0,0.345-0.022,0.345-0.022    s0.016,0.195-0.037,0.271s-0.842,0.984-0.97,1.066c-0.128,0.084-0.541,0.068-0.691,0c-0.15-0.066-0.571-0.142-0.752,0.203    c-0.12,0.211-0.353,0.393-0.323-0.097c0.038-0.271,0.144-0.392,0.264-0.475c-0.045-0.06-0.211-0.097-0.324-0.128    c-0.111-0.029-0.353-0.09-0.111-0.488c-0.203-0.007-0.76,0.008-0.797-0.705c0.173-0.068,0.323-0.092,0.397-0.084    c0.031,0.129,0.084,0.564,0.429,0.564c0.346,0,0.759-0.24,0.85-0.775C42.604,56.009,42.853,55.986,42.853,55.986"></path><path fill="none" stroke="#000000" stroke-width="0.239" stroke-miterlimit="10" d="M42.853,55.986c0,0-0.021,0.276-0.939,1.173    c-0.083,0.098-0.045,0.291,0.195,0.18c0.24-0.113,0.789-0.504,1.03-0.263c0.149,0.149-0.03,0.556-0.632,0.601    c-0.323,0.022-0.338,0.022-0.436,0.112c0.104-0.075,0.255-0.142,0.706-0.022c0.248,0.061,0.526-0.007,0.669-0.143    c0.143-0.135,0.526-0.668,0.586-0.706c0.061-0.038,0.046-0.188,0.046-0.226c0.112,0,0.345-0.022,0.345-0.022    s0.016,0.195-0.037,0.271s-0.842,0.984-0.97,1.066c-0.128,0.084-0.541,0.068-0.691,0c-0.15-0.066-0.571-0.142-0.752,0.203    c-0.12,0.211-0.353,0.393-0.323-0.097c0.038-0.271,0.144-0.392,0.264-0.475c-0.045-0.06-0.211-0.097-0.324-0.128    c-0.111-0.029-0.353-0.09-0.111-0.488c-0.203-0.007-0.76,0.008-0.797-0.705c0.173-0.068,0.323-0.092,0.397-0.084    c0.031,0.129,0.084,0.564,0.429,0.564c0.346,0,0.759-0.24,0.85-0.775C42.604,56.009,42.853,55.986,42.853,55.986z"></path><path fill-rule="evenodd" clip-rule="evenodd" d="M66.896,48.696c-0.032-0.064-0.106-0.046-0.16,0.014    C66.683,48.771,66.933,48.771,66.896,48.696"></path><path fill-rule="evenodd" clip-rule="evenodd" fill="#E5352C" d="M42.401,57.468c0.061-0.1,0.285-0.242,0.398-0.205    S42.755,57.48,42.401,57.468"></path><path fill="none" stroke="#000000" stroke-width="0.239" stroke-miterlimit="10" d="M42.401,57.468    c0.061-0.1,0.285-0.242,0.398-0.205S42.755,57.48,42.401,57.468z"></path><path fill-rule="evenodd" clip-rule="evenodd" fill="#FFED00" d="M44.416,56.926c0.165,0.022,0.383,0.015,0.511,0.022    c-0.022,0.105-0.271,0.442-0.421,0.585c-0.15,0.144-0.406,0.399-0.488,0.61c-0.158,0.037-0.316,0.195-0.316,0.329    c0,0.136,0.075,0.271,0.241,0.271c0.165,0,0.308-0.061,0.278-0.353c0.135-0.053,0.397-0.145,0.397-0.145    c0.016,0.152,0.075,0.73-0.729,0.73c-0.593,0.008-0.616-0.406-0.616-0.406c0.023-0.164,0.053-0.285,0.233-0.422    c0.18-0.134,0.849-0.834,0.894-0.961C44.431,57.054,44.431,56.978,44.416,56.926"></path><path fill="none" stroke="#000000" stroke-width="0.239" stroke-miterlimit="10" d="M44.416,56.926    c0.165,0.022,0.383,0.015,0.511,0.022c-0.022,0.105-0.271,0.442-0.421,0.585c-0.15,0.144-0.406,0.399-0.488,0.61    c-0.158,0.037-0.316,0.195-0.316,0.329c0,0.136,0.075,0.271,0.241,0.271c0.165,0,0.308-0.061,0.278-0.353    c0.135-0.053,0.397-0.145,0.397-0.145c0.016,0.152,0.075,0.73-0.729,0.73c-0.593,0.008-0.616-0.406-0.616-0.406    c0.023-0.164,0.053-0.285,0.233-0.422c0.18-0.134,0.849-0.834,0.894-0.961C44.431,57.054,44.431,56.978,44.416,56.926z"></path><path fill-rule="evenodd" clip-rule="evenodd" fill="#FFED00" d="M45.761,57.918c-0.008-0.233,0.264-0.188,0.256-0.046    S45.769,58.158,45.761,57.918"></path><path fill="none" stroke="#000000" stroke-width="0.239" stroke-miterlimit="10" d="M45.761,57.918    c-0.008-0.233,0.264-0.188,0.256-0.046S45.769,58.158,45.761,57.918z"></path><path fill-rule="evenodd" clip-rule="evenodd" fill="#FFED00" d="M47.632,58.684c-0.008-0.233,0.264-0.188,0.256-0.045    C47.881,58.781,47.64,58.925,47.632,58.684"></path><path fill="none" stroke="#000000" stroke-width="0.239" stroke-miterlimit="10" d="M47.632,58.684    c-0.008-0.233,0.264-0.188,0.256-0.045C47.881,58.781,47.64,58.925,47.632,58.684z"></path><path fill-rule="evenodd" clip-rule="evenodd" fill="#FFED00" d="M45.1,58.294c0.101-0.039,0.09,0.066,0.022,0.135    c-0.067,0.066-0.338,0.413-0.338,0.541s0.112,0.42,0.608,0.398s0.459-0.398,0.459-0.519s0.037-0.497,0.353-0.534    c0.016,0.211,0.15,1.405-0.842,1.413C44.371,59.736,44.131,58.653,45.1,58.294"></path><path fill="none" stroke="#000000" stroke-width="0.239" stroke-miterlimit="10" d="M45.1,58.294    c0.101-0.039,0.09,0.066,0.022,0.135c-0.067,0.066-0.338,0.413-0.338,0.541s0.112,0.42,0.608,0.398s0.459-0.398,0.459-0.519    s0.037-0.497,0.353-0.534c0.016,0.211,0.15,1.405-0.842,1.413C44.371,59.736,44.131,58.653,45.1,58.294z"></path><path fill-rule="evenodd" clip-rule="evenodd" fill="#FFED00" d="M44.123,59.826c0.21,0.136,0.767,0.405,1.36,0.405    c0.593,0,0.804-0.142,1.06-0.436c-0.233-0.045-0.414-0.067-0.414-0.338c0-0.271,0.406-0.691,0.752-0.691s0.346,0.533,0.33,0.684    c0.083,0.061,0.413,0.075,0.715-0.029c0.301-0.105,0.232,0.248,0.172,0.3c-0.059,0.053-0.029,0.294,0.331,0.286    c0.361-0.008,0.534-0.075,0.639-0.09c0.105-0.016,0.226,0.015,0.211,0.158c-0.015,0.143,0.264,0.051,0.354-0.008    c0.09-0.061,0.391-0.249,0.488,0.022c0.022,0.104,0.15,0.067,0.203,0.015s0.256-0.195,0.443,0.037    c0.097,0.105,0.458,0.105,0.707-0.016c0.247-0.119,0.314-0.164,0.525-0.322c-0.165-0.053-0.646-0.285-0.894-0.113    c0.021-0.225,0.202-0.457,0.412-0.457c0.211,0,0.699,0.27,1.398,0.277c-0.022,0.127-0.075,0.271-0.549,0.33    c-0.03,0.083-0.053,0.533,0.149,0.482c0.707-0.347,0.91-0.286,1.136-0.182c0.226,0.105,0.699,0.143,0.654-0.504    c-0.046-0.646-0.438-1.412-0.654-1.63c0.112-0.143,0.277-0.347,0.277-0.421c0.068,0.157,0.669,1.555,0.647,2.059    c-0.023,0.504-0.113,0.902-0.834,0.865c-0.023,0.263-0.136,0.691-0.52,0.691c-0.383,0-0.413-0.323-0.413-0.617    c-0.149,0.083-0.346,0.136-0.428,0.136c-0.083,0-0.316-0.008-0.226-0.669c-0.278,0.217-0.752,0.571-1.18,0.571    c-0.43,0-0.504-0.181-0.571-0.255c-0.144,0.059-0.384,0.172-0.496,0.164c-0.113-0.008-0.233-0.021-0.286-0.203    c-0.098,0.098-0.271,0.219-0.459,0.211c-0.188-0.008-0.232-0.098-0.27-0.338c-0.196,0.045-1.616,0.232-1.181-0.376    c-0.136,0-0.729,0.022-0.729,0.022c-0.105,0.174-0.685,0.827-1.722,0.827S44.167,60.044,44.123,59.826"></path><path fill="none" stroke="#000000" stroke-width="0.239" stroke-miterlimit="10" d="M44.123,59.826    c0.21,0.136,0.767,0.405,1.36,0.405c0.593,0,0.804-0.142,1.06-0.436c-0.233-0.045-0.414-0.067-0.414-0.338    c0-0.271,0.406-0.691,0.752-0.691s0.346,0.533,0.33,0.684c0.083,0.061,0.413,0.075,0.715-0.029c0.301-0.105,0.232,0.248,0.172,0.3    c-0.059,0.053-0.029,0.294,0.331,0.286c0.361-0.008,0.534-0.075,0.639-0.09c0.105-0.016,0.226,0.015,0.211,0.158    c-0.015,0.143,0.264,0.051,0.354-0.008c0.09-0.061,0.391-0.249,0.488,0.022c0.022,0.104,0.15,0.067,0.203,0.015    s0.256-0.195,0.443,0.037c0.097,0.105,0.458,0.105,0.707-0.016c0.247-0.119,0.314-0.164,0.525-0.322    c-0.165-0.053-0.646-0.285-0.894-0.113c0.021-0.225,0.202-0.457,0.412-0.457c0.211,0,0.699,0.27,1.398,0.277    c-0.022,0.127-0.075,0.271-0.549,0.33c-0.03,0.083-0.053,0.533,0.149,0.482c0.707-0.347,0.91-0.286,1.136-0.182    c0.226,0.105,0.699,0.143,0.654-0.504c-0.046-0.646-0.438-1.412-0.654-1.63c0.112-0.143,0.277-0.347,0.277-0.421    c0.068,0.157,0.669,1.555,0.647,2.059c-0.023,0.504-0.113,0.902-0.834,0.865c-0.023,0.263-0.136,0.691-0.52,0.691    c-0.383,0-0.413-0.323-0.413-0.617c-0.149,0.083-0.346,0.136-0.428,0.136c-0.083,0-0.316-0.008-0.226-0.669    c-0.278,0.217-0.752,0.571-1.18,0.571c-0.43,0-0.504-0.181-0.571-0.255c-0.144,0.059-0.384,0.172-0.496,0.164    c-0.113-0.008-0.233-0.021-0.286-0.203c-0.098,0.098-0.271,0.219-0.459,0.211c-0.188-0.008-0.232-0.098-0.27-0.338    c-0.196,0.045-1.616,0.232-1.181-0.376c-0.136,0-0.729,0.022-0.729,0.022c-0.105,0.174-0.685,0.827-1.722,0.827    S44.167,60.044,44.123,59.826z"></path><path fill-rule="evenodd" clip-rule="evenodd" fill="#E5352C" d="M53.044,60.668c0.037-0.399,0.391-0.144,0.383,0.015    C53.42,60.841,53.081,61.104,53.044,60.668"></path><path fill="none" stroke="#000000" stroke-width="0.239" stroke-miterlimit="10" d="M53.044,60.668    c0.037-0.399,0.391-0.144,0.383,0.015C53.42,60.841,53.081,61.104,53.044,60.668z"></path><path fill-rule="evenodd" clip-rule="evenodd" fill="#FFED00" d="M55.104,57.812c0.015,0.339,0.066,0.818,0.48,0.818    c0.413,0,0.533-0.397,0.533-0.532c0-0.137-0.203-0.543-0.285-0.641c-0.083-0.096-0.075-0.27,0.015-0.322    c0.091-0.052,0.144-0.075,0.203-0.121c0.037,0.151,0.165,0.369,0.218,0.467c0.052,0.098,0.226,0.496,0.196,0.744    c-0.03,0.247-0.226,0.902-0.984,0.895C54.734,59.112,54.734,58.278,55.104,57.812"></path><path fill="none" stroke="#000000" stroke-width="0.239" stroke-miterlimit="10" d="M55.104,57.812    c0.015,0.339,0.066,0.818,0.48,0.818c0.413,0,0.533-0.397,0.533-0.532c0-0.137-0.203-0.543-0.285-0.641    c-0.083-0.096-0.075-0.27,0.015-0.322c0.091-0.052,0.144-0.075,0.203-0.121c0.037,0.151,0.165,0.369,0.218,0.467    c0.052,0.098,0.226,0.496,0.196,0.744c-0.03,0.247-0.226,0.902-0.984,0.895C54.734,59.112,54.734,58.278,55.104,57.812z"></path><path fill-rule="evenodd" clip-rule="evenodd" fill="#FFED00" d="M56.027,59.593c0.188-0.15,1.165-0.593,1.127-1.833    c-0.127,0.075-0.849,0.12-0.812-0.429c0.038-0.549,0.504-0.443,0.504-0.443c0.285,0.022,0.413,0.15,0.519,0.354    c0.128-0.075,0.263-0.316,0.315-0.443c0.053-0.128,0.097-0.52,0.902-0.616c0.368-0.06,0.511-0.212,0.518-0.293    c0.008-0.083-0.082-0.219-0.098-0.271c-0.015-0.052-0.052-0.315,0.03-0.511c0.105,0.098,0.339,0.309,0.339,0.646    s-0.241,0.699-0.85,0.969c0.037,0.113,0.098,0.812-0.526,0.842c-0.18,0.031-0.284-0.203-0.284-0.203    c-0.242,0.181-0.324,0.25-0.324,0.25C57.402,57.729,57.335,59.834,56.027,59.593"></path><path fill="none" stroke="#000000" stroke-width="0.239" stroke-miterlimit="10" d="M56.027,59.593    c0.188-0.15,1.165-0.593,1.127-1.833c-0.127,0.075-0.849,0.12-0.812-0.429c0.038-0.549,0.504-0.443,0.504-0.443    c0.285,0.022,0.413,0.15,0.519,0.354c0.128-0.075,0.263-0.316,0.315-0.443c0.053-0.128,0.097-0.52,0.902-0.616    c0.368-0.06,0.511-0.212,0.518-0.293c0.008-0.083-0.082-0.219-0.098-0.271c-0.015-0.052-0.052-0.315,0.03-0.511    c0.105,0.098,0.339,0.309,0.339,0.646s-0.241,0.699-0.85,0.969c0.037,0.113,0.098,0.812-0.526,0.842    c-0.18,0.031-0.284-0.203-0.284-0.203c-0.242,0.181-0.324,0.25-0.324,0.25C57.402,57.729,57.335,59.834,56.027,59.593z"></path><path fill-rule="evenodd" clip-rule="evenodd" fill="#E5352C" d="M58.199,56.82c0.053,0.165,0.016,0.374-0.143,0.374    C57.899,57.194,57.929,56.91,58.199,56.82"></path><path fill="none" stroke="#000000" stroke-width="0.239" stroke-miterlimit="10" d="M58.199,56.82    c0.053,0.165,0.016,0.374-0.143,0.374C57.899,57.194,57.929,56.91,58.199,56.82z"></path><path fill-rule="evenodd" clip-rule="evenodd" fill="#FFED00" d="M54.502,57.429c0.06,0.157,0.593,1.135,0.338,2.239    c-0.083-0.495-0.256-1.36-0.579-1.69C54.374,57.789,54.523,57.586,54.502,57.429"></path><path fill="none" stroke="#000000" stroke-width="0.239" stroke-miterlimit="10" d="M54.502,57.429    c0.06,0.157,0.593,1.135,0.338,2.239c-0.083-0.495-0.256-1.36-0.579-1.69C54.374,57.789,54.523,57.586,54.502,57.429z"></path><path fill-rule="evenodd" clip-rule="evenodd" fill="#E5352C" d="M46.844,59.442c-0.121,0-0.451-0.067-0.249-0.256    C46.798,59,46.866,59.263,46.844,59.442"></path><path fill="none" stroke="#000000" stroke-width="0.239" stroke-miterlimit="10" d="M46.844,59.442    c-0.121,0-0.451-0.067-0.249-0.256C46.798,59,46.866,59.263,46.844,59.442z"></path><path fill-rule="evenodd" clip-rule="evenodd" fill="#FFED00" d="M55.223,57.151c-0.007-0.233,0.264-0.189,0.257-0.045    C55.472,57.247,55.23,57.391,55.223,57.151"></path><path fill="none" stroke="#000000" stroke-width="0.239" stroke-miterlimit="10" d="M55.223,57.151    c-0.007-0.233,0.264-0.189,0.257-0.045C55.472,57.247,55.23,57.391,55.223,57.151z"></path><path fill-rule="evenodd" clip-rule="evenodd" fill="#FFED00" d="M58.357,55.542c-0.105-0.061-0.294-0.225-0.016-0.503    c-0.173,0.007-0.406-0.022-0.406-0.398s0.271-0.466,0.384-0.442c0.113,0.021,0.211,0.029,0.203,0.119s-0.067,0.361-0.203,0.247    c-0.135-0.112-0.143,0.023-0.143,0.083c0,0.061,0.061,0.128,0.113,0.121c0.149-0.016,0.195-0.144,0.27-0.232    c0.075-0.09,0.256,0.028,0.203,0.127C58.71,54.761,58.439,55.399,58.357,55.542"></path><path fill="none" stroke="#000000" stroke-width="0.239" stroke-miterlimit="10" d="M58.357,55.542    c-0.105-0.061-0.294-0.225-0.016-0.503c-0.173,0.007-0.406-0.022-0.406-0.398s0.271-0.466,0.384-0.442    c0.113,0.021,0.211,0.029,0.203,0.119s-0.067,0.361-0.203,0.247c-0.135-0.112-0.143,0.023-0.143,0.083    c0,0.061,0.061,0.128,0.113,0.121c0.149-0.016,0.195-0.144,0.27-0.232c0.075-0.09,0.256,0.028,0.203,0.127    C58.71,54.761,58.439,55.399,58.357,55.542z"></path><path fill-rule="evenodd" clip-rule="evenodd" fill="#FFED00" d="M58.583,53.687c0.135,0.157,1.112,1.006,1.165,1.338    c-0.008,0.158,0.06,0.578-0.038,0.436s-0.947-1.285-1.173-1.262C58.553,53.964,58.567,53.889,58.583,53.687"></path><path fill="none" stroke="#000000" stroke-width="0.239" stroke-miterlimit="10" d="M58.583,53.687    c0.135,0.157,1.112,1.006,1.165,1.338c-0.008,0.158,0.06,0.578-0.038,0.436s-0.947-1.285-1.173-1.262    C58.553,53.964,58.567,53.889,58.583,53.687z"></path><path fill-rule="evenodd" clip-rule="evenodd" fill="#E5352C" d="M56.952,57.458c-0.091,0-0.338-0.037-0.331-0.119    c0.008-0.082,0.112-0.195,0.211-0.18c0.097,0.015,0.322,0.143,0.308,0.225C57.125,57.468,57.08,57.458,56.952,57.458"></path><path fill="none" stroke="#000000" stroke-width="0.239" stroke-miterlimit="10" d="M56.952,57.458    c-0.091,0-0.338-0.037-0.331-0.119c0.008-0.082,0.112-0.195,0.211-0.18c0.097,0.015,0.322,0.143,0.308,0.225    C57.125,57.468,57.08,57.458,56.952,57.458z"></path><path fill-rule="evenodd" clip-rule="evenodd" fill="#FFED00" d="M59.387,52.334c0,0,1.398,0.772,1.533,1.833    c-0.008,0.211-0.098,0.654-0.511,0.677c-0.091,0.263-0.331,0.646-0.669,0.653c0.008-0.255,0.022-0.473,0.022-0.473    c0.127-0.022,0.315-0.188,0.315-0.309c0-0.121-0.143-0.467-0.503-0.774c0.015-0.173,0.067-0.392,0.067-0.392    c0.157,0.144,0.729,0.738,0.774,0.781c0.044,0.047,0.3-0.028,0.263-0.285c-0.038-0.254-0.646-1.014-1.301-1.172    C59.372,52.663,59.387,52.334,59.387,52.334"></path><path fill="none" stroke="#000000" stroke-width="0.239" stroke-miterlimit="10" d="M59.387,52.334c0,0,1.398,0.772,1.533,1.833    c-0.008,0.211-0.098,0.654-0.511,0.677c-0.091,0.263-0.331,0.646-0.669,0.653c0.008-0.255,0.022-0.473,0.022-0.473    c0.127-0.022,0.315-0.188,0.315-0.309c0-0.121-0.143-0.467-0.503-0.774c0.015-0.173,0.067-0.392,0.067-0.392    c0.157,0.144,0.729,0.738,0.774,0.781c0.044,0.047,0.3-0.028,0.263-0.285c-0.038-0.254-0.646-1.014-1.301-1.172    C59.372,52.663,59.387,52.334,59.387,52.334z"></path><path fill-rule="evenodd" clip-rule="evenodd" fill="#FFED00" d="M59.604,52.312l-0.008-0.542c0,0,1.226,0.97,1.323,1.563    C60.746,53.265,59.92,52.319,59.604,52.312"></path><path fill="none" stroke="#000000" stroke-width="0.239" stroke-miterlimit="10" d="M59.604,52.312l-0.008-0.542    c0,0,1.226,0.97,1.323,1.563C60.746,53.265,59.92,52.319,59.604,52.312z"></path><path fill-rule="evenodd" clip-rule="evenodd" fill="#FFED00" d="M59.552,61.142c-0.127,0.016-0.323-0.045-0.225-0.18    C59.425,60.826,59.672,60.721,59.552,61.142"></path><path fill="none" stroke="#000000" stroke-width="0.239" stroke-miterlimit="10" d="M59.552,61.142    c-0.127,0.016-0.323-0.045-0.225-0.18C59.425,60.826,59.672,60.721,59.552,61.142z"></path><path fill-rule="evenodd" clip-rule="evenodd" fill="#FFED00" d="M59.582,59.842c0.053,0.255,0.12,0.759-0.812,1.067    c0.008,0.225,0.128,2.148-1.165,1.916c-0.218,0.248-0.57,0.69-1.277,0.578c0.149-0.127,0.819-0.669,0.924-0.774    c0.105-0.104,0.586-0.585,0.557-1.142c-0.195,0.232-0.271,0.271-0.375,0.271c-0.106,0-0.339-0.038-0.339-0.595    c0-0.556,0.301-0.842,0.488-0.842c0.188,0,0.549,0.233,0.549,0.918c0,0.684-0.226,1.188-0.489,1.541    c0.099-0.121,0.851-0.572,0.851-1.436c0-0.865,0-0.768,0.066-0.781C58.628,60.548,59.342,60.421,59.582,59.842"></path><path fill="none" stroke="#000000" stroke-width="0.239" stroke-miterlimit="10" d="M59.582,59.842    c0.053,0.255,0.12,0.759-0.812,1.067c0.008,0.225,0.128,2.148-1.165,1.916c-0.218,0.248-0.57,0.69-1.277,0.578    c0.149-0.127,0.819-0.669,0.924-0.774c0.105-0.104,0.586-0.585,0.557-1.142c-0.195,0.232-0.271,0.271-0.375,0.271    c-0.106,0-0.339-0.038-0.339-0.595c0-0.556,0.301-0.842,0.488-0.842c0.188,0,0.549,0.233,0.549,0.918    c0,0.684-0.226,1.188-0.489,1.541c0.099-0.121,0.851-0.572,0.851-1.436c0-0.865,0-0.768,0.066-0.781    C58.628,60.548,59.342,60.421,59.582,59.842z"></path><path fill-rule="evenodd" clip-rule="evenodd" fill="#E5352C" d="M57.786,60.977c0.029,0.057-0.173,0.368-0.263,0.36    c-0.091-0.008-0.188-0.121-0.188-0.263C57.335,60.931,57.575,60.562,57.786,60.977"></path><path fill="none" stroke="#000000" stroke-width="0.239" stroke-miterlimit="10" d="M57.786,60.977    c0.029,0.057-0.173,0.368-0.263,0.36c-0.091-0.008-0.188-0.121-0.188-0.263C57.335,60.931,57.575,60.562,57.786,60.977z"></path><path fill-rule="evenodd" clip-rule="evenodd" fill="#FFED00" d="M54.728,62.255c-0.195-0.031-0.144-0.361,0.052-0.294    C54.976,62.028,54.922,62.29,54.728,62.255"></path><path fill="none" stroke="#000000" stroke-width="0.239" stroke-miterlimit="10" d="M54.728,62.255    c-0.195-0.031-0.144-0.361,0.052-0.294C54.976,62.028,54.922,62.29,54.728,62.255z"></path><path fill-rule="evenodd" clip-rule="evenodd" fill="#FFED00" d="M55.411,61.75c0.098,0.091,0.511,0.505,0.15,1.067    c0.218,0.016,0.699,0.083,0.631,0.354c-0.067,0.27-0.586,1.285-2.089,1.45c-0.714,0.037-0.789-0.413-0.781-0.54    c0.007-0.128-0.076-0.377,0.518-0.791c-0.082,0.211-0.127,0.444-0.135,0.603c-0.008,0.157-0.03,0.368,0.48,0.368    c0.512,0,1.414-0.436,1.549-0.865c0.053-0.194-0.285-0.232-0.383-0.18c-0.099,0.053-0.361,0.129-0.443,0.157    c-0.083,0.03-0.113-0.104-0.016-0.194s0.354-0.444,0.398-0.52c0.045-0.074,0.098-0.285-0.091-0.541    C55.321,61.983,55.403,61.848,55.411,61.75"></path><path fill="none" stroke="#000000" stroke-width="0.239" stroke-miterlimit="10" d="M55.411,61.75    c0.098,0.091,0.511,0.505,0.15,1.067c0.218,0.016,0.699,0.083,0.631,0.354c-0.067,0.27-0.586,1.285-2.089,1.45    c-0.714,0.037-0.789-0.413-0.781-0.54c0.007-0.128-0.076-0.377,0.518-0.791c-0.082,0.211-0.127,0.444-0.135,0.603    c-0.008,0.157-0.03,0.368,0.48,0.368c0.512,0,1.414-0.436,1.549-0.865c0.053-0.194-0.285-0.232-0.383-0.18    c-0.099,0.053-0.361,0.129-0.443,0.157c-0.083,0.03-0.113-0.104-0.016-0.194s0.354-0.444,0.398-0.52    c0.045-0.074,0.098-0.285-0.091-0.541C55.321,61.983,55.403,61.848,55.411,61.75z"></path><path fill-rule="evenodd" clip-rule="evenodd" fill="#FFED00" d="M54.562,64.771c-0.104-0.173,0.083-0.323,0.203-0.098    S54.577,64.816,54.562,64.771"></path><path fill="none" stroke="#000000" stroke-width="0.239" stroke-miterlimit="10" d="M54.562,64.771    c-0.104-0.173,0.083-0.323,0.203-0.098S54.577,64.816,54.562,64.771z"></path><path fill-rule="evenodd" clip-rule="evenodd" fill="#FFED00" d="M54.99,64.658c-0.094-0.094,0.008-0.353,0.18-0.165    C55.343,64.682,55.065,64.734,54.99,64.658"></path><path fill="none" stroke="#000000" stroke-width="0.239" stroke-miterlimit="10" d="M54.99,64.658    c-0.094-0.094,0.008-0.353,0.18-0.165C55.343,64.682,55.065,64.734,54.99,64.658z"></path><path fill-rule="evenodd" clip-rule="evenodd" fill="#FFED00" d="M51.285,63.306c0.136,0.12,0.707,0.586,0.707,1.066    c0,0.482-0.467,0.805-1.293,0.896c0.045-0.195,0.15-0.429,0.248-0.564c0.18,0.075,0.653,0.203,0.631-0.232    c-0.038-0.295-0.323-0.602-0.587-0.699C51.082,63.599,51.18,63.448,51.285,63.306"></path><path fill="none" stroke="#000000" stroke-width="0.239" stroke-miterlimit="10" d="M51.285,63.306    c0.136,0.12,0.707,0.586,0.707,1.066c0,0.482-0.467,0.805-1.293,0.896c0.045-0.195,0.15-0.429,0.248-0.564    c0.18,0.075,0.653,0.203,0.631-0.232c-0.038-0.295-0.323-0.602-0.587-0.699C51.082,63.599,51.18,63.448,51.285,63.306z"></path><path fill-rule="evenodd" clip-rule="evenodd" fill="#FFED00" d="M49.984,63.126c0.144-0.121,0.316-0.219,0.392-0.331    c0.015,0.12,0.323,1.879-0.293,2.321C50.165,64.757,50.308,63.569,49.984,63.126"></path><path fill="none" stroke="#000000" stroke-width="0.239" stroke-miterlimit="10" d="M49.984,63.126    c0.144-0.121,0.316-0.219,0.392-0.331c0.015,0.12,0.323,1.879-0.293,2.321C50.165,64.757,50.308,63.569,49.984,63.126z"></path><path fill-rule="evenodd" clip-rule="evenodd" fill="#FFED00" d="M49.376,64.245c0.15-0.143,0.218-0.164,0.436-0.322    c0.076,0.322,0.271,1.488-1.435,1.488c-0.88-0.023-0.985-0.338-1.022-0.377c0.232,0.016,0.729,0.045,1.052,0.053    s1.053-0.029,1.053-0.525C49.459,64.456,49.437,64.388,49.376,64.245"></path><path fill="none" stroke="#000000" stroke-width="0.239" stroke-miterlimit="10" d="M49.376,64.245    c0.15-0.143,0.218-0.164,0.436-0.322c0.076,0.322,0.271,1.488-1.435,1.488c-0.88-0.023-0.985-0.338-1.022-0.377    c0.232,0.016,0.729,0.045,1.052,0.053s1.053-0.029,1.053-0.525C49.459,64.456,49.437,64.388,49.376,64.245z"></path><path fill-rule="evenodd" clip-rule="evenodd" fill="#FFED00" d="M48.692,63.095c0,0,0.345-0.255,0.383-0.314    c0.03,0.158,0.067,1.908-0.525,2.142C48.646,64.583,48.82,63.495,48.692,63.095"></path><path fill="none" stroke="#000000" stroke-width="0.239" stroke-miterlimit="10" d="M48.692,63.095c0,0,0.345-0.255,0.383-0.314    c0.03,0.158,0.067,1.908-0.525,2.142C48.646,64.583,48.82,63.495,48.692,63.095z"></path><path fill-rule="evenodd" clip-rule="evenodd" fill="#FFED00" d="M48.098,62.697c0.009,0.165-0.015,2.255-0.894,2.194    c-0.676-0.029-0.518-0.609-0.518-0.609c-0.219,0.098-0.52,0.219-0.723,0.219s-0.436-0.195-0.217-0.428    c0.104-0.15-0.092-0.092-0.158-0.061c-0.068,0.029-0.429,0.188-0.587,0.037c-0.136-0.082-0.061-0.338-0.008-0.436    c-0.21,0-2.292,0.143-2.127-0.774c-0.188,0-1.593,0.128-1.413-1.104c0.182,0.061,0.459,0.398,0.526,0.512    c0.068,0.111,0.196,0.367,0.677,0.367c0.481,0,0.677-0.743,0.661-0.954c-0.015-0.21-0.015-0.241-0.015-0.241    s0.442-0.203,0.676-0.24c-0.037,0.166-0.436,0.865-0.669,1.158c-0.232,0.292-0.12,0.752,0.286,0.863    c0.405,0.113,1.308,0.195,1.593,0.226c0.286,0.03,0.173,0.181,0.12,0.256s0.053,0.136,0.248,0.091    c0.752-0.241,0.602,0.181,0.549,0.256c-0.052,0.074,0.038,0.15,0.226,0.111c0.909-0.525,0.805,0.023,0.669,0.092    c0.098,0.262,0.759,0.428,0.759-0.617c0.016-0.354-0.165-0.563-0.165-0.563C47.865,62.833,47.971,62.794,48.098,62.697"></path><path fill="none" stroke="#000000" stroke-width="0.239" stroke-miterlimit="10" d="M48.098,62.697    c0.009,0.165-0.015,2.255-0.894,2.194c-0.676-0.029-0.518-0.609-0.518-0.609c-0.219,0.098-0.52,0.219-0.723,0.219    s-0.436-0.195-0.217-0.428c0.104-0.15-0.092-0.092-0.158-0.061c-0.068,0.029-0.429,0.188-0.587,0.037    c-0.136-0.082-0.061-0.338-0.008-0.436c-0.21,0-2.292,0.143-2.127-0.774c-0.188,0-1.593,0.128-1.413-1.104    c0.182,0.061,0.459,0.398,0.526,0.512c0.068,0.111,0.196,0.367,0.677,0.367c0.481,0,0.677-0.743,0.661-0.954    c-0.015-0.21-0.015-0.241-0.015-0.241s0.442-0.203,0.676-0.24c-0.037,0.166-0.436,0.865-0.669,1.158    c-0.232,0.292-0.12,0.752,0.286,0.863c0.405,0.113,1.308,0.195,1.593,0.226c0.286,0.03,0.173,0.181,0.12,0.256    s0.053,0.136,0.248,0.091c0.752-0.241,0.602,0.181,0.549,0.256c-0.052,0.074,0.038,0.15,0.226,0.111    c0.909-0.525,0.805,0.023,0.669,0.092c0.098,0.262,0.759,0.428,0.759-0.617c0.016-0.354-0.165-0.563-0.165-0.563    C47.865,62.833,47.971,62.794,48.098,62.697z"></path><path fill-rule="evenodd" clip-rule="evenodd" fill="#FFED00" d="M42.822,60.796l0.512-0.053    c-0.091,0.181-0.294,1.128-1.083,1.465C42.469,61.871,42.845,61.54,42.822,60.796"></path><path fill="none" stroke="#000000" stroke-width="0.239" stroke-miterlimit="10" d="M42.822,60.796l0.512-0.053    c-0.091,0.181-0.294,1.128-1.083,1.465C42.469,61.871,42.845,61.54,42.822,60.796z"></path><path fill-rule="evenodd" clip-rule="evenodd" fill="#FFED00" d="M39.38,60.142c-0.157-0.098-0.06-0.368,0.226-0.24    c0.181,0.075,0.512,0.467,0.616,0.669c0.106,0.203,0.594,0.405,0.97,0.06c0.271-0.24,0.939-0.309,0.909,0.271    c0,0.188-0.022,0.225-0.082,0.277c-0.061,0.053-0.526,0.474-0.526,0.474s-0.436,0.188-0.413-0.3    c0.007-0.285-0.061-0.256-0.181-0.248s-0.669,0.074-0.909-0.211C39.748,60.607,39.876,60.458,39.38,60.142"></path><path fill="none" stroke="#000000" stroke-width="0.239" stroke-miterlimit="10" d="M39.38,60.142    c-0.157-0.098-0.06-0.368,0.226-0.24c0.181,0.075,0.512,0.467,0.616,0.669c0.106,0.203,0.594,0.405,0.97,0.06    c0.271-0.24,0.939-0.309,0.909,0.271c0,0.188-0.022,0.225-0.082,0.277c-0.061,0.053-0.526,0.474-0.526,0.474    s-0.436,0.188-0.413-0.3c0.007-0.285-0.061-0.256-0.181-0.248s-0.669,0.074-0.909-0.211C39.748,60.607,39.876,60.458,39.38,60.142    z"></path><path fill-rule="evenodd" clip-rule="evenodd" fill="#E5352C" d="M41.454,61.165c-0.045-0.158-0.045-0.354,0.136-0.444    c0.181-0.091,0.128,0.149,0.128,0.195S41.537,61.112,41.454,61.165"></path><path fill="none" stroke="#000000" stroke-width="0.239" stroke-miterlimit="10" d="M41.454,61.165    c-0.045-0.158-0.045-0.354,0.136-0.444c0.181-0.091,0.128,0.149,0.128,0.195S41.537,61.112,41.454,61.165z"></path></g></g></svg>