<svg xmlns="http://www.w3.org/2000/svg" xmlns:xlink="http://www.w3.org/1999/xlink" version="1.1" x="0px" y="0px" viewBox="0 0 100 100" enable-background="new 0 0 100 100" xml:space="preserve"><rect x="5" y="20" fill="#009B3A" width="90" height="60"></rect><polygon fill="#FEDF00" points="49.985,26.15 12.635,50 49.985,73.85 87.336,50 "></polygon><circle fill="#002776" cx="49.985" cy="50" r="15.75"></circle><path fill="#FFFFFF" d="M35.518,43.777c-0.338,0.786-0.602,1.61-0.81,2.456c12.216-2.455,23.446,2.322,30.419,8.062  c0.229-0.803,0.396-1.629,0.496-2.479C58.434,46.266,47.489,41.812,35.518,43.777z"></path><polygon fill="#FFFFFF" points="36.945,46.328 37.1,46.805 37.601,46.805 37.195,47.099 37.351,47.576 36.945,47.282 36.539,47.576   36.694,47.099 36.289,46.805 36.79,46.805 "></polygon><polygon fill="#FFFFFF" points="54.977,44.203 55.131,44.68 55.633,44.68 55.227,44.974 55.382,45.451 54.977,45.157 54.57,45.451   54.727,44.974 54.32,44.68 54.82,44.68 "></polygon><polygon fill="#FFFFFF" points="38.367,53.016 38.521,53.492 39.023,53.492 38.617,53.787 38.772,54.264 38.367,53.969   37.961,54.264 38.116,53.787 37.71,53.492 38.212,53.492 "></polygon><polygon fill="#FFFFFF" points="43.585,57.688 43.74,58.164 44.242,58.164 43.836,58.459 43.991,58.936 43.585,58.641 43.18,58.936   43.335,58.459 42.929,58.164 43.431,58.164 "></polygon><polygon fill="#FFFFFF" points="49.985,56.344 50.14,56.82 50.641,56.82 50.235,57.115 50.391,57.592 49.985,57.297 49.579,57.592   49.734,57.115 49.329,56.82 49.83,56.82 "></polygon><polygon fill="#FFFFFF" points="61.219,54.844 61.374,55.32 61.875,55.32 61.471,55.615 61.625,56.092 61.219,55.797 60.812,56.092   60.969,55.615 60.562,55.32 61.064,55.32 "></polygon><polygon fill="#FFFFFF" points="60.898,57.592 61.037,58.018 61.484,58.018 61.123,58.279 61.262,58.705 60.898,58.443   60.537,58.705 60.676,58.279 60.312,58.018 60.762,58.018 "></polygon><polygon fill="#FFFFFF" points="61.875,56.344 62.014,56.77 62.461,56.77 62.1,57.031 62.238,57.457 61.875,57.195 61.514,57.457   61.652,57.031 61.289,56.77 61.736,56.77 "></polygon><polygon fill="#FFFFFF" points="58.062,59.672 58.201,60.098 58.648,60.098 58.287,60.359 58.426,60.785 58.062,60.523   57.701,60.785 57.84,60.359 57.477,60.098 57.925,60.098 "></polygon><polygon fill="#FFFFFF" points="54.812,60.062 54.951,60.488 55.398,60.488 55.037,60.75 55.176,61.176 54.812,60.914   54.451,61.176 54.59,60.75 54.227,60.488 54.675,60.488 "></polygon><polygon fill="#FFFFFF" points="51.875,53.25 52.014,53.676 52.461,53.676 52.1,53.938 52.238,54.363 51.875,54.102 51.514,54.363   51.652,53.938 51.289,53.676 51.736,53.676 "></polygon><polygon fill="#FFFFFF" points="49.985,51.812 50.123,52.238 50.57,52.238 50.208,52.5 50.347,52.926 49.985,52.664 49.623,52.926   49.761,52.5 49.399,52.238 49.847,52.238 "></polygon><polygon fill="#FFFFFF" points="43.922,49.906 44.061,50.332 44.508,50.332 44.146,50.594 44.285,51.02 43.922,50.758 43.56,51.02   43.699,50.594 43.336,50.332 43.784,50.332 "></polygon><polygon fill="#FFFFFF" points="41.688,54.703 41.826,55.129 42.274,55.129 41.912,55.391 42.05,55.816 41.688,55.555   41.326,55.816 41.464,55.391 41.102,55.129 41.55,55.129 "></polygon><polygon fill="#FFFFFF" points="36.359,54.531 36.497,54.957 36.945,54.957 36.583,55.219 36.721,55.645 36.359,55.383   35.997,55.645 36.135,55.219 35.773,54.957 36.221,54.957 "></polygon><polygon fill="#FFFFFF" points="41.183,56.479 41.285,56.791 41.614,56.791 41.348,56.986 41.45,57.299 41.183,57.105   40.916,57.299 41.018,56.986 40.751,56.791 41.081,56.791 "></polygon><polygon fill="#FFFFFF" points="48.402,53.396 48.503,53.709 48.833,53.709 48.566,53.904 48.668,54.217 48.402,54.023   48.135,54.217 48.237,53.904 47.97,53.709 48.3,53.709 "></polygon><polygon fill="#FFFFFF" points="54.387,48.631 54.488,48.944 54.816,48.944 54.551,49.138 54.652,49.452 54.387,49.258   54.119,49.452 54.221,49.138 53.955,48.944 54.284,48.944 "></polygon><polygon fill="#FFFFFF" points="53.564,58.395 53.666,58.709 53.996,58.709 53.729,58.902 53.832,59.215 53.564,59.021   53.298,59.215 53.4,58.902 53.133,58.709 53.463,58.709 "></polygon><polygon fill="#FFFFFF" points="56.174,58.805 56.275,59.119 56.605,59.119 56.339,59.312 56.441,59.625 56.174,59.432   55.907,59.625 56.01,59.312 55.742,59.119 56.072,59.119 "></polygon><polygon fill="#FFFFFF" points="57.971,58.295 58.072,58.609 58.402,58.609 58.137,58.803 58.238,59.115 57.971,58.922   57.704,59.115 57.807,58.803 57.539,58.609 57.869,58.609 "></polygon><polygon fill="#FFFFFF" points="59.627,58.576 59.729,58.891 60.059,58.891 59.792,59.084 59.895,59.396 59.627,59.203   59.359,59.396 59.463,59.084 59.195,58.891 59.525,58.891 "></polygon><polygon fill="#FFFFFF" points="63.455,55.186 63.557,55.5 63.887,55.5 63.62,55.693 63.723,56.006 63.455,55.812 63.188,56.006   63.291,55.693 63.023,55.5 63.354,55.5 "></polygon><polygon fill="#FFFFFF" points="58.062,61.482 58.164,61.797 58.494,61.797 58.229,61.99 58.33,62.303 58.062,62.109 57.796,62.303   57.898,61.99 57.631,61.797 57.961,61.797 "></polygon><polygon fill="#FFFFFF" points="49.218,54.633 49.286,54.844 49.508,54.844 49.329,54.975 49.397,55.186 49.218,55.055   49.038,55.186 49.106,54.975 48.927,54.844 49.149,54.844 "></polygon><polygon fill="#FFFFFF" points="49.985,62.195 50.032,62.338 50.183,62.338 50.061,62.428 50.108,62.57 49.985,62.482 49.863,62.57   49.91,62.428 49.787,62.338 49.938,62.338 "></polygon><polygon fill="#FFFFFF" points="39.905,52.463 39.974,52.674 40.196,52.674 40.016,52.805 40.085,53.016 39.905,52.885   39.725,53.016 39.794,52.805 39.614,52.674 39.836,52.674 "></polygon><g><path fill="#009B3A" d="M35.678,45.081c-0.037-0.25,0.002-0.455,0.115-0.616s0.276-0.257,0.488-0.288   c0.139-0.021,0.269-0.005,0.391,0.045c0.121,0.05,0.22,0.13,0.296,0.24c0.076,0.11,0.125,0.241,0.146,0.392   c0.022,0.152,0.012,0.293-0.032,0.423s-0.118,0.233-0.222,0.312c-0.104,0.079-0.221,0.128-0.352,0.146   c-0.142,0.021-0.273,0.005-0.395-0.047s-0.22-0.133-0.294-0.243S35.697,45.212,35.678,45.081z M35.883,45.054   c0.026,0.181,0.096,0.316,0.209,0.407c0.113,0.09,0.243,0.124,0.39,0.103c0.15-0.022,0.265-0.093,0.347-0.212   c0.082-0.12,0.108-0.276,0.08-0.471c-0.018-0.122-0.054-0.226-0.109-0.312c-0.055-0.085-0.125-0.147-0.213-0.186   c-0.087-0.039-0.18-0.051-0.279-0.036c-0.141,0.021-0.255,0.087-0.343,0.198S35.85,44.828,35.883,45.054z"></path><path fill="#009B3A" d="M37.768,45.542l-0.139-1.515l0.672-0.062c0.135-0.012,0.239-0.008,0.312,0.013   c0.073,0.021,0.133,0.064,0.182,0.129c0.048,0.065,0.076,0.14,0.084,0.223c0.01,0.107-0.017,0.201-0.08,0.281   s-0.166,0.137-0.31,0.17c0.055,0.021,0.098,0.042,0.128,0.064c0.063,0.049,0.125,0.11,0.185,0.187l0.301,0.389l-0.252,0.022   l-0.229-0.297c-0.067-0.085-0.122-0.15-0.164-0.195c-0.042-0.045-0.08-0.075-0.111-0.092s-0.063-0.027-0.095-0.032   c-0.023-0.003-0.061-0.002-0.112,0.003l-0.232,0.021l0.062,0.673L37.768,45.542z M37.891,44.677l0.431-0.039   c0.092-0.009,0.163-0.024,0.212-0.048c0.05-0.024,0.086-0.058,0.109-0.103c0.023-0.044,0.033-0.09,0.028-0.139   c-0.006-0.072-0.038-0.129-0.094-0.17c-0.057-0.041-0.141-0.057-0.253-0.047l-0.479,0.044L37.891,44.677z"></path><path fill="#009B3A" d="M39.609,45.392l-0.058-1.521l0.523-0.02c0.119-0.005,0.209-0.001,0.271,0.011   c0.088,0.018,0.164,0.051,0.227,0.101c0.083,0.065,0.146,0.149,0.19,0.253c0.044,0.104,0.068,0.224,0.073,0.359   c0.004,0.115-0.005,0.218-0.029,0.309c-0.023,0.09-0.055,0.165-0.095,0.225c-0.04,0.061-0.084,0.108-0.133,0.144   s-0.108,0.063-0.179,0.083c-0.07,0.021-0.151,0.032-0.243,0.035L39.609,45.392z M39.803,45.205l0.325-0.013   c0.1-0.003,0.179-0.016,0.235-0.036c0.056-0.021,0.101-0.049,0.133-0.084c0.046-0.05,0.081-0.115,0.104-0.197   c0.024-0.081,0.033-0.18,0.029-0.294c-0.006-0.159-0.037-0.28-0.092-0.363c-0.055-0.084-0.121-0.139-0.197-0.165   c-0.055-0.019-0.142-0.025-0.261-0.021l-0.319,0.012L39.803,45.205z"></path><path fill="#009B3A" d="M41.442,45.339l0.019-1.521l1.1,0.014l-0.002,0.179L41.66,44l-0.006,0.466l0.841,0.011l-0.002,0.179   l-0.841-0.011l-0.006,0.518l0.934,0.012l-0.002,0.18L41.442,45.339z"></path><path fill="#009B3A" d="M43.155,45.373l0.1-1.519l0.303,0.021l0.288,1.099c0.026,0.102,0.046,0.179,0.058,0.229   c0.021-0.055,0.053-0.134,0.097-0.238l0.433-1.032l0.271,0.018l-0.1,1.518l-0.194-0.013l0.084-1.27l-0.525,1.241l-0.181-0.013   l-0.354-1.32l-0.085,1.292L43.155,45.373z"></path><path fill="#009B3A" d="M46.791,45.726l0.216-1.342l0.971,0.156l-0.025,0.158l-0.793-0.128l-0.066,0.411l0.743,0.12l-0.025,0.157   l-0.743-0.119l-0.074,0.457l0.824,0.133l-0.025,0.158L46.791,45.726z"></path><path fill="#009B3A" d="M49.665,46.269l0.36-1.478l0.557,0.136c0.099,0.023,0.172,0.047,0.222,0.068   c0.069,0.03,0.125,0.068,0.166,0.114c0.04,0.046,0.068,0.103,0.083,0.171c0.016,0.068,0.014,0.14-0.004,0.213   c-0.031,0.126-0.097,0.223-0.197,0.29c-0.102,0.067-0.257,0.075-0.466,0.024l-0.379-0.093l-0.146,0.602L49.665,46.269z    M50.049,45.542l0.382,0.093c0.126,0.031,0.222,0.029,0.287-0.005s0.107-0.094,0.128-0.179c0.016-0.062,0.012-0.119-0.008-0.171   c-0.021-0.051-0.055-0.09-0.103-0.117c-0.03-0.017-0.091-0.035-0.179-0.058l-0.378-0.092L50.049,45.542z"></path><path fill="#009B3A" d="M51.318,46.685l0.428-1.46l0.647,0.19c0.13,0.038,0.226,0.08,0.285,0.126s0.101,0.108,0.122,0.187   c0.021,0.078,0.02,0.157-0.004,0.237c-0.031,0.104-0.09,0.182-0.178,0.232c-0.088,0.052-0.205,0.066-0.35,0.045   c0.043,0.039,0.075,0.075,0.095,0.106c0.041,0.068,0.075,0.148,0.103,0.241l0.139,0.472l-0.244-0.071l-0.104-0.36   c-0.031-0.104-0.058-0.185-0.08-0.242c-0.023-0.057-0.047-0.099-0.07-0.126s-0.049-0.049-0.076-0.064   c-0.021-0.011-0.056-0.024-0.105-0.038l-0.225-0.066l-0.189,0.648L51.318,46.685z M51.75,45.926l0.416,0.122   c0.088,0.025,0.16,0.036,0.215,0.033c0.055-0.004,0.102-0.022,0.139-0.055c0.038-0.032,0.064-0.072,0.078-0.119   c0.02-0.069,0.012-0.134-0.025-0.192c-0.037-0.06-0.109-0.104-0.219-0.137l-0.461-0.136L51.75,45.926z"></path><path fill="#009B3A" d="M53.249,46.491c0.082-0.238,0.211-0.402,0.386-0.493s0.363-0.102,0.566-0.031   c0.133,0.046,0.241,0.119,0.325,0.22c0.085,0.101,0.136,0.217,0.152,0.35s0,0.271-0.05,0.415c-0.051,0.146-0.125,0.266-0.224,0.36   s-0.212,0.153-0.341,0.175c-0.128,0.021-0.255,0.011-0.379-0.032c-0.136-0.047-0.245-0.121-0.329-0.224s-0.134-0.22-0.149-0.352   S53.205,46.618,53.249,46.491z M53.443,46.562c-0.06,0.173-0.061,0.326-0.002,0.458s0.158,0.222,0.299,0.271   c0.144,0.05,0.278,0.04,0.406-0.028c0.127-0.069,0.223-0.195,0.287-0.381c0.04-0.117,0.056-0.226,0.046-0.327   c-0.009-0.101-0.043-0.188-0.103-0.263s-0.137-0.128-0.231-0.161c-0.135-0.046-0.267-0.04-0.396,0.019   C53.62,46.208,53.519,46.345,53.443,46.562z"></path><path fill="#009B3A" d="M55.804,47.583l0.066-0.165l0.599,0.239l-0.211,0.523c-0.121,0.036-0.238,0.054-0.351,0.051   c-0.112-0.002-0.22-0.024-0.322-0.065c-0.139-0.056-0.253-0.136-0.342-0.241c-0.09-0.104-0.141-0.225-0.153-0.36   s0.009-0.272,0.065-0.411c0.055-0.138,0.135-0.254,0.24-0.351c0.105-0.096,0.224-0.15,0.354-0.165   c0.132-0.015,0.268,0.007,0.407,0.063c0.103,0.041,0.188,0.095,0.257,0.161c0.069,0.066,0.115,0.138,0.139,0.216   s0.027,0.169,0.014,0.274l-0.187-0.021c0.008-0.081,0.004-0.147-0.011-0.201c-0.016-0.054-0.047-0.105-0.096-0.153   c-0.048-0.048-0.107-0.087-0.179-0.115c-0.086-0.034-0.165-0.051-0.237-0.05c-0.073,0.001-0.137,0.015-0.192,0.041   c-0.055,0.027-0.104,0.062-0.145,0.104c-0.071,0.072-0.128,0.16-0.169,0.262c-0.05,0.126-0.071,0.24-0.062,0.342   c0.009,0.103,0.047,0.19,0.113,0.265c0.066,0.075,0.146,0.131,0.238,0.168c0.081,0.033,0.166,0.049,0.256,0.049   s0.161-0.01,0.216-0.029l0.105-0.263L55.804,47.583z"></path><path fill="#009B3A" d="M56.714,48.608l0.633-1.383l0.613,0.28c0.123,0.057,0.211,0.112,0.264,0.166   c0.053,0.055,0.084,0.122,0.094,0.202s-0.003,0.159-0.038,0.234c-0.045,0.099-0.114,0.167-0.209,0.205   c-0.094,0.038-0.212,0.036-0.353-0.007c0.037,0.046,0.063,0.086,0.079,0.12c0.03,0.073,0.053,0.157,0.067,0.253l0.068,0.486   l-0.23-0.104l-0.052-0.372c-0.015-0.107-0.03-0.191-0.044-0.251c-0.015-0.06-0.032-0.104-0.051-0.135   c-0.02-0.03-0.042-0.056-0.067-0.075c-0.019-0.014-0.052-0.031-0.099-0.054l-0.212-0.097l-0.281,0.614L56.714,48.608z    M57.25,47.919l0.394,0.18c0.084,0.038,0.153,0.06,0.208,0.063c0.055,0.005,0.104-0.007,0.146-0.033   c0.042-0.027,0.073-0.062,0.094-0.107c0.03-0.065,0.03-0.13,0.003-0.194c-0.028-0.063-0.094-0.119-0.196-0.166l-0.438-0.2   L57.25,47.919z"></path><path fill="#009B3A" d="M58.382,49.389l0.693-1.354l0.979,0.501l-0.081,0.159l-0.8-0.409l-0.213,0.415l0.749,0.384l-0.081,0.158   l-0.749-0.383l-0.236,0.461l0.832,0.425l-0.082,0.16L58.382,49.389z"></path><path fill="#009B3A" d="M60.088,49.726l0.173,0.079c-0.029,0.07-0.042,0.135-0.037,0.193c0.004,0.059,0.029,0.118,0.074,0.179   c0.046,0.061,0.106,0.111,0.182,0.154c0.066,0.038,0.131,0.062,0.193,0.07s0.116,0.004,0.16-0.017   c0.045-0.021,0.079-0.052,0.102-0.093c0.024-0.041,0.032-0.084,0.026-0.129c-0.007-0.045-0.032-0.093-0.075-0.146   c-0.028-0.034-0.094-0.1-0.199-0.198c-0.105-0.098-0.175-0.174-0.209-0.228c-0.044-0.068-0.068-0.137-0.071-0.203   s0.013-0.13,0.047-0.19c0.038-0.067,0.092-0.119,0.163-0.155c0.07-0.037,0.151-0.05,0.241-0.038   c0.09,0.011,0.179,0.041,0.269,0.092c0.098,0.056,0.175,0.12,0.232,0.194c0.057,0.074,0.088,0.153,0.094,0.237   c0.006,0.085-0.012,0.166-0.053,0.246l-0.176-0.083c0.039-0.089,0.044-0.169,0.016-0.241c-0.027-0.072-0.092-0.138-0.194-0.195   c-0.105-0.06-0.193-0.084-0.265-0.072c-0.07,0.011-0.121,0.044-0.151,0.099c-0.027,0.048-0.032,0.097-0.016,0.146   s0.087,0.132,0.211,0.244c0.124,0.113,0.206,0.196,0.245,0.251c0.057,0.079,0.089,0.156,0.095,0.231s-0.012,0.148-0.052,0.219   c-0.04,0.071-0.098,0.126-0.174,0.166c-0.075,0.039-0.16,0.055-0.256,0.047c-0.095-0.008-0.189-0.039-0.284-0.092   c-0.12-0.068-0.211-0.143-0.271-0.224c-0.062-0.08-0.095-0.169-0.102-0.266C60.02,49.909,60.04,49.816,60.088,49.726z"></path><path fill="#009B3A" d="M61.607,50.598l0.17,0.088c-0.033,0.068-0.048,0.133-0.046,0.191s0.024,0.119,0.067,0.182   c0.042,0.062,0.101,0.115,0.174,0.162c0.065,0.041,0.129,0.066,0.19,0.078c0.062,0.012,0.116,0.008,0.161-0.01   c0.046-0.02,0.081-0.049,0.105-0.088c0.025-0.041,0.036-0.084,0.031-0.129s-0.027-0.094-0.068-0.148   c-0.026-0.035-0.09-0.104-0.19-0.205c-0.102-0.104-0.168-0.182-0.199-0.237c-0.042-0.07-0.062-0.14-0.062-0.206   c-0.001-0.066,0.018-0.13,0.055-0.189c0.04-0.064,0.097-0.114,0.169-0.147c0.072-0.034,0.153-0.043,0.243-0.028   c0.089,0.016,0.177,0.05,0.264,0.104c0.096,0.06,0.171,0.127,0.225,0.204c0.054,0.076,0.082,0.156,0.084,0.241   c0.002,0.084-0.02,0.165-0.064,0.243l-0.171-0.09c0.042-0.088,0.051-0.167,0.026-0.241c-0.025-0.073-0.087-0.141-0.187-0.203   c-0.104-0.064-0.19-0.093-0.261-0.084c-0.071,0.009-0.123,0.039-0.156,0.093c-0.029,0.046-0.036,0.095-0.021,0.146   c0.014,0.051,0.081,0.135,0.2,0.252c0.119,0.119,0.197,0.205,0.234,0.262c0.054,0.08,0.081,0.158,0.084,0.234   s-0.018,0.148-0.061,0.217s-0.104,0.121-0.181,0.158c-0.077,0.035-0.163,0.047-0.258,0.035s-0.188-0.047-0.28-0.104   c-0.116-0.074-0.204-0.152-0.262-0.234c-0.058-0.084-0.088-0.174-0.09-0.27C61.531,50.777,61.556,50.686,61.607,50.598z"></path><path fill="#009B3A" d="M63.222,51.32c0.144-0.209,0.312-0.332,0.504-0.373c0.193-0.041,0.378,0,0.554,0.121   c0.116,0.08,0.201,0.18,0.256,0.299s0.072,0.244,0.053,0.377s-0.072,0.262-0.158,0.387c-0.088,0.127-0.191,0.223-0.312,0.289   c-0.121,0.064-0.246,0.09-0.375,0.076c-0.13-0.014-0.249-0.057-0.357-0.133c-0.118-0.08-0.204-0.182-0.258-0.303   c-0.053-0.121-0.07-0.246-0.05-0.379C63.099,51.551,63.146,51.43,63.222,51.32z M63.391,51.439   c-0.104,0.152-0.146,0.299-0.124,0.441s0.094,0.256,0.216,0.342c0.125,0.086,0.258,0.111,0.398,0.08   c0.142-0.033,0.268-0.129,0.379-0.291c0.069-0.102,0.114-0.201,0.132-0.303c0.018-0.1,0.008-0.193-0.029-0.279   c-0.037-0.088-0.098-0.16-0.18-0.217c-0.118-0.082-0.246-0.111-0.387-0.088C63.656,51.146,63.521,51.252,63.391,51.439z"></path></g></svg>