<svg xmlns="http://www.w3.org/2000/svg" xmlns:xlink="http://www.w3.org/1999/xlink" version="1.1" x="0px" y="0px" viewBox="0 0 100 100" enable-background="new 0 0 100 100" xml:space="preserve"><rect x="5" y="19.875" fill="#FFFFFF" width="14.125" height="60"></rect><path fill="#E42618" d="M5.271,80h0.59v-0.595h-0.59V80z M17.226,80h0.586v-0.595h-0.586V80z M8.282,77.694h0.594v-1.526H8.282  V77.694z M14.22,77.694h0.601v-1.526H14.22V77.694z M11.259,74.521h0.589v-1.398h-0.589V74.521z M5.271,74.312h0.59v-1.401h-0.59  V74.312z M17.241,74.312h0.585v-1.401h-0.585V74.312z M14.22,71.346v1.16h-0.931v1.031h-0.8v1.411h-0.642v1.22h-0.589v-1.21h-0.641  v-1.411H9.808v-1.031H8.872v-1.17h-0.59v1.17H7.286v1.031H6.54v1.411H5.91v1.21h-0.64v1.526h0.635v1.431h0.64V80h1.73v-1.102H7.641  v-1.204H6.996v-1.526h0.641v-1.21h0.646v-1.173h0.59v1.173h0.641v1.21h0.655v1.526h-0.65v1.204H8.876V80h1.742v-0.875h0.641v-1.431  h0.589v1.441h0.646V80h1.726v-1.091h-0.641v-1.215h-0.635v-1.526h0.64v-1.22h0.636v-1.171h0.605v1.171h0.635v1.22h0.65v1.526h-0.655  v1.215H14.82V80h1.731v-0.869h0.635v-1.437h0.64l-0.004-1.526h-0.636v-1.21h-0.63v-1.421h-0.746v-1.031h-0.99v-1.16H14.22z   M6.406,69.805h0.35v1.036h-0.35V69.805z M6.206,67.988v0.861H5.77v0.955h-0.48v1.036h0.48v0.96H6.2v0.721h0.796v-0.721h0.42v-0.96  h0.46v-1.036h-0.46V68.85h-0.42v-0.861H6.206z M12.394,69.805h0.351v1.036h-0.351V69.805z M10.358,69.799h0.351v1.036h-0.351V69.799  z M12.193,67.988v0.861h-0.346v0.949h-0.589v-0.953h-0.311v-0.857h-0.78v0.857h-0.45v0.953h-0.48v1.036h0.48v0.966h0.45v0.715h0.771  v-0.715h0.32v-0.96h0.589v0.96h0.342v0.721h0.755v-0.721h0.46v-0.96h0.46v-1.036h-0.46V68.85h-0.46v-0.861H12.193z M16.351,69.805  h0.351v1.036h-0.351V69.805z M16.105,67.988v0.861h-0.395v0.955h-0.485v1.036h0.485v0.96h0.395v0.721h0.826v-0.721h0.42v-0.96h0.475  v-1.036h-0.475V68.85h-0.414v-0.861H16.105z M5.271,67.715h0.59v-1.401h-0.59V67.715z M11.259,67.715h0.589v-1.401h-0.589V67.715z   M17.241,67.715h0.585v-1.401h-0.585V67.715z M5.271,60.399h0.59V59h-0.59V60.399z M17.241,60.399h0.585V59h-0.585V60.399z   M11.259,55.021h0.589v-1.4h-0.589V55.021z M5.565,51.043h0.605v-1.444H5.565V51.043z M9.308,51.043h0.605v-1.444H9.308V51.043z   M13.189,51.043h0.605v-1.444h-0.605V51.043z M17.432,51.043h0.605v-1.444h-0.605V51.043z M10.037,47.478v1.356h0.581v1.01h0.454  v0.946h-0.454v1.025h-0.581v1.351h0.581v-0.785h0.641v-0.755h0.589v0.755h0.646v0.775h0.575v-1.341h-0.575l-0.005-1.025h-0.461  v-0.946h0.461v-1.01h0.58v-1.351h-0.575v0.776h-0.646v0.759h-0.589v-0.759h-0.641v-0.781H10.037z M11.259,47.028h0.589v-1.402  h-0.589V47.028z M5.271,41.644h0.59v-1.4h-0.59V41.644z M17.226,41.644h0.586v-1.4h-0.586V41.644z M5.271,34.336h0.59V32.93h-0.59  V34.336z M11.259,34.336h0.589V32.93h-0.589V34.336z M17.241,34.336h0.585V32.93h-0.585V34.336z M7.932,49.844h0.675v-1.01h0.58  v-1.73h0.681v-1.601h0.751v-1.361h0.641v-1.42h0.589v1.42h0.646v1.326h0.74v1.596h0.681l0.004,1.771h0.575v1.01h0.69v0.95h-0.69  v1.021h-0.575l-0.004,1.761h-0.681v1.596h-0.74v1.36h-0.646v1.387h-0.589v-1.411h-0.641v-1.366H9.873v-1.601H9.192v-1.726H8.606  V50.79H7.932V49.844z M14.28,31.579v0.78h-0.65v1.366h-0.851v1.441h-0.932v1.426h-0.589v-1.426h-0.931v-1.441H9.478v-1.366h-0.65  v-0.78H8.231v0.78H7.565v1.366H6.71v1.441H5.855v1.426H5v1.941h0.765v1.345h0.721v1.89h0.681v1.316h0.766v-1.316h0.68v-1.89h0.801  v-1.351H8.611v-1.936h0.831v1.195h0.726v2.091h0.72v1.89H9.927v1.316H9.292v1.726H8.606v1.716h-0.68v1.576H7.166v-1.587  l-0.681,0.021v-1.176l-0.426-0.02v-1.561H5.75v-1.271H5.01v4.793h0.905v1.531h0.57v1.01h0.681v0.946H6.485v1.025H5.92v1.526H5v4.792  h0.75v-1.271h0.31v-1.557h0.426v-1.18h0.681V52.54h0.766v1.575h0.68v1.723h0.686v1.601h0.65v1.431h0.945v1.761h-0.725v2.226H9.442  v1.2H8.611V62.12h0.801v-1.345H8.876v-1.902h-0.89v-1.319H7.392v1.319H6.511v1.902H5.765v1.335H5v1.945h0.855v1.421H6.71v1.447  h0.855v1.359h0.717v0.784h0.594v-0.784h0.602v-1.359h0.851v-1.447h0.931v-1.421h0.589v1.421h0.932v1.447h0.851v1.359h0.59v0.784  h0.601v-0.784h0.721v-1.359h0.854v-1.447h0.855v-1.421h0.852V62.11h-0.762v-1.335h-0.745v-1.902h-0.88v-1.319H15.12v1.319h-0.9  v1.902h-0.525v1.345h0.8v1.936h-0.83v-1.2h-0.72V60.63h-0.721v-1.757h0.936v-1.405h0.65v-1.596h0.685v-1.726h0.682V52.58h0.775  v1.575h0.575v1.182h0.52v1.556h0.311v1.271h0.741v-4.793h-0.911v-1.556H16.73v-1.021h-0.779v-0.95h0.779v-1.01h0.456v-1.566h0.911  v-4.793h-0.741v1.276h-0.311v1.556h-0.52v1.18H15.94v1.577h-0.765v-1.565h-0.682v-1.727H13.81v-1.687h-0.63v-1.32h-0.961v-1.886  h0.726v-2.091h0.72v-1.195h0.83v1.936h-0.8v1.346h0.525v1.895h0.9v1.316h0.596v-1.316h0.88v-1.895h0.745v-1.34h0.762v-1.941h-0.852  v-1.426h-0.855v-1.441h-0.854v-1.366h-0.666v-0.78H14.28z M6.406,29.803h0.35v1.041h-0.35V29.803z M6.2,28.123v0.726H5.77v0.955  h-0.48v1.041h0.48V31.8h0.437v0.844h0.795V31.8h0.415v-0.957h0.46v-1.041h-0.46v-0.955h-0.42v-0.726H6.2z M10.358,29.809h0.351  v1.041h-0.351V29.809z M12.394,29.803h0.351v1.041h-0.351V29.803z M12.189,28.123v0.726h-0.342v0.955h-0.589v-0.955h-0.32v-0.721  h-0.771v0.721h-0.45v0.96h-0.48v1.041h0.48v0.955h0.45v0.846h0.75v-0.846h0.341v-0.955h0.589V31.8h0.346v0.844h0.751V31.8h0.46  v-0.957h0.46v-1.041h-0.46v-0.955h-0.46v-0.726H12.189z M16.351,29.803h0.351v1.041h-0.351V29.803z M16.142,28.123v0.726h-0.431  v0.955h-0.485v1.041h0.485V31.8h0.435v0.844h0.792V31.8h0.414v-0.957h0.465v-1.041h-0.465v-0.955h-0.42v-0.726H16.142z   M5.271,27.737h0.59v-1.406h-0.59V27.737z M17.241,27.737h0.585v-1.406h-0.585V27.737z M11.259,27.527h0.589v-1.405h-0.589V27.527z   M8.287,24.365h0.589v-1.396H8.287V24.365z M14.22,24.375h0.601v-1.406H14.22V24.375z M5.271,21.243h0.59V20h-0.59V21.243z   M11.259,20.222h0.589V20h-0.589V20.222z M6.996,23.064l-0.005-0.099h0.649v-1.221h0.635v-1.172h0.601v1.172h0.642v1.221h0.646  l0.005,1.505H9.513v1.215H8.872v1.171H8.271v-1.171H7.637v-1.215H6.996V23.064z M12.944,22.969h0.635v-1.235h0.641v-1.171h0.601  v1.171h0.635l0.005,1.235h0.646v1.511H15.46v1.216h-0.635v1.17h-0.601v-1.17h-0.641V24.48h-0.64V22.969z M12.494,20v1.509h-0.646  v1.46h-0.589v-1.45h-0.641V20H6.545v1.52h-0.64v1.446l-0.635,0.004v1.501h0.64v1.215h0.63v1.416h0.746v1.026h0.996v1.171h0.59  v-1.171h0.936v-1.026h0.811v-1.416h0.641v-1.201h0.589v1.211h0.642v1.416h0.8v1.025h0.966v1.161h0.59v-1.161h0.966v-1.025h0.746  v-1.427h0.63V24.48h0.64v-1.511h-0.64v-1.455h-0.635V20H12.494z M17.241,21.243h0.585V20h-0.585V21.243z"></path><rect x="19" y="60.726" fill="#00A276" width="76" height="19.274"></rect><rect x="19" y="20" fill="#E42618" width="76" height="40.833"></rect></svg>