<svg xmlns="http://www.w3.org/2000/svg" xmlns:xlink="http://www.w3.org/1999/xlink" version="1.1" x="0px" y="0px" viewBox="700 450 100 100" enable-background="new 700 450 100 100" xml:space="preserve"><title>Flag of the People's Republic of China</title><g><path fill="#DE2910" d="M705,470v60h90v-60H705z M725.29,492.281l-5.29-3.844l-5.29,3.844l2.021-6.219l-5.29-3.844h6.539L720,476   l2.021,6.219h6.539l-5.29,3.844L725.29,492.281z M732.737,474.031l2.006,0.853l1.431-1.644l-0.191,2.171l2.006,0.853l-2.124,0.489   l-0.191,2.171l-1.121-1.869l-2.124,0.489l1.431-1.644L732.737,474.031z M735.793,499.893l-1.198-1.821l-2.102,0.577l1.362-1.702   l-1.198-1.821l2.04,0.769l1.362-1.702l-0.101,2.177l2.039,0.769l-2.102,0.577L735.793,499.893z M739.678,479.307l1.518,1.564   l1.957-0.96l-1.019,1.927l1.518,1.564l-2.147-0.374l-1.019,1.927l-0.308-2.158l-2.147-0.374l1.957-0.96L739.678,479.307z    M742.849,493.363l-1.808-1.217l-1.716,1.344l0.599-2.096l-1.809-1.217l2.178-0.078l0.599-2.096l0.747,2.047l2.179-0.078   l-1.717,1.344L742.849,493.363z"></path><polygon fill="#FFDE00" points="722.02,482.219 720,476 717.979,482.219 711.44,482.219 716.73,486.063 714.71,492.281    720,488.438 725.29,492.281 723.269,486.063 728.559,482.219  "></polygon><polygon fill="#FFDE00" points="734.552,477.055 735.673,478.924 735.864,476.753 737.988,476.263 735.982,475.41 736.174,473.24    734.743,474.884 732.737,474.031 733.858,475.9 732.427,477.544  "></polygon><polygon fill="#FFDE00" points="740.177,482.798 740.486,484.956 741.505,483.029 743.652,483.403 742.134,481.838    743.153,479.911 741.196,480.871 739.678,479.307 739.987,481.465 738.03,482.425  "></polygon><polygon fill="#FFDE00" points="741.639,490.05 740.892,488.002 740.293,490.098 738.115,490.176 739.924,491.393 739.324,493.489    741.041,492.145 742.849,493.363 742.101,491.315 743.818,489.971  "></polygon><polygon fill="#FFDE00" points="735.957,496.37 736.058,494.193 734.697,495.895 732.657,495.126 733.855,496.947 732.493,498.649    734.595,498.073 735.793,499.893 735.894,497.716 737.996,497.139  "></polygon></g></svg>