<svg xmlns:svg="http://www.w3.org/2000/svg" xmlns="http://www.w3.org/2000/svg" xmlns:xlink="http://www.w3.org/1999/xlink" version="1.1" x="0px" y="0px" viewBox="350 150 100 100" enable-background="new 350 150 100 100" xml:space="preserve"><g><polygon fill="#002A8F" points="355,170 370.588,182 445,182 445,170  "></polygon><polygon fill="#002A8F" points="355,230 445,230 445,218 370.588,218  "></polygon><polygon fill="#002A8F" points="393.97,200 386.177,206 445,206 445,194 386.177,194  "></polygon><polygon fill="#FFFFFF" points="386.177,194 445,194 445,182 370.588,182  "></polygon><polygon fill="#FFFFFF" points="370.588,218 445,218 445,206 386.177,206  "></polygon><path fill="#CF142B" d="M386.177,206l7.794-6l-7.794-6l-15.588-12L355,170v12v12v12v12v12l15.588-12L386.177,206z M364.021,205.46   l1.515-4.662l-3.965-2.883h4.904l1.515-4.665l1.515,4.665h4.904l-3.965,2.883l1.515,4.662l-3.969-2.883L364.021,205.46z"></path><polygon fill="#FFFFFF" points="370.444,200.798 374.409,197.915 369.505,197.915 367.99,193.25 366.475,197.915 361.571,197.915    365.536,200.798 364.021,205.46 367.99,202.577 371.959,205.46  "></polygon></g></svg>