<svg xmlns="http://www.w3.org/2000/svg" xmlns:xlink="http://www.w3.org/1999/xlink" version="1.1" x="0px" y="0px" viewBox="0 0 100 100" enable-background="new 0 0 100 100" xml:space="preserve"><rect x="5" y="20" fill="#0062AC" width="90" height="60"></rect><rect x="5" y="49.56" fill="#FFFFFF" width="90" height="15.212"></rect><rect x="5" y="54.61" fill="#E4312B" width="90" height="5.079"></rect><polygon fill-rule="evenodd" clip-rule="evenodd" fill="#FFDF00" points="37.144,39.828 36.444,41.939 34.221,41.939 36.018,43.255   35.317,45.397 37.144,44.081 38.941,45.397 38.241,43.255 40.068,41.939 37.814,41.939 "></polygon><polygon fill-rule="evenodd" clip-rule="evenodd" fill="#FFDF00" points="28.709,42.582 28.04,44.694 25.787,44.694 27.614,46.009   26.913,48.152 28.709,46.836 30.506,48.152 29.836,46.009 31.633,44.694 29.411,44.694 "></polygon><polygon fill-rule="evenodd" clip-rule="evenodd" fill="#FFDF00" points="23.503,49.775 22.833,51.855 20.58,51.855 22.407,53.172   21.707,55.313 23.503,53.997 25.299,55.313 24.63,53.172 26.427,51.855 24.203,51.855 "></polygon><polygon fill-rule="evenodd" clip-rule="evenodd" fill="#FFDF00" points="23.533,58.618 22.833,60.762 20.61,60.762 22.407,62.077   21.707,64.188 23.533,62.872 25.331,64.188 24.63,62.046 26.427,60.762 24.204,60.762 "></polygon><polygon fill-rule="evenodd" clip-rule="evenodd" fill="#FFDF00" points="28.709,65.811 28.04,67.922 25.787,67.922 27.614,69.27   26.913,71.381 28.709,70.065 30.506,71.381 29.836,69.238 31.633,67.954 29.411,67.954 "></polygon><polygon fill-rule="evenodd" clip-rule="evenodd" fill="#FFDF00" points="37.144,68.566 36.444,70.677 34.221,70.677 36.018,72.022   35.317,74.136 37.144,72.818 38.941,74.136 38.241,71.992 40.068,70.706 37.814,70.706 "></polygon><polygon fill-rule="evenodd" clip-rule="evenodd" fill="#FFDF00" points="45.548,42.582 46.219,44.694 48.473,44.694 46.645,46.009   47.345,48.152 45.548,46.836 43.752,48.152 44.422,46.009 42.625,44.694 44.849,44.694 "></polygon><polygon fill-rule="evenodd" clip-rule="evenodd" fill="#FFDF00" points="50.756,49.775 51.425,51.855 53.679,51.855 51.852,53.172   52.552,55.313 50.756,53.997 48.959,55.313 49.629,53.172 47.832,51.855 50.055,51.855 "></polygon><polygon fill-rule="evenodd" clip-rule="evenodd" fill="#FFDF00" points="50.725,58.618 51.425,60.762 53.648,60.762 51.853,62.077   52.552,64.188 50.725,62.872 48.928,64.188 49.629,62.046 47.833,60.762 50.056,60.762 "></polygon><polygon fill-rule="evenodd" clip-rule="evenodd" fill="#FFDF00" points="45.548,65.811 46.219,67.922 48.473,67.922 46.645,69.27   47.345,71.381 45.548,70.065 43.752,71.381 44.422,69.238 42.625,67.954 44.849,67.954 "></polygon></svg>