<svg xmlns="http://www.w3.org/2000/svg" xmlns:xlink="http://www.w3.org/1999/xlink" version="1.1" x="0px" y="0px" viewBox="0 0 100 100" enable-background="new 0 0 100 100" xml:space="preserve"><polygon fill="#FFFFFF" points="5.075,20.029 53.166,50.237 4.925,80.206 "></polygon><polygon fill="#73BAE5" points="5.137,20 28.486,34.862 51.998,49.828 51.878,49.905 95,49.905 95,20 "></polygon><polygon fill="#DD2836" points="20.581,40.978 22.447,46.722 28.486,46.722 23.601,50.271 25.467,56.015 20.581,52.465   15.695,56.015 17.562,50.271 12.676,46.722 18.715,46.722 "></polygon><polygon fill="#2FB23E" points="51.878,49.905 28.536,64.87 7,78.679 7,79.914 5.074,79.914 5,79.914 5,80 95,80 95,49.905 "></polygon><polygon fill="#2FB23E" points="7,79.914 7,78.679 5.074,79.914 "></polygon></svg>