<svg xmlns="http://www.w3.org/2000/svg" xmlns:xlink="http://www.w3.org/1999/xlink" xml:space="preserve" version="1.1" style="shape-rendering:geometricPrecision;text-rendering:geometricPrecision;image-rendering:optimizeQuality;" viewBox="0 0 9000 6000" x="0px" y="0px" fill-rule="evenodd" clip-rule="evenodd"><defs><style type="text/css">
   
    .fil0 {fill:black}
    .fil3 {fill:#007A3D}
    .fil2 {fill:#CE1126}
    .fil1 {fill:white}
   
  </style></defs><g><rect class="fil0" y="4000" width="9000" height="2000"></rect><rect class="fil1" y="2000" width="9000" height="2000"></rect><rect class="fil2" width="9000" height="2000"></rect><path class="fil3" d="M2685 3686l104 -112 104 113 -105 113c-34,-39 -69,-76 -103,-114zm2417 -535c34,-33 83,-48 140,-44l43 3c1,-37 16,-142 -21,-155 -25,-8 -20,-37 10,-58 27,-17 135,-137 142,-137 8,0 6,513 6,581l117 0c0,-96 9,-589 -13,-612 -7,-8 -17,-14 -21,-14 -19,0 -5,-37 19,-53 23,-16 134,-137 142,-132 8,6 7,713 7,811l116 0 0 -826 -20 -20c-12,-11 -21,-24 -21,-30 0,-13 114,-111 133,-140 43,-65 42,-75 42,567l0 594 -886 0c4,-102 -9,-265 65,-335zm187 72l-33 0c-44,0 -84,41 -84,87l0 31 117 0c0,-39 0,-79 0,-118zm735 -686c10,-7 118,112 133,126 40,37 44,44 31,52 -41,27 -40,18 -40,332l0 294 82 0c74,0 84,-2 113,-24 18,-13 34,-21 36,-18 3,3 -2,22 -10,44 -8,21 -17,61 -19,89l-6 50 -164 2 -165 2c0,-72 -4,-940 9,-949zm-704 -39c-9,-10 -4,-11 29,-6 59,9 95,-2 128,-39l30 -33 40 16c56,22 103,-13 94,-62 -4,-19 13,-16 23,4 20,41 3,92 -35,108 -19,7 -37,8 -67,1 -37,-9 -43,-8 -59,8 -19,20 -43,32 -70,36 -31,4 -90,-6 -113,-33zm139 -127c-20,-15 -63,-91 -64,-115 -2,-21 2,-27 16,-30 23,-3 34,14 53,84 15,57 13,75 -5,61l0 0zm-3078 1343c-44,-17 -138,-134 -89,-105 37,21 111,36 138,26 97,-35 119,-176 41,-266 -15,-17 -27,-38 -27,-45 0,-8 16,-21 36,-31 51,-24 75,-115 93,-99 12,11 54,119 54,140 0,21 139,14 166,14l-13 -34c-7,-19 -19,-44 -26,-56 -12,-19 -12,-23 -1,-32 7,-5 30,-23 52,-39 33,-26 94,-129 106,-129 3,0 7,65 7,145l0 145 1038 0 0 -415 -57 -39 -59 49 0 296 -436 0c-240,0 -437,-1 -437,-3 0,-1 691,-1017 700,-1018 4,0 9,11 11,25 14,75 24,118 35,141 14,30 6,41 -31,42l-465 663c-3,8 429,5 490,5 0,-31 -1,-191 7,-203 15,-24 180,-150 192,-147 20,6 153,120 183,145l0 603 -1443 0c-19,74 -35,159 -99,207 -36,27 -118,34 -166,15l0 0zm1809 -1167c10,-7 117,111 132,125 40,37 44,44 32,52 -28,18 -36,20 -39,116 -4,168 -1,339 -1,507l79 0c71,0 84,-2 117,-23 40,-26 43,-23 23,29 -16,41 -19,91 -24,135l-328 4c0,-72 -4,-936 9,-945z"></path></g></svg>