<svg xmlns="http://www.w3.org/2000/svg" xmlns:xlink="http://www.w3.org/1999/xlink" xml:space="preserve" version="1.1" style="shape-rendering:geometricPrecision;text-rendering:geometricPrecision;image-rendering:optimizeQuality;" viewBox="0 0 9000 6000" x="0px" y="0px" fill-rule="evenodd" clip-rule="evenodd"><defs><style type="text/css">
   
    .fil1 {fill:#009933}
    .fil2 {fill:red}
    .fil0 {fill:white}
   
  </style></defs><g><rect class="fil0" y="1932" width="9000" height="2118"></rect><polygon class="fil1" points="0,1978 47,1978 47,1932 407,1932 407,1978 454,1978 454,1932 814,1932 814,1978 861,1978 861,1932 1221,1932 1221,1978 1268,1978 1268,1932 1628,1932 1628,1978 1675,1978 1675,1932 2035,1932 2035,1978 2082,1978 2082,1932 2442,1932 2442,1978 2489,1978 2489,1932 2849,1932 2849,1978 2896,1978 2896,1932 3256,1932 3256,1978 3303,1978 3303,1932 3663,1932 3663,1978 3710,1978 3710,1932 4070,1932 4070,1978 4117,1978 4117,1932 4477,1932 4477,1978 4524,1978 4524,1932 4884,1932 4884,1978 4931,1978 4931,1932 5291,1932 5291,1978 5338,1978 5338,1932 5698,1932 5698,1978 5745,1978 5745,1932 6105,1932 6105,1978 6152,1978 6152,1932 6512,1932 6512,1978 6559,1978 6559,1932 6919,1932 6919,1978 6966,1978 6966,1932 7326,1932 7326,1978 7373,1978 7373,1932 7733,1932 7733,1978 7780,1978 7780,1932 8140,1932 8140,1978 8187,1978 8187,1932 8547,1932 8547,1978 8594,1978 8594,1932 8954,1932 8954,1978 9000,1978 9000,-19 0,-19 "></polygon><path class="fil2" d="M4893 3418c375,-198 309,-813 -126,-909 228,189 381,531 126,909zm-786 0c-375,-198 -309,-813 126,-909 -228,189 -381,531 -126,909zm330 132l63 84 63 -84 0 -3c85,12 179,6 282,-24 -81,1 -158,-11 -227,-34 337,-183 415,-709 83,-971 209,315 119,683 -136,875l13 -845c-24,-12 -57,-33 -78,-62 -21,29 -54,50 -78,62l13 845c-255,-192 -346,-560 -136,-875 -333,262 -255,788 83,971 -69,23 -146,35 -227,34 103,30 197,36 282,24l0 3zm63 -1161c-69,84 -133,36 -156,-24 -59,90 82,182 156,105 73,77 214,-15 156,-105 -23,60 -87,108 -156,24z"></path><path class="fil0" d="M814 1886l0 -198 -35 0 0 163 -47 0 0 -163 -35 0 0 163 -45 0 0 -163 -35 0 0 82 -163 0 0 116 117 0 0 -35 -82 0 0 -46 128 0 0 81 197 0zm-243 -163l0 -35 -526 0 0 35 526 0zm-164 163l0 -116 -111 0 0 35 77 0 0 46 -128 0 0 -81 -200 0 0 116 35 0 0 -81 130 0 0 81 197 0zm1221 0l0 -198 -35 0 0 163 -47 0 0 -163 -35 0 0 163 -45 0 0 -163 -35 0 0 82 -163 0 0 116 117 0 0 -35 -82 0 0 -46 128 0 0 81 197 0zm-243 -163l0 -35 -526 0 0 35 526 0zm-164 163l0 -116 -111 0 0 35 77 0 0 46 -128 0 0 -81 -200 0 0 116 35 0 0 -81 130 0 0 81 197 0zm-245 -35l0 35 -35 0 0 -35 35 0zm-814 0l0 35 -35 0 0 -35 35 0zm2280 35l0 -198 -35 0 0 163 -48 0 0 -163 -34 0 0 163 -45 0 0 -163 -35 0 0 82 -163 0 0 116 117 0 0 -35 -82 0 0 -46 128 0 0 81 197 0zm-243 -163l0 -35 -526 0 0 35 526 0zm-164 163l0 -116 -111 0 0 35 76 0 0 46 -127 0 0 -81 -200 0 0 116 35 0 0 -81 130 0 0 81 197 0zm-245 -35l0 35 -35 0 0 -35 35 0zm1466 35l0 -198 -35 0 0 163 -47 0 0 -163 -35 0 0 163 -45 0 0 -163 -35 0 0 82 -163 0 0 116 117 0 0 -35 -82 0 0 -46 128 0 0 81 197 0zm-243 -163l0 -35 -526 0 0 35 526 0zm-164 163l0 -116 -111 0 0 35 76 0 0 46 -127 0 0 -81 -200 0 0 116 35 0 0 -81 130 0 0 81 197 0zm-245 -35l0 35 -35 0 0 -35 35 0zm1466 35l0 -198 -35 0 0 163 -48 0 0 -163 -34 0 0 163 -45 0 0 -163 -35 0 0 82 -163 0 0 116 117 0 0 -35 -82 0 0 -46 128 0 0 81 197 0zm-243 -163l0 -35 -526 0 0 35 526 0zm-164 163l0 -116 -111 0 0 35 76 0 0 46 -127 0 0 -81 -200 0 0 116 35 0 0 -81 130 0 0 81 197 0zm-245 -35l0 35 -35 0 0 -35 35 0zm1466 35l0 -198 -35 0 0 163 -48 0 0 -163 -34 0 0 163 -45 0 0 -163 -35 0 0 82 -163 0 0 116 117 0 0 -35 -82 0 0 -46 128 0 0 81 197 0zm-243 -163l0 -35 -526 0 0 35 526 0zm-164 163l0 -116 -111 0 0 35 76 0 0 46 -127 0 0 -81 -200 0 0 116 35 0 0 -81 130 0 0 81 197 0zm-245 -35l0 35 -35 0 0 -35 35 0zm1466 35l0 -198 -35 0 0 163 -48 0 0 -163 -35 0 0 163 -44 0 0 -163 -35 0 0 82 -163 0 0 116 117 0 0 -35 -82 0 0 -46 128 0 0 81 197 0zm-243 -163l0 -35 -526 0 0 35 526 0zm-164 163l0 -116 -111 0 0 35 76 0 0 46 -127 0 0 -81 -200 0 0 116 35 0 0 -81 130 0 0 81 197 0zm-245 -35l0 35 -35 0 0 -35 35 0zm1466 35l0 -198 -35 0 0 163 -48 0 0 -163 -35 0 0 163 -44 0 0 -163 -35 0 0 82 -163 0 0 116 117 0 0 -35 -82 0 0 -46 128 0 0 81 197 0zm-243 -163l0 -35 -526 0 0 35 526 0zm-164 163l0 -116 -111 0 0 35 76 0 0 46 -127 0 0 -81 -200 0 0 116 35 0 0 -81 130 0 0 81 197 0zm-245 -35l0 35 -35 0 0 -35 35 0zm1466 35l0 -198 -35 0 0 163 -48 0 0 -163 -35 0 0 163 -44 0 0 -163 -35 0 0 82 -163 0 0 116 117 0 0 -35 -82 0 0 -46 128 0 0 81 197 0zm-243 -163l0 -35 -526 0 0 35 526 0zm-164 163l0 -116 -111 0 0 35 76 0 0 46 -127 0 0 -81 -200 0 0 116 35 0 0 -81 130 0 0 81 197 0zm-246 -35l0 35 -34 0 0 -35 34 0zm1467 35l0 -198 -35 0 0 163 -48 0 0 -163 -35 0 0 163 -44 0 0 -163 -35 0 0 82 -163 0 0 116 116 0 0 -35 -81 0 0 -46 128 0 0 81 197 0zm-244 -163l0 -35 -525 0 0 35 525 0zm-163 163l0 -116 -111 0 0 35 76 0 0 46 -127 0 0 -81 -200 0 0 116 35 0 0 -81 130 0 0 81 197 0zm-246 -35l0 35 -34 0 0 -35 34 0zm1467 35l0 -198 -35 0 0 163 -48 0 0 -163 -35 0 0 163 -44 0 0 -163 -35 0 0 82 -163 0 0 116 117 0 0 -35 -82 0 0 -46 128 0 0 81 197 0zm-243 -163l0 -35 -526 0 0 35 526 0zm-164 163l0 -116 -112 0 0 35 77 0 0 46 -127 0 0 -81 -200 0 0 116 35 0 0 -81 130 0 0 81 197 0zm-246 -35l0 35 -34 0 0 -35 34 0z"></path><polygon class="fil2" points="0,4003 47,4003 47,4050 407,4050 407,4003 454,4003 454,4050 814,4050 814,4003 861,4003 861,4050 1221,4050 1221,4003 1268,4003 1268,4050 1628,4050 1628,4003 1675,4003 1675,4050 2035,4050 2035,4003 2082,4003 2082,4050 2442,4050 2442,4003 2489,4003 2489,4050 2849,4050 2849,4003 2896,4003 2896,4050 3256,4050 3256,4003 3303,4003 3303,4050 3663,4050 3663,4003 3710,4003 3710,4050 4070,4050 4070,4003 4117,4003 4117,4050 4477,4050 4477,4003 4524,4003 4524,4050 4884,4050 4884,4003 4931,4003 4931,4050 5291,4050 5291,4003 5338,4003 5338,4050 5698,4050 5698,4003 5745,4003 5745,4050 6105,4050 6105,4003 6152,4003 6152,4050 6512,4050 6512,4003 6559,4003 6559,4050 6919,4050 6919,4003 6966,4003 6966,4050 7326,4050 7326,4003 7373,4003 7373,4050 7733,4050 7733,4003 7780,4003 7780,4050 8140,4050 8140,4003 8187,4003 8187,4050 8547,4050 8547,4003 8594,4003 8594,4050 8954,4050 8954,4003 9000,4003 9000,6000 0,6000 "></polygon><path class="fil0" d="M814 4293l0 -198 -35 0 0 163 -47 0 0 -163 -35 0 0 163 -45 0 0 -163 -35 0 0 82 -163 0 0 116 117 0 0 -35 -82 0 0 -46 128 0 0 81 197 0zm-243 -163l0 -35 -526 0 0 35 526 0zm-164 163l0 -116 -111 0 0 35 77 0 0 46 -128 0 0 -81 -200 0 0 116 35 0 0 -81 130 0 0 81 197 0zm1221 0l0 -198 -35 0 0 163 -47 0 0 -163 -35 0 0 163 -45 0 0 -163 -35 0 0 82 -163 0 0 116 117 0 0 -35 -82 0 0 -46 128 0 0 81 197 0zm-243 -163l0 -35 -526 0 0 35 526 0zm-164 163l0 -116 -111 0 0 35 77 0 0 46 -128 0 0 -81 -200 0 0 116 35 0 0 -81 130 0 0 81 197 0zm-245 -35l0 35 -35 0 0 -35 35 0zm-814 0l0 35 -35 0 0 -35 35 0zm2280 35l0 -198 -35 0 0 163 -48 0 0 -163 -34 0 0 163 -45 0 0 -163 -35 0 0 82 -163 0 0 116 117 0 0 -35 -82 0 0 -46 128 0 0 81 197 0zm-243 -163l0 -35 -526 0 0 35 526 0zm-164 163l0 -116 -111 0 0 35 76 0 0 46 -127 0 0 -81 -200 0 0 116 35 0 0 -81 130 0 0 81 197 0zm-245 -35l0 35 -35 0 0 -35 35 0zm1466 35l0 -198 -35 0 0 163 -47 0 0 -163 -35 0 0 163 -45 0 0 -163 -35 0 0 82 -163 0 0 116 117 0 0 -35 -82 0 0 -46 128 0 0 81 197 0zm-243 -163l0 -35 -526 0 0 35 526 0zm-164 163l0 -116 -111 0 0 35 76 0 0 46 -127 0 0 -81 -200 0 0 116 35 0 0 -81 130 0 0 81 197 0zm-245 -35l0 35 -35 0 0 -35 35 0zm1466 35l0 -198 -35 0 0 163 -48 0 0 -163 -34 0 0 163 -45 0 0 -163 -35 0 0 82 -163 0 0 116 117 0 0 -35 -82 0 0 -46 128 0 0 81 197 0zm-243 -163l0 -35 -526 0 0 35 526 0zm-164 163l0 -116 -111 0 0 35 76 0 0 46 -127 0 0 -81 -200 0 0 116 35 0 0 -81 130 0 0 81 197 0zm-245 -35l0 35 -35 0 0 -35 35 0zm1466 35l0 -198 -35 0 0 163 -48 0 0 -163 -34 0 0 163 -45 0 0 -163 -35 0 0 82 -163 0 0 116 117 0 0 -35 -82 0 0 -46 128 0 0 81 197 0zm-243 -163l0 -35 -526 0 0 35 526 0zm-164 163l0 -116 -111 0 0 35 76 0 0 46 -127 0 0 -81 -200 0 0 116 35 0 0 -81 130 0 0 81 197 0zm-245 -35l0 35 -35 0 0 -35 35 0zm1466 35l0 -198 -35 0 0 163 -48 0 0 -163 -35 0 0 163 -44 0 0 -163 -35 0 0 82 -163 0 0 116 117 0 0 -35 -82 0 0 -46 128 0 0 81 197 0zm-243 -163l0 -35 -526 0 0 35 526 0zm-164 163l0 -116 -111 0 0 35 76 0 0 46 -127 0 0 -81 -200 0 0 116 35 0 0 -81 130 0 0 81 197 0zm-245 -35l0 35 -35 0 0 -35 35 0zm1466 35l0 -198 -35 0 0 163 -48 0 0 -163 -35 0 0 163 -44 0 0 -163 -35 0 0 82 -163 0 0 116 117 0 0 -35 -82 0 0 -46 128 0 0 81 197 0zm-243 -163l0 -35 -526 0 0 35 526 0zm-164 163l0 -116 -111 0 0 35 76 0 0 46 -127 0 0 -81 -200 0 0 116 35 0 0 -81 130 0 0 81 197 0zm-245 -35l0 35 -35 0 0 -35 35 0zm1466 35l0 -198 -35 0 0 163 -48 0 0 -163 -35 0 0 163 -44 0 0 -163 -35 0 0 82 -163 0 0 116 117 0 0 -35 -82 0 0 -46 128 0 0 81 197 0zm-243 -163l0 -35 -526 0 0 35 526 0zm-164 163l0 -116 -111 0 0 35 76 0 0 46 -127 0 0 -81 -200 0 0 116 35 0 0 -81 130 0 0 81 197 0zm-246 -35l0 35 -34 0 0 -35 34 0zm1467 35l0 -198 -35 0 0 163 -48 0 0 -163 -35 0 0 163 -44 0 0 -163 -35 0 0 82 -163 0 0 116 116 0 0 -35 -81 0 0 -46 128 0 0 81 197 0zm-244 -163l0 -35 -525 0 0 35 525 0zm-163 163l0 -116 -111 0 0 35 76 0 0 46 -127 0 0 -81 -200 0 0 116 35 0 0 -81 130 0 0 81 197 0zm-246 -35l0 35 -34 0 0 -35 34 0zm1467 35l0 -198 -35 0 0 163 -48 0 0 -163 -35 0 0 163 -44 0 0 -163 -35 0 0 82 -163 0 0 116 117 0 0 -35 -82 0 0 -46 128 0 0 81 197 0zm-243 -163l0 -35 -526 0 0 35 526 0zm-164 163l0 -116 -112 0 0 35 77 0 0 46 -127 0 0 -81 -200 0 0 116 35 0 0 -81 130 0 0 81 197 0zm-246 -35l0 35 -34 0 0 -35 34 0z"></path></g></svg>