<svg xmlns="http://www.w3.org/2000/svg" xmlns:xlink="http://www.w3.org/1999/xlink" version="1.1" x="0px" y="0px" viewBox="0 0 100 100" enable-background="new 0 0 100 100" xml:space="preserve"><g><g><g><rect x="5.051" y="20.056" fill="#0038A8" width="89.949" height="29.972"></rect></g><g><rect x="5.051" y="50.029" fill="#CE1126" width="89.949" height="29.971"></rect></g></g><g><path fill="#FFFFFF" d="M56.972,49.972L5,79.944V20L56.972,49.972z"></path></g><g><path fill="#FCD116" d="M8.902,26.684l0.396,2.147l-1.964,1.387l2.311,0.286l0.524,2.086l0.959-1.917l2.364,0.105l-1.631-1.61    l0.761-2.073l-1.975,1.018L8.902,26.684z"></path></g><g><path fill="#FCD116" d="M44.629,48.167l1.228,1.805l-1.238,2.06l2.229-0.67l1.322,1.698l0.104-2.141l2.206-0.855l-2.142-0.817    l-0.14-2.203l-1.396,1.727L44.629,48.167z"></path></g><g><path fill="#FCD116" d="M10.092,67.726l-0.53,2.118l-2.362,0.448l1.983,1.217l-0.387,2.116l1.667-1.346l2.107,1.076l-0.816-2.142    l1.552-1.571l-2.218,0.108L10.092,67.726z"></path></g><g><path fill="#FCD116" d="M24.312,44.219c3.248,0,5.881,2.632,5.881,5.878s-2.633,5.877-5.881,5.877c-3.247,0-5.88-2.631-5.88-5.877    S21.064,44.219,24.312,44.219z"></path></g><g><path fill="#FCD116" d="M18.563,48.865l-4.724-0.869l-0.588,0.618l5.287,0.655L18.563,48.865z"></path></g><g><path fill="#FCD116" d="M18.479,49.732l-5.802-0.431l-0.753,0.838l0.744,0.694l5.791-0.418L18.479,49.732z"></path></g><g><path fill="#FCD116" d="M18.6,51.326l-4.725,0.868l-0.588-0.618l5.287-0.654L18.6,51.326z"></path></g><g><path fill="#FCD116" d="M29.252,46.927l3.997-2.665l-0.009-0.852l-4.252,3.208L29.252,46.927z"></path></g><g><path fill="#FCD116" d="M28.709,46.246l4.466-3.729l-0.044-1.125l-1.018,0.02l-3.865,4.33L28.709,46.246z"></path></g><g><path fill="#FCD116" d="M27.512,45.185l2.787-3.911l0.853,0.035l-3.34,4.149L27.512,45.185z"></path></g><g><path fill="#FCD116" d="M27.504,55.011l2.608,4.032l0.853,0.004l-3.149-4.296L27.504,55.011z"></path></g><g><path fill="#FCD116" d="M28.193,54.479l3.666,4.515l1.127-0.027l-0.006-1.017l-4.276-3.926L28.193,54.479z"></path></g><g><path fill="#FCD116" d="M29.271,53.297l3.874,2.841l-0.047,0.852l-4.104-3.396L29.271,53.297z"></path></g><g><path fill="#FCD116" d="M25.398,44.413l0.856-4.725l-0.619-0.586l-0.642,5.287L25.398,44.413z"></path></g><g><path fill="#FCD116" d="M24.53,44.33l0.417-5.801l-0.841-0.751l-0.692,0.746l0.433,5.788L24.53,44.33z"></path></g><g><path fill="#FCD116" d="M22.937,44.455l-0.881-4.721l0.616-0.589l0.668,5.284L22.937,44.455z"></path></g><g><path fill="#FCD116" d="M25.337,55.854l0.896,4.719l-0.614,0.591l-0.685-5.282L25.337,55.854z"></path></g><g><path fill="#FCD116" d="M24.504,55.943l0.463,5.798l-0.834,0.757l-0.698-0.739l0.386-5.792L24.504,55.943z"></path></g><g><path fill="#FCD116" d="M22.875,55.832l-0.842,4.729l0.621,0.583l0.625-5.288L22.875,55.832z"></path></g><g><path fill="#FCD116" d="M21.021,45.291l-2.769-3.924l-0.853,0.03l3.32,4.166L21.021,45.291z"></path></g><g><path fill="#FCD116" d="M20.354,45.851l-3.845-4.365l-1.124,0.072l0.046,1.016l4.431,3.751L20.354,45.851z"></path></g><g><path fill="#FCD116" d="M19.324,47.075l-3.983-2.683l0.012-0.853l4.237,3.229L19.324,47.075z"></path></g><g><path fill="#FCD116" d="M21.119,55.03l-2.769,3.924l-0.852-0.029l3.319-4.166L21.119,55.03z"></path></g><g><path fill="#FCD116" d="M20.452,54.471l-3.845,4.365l-1.124-0.072l0.046-1.017l4.431-3.751L20.452,54.471z"></path></g><g><path fill="#FCD116" d="M19.423,53.247l-3.984,2.683l0.013,0.854l4.236-3.229L19.423,53.247z"></path></g><g><path fill="#FCD116" d="M30.047,48.923l4.725-0.868l0.587,0.618l-5.287,0.655L30.047,48.923z"></path></g><g><path fill="#FCD116" d="M30.132,49.79l5.802-0.431l0.753,0.838l-0.744,0.694l-5.791-0.418L30.132,49.79z"></path></g><g><path fill="#FCD116" d="M30.012,51.385l4.724,0.868l0.588-0.618l-5.287-0.654L30.012,51.385z"></path></g></g></svg>