<svg xmlns="http://www.w3.org/2000/svg" xmlns:xlink="http://www.w3.org/1999/xlink" version="1.1" x="0px" y="0px" viewBox="0 0 100 100" enable-background="new 0 0 100 100" xml:space="preserve"><rect x="45.588" y="47.692" fill="#D11242" width="49.412" height="4.615"></rect><rect x="45.588" y="38.461" fill="#D11242" width="49.412" height="4.616"></rect><rect x="45.588" y="43.077" fill="#FFFFFF" width="49.412" height="4.615"></rect><rect x="45.588" y="29.231" fill="#D11242" width="49.412" height="4.615"></rect><rect x="45.588" y="33.846" fill="#FFFFFF" width="49.412" height="4.615"></rect><rect x="45.588" y="20" fill="#D11242" width="49.412" height="4.615"></rect><rect x="45.588" y="24.615" fill="#FFFFFF" width="49.412" height="4.616"></rect><rect x="5" y="75.385" fill="#D11242" width="90" height="4.615"></rect><rect x="5" y="66.154" fill="#D11242" width="90" height="4.615"></rect><rect x="5" y="70.77" fill="#FFFFFF" width="90" height="4.615"></rect><rect x="5" y="56.923" fill="#D11242" width="90" height="4.615"></rect><rect x="5" y="61.538" fill="#FFFFFF" width="90" height="4.616"></rect><rect x="5" y="52.309" fill="#FFFFFF" width="90" height="4.614"></rect><rect x="5" y="20" fill="#003B79" width="40.588" height="32.309"></rect><polygon fill="#FFFFFF" points="7.88,21.829 7.524,23.005 6.293,23.005 7.278,23.715 6.895,24.864 7.88,24.153 8.864,24.864   8.509,23.715 9.493,23.005 8.263,23.005 "></polygon><polygon fill="#FFFFFF" points="14.824,21.829 14.44,23.005 13.237,23.005 14.222,23.715 13.839,24.864 14.824,24.153   15.807,24.864 15.424,23.715 16.408,23.005 15.206,23.005 "></polygon><polygon fill="#FFFFFF" points="21.739,21.829 21.384,23.005 20.154,23.005 21.137,23.715 20.756,24.864 21.739,24.153   22.723,24.864 22.368,23.715 23.353,23.005 22.123,23.005 "></polygon><polygon fill="#FFFFFF" points="28.683,21.829 28.3,23.005 27.07,23.005 28.081,23.715 27.699,24.864 28.683,24.153 29.667,24.864   29.285,23.715 30.269,23.005 29.065,23.005 "></polygon><polygon fill="#FFFFFF" points="35.599,21.829 35.243,23.005 34.013,23.005 34.997,23.715 34.615,24.864 35.599,24.153   36.583,24.864 36.228,23.715 37.212,23.005 35.982,23.005 "></polygon><polygon fill="#FFFFFF" points="42.542,21.829 42.16,23.005 40.93,23.005 41.941,23.715 41.559,24.864 42.542,24.153 43.527,24.864   43.144,23.715 44.128,23.005 42.925,23.005 "></polygon><polygon fill="#FFFFFF" points="7.88,28.191 7.524,29.367 6.293,29.367 7.278,30.078 6.895,31.226 7.88,30.514 8.864,31.226   8.509,30.078 9.493,29.367 8.263,29.367 "></polygon><polygon fill="#FFFFFF" points="14.824,28.191 14.44,29.367 13.237,29.367 14.222,30.078 13.839,31.226 14.824,30.514   15.807,31.226 15.424,30.078 16.408,29.367 15.206,29.367 "></polygon><polygon fill="#FFFFFF" points="21.739,28.191 21.384,29.367 20.154,29.367 21.137,30.078 20.756,31.226 21.739,30.514   22.723,31.226 22.368,30.078 23.353,29.367 22.123,29.367 "></polygon><polygon fill="#FFFFFF" points="28.683,28.191 28.3,29.367 27.07,29.367 28.081,30.078 27.699,31.226 28.683,30.514 29.667,31.226   29.285,30.078 30.269,29.367 29.065,29.367 "></polygon><polygon fill="#FFFFFF" points="35.599,28.191 35.243,29.367 34.013,29.367 34.997,30.078 34.615,31.226 35.599,30.514   36.583,31.226 36.228,30.078 37.212,29.367 35.982,29.367 "></polygon><polygon fill="#FFFFFF" points="42.542,28.191 42.16,29.367 40.93,29.367 41.941,30.078 41.559,31.226 42.542,30.514 43.527,31.226   43.144,30.078 44.128,29.367 42.925,29.367 "></polygon><polygon fill="#FFFFFF" points="7.88,34.553 7.524,35.702 6.293,35.702 7.278,36.44 6.895,37.589 7.88,36.878 8.864,37.589   8.509,36.413 9.493,35.729 8.263,35.729 "></polygon><polygon fill="#FFFFFF" points="14.824,34.553 14.44,35.702 13.237,35.702 14.222,36.44 13.839,37.589 14.824,36.878 15.807,37.589   15.424,36.413 16.408,35.729 15.206,35.729 "></polygon><polygon fill="#FFFFFF" points="21.739,34.553 21.384,35.702 20.154,35.702 21.137,36.44 20.756,37.589 21.739,36.878   22.723,37.589 22.368,36.413 23.353,35.729 22.123,35.729 "></polygon><polygon fill="#FFFFFF" points="28.683,34.553 28.3,35.702 27.07,35.702 28.081,36.44 27.699,37.589 28.683,36.878 29.667,37.589   29.285,36.413 30.269,35.729 29.065,35.729 "></polygon><polygon fill="#FFFFFF" points="35.599,34.553 35.243,35.702 34.013,35.702 34.997,36.44 34.615,37.589 35.599,36.878   36.583,37.589 36.228,36.413 37.212,35.729 35.982,35.729 "></polygon><polygon fill="#FFFFFF" points="42.542,34.553 42.16,35.702 40.93,35.702 41.941,36.44 41.559,37.589 42.542,36.878 43.527,37.589   43.144,36.413 44.128,35.729 42.925,35.729 "></polygon><polygon fill="#FFFFFF" points="7.88,40.916 7.524,42.063 6.293,42.063 7.278,42.803 6.895,43.951 7.88,43.239 8.864,43.951   8.509,42.774 9.493,42.063 8.263,42.063 "></polygon><polygon fill="#FFFFFF" points="14.824,40.916 14.44,42.063 13.237,42.063 14.222,42.803 13.839,43.951 14.824,43.239   15.807,43.951 15.424,42.774 16.408,42.063 15.206,42.063 "></polygon><polygon fill="#FFFFFF" points="21.739,40.916 21.384,42.063 20.154,42.063 21.137,42.803 20.756,43.951 21.739,43.239   22.723,43.951 22.368,42.774 23.353,42.063 22.123,42.063 "></polygon><polygon fill="#FFFFFF" points="28.683,40.916 28.3,42.063 27.07,42.063 28.081,42.803 27.699,43.951 28.683,43.239 29.667,43.951   29.285,42.774 30.269,42.063 29.065,42.063 "></polygon><polygon fill="#FFFFFF" points="35.599,40.916 35.243,42.063 34.013,42.063 34.997,42.803 34.615,43.951 35.599,43.239   36.583,43.951 36.228,42.774 37.212,42.063 35.982,42.063 "></polygon><polygon fill="#FFFFFF" points="42.542,40.916 42.16,42.063 40.93,42.063 41.941,42.803 41.559,43.951 42.542,43.239 43.527,43.951   43.144,42.774 44.128,42.063 42.925,42.063 "></polygon><polygon fill="#FFFFFF" points="7.88,47.278 7.524,48.427 6.293,48.427 7.278,49.138 6.895,50.312 7.88,49.574 8.864,50.312   8.509,49.138 9.493,48.427 8.263,48.427 "></polygon><polygon fill="#FFFFFF" points="14.824,47.278 14.44,48.427 13.237,48.427 14.222,49.138 13.839,50.312 14.824,49.574   15.807,50.312 15.424,49.138 16.408,48.427 15.206,48.427 "></polygon><polygon fill="#FFFFFF" points="21.739,47.278 21.384,48.427 20.154,48.427 21.137,49.138 20.756,50.312 21.739,49.574   22.723,50.312 22.368,49.138 23.353,48.427 22.123,48.427 "></polygon><polygon fill="#FFFFFF" points="28.683,47.278 28.3,48.427 27.07,48.427 28.081,49.138 27.699,50.312 28.683,49.574 29.667,50.312   29.285,49.138 30.269,48.427 29.065,48.427 "></polygon><polygon fill="#FFFFFF" points="35.599,47.278 35.243,48.427 34.013,48.427 34.997,49.138 34.615,50.312 35.599,49.574   36.583,50.312 36.228,49.138 37.212,48.427 35.982,48.427 "></polygon><polygon fill="#FFFFFF" points="42.542,47.278 42.16,48.427 40.93,48.427 41.941,49.138 41.559,50.312 42.542,49.574 43.527,50.312   43.144,49.138 44.128,48.427 42.925,48.427 "></polygon><polygon fill="#FFFFFF" points="11.352,44.111 10.996,45.259 9.766,45.259 10.75,45.998 10.367,47.146 11.352,46.434 12.335,47.146   11.953,45.97 12.965,45.287 11.735,45.287 "></polygon><polygon fill="#FFFFFF" points="18.295,44.111 17.912,45.259 16.682,45.259 17.693,45.998 17.311,47.146 18.295,46.434   19.279,47.146 18.896,45.97 19.881,45.287 18.651,45.287 "></polygon><polygon fill="#FFFFFF" points="25.211,44.111 24.856,45.259 23.625,45.259 24.609,45.998 24.228,47.146 25.211,46.434   26.195,47.146 25.813,45.97 26.824,45.287 25.594,45.287 "></polygon><polygon fill="#FFFFFF" points="32.155,44.111 31.772,45.259 30.542,45.259 31.553,45.998 31.171,47.146 32.155,46.434   33.139,47.146 32.756,45.97 33.741,45.287 32.511,45.287 "></polygon><polygon fill="#FFFFFF" points="39.071,44.111 38.688,45.259 37.485,45.259 38.469,45.998 38.087,47.146 39.071,46.434   40.055,47.146 39.673,45.97 40.684,45.287 39.454,45.287 "></polygon><polygon fill="#FFFFFF" points="11.352,37.748 10.996,38.896 9.766,38.896 10.75,39.608 10.367,40.783 11.352,40.044 12.335,40.783   11.953,39.608 12.965,38.896 11.735,38.896 "></polygon><polygon fill="#FFFFFF" points="18.295,37.748 17.912,38.896 16.682,38.896 17.693,39.608 17.311,40.783 18.295,40.044   19.279,40.783 18.896,39.608 19.881,38.896 18.651,38.896 "></polygon><polygon fill="#FFFFFF" points="25.211,37.748 24.856,38.896 23.625,38.896 24.609,39.608 24.228,40.783 25.211,40.044   26.195,40.783 25.813,39.608 26.824,38.896 25.594,38.896 "></polygon><polygon fill="#FFFFFF" points="32.155,37.748 31.772,38.896 30.542,38.896 31.553,39.608 31.171,40.783 32.155,40.044   33.139,40.783 32.756,39.608 33.741,38.896 32.511,38.896 "></polygon><polygon fill="#FFFFFF" points="39.071,37.748 38.688,38.896 37.485,38.896 38.469,39.608 38.087,40.783 39.071,40.044   40.055,40.783 39.673,39.608 40.684,38.896 39.454,38.896 "></polygon><polygon fill="#FFFFFF" points="11.352,31.359 10.996,32.534 9.766,32.534 10.75,33.246 10.367,34.394 11.352,33.683 12.335,34.394   11.953,33.246 12.965,32.534 11.735,32.534 "></polygon><polygon fill="#FFFFFF" points="18.295,31.359 17.912,32.534 16.682,32.534 17.693,33.246 17.311,34.394 18.295,33.683   19.279,34.394 18.896,33.246 19.881,32.534 18.651,32.534 "></polygon><polygon fill="#FFFFFF" points="25.211,31.359 24.856,32.534 23.625,32.534 24.609,33.246 24.228,34.394 25.211,33.683   26.195,34.394 25.813,33.246 26.824,32.534 25.594,32.534 "></polygon><polygon fill="#FFFFFF" points="32.155,31.359 31.772,32.534 30.542,32.534 31.553,33.246 31.171,34.394 32.155,33.683   33.139,34.394 32.756,33.246 33.741,32.534 32.511,32.534 "></polygon><polygon fill="#FFFFFF" points="39.071,31.359 38.688,32.534 37.485,32.534 38.469,33.246 38.087,34.394 39.071,33.683   40.055,34.394 39.673,33.246 40.684,32.534 39.454,32.534 "></polygon><polygon fill="#FFFFFF" points="11.352,24.998 10.996,26.172 9.766,26.172 10.75,26.883 10.367,28.031 11.352,27.32 12.335,28.031   11.953,26.857 12.965,26.172 11.735,26.172 "></polygon><polygon fill="#FFFFFF" points="18.295,24.998 17.912,26.172 16.682,26.172 17.693,26.883 17.311,28.031 18.295,27.32   19.279,28.031 18.896,26.857 19.881,26.172 18.651,26.172 "></polygon><polygon fill="#FFFFFF" points="25.211,24.998 24.856,26.172 23.625,26.172 24.609,26.883 24.228,28.031 25.211,27.32   26.195,28.031 25.813,26.857 26.824,26.172 25.594,26.172 "></polygon><polygon fill="#FFFFFF" points="32.155,24.998 31.772,26.172 30.542,26.172 31.553,26.883 31.171,28.031 32.155,27.32   33.139,28.031 32.756,26.857 33.741,26.172 32.511,26.172 "></polygon><polygon fill="#FFFFFF" points="39.071,24.998 38.688,26.172 37.485,26.172 38.469,26.883 38.087,28.031 39.071,27.32   40.055,28.031 39.673,26.857 40.684,26.172 39.454,26.172 "></polygon></svg>