<svg xmlns:x="http://ns.adobe.com/Extensibility/1.0/" xmlns:i="http://ns.adobe.com/AdobeIllustrator/10.0/" xmlns:graph="http://ns.adobe.com/Graphs/1.0/" xmlns="http://www.w3.org/2000/svg" xmlns:xlink="http://www.w3.org/1999/xlink" version="1.1" x="0px" y="0px" viewBox="0 0 100 125" enable-background="new 0 0 100 100" xml:space="preserve"><metadata><sfw xmlns="http://ns.adobe.com/SaveForWeb/1.0/"><slices/><sliceSourceBounds height="60" width="90" x="-35.5" y="-19.5" bottomLeftOrigin="true"/></sfw></metadata><rect x="5" y="20" fill="#FCD116" width="90" height="20"/><rect x="5" y="40" fill="#003893" width="90" height="20"/><rect x="5" y="60" fill="#CE1126" width="90" height="20"/><polygon fill="#FFFFFF" points="33.854,58.236 32.382,57.116 30.91,58.239 31.472,56.418 30,55.297 31.819,55.297 32.38,53.478   32.942,55.295 34.762,55.294 33.291,56.418 "/><polygon fill="#FFFFFF" points="68.489,58.236 67.019,57.117 65.548,58.24 66.107,56.418 64.637,55.297 66.455,55.297   67.017,53.479 67.58,55.295 69.398,55.295 67.928,56.418 "/><polygon fill="#FFFFFF" points="65.785,53.068 64.313,51.949 62.843,53.072 63.402,51.252 61.932,50.13 63.752,50.13 64.312,48.31   64.875,50.128 66.693,50.127 65.223,51.252 "/><polygon fill="#FFFFFF" points="36.481,53.068 35.01,51.948 33.539,53.071 34.1,51.252 32.628,50.13 34.447,50.13 35.009,48.31   35.571,50.128 37.391,50.127 35.919,51.252 "/><polygon fill="#FFFFFF" points="41.467,49.195 39.996,48.074 38.525,49.198 39.085,47.377 37.614,46.255 39.433,46.255   39.994,44.435 40.557,46.253 42.375,46.252 40.905,47.377 "/><polygon fill="#FFFFFF" points="47.858,46.814 46.387,45.693 44.915,46.816 45.477,44.997 44.005,43.875 45.824,43.875   46.385,42.054 46.947,43.873 48.767,43.872 47.295,44.997 "/><polygon fill="#FFFFFF" points="54.73,46.814 53.26,45.693 51.789,46.816 52.35,44.997 50.879,43.875 52.697,43.875 53.258,42.054   53.822,43.873 55.641,43.872 54.17,44.997 "/><polygon fill="#FFFFFF" points="61.435,49.376 59.964,48.256 58.491,49.379 59.053,47.559 57.582,46.438 59.4,46.438 59.962,44.617   60.523,46.436 62.344,46.435 60.871,47.559 "/><text x="0" y="115" fill="#000000" font-size="5px" font-weight="bold" font-family="'Helvetica Neue', Helvetica, Arial-Unicode, Arial, Sans-serif">Created by Víctor Mosqueda</text><text x="0" y="120" fill="#000000" font-size="5px" font-weight="bold" font-family="'Helvetica Neue', Helvetica, Arial-Unicode, Arial, Sans-serif">from the Noun Project</text></svg>